<?xml version="1.0" encoding="utf-8"?> <!-- Generator: IcoMoon.io --> <!DOCTYPE svg PUBLIC "-//W3C//DTD SVG 1.1//EN" "http://www.w3.org/Graphics/SVG/1.1/DTD/svg11.dtd"> <svg width="32" height="32" viewBox="0 0 32 32" xmlns="http://www.w3.org/2000/svg" xmlns:xlink="http://www.w3.org/1999/xlink" fill="#000000"><g><path d="M 16,32c 8.837,0, 16-7.163, 16-16S 24.837,0, 16,0S0,7.163,0,16S 7.163,32, 16,32z M 16,3 c 7.18,0, 13,5.82, 13,13s-5.82,13-13,13S 3,23.18, 3,16S 8.82,3, 16,3z M 22.003,24.398 C 20.779,22.362, 18.549,21, 16,21c-2.549,0-4.779,1.362-6.003,3.398l-2.573-1.544C 9.173,19.946, 12.359,18, 16,18 c 3.641,0, 6.827,1.946, 8.576,4.854L 22.003,24.398zM 23.97,8.758 C 24.104,9.293 23.778,9.836 23.242,9.97 C 22.692,10.109 22.039,10.349 21.463,10.637 C 21.796,10.995 22,11.473 22,12 C 22,13.105 21.105,14 20,14 C 18.895,14 18,13.105 18,12 C 18,11.963 18.001,11.927 18.003,11.891 C 18.067,10.408 19.416,9.424 20.553,8.856 C 21.638,8.313 22.712,8.041 22.757,8.030 C 23.293,7.896 23.836,8.222 23.97,8.758 ZM 8.030,8.758c 0.134-0.536, 0.677-0.862, 1.213-0.728c 0.045,0.011, 1.119,0.283, 2.205,0.826 c 1.137,0.569, 2.486,1.553, 2.55,3.036c 0.002,0.036, 0.003,0.072, 0.003,0.109c0,1.105-0.895,2-2,2s-2-0.895-2-2 c0-0.527, 0.204-1.006, 0.537-1.363c-0.575-0.288-1.228-0.528-1.779-0.667C 8.222,9.836, 7.896,9.293, 8.030,8.758z"></path></g></svg>