<?xml version="1.0" encoding="utf-8"?> <!-- Generator: IcoMoon.io --> <!DOCTYPE svg PUBLIC "-//W3C//DTD SVG 1.1//EN" "http://www.w3.org/Graphics/SVG/1.1/DTD/svg11.dtd"> <svg width="32" height="32.07600021362305" viewBox="0 0 32 32.07600021362305" xmlns="http://www.w3.org/2000/svg" xmlns:xlink="http://www.w3.org/1999/xlink" fill="#000000"><g><path d="M 24.734,17.003c-0.040-4.053, 3.305-5.996, 3.454-6.093c-1.88-2.751-4.808-3.127-5.851-3.171 c-2.492-0.252-4.862,1.467-6.127,1.467c-1.262,0-3.213-1.43-5.28-1.392c-2.716,0.040-5.221,1.579-6.619,4.012 c-2.822,4.897-0.723,12.151, 2.028,16.123c 1.344,1.944, 2.947,4.127, 5.051,4.049c 2.026-0.081, 2.793-1.311, 5.242-1.311 c 2.45,0, 3.138,1.311, 5.283,1.271c 2.18-0.041, 3.562-1.981, 4.897-3.931c 1.543-2.255, 2.179-4.439, 2.216-4.551 C 28.98,23.454, 24.776,21.843, 24.734,17.003zM 20.705,5.11C 21.822,3.755, 22.576,1.875, 22.37,0c-1.609,0.066-3.559,1.072-4.713,2.423 c-1.036,1.199-1.942,3.113-1.699,4.951C 17.754,7.515, 19.587,6.462, 20.705,5.11z"></path></g></svg>