<?xml version="1.0" encoding="utf-8"?> <!-- Generator: IcoMoon.io --> <!DOCTYPE svg PUBLIC "-//W3C//DTD SVG 1.1//EN" "http://www.w3.org/Graphics/SVG/1.1/DTD/svg11.dtd"> <svg width="32" height="33.67781448364258" viewBox="0 0 32 33.67781448364258" xmlns="http://www.w3.org/2000/svg" xmlns:xlink="http://www.w3.org/1999/xlink" fill="#000000"><g><path d="M 21.807,10.22l-2.030-2.029L 9.627,18.34c-1.682,1.681-1.682,4.408,0,6.089 c 1.681,1.681, 4.408,1.681, 6.090,0l 12.18-12.178c 2.804-2.802, 2.804-7.346,0-10.148 c-2.802-2.803-7.347-2.803-10.149,0L 4.958,14.888l 0.001,0.001c-0.009,0.009-0.019,0.018-0.027,0.026 c-3.909,3.909-3.909,10.245,0,14.153c 3.908,3.908, 10.246,3.908, 14.156,0c 0.009-0.009, 0.016-0.018, 0.026-0.027l 0.001,0.001 l 8.729-8.728l-2.031-2.029L 17.084,27.013l-0.001,0 c-0.009,0.008-0.018,0.018-0.026,0.026 c-2.784,2.783-7.312,2.783-10.096,0c-2.783-2.783-2.783-7.31,0-10.093c 0.009-0.009, 0.019-0.018, 0.028-0.026l-0.001-0.002 l 12.79-12.786c 1.679-1.679, 4.411-1.679, 6.090,0c 1.679,1.679, 1.679,4.411,0,6.089L 13.687,22.398 c-0.56,0.56-1.47,0.56-2.030,0c-0.559-0.559-0.559-1.47,0-2.029L 21.807,10.22z"></path></g></svg>