<?xml version="1.0" encoding="utf-8"?> <!-- Generator: IcoMoon.io --> <!DOCTYPE svg PUBLIC "-//W3C//DTD SVG 1.1//EN" "http://www.w3.org/Graphics/SVG/1.1/DTD/svg11.dtd"> <svg width="32" height="32" viewBox="0 0 32 32" xmlns="http://www.w3.org/2000/svg" xmlns:xlink="http://www.w3.org/1999/xlink" fill="#000000"><g><path d="M 22.121,15.145C 23.293,13.753, 24,11.958, 24,10c0-4.411-3.589-8-8-8l-4,0 l-4,0 L 6,2 l0,28 l 2,0 l 4,0 l 6,0 c 4.411,0, 8-3.589, 8-8C 26,19.095, 24.444,16.547, 22.121,15.145z M 12,6l 3.172,0 c 1.749,0, 3.172,1.794, 3.172,4 s-1.423,4-3.172,4L 12,14 L 12,6 z M 16.969,26L 12,26 L 12,18 l 4.969,0 c 1.827,0, 3.313,1.794, 3.313,4S 18.795,26, 16.969,26z"></path></g></svg>