<?xml version="1.0" encoding="utf-8"?> <!-- Generator: IcoMoon.io --> <!DOCTYPE svg PUBLIC "-//W3C//DTD SVG 1.1//EN" "http://www.w3.org/Graphics/SVG/1.1/DTD/svg11.dtd"> <svg width="32" height="32" viewBox="0 0 32 32" xmlns="http://www.w3.org/2000/svg" xmlns:xlink="http://www.w3.org/1999/xlink" fill="#000000"><g><path d="M 30,8L 22,8 L 22,6 c0-1.1-0.9-2-2-2L 12,4 c-1.1,0-2,0.9-2,2l0,2 L 2,8 c-1.1,0-2,0.9-2,2l0,18 c0,1.1, 0.9,2, 2,2l 28,0 c 1.1,0, 2-0.9, 2-2L 32,10 C 32,8.9, 31.1,8, 30,8z M 12,6.004 c 0.001-0.001, 0.002-0.003, 0.004-0.004l 7.993,0 c 0.001,0.001, 0.003,0.002, 0.004,0.004L 20,8 L 12,8 L 12,6.004 z M 30,16l-4,0 l0,3 c0,0.55-0.45,1-1,1l-2,0 c-0.55,0-1-0.45-1-1l0-3 L 10,16 l0,3 c0,0.55-0.45,1-1,1l-2,0 c-0.55,0-1-0.45-1-1l0-3 L 2,16 l0-2 l 28,0 L 30,16 z"></path></g></svg>