<?xml version="1.0" encoding="utf-8"?> <!-- Generator: IcoMoon.io --> <!DOCTYPE svg PUBLIC "-//W3C//DTD SVG 1.1//EN" "http://www.w3.org/Graphics/SVG/1.1/DTD/svg11.dtd"> <svg width="32" height="32" viewBox="0 0 32 32" xmlns="http://www.w3.org/2000/svg" xmlns:xlink="http://www.w3.org/1999/xlink" fill="#000000"><g><path d="M 16,13.188 C 14.449,13.188 13.188,14.449 13.188,16 C 13.188,17.551 14.449,18.813 16,18.813 C 17.551,18.813 18.813,17.551 18.813,16 C 18.813,14.449 17.551,13.188 16,13.188 Z M 16,10 L 16,10 C 19.314,10 22,12.686 22,16 C 22,19.314 19.314,22 16,22 C 12.686,22 10,19.314 10,16 C 10,12.686 12.686,10 16,10 ZM 27.414,24.586 C 28.195,25.367 28.195,26.633 27.414,27.414 C 26.633,28.195 25.367,28.195 24.586,27.414 L 22.586,25.414 C 21.805,24.633 21.805,23.367 22.586,22.586 C 23.367,21.805 24.633,21.805 25.414,22.586 L 27.414,24.586 ZM 9.414,6.586 C 10.195,7.367 10.195,8.633 9.414,9.414 C 8.633,10.195 7.367,10.195 6.586,9.414 L 4.586,7.414 C 3.805,6.633 3.805,5.367 4.586,4.586 C 5.367,3.805 6.633,3.805 7.414,4.586 L 9.414,6.586 ZM 24.586,4.586 C 25.367,3.805 26.633,3.805 27.414,4.586 C 28.195,5.367 28.195,6.633 27.414,7.414 L 25.414,9.414 C 24.633,10.195 23.367,10.195 22.586,9.414 C 21.805,8.633 21.805,7.367 22.586,6.586 L 24.586,4.586 ZM 6.586,22.586 C 7.367,21.805 8.633,21.805 9.414,22.586 C 10.195,23.367 10.195,24.633 9.414,25.414 L 7.414,27.414 C 6.633,28.195 5.367,28.195 4.586,27.414 C 3.805,26.633 3.805,25.367 4.586,24.586 L 6.586,22.586 ZM 16,2 C 17.105,2 18,2.895 18,4 L 18,6 C 18,7.105 17.105,8 16,8 C 14.895,8 14,7.105 14,6 L 14,4 C 14,2.895 14.895,2 16,2 ZM 16,24 C 17.105,24 18,24.895 18,26 L 18,28 C 18,29.105 17.105,30 16,30 C 14.895,30 14,29.105 14,28 L 14,26 C 14,24.895 14.895,24 16,24 ZM 2,16 C 2,14.895 2.895,14 4,14 L 6,14 C 7.105,14 8,14.895 8,16 C 8,17.105 7.105,18 6,18 L 4,18 C 2.895,18 2,17.105 2,16 ZM 24,16 C 24,14.895 24.895,14 26,14 L 28,14 C 29.105,14 30,14.895 30,16 C 30,17.105 29.105,18 28,18 L 26,18 C 24.895,18 24,17.105 24,16 Z"></path></g></svg>