<?xml version="1.0" encoding="utf-8"?> <!-- Generator: IcoMoon.io --> <!DOCTYPE svg PUBLIC "-//W3C//DTD SVG 1.1//EN" "http://www.w3.org/Graphics/SVG/1.1/DTD/svg11.dtd"> <svg width="32.22831344604492" height="32" viewBox="0 0 32.22831344604492 32" xmlns="http://www.w3.org/2000/svg" xmlns:xlink="http://www.w3.org/1999/xlink" fill="#000000"><g><path d="M 26.476,18c 1.1,0, 2.247-0.865, 2.549-1.923l 2.901-10.154C 32.228,4.865, 31.576,4, 30.476,4L 10,4 c0-2.209-1.791-4-4-4L0,0 l0,4 l 6,0 l0,17 c0,1.657, 1.343,3, 3,3l 19,0 c 1.105,0, 2-0.895, 2-2s-0.895-2-2-2L 10,20 l0-2 L 26.476,18 z M 10,8l 18.088,0 l-1.714,6L 10,14 L 10,8 zM 12,29.5c0,1.375-1.125,2.5-2.5,2.5l-1,0 c-1.375,0-2.5-1.125-2.5-2.5l0-1 c0-1.375, 1.125-2.5, 2.5-2.5l 1,0 c 1.375,0, 2.5,1.125, 2.5,2.5L 12,29.5 zM 30,29.5c0,1.375-1.125,2.5-2.5,2.5l-1,0 c-1.375,0-2.5-1.125-2.5-2.5l0-1 c0-1.375, 1.125-2.5, 2.5-2.5l 1,0 c 1.375,0, 2.5,1.125, 2.5,2.5L 30,29.5 z"></path></g></svg>