<?xml version="1.0" encoding="utf-8"?> <!-- Generator: IcoMoon.io --> <!DOCTYPE svg PUBLIC "-//W3C//DTD SVG 1.1//EN" "http://www.w3.org/Graphics/SVG/1.1/DTD/svg11.dtd"> <svg width="32.22650146484375" height="32" viewBox="0 0 32.22650146484375 32" xmlns="http://www.w3.org/2000/svg" xmlns:xlink="http://www.w3.org/1999/xlink" fill="#000000"><g><path d="M 30.549,6.077c-1.062-0.303-2.169,0.312-2.473,1.374L 27.92,8L 9.266,8 l-0.281-2.248 C 8.859,4.751, 8.009,4, 7,4L 2,4 C 0.895,4,0,4.895,0,6s 0.895,2, 2,2l 3.234,0 l 1.781,14.248 C 7.141,23.249, 7.991,24, 9,24l 17,0 c 0.893,0, 1.678-0.592, 1.923-1.451l 4-14 C 32.227,7.487, 31.611,6.38, 30.549,6.077z M 16,16l0-2 l 4,0 l0,2 L 16,16 z M 20,18l0,2 L 16,20 l0-2 L 20,18 z M 16,12l0-2 l 4,0 l0,2 L 16,12 z M 9.516,10L 14,10 l0,2 l-4.234,0 L 9.516,10z M 10.016,14L 14,14 l0,2 l-3.734,0 L 10.016,14z M 10.516,18L 14,18 l0,2 l-3.234,0 L 10.516,18z M 24.491,20l-2.491,0 l0-2 l 3.063,0 L 24.491,20z M 25.634,16l-3.634,0 l0-2 l 4.206,0 L 25.634,16z M 26.777,12l-4.777,0 l0-2 l 5.349,0 L 26.777,12zM 8,29A3,3 2520 1 0 14,29A3,3 2520 1 0 8,29zM 20,29A3,3 2520 1 0 26,29A3,3 2520 1 0 20,29z"></path></g></svg>