<?xml version="1.0" encoding="utf-8"?> <!-- Generator: IcoMoon.io --> <!DOCTYPE svg PUBLIC "-//W3C//DTD SVG 1.1//EN" "http://www.w3.org/Graphics/SVG/1.1/DTD/svg11.dtd"> <svg width="32" height="32" viewBox="0 0 32 32" xmlns="http://www.w3.org/2000/svg" xmlns:xlink="http://www.w3.org/1999/xlink" fill="#000000"><g><path d="M 32,20.548c0-2.565-1.771-4.716-4.156-5.296C 27.743,11.23, 24.455,8, 20.411,8 c-2.369,0-4.477,1.109-5.839,2.835c-0.764-0.987-1.959-1.624-3.303-1.624c-2.307,0-4.176,1.871-4.176,4.179 c0,0.201, 0.015,0.399, 0.043,0.592c-0.351-0.063-0.711-0.098-1.080-0.098C 2.71,13.885,0,16.597,0,19.942 C0,23.288, 2.71,26, 6.054,26l 20.508,0 l0-0 C 29.567,25.994, 32,23.555, 32,20.548z"></path></g></svg>