<?xml version="1.0" encoding="utf-8"?> <!-- Generator: IcoMoon.io --> <!DOCTYPE svg PUBLIC "-//W3C//DTD SVG 1.1//EN" "http://www.w3.org/Graphics/SVG/1.1/DTD/svg11.dtd"> <svg width="32" height="32" viewBox="0 0 32 32" xmlns="http://www.w3.org/2000/svg" xmlns:xlink="http://www.w3.org/1999/xlink" fill="#000000"><g><path d="M 16,0C 7.163,0,0,7.163,0,16s 7.163,16, 16,16c 8.837,0, 16-7.163, 16-16S 24.837,0, 16,0z M 22,8 c 1.105,0, 2,0.895, 2,2c0,1.105-0.895,2-2,2s-2-0.895-2-2C 20,8.895, 20.895,8, 22,8z M 10,8 c 1.105,0, 2,0.895, 2,2c0,1.105-0.895,2-2,2s-2-0.895-2-2C 8,8.895, 8.895,8, 10,8z M 21.469,25.33 c-2.591,0.943-5.466-0.397-6.409-2.988c-0.566-1.554-2.291-2.359-3.845-1.793c-1.424,0.518-2.217,2.009-1.906,3.451 l-2.027,0 c-0.289-2.266, 1.014-4.517, 3.249-5.33c 2.591-0.943, 5.466,0.397, 6.409,2.988 c 0.566,1.554, 2.291,2.359, 3.845,1.793c 1.424-0.518, 2.217-2.009, 1.906-3.451l 2.027,0 C 25.007,22.266, 23.704,24.517, 21.469,25.33z"></path></g></svg>