<?xml version="1.0" encoding="utf-8"?> <!-- Generator: IcoMoon.io --> <!DOCTYPE svg PUBLIC "-//W3C//DTD SVG 1.1//EN" "http://www.w3.org/Graphics/SVG/1.1/DTD/svg11.dtd"> <svg width="32" height="32" viewBox="0 0 32 32" xmlns="http://www.w3.org/2000/svg" xmlns:xlink="http://www.w3.org/1999/xlink" fill="#000000"><g><path d="M 16,0C 7.163,0,0,7.163,0,16s 7.163,16, 16,16s 16-7.163, 16-16S 24.837,0, 16,0z M 16,28 c-6.627,0-12-5.373-12-12c0-6.627, 5.373-12, 12-12c 6.627,0, 12,5.373, 12,12C 28,22.627, 22.627,28, 16,28zM 14,8A2,2 10800 1 0 18,8A2,2 10800 1 0 14,8zM 20,10A2,2 10800 1 0 24,10A2,2 10800 1 0 20,10zM 8,10A2,2 10800 1 0 12,10A2,2 10800 1 0 8,10zM 14,22L 14,24L 18,24L 18,22L 16,12 z"></path></g></svg>