<?xml version="1.0" encoding="utf-8"?> <!-- Generator: IcoMoon.io --> <!DOCTYPE svg PUBLIC "-//W3C//DTD SVG 1.1//EN" "http://www.w3.org/Graphics/SVG/1.1/DTD/svg11.dtd"> <svg width="32" height="32" viewBox="0 0 32 32" xmlns="http://www.w3.org/2000/svg" xmlns:xlink="http://www.w3.org/1999/xlink" fill="#000000"><g><path d="M 22,6L 10,6 L0,18l0,8 c0,1.105, 0.895,2, 2,2l 28,0 c 1.105,0, 2-0.895, 2-2L 32,18 L 22,6z M 20,22L 12,22 l-2-2l 12,0 L 20,22z M 2.603,18l 8.333-10l 10.127,0 l 8.333,10L 2.603,18 zM 8.905,12L 23.095,12L 21.428,10L 10.572,10 zM 5.572,16L 26.428,16L 24.762,14L 7.238,14 z"></path></g></svg>