<?xml version="1.0" encoding="utf-8"?> <!-- Generator: IcoMoon.io --> <!DOCTYPE svg PUBLIC "-//W3C//DTD SVG 1.1//EN" "http://www.w3.org/Graphics/SVG/1.1/DTD/svg11.dtd"> <svg width="32" height="32" viewBox="0 0 32 32" xmlns="http://www.w3.org/2000/svg" xmlns:xlink="http://www.w3.org/1999/xlink" fill="#000000"><g><path d="M 16,32C 7.178,32,0,24.822,0,16S 7.178,0, 16,0 C 24.823,0, 32,7.178, 32,16S 24.823,32, 16,32z M 29.494,18.19c-0.468-0.147-4.23-1.27-8.513-0.584 c 1.788,4.912, 2.515,8.913, 2.655,9.744C 26.702,25.277, 28.884,21.993, 29.494,18.19z M 21.338,28.601 c-0.203-1.199-0.997-5.378-2.916-10.364c-0.030,0.010-0.060,0.020-0.090,0.030c-7.708,2.686-10.476,8.032-10.721,8.534 c 2.317,1.807, 5.229,2.885, 8.389,2.885C 17.893,29.687, 19.698,29.3, 21.338,28.601z M 5.847,25.159 c 0.31-0.53, 4.060-6.74, 11.109-9.019c 0.178-0.058, 0.358-0.112, 0.539-0.163c-0.343-0.776-0.717-1.554-1.108-2.319 c-6.825,2.042-13.448,1.957-14.046,1.945c-0.004,0.139-0.007,0.278-0.007,0.418C 2.333,19.531, 3.664,22.736, 5.847,25.159z M 2.622,13.222c 0.611,0.008, 6.242,0.033, 12.634-1.665c-2.264-4.025-4.707-7.41-5.067-7.904 C 6.366,5.456, 3.508,8.981, 2.622,13.222z M 12.797,2.734c 0.378,0.506, 2.86,3.886, 5.099,8 c 4.86-1.821, 6.917-4.587, 7.163-4.937c-2.413-2.141-5.587-3.444-9.059-3.444C 14.897,2.354, 13.825,2.487, 12.797,2.734z M 26.579,7.378c-0.288,0.39-2.578,3.326-7.631,5.389c 0.318,0.651, 0.623,1.313, 0.907,1.98 c 0.101,0.236, 0.199,0.471, 0.294,0.705c 4.547-0.572, 9.066,0.345, 9.516,0.44C 29.635,12.666, 28.482,9.704, 26.579,7.378z"></path></g></svg>