<?xml version="1.0" encoding="utf-8"?> <!-- Generator: IcoMoon.io --> <!DOCTYPE svg PUBLIC "-//W3C//DTD SVG 1.1//EN" "http://www.w3.org/Graphics/SVG/1.1/DTD/svg11.dtd"> <svg width="32" height="32" viewBox="0 0 32 32" xmlns="http://www.w3.org/2000/svg" xmlns:xlink="http://www.w3.org/1999/xlink" fill="#000000"><g><path d="M 27.998,19.797c-0-0.022-0.001-0.044-0.001-0.066c-0.001-0.045-0.002-0.089-0.004-0.134C 27.68,9.733, 16,0, 16,0 S 4.32,9.733, 4.007,19.598c-0.001,0.045-0.003,0.089-0.004,0.134c-0,0.022-0.001,0.044-0.001,0.066 c-0.001,0.068-0.002,0.135-0.002,0.203c0,0.074, 0.001,0.148, 0.002,0.221c 0,0.006, 0,0.012, 0,0.018 C 4.13,26.756, 9.453,32, 16,32c 6.547,0, 11.87-5.244, 11.997-11.761c 0-0.006, 0-0.012, 0-0.018 c 0.001-0.074, 0.002-0.147, 0.002-0.221C 28,19.932, 27.999,19.864, 27.998,19.797z M 23.998,20.148l-0,0.013 c-0.041,2.103-0.892,4.073-2.395,5.548C 20.099,27.186, 18.109,28, 16,28c-0.389,0-0.775-0.028-1.154-0.082 c 4.346-2.589, 7.257-7.335, 7.257-12.76c0-0.608-0.037-1.207-0.108-1.796c 1.258,2.311, 1.94,4.463, 2,6.363 l 0,0.004c 0.001,0.030, 0.002,0.059, 0.002,0.089l 0.001,0.045C 23.999,19.909, 24,19.954, 24,20 C 24,20.049, 23.999,20.099, 23.998,20.148z"></path></g></svg>