<?xml version="1.0" encoding="utf-8"?> <!-- Generator: IcoMoon.io --> <!DOCTYPE svg PUBLIC "-//W3C//DTD SVG 1.1//EN" "http://www.w3.org/Graphics/SVG/1.1/DTD/svg11.dtd"> <svg width="32" height="32" viewBox="0 0 32 32" xmlns="http://www.w3.org/2000/svg" xmlns:xlink="http://www.w3.org/1999/xlink" fill="#000000"><g><path d="M 26.667,0L 5.334,0 C 2.4,0,0,2.4,0,5.334l0,21.332 C0,29.602, 2.4,32, 5.334,32l 21.333,0 C 29.601,32, 32,29.602, 32,26.666L 32,5.334 C 32,2.4, 29.601,0, 26.667,0z M 29.373,29.373 C 28.646,30.1, 27.685,30.5, 26.667,30.5L 5.334,30.5 c-1.018,0-1.98-0.4-2.707-1.127C 1.9,28.646, 1.5,27.685, 1.5,26.666 L 1.5,5.334 c0-1.018, 0.4-1.979, 1.128-2.707C 3.355,1.9, 4.316,1.5, 5.334,1.5l 21.333,0 c 0.222,0, 0.441,0.020, 0.655,0.057 l-6.603,9.064l-3.064-3.064c-0.431-0.431-1.005-0.669-1.616-0.669c-0.61,0-1.184,0.238-1.616,0.669l-1.391,1.391 c-0.078-0.106-0.159-0.211-0.246-0.313c-1.895-2.215-5.227-2.475-7.442-0.579c-2.215,1.895-2.475,5.227-0.579,7.442 c 0.435,0.508, 0.946,0.912, 1.501,1.212c 0.011,0.57, 0.233,1.137, 0.667,1.571L 14.423,25.771 c 0.432,0.432, 1.006,0.67, 1.616,0.67c 0.611,0, 1.185-0.238, 1.616-0.67l 7.491-7.49c 0.432-0.432, 0.67-1.006, 0.67-1.616 s-0.238-1.185-0.67-1.616l-0.862-0.862L 30.5,8.72l0,17.946 C 30.5,27.685, 30.1,28.646, 29.373,29.373z M 13.762,10.34 l 1.721-1.721c 0.148-0.148, 0.346-0.23, 0.556-0.23c 0.21,0, 0.407,0.082, 0.555,0.23l 3.231,3.231l-3.511,4.82 c-0.347,0.387-0.652,0.183-0.773,0.040c-0.041-0.049-0.865-1.127-1.93-2.524 C 14.139,12.974, 14.197,11.596, 13.762,10.34z M 15.626,21.001c0,0, 0.272,0.253, 0.572,0.009l 6.935-5.852l 0.952,0.952 c 0.148,0.148, 0.23,0.346, 0.23,0.555s-0.082,0.407-0.23,0.555L 16.594,24.711c-0.148,0.148-0.345,0.23-0.555,0.23 c-0.21,0-0.407-0.082-0.555-0.23l-7.414-7.414c 0.863,0.116, 1.752,0.020, 2.583-0.296L 15.626,21.001z"></path></g></svg>