<?xml version="1.0" encoding="utf-8"?> <!-- Generator: IcoMoon.io --> <!DOCTYPE svg PUBLIC "-//W3C//DTD SVG 1.1//EN" "http://www.w3.org/Graphics/SVG/1.1/DTD/svg11.dtd"> <svg width="32" height="32" viewBox="0 0 32 32" xmlns="http://www.w3.org/2000/svg" xmlns:xlink="http://www.w3.org/1999/xlink" fill="#000000"><g><path d="M 24.11,10c 0.566-0.403, 1.11-0.851, 1.608-1.348c 1.044-1.044, 1.742-2.328, 1.966-3.616 c 0.246-1.412-0.115-2.723-0.988-3.597c-0.697-0.697-1.641-1.065-2.73-1.065c-1.551,0-3.185,0.745-4.483,2.043 c-2.077,2.077-3.288,4.945-3.94,6.991c-0.482-2.056-1.444-4.833-3.313-6.702C 11.226,1.702, 9.944,1.188, 8.734,1.188 c-0.989,0-1.931,0.344-2.633,1.046c-1.562,1.562-1.351,4.306, 0.471,6.128c 0.65,0.65, 1.409,1.189, 2.21,1.638L 2,10 l0,8 l 2,0 l0,14 l 24,0 L 28,18 l 2,0 L 30,10 L 24.11,10 z M 21.073,4.007c 0.866-0.866, 1.948-1.384, 2.892-1.384c 0.334,0, 0.803,0.070, 1.139,0.406 c 0.813,0.813, 0.357,2.697-0.978,4.031c-1.373,1.373-3.221,2.318-4.826,2.939l-1.583,0 C 18.297,8.202, 19.344,5.736, 21.073,4.007z M 7.31,5.028c-0.022-0.285-0.002-0.82, 0.381-1.203 C 8.012,3.505, 8.435,3.438, 8.734,3.438l0,0 c 0.664,0, 1.358,0.313, 1.904,0.859c 1.058,1.058, 1.93,2.743, 2.521,4.871 c 0.016,0.058, 0.032,0.115, 0.047,0.171c-0.057-0.015-0.114-0.031-0.171-0.047c-2.128-0.591-3.813-1.462-4.871-2.521 C 7.668,6.277, 7.358,5.641, 7.31,5.028z M 14,30L 6,30 L 6,17 l 8,0 L 14,30 z M 14,16L 4,16 l0-4 l 10,0 L 14,16 z M 26,30L 18,30 L 18,17 l 8,0 L 26,30 z M 28,16L 18,16 l0-4 l 10,0 L 28,16 z"></path></g></svg>