<?xml version="1.0" encoding="utf-8"?> <!-- Generator: IcoMoon.io --> <!DOCTYPE svg PUBLIC "-//W3C//DTD SVG 1.1//EN" "http://www.w3.org/Graphics/SVG/1.1/DTD/svg11.dtd"> <svg width="32" height="32" viewBox="0 0 32 32" xmlns="http://www.w3.org/2000/svg" xmlns:xlink="http://www.w3.org/1999/xlink" fill="#000000"><g><path d="M 7.352,7.772c-1.587,0-2.953,0.525-4.096,1.575c-1.19,1.12-1.786,2.521-1.786,4.201 c0,1.12, 0.324,2.171, 0.978,3.151c 0.584,0.91, 1.193,1.494, 1.993,1.751l0,0.070 c-0.8,0.327-1.155,1.143-1.155,2.451 c0,1.004, 0.355,1.751, 1.155,2.241l0,0.070 c-2.208,0.723-3.219,2.065-3.219,4.026c0,1.704, 0.742,2.953, 2.19,3.746 C 4.556,31.685, 6.024,32, 7.798,32c 4.318,0, 6.481-1.809, 6.481-5.427c0-2.264-1.666-3.653-5.004-4.166 c-0.77-0.116-1.353-0.397-1.749-0.84c-0.303-0.303-0.454-0.607-0.454-0.91c0-0.864, 0.467-1.365, 1.401-1.506 c 1.424-0.21, 2.585-0.87, 3.484-1.978c 0.898-1.109, 1.348-2.41, 1.348-3.904c0-0.467-0.141-0.969-0.328-1.505 c 0.607-0.14, 1.033-0.269, 1.353-0.385L 14.329,7.772 c-1.408,0.56-2.718,0.84-3.839,0.84 C 9.51,8.053, 8.496,7.772, 7.352,7.772z M 7.738,25.243c 1.961,0, 2.941,0.595, 2.941,1.786 c0,1.26-0.899,1.89-2.696,1.89c-2.054,0-3.081-0.607-3.081-1.82C 4.902,25.861, 5.847,25.243, 7.738,25.243z M 7.492,16c-1.47,0-2.206-0.805-2.206-2.416c0-1.727, 0.735-2.591, 2.206-2.591c 0.7,0, 1.249,0.269, 1.645,0.805 c 0.327,0.49, 0.49,1.074, 0.49,1.751C 9.628,15.183, 8.916,16, 7.492,16zM 18.137,0c-0.677,0-1.254,0.257-1.733,0.77c-0.479,0.514-0.718,1.132-0.718,1.855 c0,0.7, 0.239,1.307, 0.718,1.821c 0.478,0.514, 1.056,0.77, 1.733,0.77c 0.653,0, 1.22-0.257, 1.698-0.77 c 0.478-0.514, 0.718-1.12, 0.718-1.821c0-0.724-0.239-1.342-0.718-1.855C 19.356,0.257, 18.79,0, 18.137,0zM 20.098,8l-3.956,0 c 0.047,0.448-0.020,1.126-0.020,2.223l0,10.889 c0,1.121, 0.067,2.024, 0.020,2.376l 3.956,0 c-0.047-0.512-0.169-1.396-0.169-2.586L 19.929,10.153 C 19.929,9.126, 20.051,8.448, 20.098,8zM 28.823,20.131c-1.027,0-1.534-0.782-1.534-2.346l0-6.457 l 1.558,0 c 0.28,0, 0.532-0.015, 0.847,0.008 c 0.315,0.023, 0.442,0.008, 0.602,0.008l0-3.343 l-3.008,0 l0-1.488 c0-0.56, 0.088-1.072, 0.158-1.392l-4.061,0 c 0.070,0.32, 0.063,0.809, 0.063,1.462L 23.449,8 l-1.76,0 l0,3.343 c 0.48-0.070, 0.909-0.105, 1.212-0.105l 0.548,0.035l0,0.018 l0,0l0,6.319 c0,1.961, 0.249,3.396, 0.739,4.306c 0.654,1.214, 1.801,1.821, 3.504,1.821c 1.214,0, 2.285-0.233, 3.085-0.7l0-3.501 C 30.137,19.933, 29.546,20.131, 28.823,20.131z"></path></g></svg>