<?xml version="1.0" encoding="utf-8"?> <!-- Generator: IcoMoon.io --> <!DOCTYPE svg PUBLIC "-//W3C//DTD SVG 1.1//EN" "http://www.w3.org/Graphics/SVG/1.1/DTD/svg11.dtd"> <svg width="32" height="32" viewBox="0 0 32 32" xmlns="http://www.w3.org/2000/svg" xmlns:xlink="http://www.w3.org/1999/xlink" fill="#000000"><g><path d="M 16,25.997c-0.599,0-1.197-0.31-1.817-0.93c-0.244-0.244-0.244-0.64,0-0.884c 0.244-0.244, 0.64-0.244, 0.884,0 C 15.448,24.565, 15.754,24.75, 16,24.75c 0.246,0, 0.552-0.185, 0.933-0.567c 0.244-0.244, 0.64-0.244, 0.884,0 c 0.244,0.244, 0.244,0.64,0,0.884C 17.197,25.687, 16.599,25.997, 16,25.997zM 0,16.422 C 0,17.981 0.133,19.394 0.4,20.662 C 0.667,21.929 1.042,23.029 1.525,23.96 C 2.008,24.891 2.619,25.707 3.358,26.408 C 4.097,27.109 4.9,27.686 5.767,28.141 C 6.633,28.595 7.625,28.962 8.742,29.243 C 9.858,29.523 10.994,29.72 12.15,29.832 C 13.306,29.944 14.578,30 15.967,30 C 17.355,30 18.63,29.944 19.792,29.832 C 20.953,29.72 22.092,29.523 23.208,29.243 C 24.325,28.962 25.319,28.595 26.192,28.141 C 27.064,27.687 27.872,27.109 28.616,26.408 C 29.361,25.707 29.975,24.891 30.458,23.96 C 30.942,23.029 31.319,21.929 31.592,20.662 C 31.864,19.394 32,17.981 32,16.422 C 32,13.629 31.133,11.223 29.4,9.204 C 29.5,8.934 29.586,8.626 29.658,8.278 C 29.73,7.93 29.8,7.44 29.866,6.806 C 29.933,6.172 29.908,5.44 29.792,4.61 C 29.675,3.78 29.456,2.933 29.133,2.070 L 28.883,2.019 C 28.717,1.985 28.444,1.996 28.067,2.053 C 27.689,2.109 27.247,2.21 26.742,2.356 C 26.236,2.501 25.583,2.79 24.783,3.222 C 23.983,3.654 23.139,4.201 22.25,4.862 C 20.739,4.403 18.656,3.921 16,3.921 C 13.345,3.921 11.256,4.402 9.733,4.862 C 8.845,4.201 7.997,3.657 7.192,3.23 C 6.386,2.804 5.742,2.512 5.258,2.355 C 4.775,2.198 4.328,2.097 3.917,2.053 C 3.506,2.008 3.242,1.994 3.125,2.010 C 3.008,2.027 2.922,2.047 2.867,2.069 C 2.544,2.933 2.322,3.78 2.2,4.61 C 2.078,5.44 2.050,6.169 2.117,6.797 C 2.183,7.426 2.256,7.919 2.333,8.278 C 2.411,8.637 2.5,8.945 2.6,9.204 C 0.867,11.211 0,13.617 0,16.422 Z M 4.267,19.981 C 4.267,18.168 4.933,16.524 6.267,15.048 C 6.667,14.598 7.131,14.257 7.658,14.026 C 8.186,13.795 8.786,13.663 9.458,13.632 C 10.131,13.601 10.772,13.607 11.383,13.651 C 11.995,13.695 12.75,13.754 13.65,13.829 C 14.55,13.904 15.328,13.942 15.983,13.942 C 16.639,13.942 17.417,13.904 18.317,13.829 C 19.217,13.754 19.972,13.695 20.583,13.651 C 21.195,13.607 21.836,13.601 22.509,13.632 C 23.181,13.664 23.784,13.795 24.317,14.026 C 24.85,14.257 25.317,14.598 25.717,15.048 C 27.050,16.524 27.717,18.168 27.717,19.981 C 27.717,21.044 27.606,21.991 27.384,22.823 C 27.161,23.655 26.881,24.352 26.542,24.914 C 26.203,25.477 25.728,25.952 25.117,26.34 C 24.506,26.728 23.914,27.028 23.342,27.24 C 22.77,27.453 22.031,27.619 21.125,27.737 C 20.22,27.856 19.409,27.928 18.692,27.953 C 17.975,27.978 17.072,27.991 15.983,27.991 C 14.895,27.991 13.995,27.978 13.283,27.953 C 12.572,27.928 11.764,27.856 10.858,27.737 C 9.953,27.619 9.214,27.453 8.642,27.24 C 8.070,27.028 7.478,26.728 6.867,26.34 C 6.256,25.952 5.781,25.477 5.442,24.914 C 5.103,24.352 4.822,23.655 4.6,22.823 C 4.378,21.991 4.267,21.044 4.267,19.981 ZM 8,19A2,3 2520 1 0 12,19A2,3 2520 1 0 8,19zM 20,19A2,3 2520 1 0 24,19A2,3 2520 1 0 20,19z"></path></g></svg>