<?xml version="1.0" encoding="utf-8"?> <!-- Generator: IcoMoon.io --> <!DOCTYPE svg PUBLIC "-//W3C//DTD SVG 1.1//EN" "http://www.w3.org/Graphics/SVG/1.1/DTD/svg11.dtd"> <svg width="32" height="32" viewBox="0 0 32 32" xmlns="http://www.w3.org/2000/svg" xmlns:xlink="http://www.w3.org/1999/xlink" fill="#000000"><g><path d="M 16,32c 8.837,0, 16-7.163, 16-16S 24.837,0, 16,0S0,7.163,0,16S 7.163,32, 16,32z M 16,3 c 7.18,0, 13,5.82, 13,13s-5.82,13-13,13S 3,23.18, 3,16S 8.82,3, 16,3zM 6,16l0,2 c0,4.4, 3.6,8, 8,8l 4,0 c 4.4,0, 8-3.6, 8-8l0-2 L 6,16 z M 12,23.656 c-0.829-0.296-1.591-0.776-2.236-1.42C 8.627,21.098, 8,19.594, 8,18l 4,0 L 12,23.656 z M 18,24l-4,0 l0-6 l 4,0 L 18,24 z M 22.236,22.236c-0.644,0.644-1.407,1.125-2.236,1.42L 20,18 l 4,0 C 24,19.594, 23.373,21.098, 22.236,22.236z M 7.042,12 C 7.042,12, 7.042,12, 7.042,12c 0.305,0, 0.566-0.221, 0.616-0.522C 7.851,10.332, 8.836,9.5, 10,9.5 s 2.149,0.832, 2.341,1.978c 0.051,0.301, 0.311,0.522, 0.616,0.522c 0.305,0, 0.566-0.221, 0.616-0.521 c 0.034-0.201, 0.051-0.404, 0.051-0.604c0-1.999-1.626-3.625-3.625-3.625s-3.625,1.626-3.625,3.625c0,0.199, 0.017,0.402, 0.051,0.604 C 6.476,11.78, 6.737,12, 7.042,12z M 19.042,12C 19.042,12, 19.042,12, 19.042,12c 0.305,0, 0.566-0.221, 0.616-0.522 C 19.851,10.332, 20.836,9.5, 22,9.5s 2.149,0.832, 2.341,1.978c 0.051,0.301, 0.311,0.522, 0.616,0.522s 0.566-0.221, 0.616-0.521 c 0.034-0.201, 0.051-0.404, 0.051-0.604c0-1.999-1.626-3.625-3.625-3.625s-3.625,1.626-3.625,3.625c0,0.199, 0.017,0.402, 0.051,0.604 C 18.476,11.78, 18.737,12, 19.042,12z"></path></g></svg>