<?xml version="1.0" encoding="utf-8"?> <!-- Generator: IcoMoon.io --> <!DOCTYPE svg PUBLIC "-//W3C//DTD SVG 1.1//EN" "http://www.w3.org/Graphics/SVG/1.1/DTD/svg11.dtd"> <svg width="32" height="32" viewBox="0 0 32 32" xmlns="http://www.w3.org/2000/svg" xmlns:xlink="http://www.w3.org/1999/xlink" fill="#000000"><g><path d="M 28,22L 28,6 c0-1.1-0.9-2-2-2L 6,4 c-1.1,0-2,0.9-2,2l0,16 L0,22 l0,6 l 32,0 l0-6 L 28,22 z M 20,26L 12,26 l0-2 l 8,0 L 20,26 z M 26,22L 6,22 L 6,6.004 c 0.001-0.001, 0.002-0.003, 0.004-0.004l 19.993,0 c 0.001,0.001, 0.003,0.002, 0.004,0.004L 26,22 z"></path></g></svg>