<?xml version="1.0" encoding="utf-8"?> <!-- Generator: IcoMoon.io --> <!DOCTYPE svg PUBLIC "-//W3C//DTD SVG 1.1//EN" "http://www.w3.org/Graphics/SVG/1.1/DTD/svg11.dtd"> <svg width="32" height="32" viewBox="0 0 32 32" xmlns="http://www.w3.org/2000/svg" xmlns:xlink="http://www.w3.org/1999/xlink" fill="#000000"><g><path d="M 16,0L0,10l 32,0 L 16,0z M 25,12l 1,2l0,12 l 4,0 L 30,14 l 1-2L 25,12 z M 17,12l 1,2l0,12 l 4,0 L 22,14 l 1-2L 17,12 z M 9,12l 1,2l0,12 l 4,0 L 14,14 l 1-2L 9,12 z M 1,12l 1,2l0,12 l 4,0 L 6,14 l 1-2L 1,12 z M 1,28L0,32l 32,0 l-1-4L 1,28 z M 18,6c0,1.105-0.895,2-2,2 c-1.105,0-2-0.895-2-2s 0.895-2, 2-2C 17.105,4, 18,4.895, 18,6z"></path></g></svg>