<?xml version="1.0" encoding="utf-8"?> <!-- Generator: IcoMoon.io --> <!DOCTYPE svg PUBLIC "-//W3C//DTD SVG 1.1//EN" "http://www.w3.org/Graphics/SVG/1.1/DTD/svg11.dtd"> <svg width="32" height="32" viewBox="0 0 32 32" xmlns="http://www.w3.org/2000/svg" xmlns:xlink="http://www.w3.org/1999/xlink" fill="#000000"><g><path d="M 16,2 C 24.837,2 32,9.163 32,18 C 32,24.025 28.669,29.271 23.75,32 L 8.25,32 C 3.33,29.271 0,24.025 0,18 C 0,9.163 7.163,2 16,2 Z M 25.060,27.060 C 27.48,24.64 28.813,21.422 28.813,18 L 26,18 L 26,16 L 28.657,16 C 28.438,14.594 27.989,13.245 27.327,12 L 24,12 L 24,10 L 26.009,10 C 25.714,9.632 25.398,9.278 25.060,8.94 C 23.615,7.496 21.887,6.439 20,5.822 L 20,8 L 18,8 L 18,5.343 C 17.344,5.24 16.676,5.188 16,5.188 C 15.324,5.188 14.656,5.24 14,5.343 L 14,8 L 12,8 L 12,5.822 C 10.113,6.439 8.385,7.496 6.94,8.94 C 6.602,9.278 6.286,9.632 5.991,10 L 8,10 L 8,12 L 4.673,12 C 4.011,13.245 3.562,14.594 3.342,16 L 6,16 L 6,18 L 3.188,18 C 3.188,21.422 4.52,24.64 6.94,27.060 C 7.275,27.395 7.625,27.708 7.989,28 L 14,28 L 15.143,12 L 16.857,12 L 18,28 L 24.011,28 C 24.375,27.708 24.725,27.394 25.060,27.060 Z"></path></g></svg>