<?xml version="1.0" encoding="utf-8"?> <!-- Generator: IcoMoon.io --> <!DOCTYPE svg PUBLIC "-//W3C//DTD SVG 1.1//EN" "http://www.w3.org/Graphics/SVG/1.1/DTD/svg11.dtd"> <svg width="32" height="32" viewBox="0 0 32 32" xmlns="http://www.w3.org/2000/svg" xmlns:xlink="http://www.w3.org/1999/xlink" fill="#000000"><g><path d="M 12,26L 32,26L 32,30L 12,30zM 12,14L 32,14L 32,18L 12,18zM 12,2L 32,2L 32,6L 12,6zM 6,0 L 6,8 L 4,8 L 4,2 L 2,2 L 2,0 ZM 4,16.438 L 4,18 L 8,18 L 8,20 L 2,20 L 2,15.438 L 6,13.563 L 6,12 L 2,12 L 2,10 L 8,10 L 8,14.563 ZM 8,22 L 8,32 L 2,32 L 2,30 L 6,30 L 6,28 L 2,28 L 2,26 L 6,26 L 6,24 L 2,24 L 2,22 Z"></path></g></svg>