<?xml version="1.0" encoding="utf-8"?> <!-- Generator: IcoMoon.io --> <!DOCTYPE svg PUBLIC "-//W3C//DTD SVG 1.1//EN" "http://www.w3.org/Graphics/SVG/1.1/DTD/svg11.dtd"> <svg width="32" height="32" viewBox="0 0 32 32" xmlns="http://www.w3.org/2000/svg" xmlns:xlink="http://www.w3.org/1999/xlink" fill="#000000"><g><path d="M 22,4l-4,0 L 18,2 c0-1.1-0.9-2-2-2l-4,0 c-1.1,0-2,0.9-2,2l0,2 L 6,4 l0,4 l 16,0 L 22,4 z M 16,4l-4,0 L 12,2.004 c 0.001-0.001, 0.002-0.002, 0.004-0.004l 3.993,0 c 0.001,0.001, 0.003,0.002, 0.004,0.004L 16,4 zM 26,10L 26,5 c0-0.55-0.45-1-1-1l-2,0 l0,2 l 1,0 l0,4 l-6,0 l-6,6l0,8 L 4,24 L 4,6 l 1,0 L 5,4 L 3,4 c-0.55,0-1,0.45-1,1l0,20 c0,0.55, 0.45,1, 1,1l 9,0 l0,6 l 20,0 L 32,10 L 26,10 z M 18,12.828L 18,16 l-3.172,0 L 18,12.828z M 30,30L 14,30 L 14,18 l 6,0 l0-6 l 10,0 L 30,30 z"></path></g></svg>