<?xml version="1.0" encoding="utf-8"?> <!-- Generator: IcoMoon.io --> <!DOCTYPE svg PUBLIC "-//W3C//DTD SVG 1.1//EN" "http://www.w3.org/Graphics/SVG/1.1/DTD/svg11.dtd"> <svg width="32" height="32" viewBox="0 0 32 32" xmlns="http://www.w3.org/2000/svg" xmlns:xlink="http://www.w3.org/1999/xlink" fill="#000000"><g><path d="M 22,12.321 L 10.611,0.931 C 12.295,0.329 14.109,0 16,0 C 18.122,0 20.147,0.414 22,1.164 L 22,12.321 ZM 24,22 L 24,2.141 C 28.782,4.908 32,10.078 32,16 C 32,18.122 31.586,20.147 30.836,22 L 24,22 ZM 10,24 L 29.859,24 C 27.092,28.782 21.922,32 16,32 C 13.878,32 11.853,31.586 10,30.836 L 10,24 ZM 13.321,7 L 0.468,19.853 C 0.163,18.619 0,17.328 0,16 C 0,9.957 3.351,4.697 8.295,1.975 L 13.321,7 ZM 8,15.679 L 8,29.859 C 5.044,28.149 2.686,25.52 1.316,22.363 L 8,15.679 Z"></path></g></svg>