<?xml version="1.0" encoding="utf-8"?> <!-- Generator: IcoMoon.io --> <!DOCTYPE svg PUBLIC "-//W3C//DTD SVG 1.1//EN" "http://www.w3.org/Graphics/SVG/1.1/DTD/svg11.dtd"> <svg width="32" height="32" viewBox="0 0 32 32" xmlns="http://www.w3.org/2000/svg" xmlns:xlink="http://www.w3.org/1999/xlink" fill="#000000"><g><path d="M 16,2c-0.752,0-1.491,0.056-2.213,0.163c-0.009-0.024-0.019-0.048-0.031-0.072c 0.401-0.313, 0.611-0.745, 0.52-1.173 C 14.159,0.369, 13.576,0, 12.825,0c-0.162,0-0.327,0.018-0.49,0.052c-0.943,0.2-1.567,0.894-1.421,1.58 c 0.089,0.417, 0.447,0.729, 0.943,0.856c-0.001,0.030-0.001,0.061, 0.001,0.092C 5.588,4.378, 1,10.153, 1,17 c0,8.284, 6.716,15, 15,15c 8.284,0, 15-6.716, 15-15C 31,8.716, 24.284,2, 16,2z M 11.403,1.528 c-0.085-0.398, 0.39-0.85, 1.036-0.987C 12.568,0.514, 12.698,0.5, 12.825,0.5c 0.501,0, 0.897,0.214, 0.962,0.522 c 0.050,0.235-0.096,0.488-0.356,0.684c-0.22-0.155-0.5-0.223-0.784-0.162c-0.283,0.060-0.511,0.235-0.649,0.464 C 11.68,1.931, 11.451,1.755, 11.403,1.528z M 24.043,25.043c-1.374,1.374-3.038,2.352-4.853,2.88l-1.325-2.149 l-0.336,2.499C 17.026,28.34, 16.516,28.375, 16,28.375c-3.038,0-5.895-1.183-8.043-3.332 c-1.374-1.374-2.352-3.038-2.88-4.853l 2.149-1.325l-2.499-0.336C 4.66,18.026, 4.625,17.516, 4.625,17 c0-3.038, 1.183-5.895, 3.332-8.043c 1.374-1.374, 3.038-2.352, 4.853-2.88l 1.325,2.149l 0.336-2.499 C 14.974,5.66, 15.484,5.625, 16,5.625c 3.038,0, 5.895,1.183, 8.043,3.332c 1.374,1.374, 2.352,3.038, 2.88,4.853 l-2.149,1.325l 2.499,0.336C 27.34,15.974, 27.375,16.484, 27.375,17C 27.375,20.038, 26.192,22.895, 24.043,25.043zM 23.778,9.222l-6.156,4.678c-0.458-0.239-0.965-0.377-1.482-0.398l-1.596-3.349l-0.096,3.708 c-0.415,0.204-0.784,0.489-1.090,0.842l-1.972-0.699l 1.44,1.517c-0.198,0.422-0.308,0.876-0.326,1.338l-3.349,1.596 l 3.711,0.096c 0.012,0.024, 0.024,0.048, 0.037,0.071l-4.678,6.156l 6.156-4.678c 0.458,0.239, 0.965,0.377, 1.482,0.398l 1.596,3.349 l 0.096-3.708c 0.415-0.204, 0.785-0.489, 1.090-0.842l 1.972,0.699l-1.44-1.517c 0.198-0.422, 0.308-0.876, 0.326-1.338 l 3.349-1.596l-3.711-0.096c-0.012-0.024-0.024-0.048-0.037-0.071L 23.778,9.222z M 16.003,13.892l0,0.108 L 16.003,13.892 L 16.003,13.892z M 15.376,14.066c 0.21-0.045, 0.42-0.066, 0.627-0.066c 0.13,0, 0.258,0.008, 0.384,0.025l 0.003,0.001 l-0-0.001c 0.273,0.036, 0.537,0.109, 0.785,0.215l-2.236,1.699l-1.699,2.236c-0.074-0.175-0.133-0.359-0.174-0.552 C 12.721,16.003, 13.756,14.41, 15.376,14.066z M 17.566,19.559L 17.566,19.559L 17.566,19.559 c-0.283,0.173-0.599,0.303-0.943,0.376c-0.21,0.045-0.42,0.066-0.627,0.066c-0.13,0-0.258-0.009-0.385-0.025l-0.002-0.001 l 0,0.001c-0.273-0.036-0.537-0.109-0.785-0.215l 2.236-1.699l 1.699-2.236c 0.074,0.175, 0.133,0.359, 0.174,0.552 C 19.206,17.654, 18.62,18.914, 17.566,19.559z"></path></g></svg>