<?xml version="1.0" encoding="utf-8"?> <!-- Generator: IcoMoon.io --> <!DOCTYPE svg PUBLIC "-//W3C//DTD SVG 1.1//EN" "http://www.w3.org/Graphics/SVG/1.1/DTD/svg11.dtd"> <svg width="32" height="32" viewBox="0 0 32 32" xmlns="http://www.w3.org/2000/svg" xmlns:xlink="http://www.w3.org/1999/xlink" fill="#000000"><g><path d="M 9.498,26.125 C 10.346,26.125 11.178,25.715 11.684,24.956 C 12.488,23.75 12.162,22.12 10.956,21.316 L 8.891,19.939 C 9.245,19.843 9.616,19.791 10,19.791 C 12.325,19.791 14.209,21.675 14.209,24 C 14.209,26.325 12.325,28.209 10,28.209 C 7.737,28.209 5.892,26.424 5.795,24.185 L 8.044,25.684 C 8.491,25.983 8.997,26.125 9.498,26.125 ZM 26.667,0 C 29.601,0 32,2.4 32,5.334 L 32,26.666 C 32,29.602 29.601,32 26.667,32 L 5.334,32 C 2.4,32 0,29.602 0,26.666 L 0,20.322 L 3.792,22.849 C 3.428,24.823 4.008,26.938 5.535,28.465 C 8.001,30.93 11.999,30.93 14.465,28.465 C 15.979,26.95 16.563,24.857 16.217,22.897 L 24,15.929 L 24,15.929 C 25.445,15.721 26.838,15.062 27.95,13.95 C 30.683,11.216 30.683,6.784 27.95,4.050 C 25.216,1.317 20.784,1.317 18.050,4.050 C 16.938,5.162 16.279,6.555 16.071,8 L 16.071,8 L 9.675,17.695 C 8.68,17.746 7.694,18.031 6.808,18.551 L 0,14.012 L 0,5.334 C 0,2.4 2.4,0 5.334,0 L 26.667,0 ZM 28,9c0-2.761-2.239-5-5-5s-5,2.239-5,5s 2.239,5, 5,5S 28,11.761, 28,9z M 20,9 c0-1.657, 1.343-3, 3-3s 3,1.343, 3,3s-1.343,3-3,3S 20,10.657, 20,9z"></path></g></svg>