<?xml version="1.0" encoding="utf-8"?> <!-- Generator: IcoMoon.io --> <!DOCTYPE svg PUBLIC "-//W3C//DTD SVG 1.1//EN" "http://www.w3.org/Graphics/SVG/1.1/DTD/svg11.dtd"> <svg width="32" height="32" viewBox="0 0 32 32" xmlns="http://www.w3.org/2000/svg" xmlns:xlink="http://www.w3.org/1999/xlink" fill="#000000"><g><path d="M 32,16 L 32,18 L 24.672,18 C 25.531,19.203 26,20.584 26,22 C 26,24.215 24.854,26.345 22.857,27.843 C 21.002,29.234 18.567,30 16,30 C 13.433,30 10.998,29.234 9.143,27.843 C 7.146,26.345 6,24.215 6,22 L 10,22 C 10,24.168 12.748,26 16,26 C 19.252,26 22,24.168 22,22 C 22,19.832 19.252,18 16,18 L 0,18 L 0,16 L 9.36,16 C 9.287,15.948 9.214,15.896 9.143,15.843 C 7.146,14.345 6,12.215 6,10 C 6,7.785 7.146,5.655 9.143,4.157 C 10.998,2.766 13.433,2 16,2 C 18.567,2 21.002,2.766 22.857,4.157 C 24.854,5.655 26,7.785 26,10 L 22,10 C 22,7.832 19.252,6 16,6 C 12.748,6 10,7.832 10,10 C 10,12.168 12.748,14 16,14 C 18.468,14 20.814,14.709 22.64,16 L 32,16 Z"></path></g></svg>