<?xml version="1.0" encoding="utf-8"?> <!-- Generator: IcoMoon.io --> <!DOCTYPE svg PUBLIC "-//W3C//DTD SVG 1.1//EN" "http://www.w3.org/Graphics/SVG/1.1/DTD/svg11.dtd"> <svg width="32" height="32" viewBox="0 0 32 32" xmlns="http://www.w3.org/2000/svg" xmlns:xlink="http://www.w3.org/1999/xlink" fill="#000000"><g><path d="M 16,0C 7.163,0,0,7.163,0,16s 7.163,16, 16,16s 16-7.163, 16-16S 24.837,0, 16,0z M 10,16 c0-3.314, 2.686-6, 6-6s 6,2.686, 6,6s-2.686,6-6,6S 10,19.314, 10,16z M 28.937,21.359L 28.937,21.359l-5.544-2.297 C 23.784,18.119, 24,17.085, 24,16s-0.216-2.119-0.608-3.062l 3.816-1.581l 1.728-0.716C 29.622,12.292, 30,14.102, 30,16 C 30,17.898, 29.621,19.708, 28.937,21.359L 28.937,21.359z M 21.359,3.063L 21.359,3.063L 21.359,3.063l-2.297,5.544 C 18.119,8.216, 17.085,8, 16,8s-2.119,0.216-3.062,0.608l-1.077-2.6l-1.22-2.945C 12.292,2.379, 14.102,2, 16,2 C 17.898,2, 19.708,2.379, 21.359,3.063z M 3.063,10.641l 2.945,1.22l 2.6,1.077C 8.216,13.881, 8,14.915, 8,16 s 0.216,2.119, 0.608,3.062l-5.544,2.297C 2.379,19.708, 2,17.898, 2,16C 2,14.102, 2.379,12.292, 3.063,10.641z M 10.641,28.937l 0.716-1.728l 1.581-3.816C 13.881,23.784, 14.915,24, 16,24s 2.119-0.216, 3.062-0.608l 2.297,5.544l0,0l0,0 C 19.708,29.621, 17.898,30, 16,30C 14.102,30, 12.292,29.621, 10.641,28.937z"></path></g></svg>