<?xml version="1.0" encoding="utf-8"?> <!-- Generator: IcoMoon.io --> <!DOCTYPE svg PUBLIC "-//W3C//DTD SVG 1.1//EN" "http://www.w3.org/Graphics/SVG/1.1/DTD/svg11.dtd"> <svg width="32" height="32" viewBox="0 0 32 32" xmlns="http://www.w3.org/2000/svg" xmlns:xlink="http://www.w3.org/1999/xlink" fill="#000000"><g><path d="M 20,4.581l0,4.249 c 1.131,0.494, 2.172,1.2, 3.071,2.099C 24.96,12.818, 26,15.329, 26,18 s-1.040,5.182-2.929,7.071C 21.182,26.96, 18.671,28, 16,28s-5.182-1.040-7.071-2.929 C 7.040,23.182, 6,20.671, 6,18s 1.040-5.182, 2.929-7.071c 0.899-0.899, 1.94-1.606, 3.071-2.099L 12,4.581 C 6.217,6.302, 2,11.658, 2,18c0,7.732, 6.268,14, 14,14c 7.732,0, 14-6.268, 14-14 C 30,11.658, 25.783,6.302, 20,4.581zM 14,0L 18,0L 18,16L 14,16z"></path></g></svg>