<?xml version="1.0" encoding="utf-8"?> <!-- Generator: IcoMoon.io --> <!DOCTYPE svg PUBLIC "-//W3C//DTD SVG 1.1//EN" "http://www.w3.org/Graphics/SVG/1.1/DTD/svg11.dtd"> <svg width="32" height="32" viewBox="0 0 32 32" xmlns="http://www.w3.org/2000/svg" xmlns:xlink="http://www.w3.org/1999/xlink" fill="#000000"><g><path d="M0,6l0,22 l 32,0 L 32,6 L0,6 z M 12,20l0-4 l 8,0 l0,4 L 12,20 z M 20,22l0,4 L 12,26 l0-4 L 20,22 z M 20,10l0,4 L 12,14 l0-4 L 20,10 z M 10,10l0,4 L 2,14 l0-4 L 10,10 z M 2,16l 8,0 l0,4 L 2,20 L 2,16 z M 22,16l 8,0 l0,4 L 22,20 L 22,16 z M 22,14l0-4 l 8,0 l0,4 L 22,14 z M 2,22l 8,0 l0,4 L 2,26 L 2,22 z M 22,26l0-4 l 8,0 l0,4 L 22,26 z"></path></g></svg>