<?xml version="1.0" encoding="utf-8"?> <!-- Generator: IcoMoon.io --> <!DOCTYPE svg PUBLIC "-//W3C//DTD SVG 1.1//EN" "http://www.w3.org/Graphics/SVG/1.1/DTD/svg11.dtd"> <svg width="32" height="32" viewBox="0 0 32 32" xmlns="http://www.w3.org/2000/svg" xmlns:xlink="http://www.w3.org/1999/xlink" fill="#000000"><g><path d="M 32,14l-3.154,0 C 27.982,8.43, 23.57,4.018, 18,3.154L 18,0 l-4,0 l0,3.154 C 8.43,4.018, 4.018,8.43, 3.154,14L0,14 l0,4 l 3.154,0 C 4.018,23.57, 8.43,27.982, 14,28.846L 14,32 l 4,0 l0-3.154 C 23.57,27.982, 27.982,23.57, 28.846,18L 32,18 L 32,14 z M 24.776,14 L 21.658,14 c-0.603-1.705-1.953-3.056-3.658-3.658l0-3.118 C 21.36,7.99, 24.010,10.64, 24.776,14z M 16,18 c-1.105,0-2-0.895-2-2c0-1.105, 0.895-2, 2-2c 1.105,0, 2,0.895, 2,2C 18,17.105, 17.105,18, 16,18z M 14,7.224 l0,3.118 c-1.705,0.603-3.056,1.953-3.658,3.658l-3.118,0 C 7.99,10.64, 10.64,7.99, 14,7.224z M 7.224,18l 3.118,0 c 0.603,1.705, 1.953,3.056, 3.658,3.658l0,3.118 C 10.64,24.010, 7.99,21.36, 7.224,18z M 18,24.776L 18,21.658 c 1.705-0.603, 3.056-1.953, 3.658-3.658l 3.118,0 C 24.010,21.36, 21.36,24.010, 18,24.776z"></path></g></svg>