<?xml version="1.0" encoding="utf-8"?> <!-- Generator: IcoMoon.io --> <!DOCTYPE svg PUBLIC "-//W3C//DTD SVG 1.1//EN" "http://www.w3.org/Graphics/SVG/1.1/DTD/svg11.dtd"> <svg width="33.30068588256836" height="33.13718795776367" viewBox="0 0 33.30068588256836 33.13718795776367" xmlns="http://www.w3.org/2000/svg" xmlns:xlink="http://www.w3.org/1999/xlink" fill="#000000"><g><path d="M 17.739,23.029c-2.561,1.191-4.942,1.179-6.542,1.063c-1.908-0.138-3.442-0.66-4.117-1.117 c-0.416-0.281-0.981-0.173-1.262,0.243c-0.281,0.416-0.172,0.981, 0.243,1.262c 1.084,0.734, 3.002,1.28, 5.005,1.424 c 0.34,0.025, 0.712,0.040, 1.114,0.040c 1.743,0, 3.957-0.166, 6.326-1.268c 0.455-0.212, 0.652-0.752, 0.441-1.208 C 18.735,23.014, 18.194,22.817, 17.739,23.029zM 27.842,21.682c 0.087-7.896, 0.899-22.819-14.218-21.613C-1.301,1.27, 2.657,17.037, 2.434,22.317 C 2.237,25.111, 1.31,28.525,0,32l 4.034,0 c 0.415-1.473, 0.72-2.929, 0.851-4.317c 0.243,0.17, 0.503,0.334, 0.781,0.491 c 0.452,0.266, 0.84,0.62, 1.251,0.995c 0.961,0.876, 2.050,1.868, 4.178,1.992c 0.143,0.008, 0.287,0.012, 0.427,0.012 c 2.153,0, 3.625-0.942, 4.809-1.699c 0.567-0.363, 1.057-0.676, 1.518-0.827c 1.31-0.41, 2.454-1.072, 3.309-1.914 c 0.134-0.132, 0.258-0.267, 0.374-0.405c 0.476,1.746, 1.129,3.711, 1.853,5.672L 32,32 C 29.932,28.805, 27.799,25.676, 27.842,21.682z M 3.878,17.386c0-0.001,0-0.001-0-0.001 c-0.148-2.577, 1.085-4.745, 2.754-4.842c 1.669-0.097, 3.143,1.913, 3.291,4.49c0,0, 0,0.001, 0,0.001 c 0.008,0.139, 0.011,0.276, 0.012,0.413c-0.529,0.133-1.006,0.326-1.433,0.551c-0.002-0.019-0.003-0.038-0.005-0.057 c0-0,0-0.001,0-0.001c-0.143-1.463-0.924-2.567-1.745-2.467c-0.821,0.1-1.371,1.367-1.228,2.83 c0,0, 0,0.001, 0,0.001c 0.062,0.638, 0.246,1.207, 0.501,1.639c-0.064,0.050-0.243,0.182-0.45,0.333 c-0.155,0.114-0.344,0.252-0.572,0.42C 4.38,19.88, 3.954,18.708, 3.878,17.386z M 20.789,23.756 c-0.059,1.362-1.841,2.643-3.487,3.158l-0.009,0.003c-0.684,0.222-1.295,0.613-1.941,1.026 c-1.085,0.695-2.208,1.413-3.829,1.413c-0.106,0-0.215-0.003-0.323-0.009c-1.485-0.087-2.179-0.72-3.059-1.521 c-0.464-0.423-0.943-0.86-1.562-1.223l-0.013-0.008c-1.335-0.753-2.163-1.69-2.216-2.506 c-0.026-0.406, 0.154-0.757, 0.537-1.044c 0.832-0.624, 1.39-1.032, 1.759-1.302c 0.41-0.3, 0.533-0.39, 0.625-0.477 c 0.066-0.062, 0.136-0.131, 0.213-0.205c 0.764-0.743, 2.042-1.986, 4.005-1.986c 1.2,0, 2.528,0.463, 3.943,1.372 c 0.666,0.434, 1.246,0.634, 1.981,0.887c 0.505,0.174, 1.077,0.372, 1.843,0.7l 0.012,0.005 C 19.984,22.333, 20.828,22.869, 20.789,23.756z M 20.395,20.556c-0.138-0.069-0.28-0.135-0.429-0.196 c-0.691-0.295-1.245-0.496-1.704-0.656c 0.254-0.497, 0.411-1.116, 0.426-1.789c0-0,0-0.001,0-0.001 c 0.035-1.637-0.79-2.966-1.844-2.968c-1.053-0.002-1.936,1.322-1.971,2.959c0,0,0,0.001,0,0.001 c-0.001,0.054-0.001,0.107-0.001,0.16c-0.649-0.298-1.287-0.515-1.911-0.649c-0.003-0.061-0.006-0.123-0.008-0.185 c0-0.001,0-0.001,0-0.002c-0.061-2.982, 1.769-5.45, 4.086-5.513c 2.317-0.063, 4.245,2.303, 4.305,5.285 c0,0.001,0,0.001,0,0.002C 21.372,18.352, 21.011,19.594, 20.395,20.556z"></path></g></svg>