<?xml version="1.0" encoding="utf-8"?> <!-- Generator: IcoMoon.io --> <!DOCTYPE svg PUBLIC "-//W3C//DTD SVG 1.1//EN" "http://www.w3.org/Graphics/SVG/1.1/DTD/svg11.dtd"> <svg width="32" height="32" viewBox="0 0 32 32" xmlns="http://www.w3.org/2000/svg" xmlns:xlink="http://www.w3.org/1999/xlink" fill="#000000"><g><path d="M 22,2 L 26,2 L 26,15 C 26,19.971 21.523,24 16,24 C 10.477,24 6,19.971 6,15 L 6,2 L 10,2 L 10,15 C 10,16.255 10.57,17.459 11.605,18.391 C 12.758,19.428 14.319,20 16,20 C 17.681,20 19.242,19.428 20.395,18.391 C 21.43,17.459 22,16.255 22,15 L 22,2 ZM 6,26L 26,26L 26,30L 6,30z"></path></g></svg>