<?xml version="1.0" encoding="utf-8"?> <!-- Generator: IcoMoon.io --> <!DOCTYPE svg PUBLIC "-//W3C//DTD SVG 1.1//EN" "http://www.w3.org/Graphics/SVG/1.1/DTD/svg11.dtd"> <svg width="32" height="32" viewBox="0 0 32 32" xmlns="http://www.w3.org/2000/svg" xmlns:xlink="http://www.w3.org/1999/xlink" fill="#000000"><g><path d="M 4.586,19.414l 10,10c 0.781,0.781, 2.047,0.781, 2.828,0l 10-10c 0.781-0.781, 0.781-2.047,0-2.828 c-0.781-0.781-2.047-0.781-2.828,0L 18,23.172L 18,4 c0-1.105-0.895-2-2-2s-2,0.895-2,2l0,19.172 L 7.414,16.586 C 7.024,16.195, 6.512,16, 6,16s-1.024,0.195-1.414,0.586C 3.805,17.367, 3.805,18.633, 4.586,19.414z"></path></g></svg>