<?xml version="1.0" encoding="utf-8"?> <!-- Generator: IcoMoon.io --> <!DOCTYPE svg PUBLIC "-//W3C//DTD SVG 1.1//EN" "http://www.w3.org/Graphics/SVG/1.1/DTD/svg11.dtd"> <svg width="32" height="32" viewBox="0 0 32 32" xmlns="http://www.w3.org/2000/svg" xmlns:xlink="http://www.w3.org/1999/xlink" fill="#000000"><g><path d="M0,4L 4,4L 4,24L0,24zM 6,4L 8,4L 8,24L 6,24zM 10,4L 12,4L 12,24L 10,24zM 16,4L 18,4L 18,24L 16,24zM 24,4L 26,4L 26,24L 24,24zM 30,4L 32,4L 32,24L 30,24zM 20,4L 21,4L 21,24L 20,24zM 14,4L 15,4L 15,24L 14,24zM 27,4L 28,4L 28,24L 27,24zM0,26L 2,26L 2,28L0,28zM 6,26L 8,26L 8,28L 6,28zM 10,26L 12,26L 12,28L 10,28zM 20,26L 22,26L 22,28L 20,28zM 30,26L 32,26L 32,28L 30,28zM 24,26L 28,26L 28,28L 24,28zM 14,26L 18,26L 18,28L 14,28z"></path></g></svg>