<?xml version="1.0" encoding="utf-8"?> <!-- Generator: IcoMoon.io --> <!DOCTYPE svg PUBLIC "-//W3C//DTD SVG 1.1//EN" "http://www.w3.org/Graphics/SVG/1.1/DTD/svg11.dtd"> <svg width="32" height="32" viewBox="0 0 32 32" xmlns="http://www.w3.org/2000/svg" xmlns:xlink="http://www.w3.org/1999/xlink" fill="#000000"><g><path d="M 32,13.414c0-6.279-1.837-11.373-4.109-11.413c 0.009-0, 0.018-0.001, 0.027-0.001l-2.592,0 c0,0-6.088,4.573-14.851,6.367c-0.268,1.415-0.438,3.102-0.438,5.047c0,1.945, 0.171,3.631, 0.438,5.047 c 8.763,1.794, 14.851,6.367, 14.851,6.367l 2.592,0 c-0.009,0-0.018-0.001-0.027-0.001C 30.163,24.787, 32,19.693, 32,13.414 z M 27.026,23.102c-0.293,0-0.61-0.304-0.773-0.486c-0.395-0.44-0.775-1.124-1.1-1.979 c-0.727-1.913-1.127-4.478-1.127-7.223c0-2.744, 0.4-5.309, 1.127-7.223c 0.325-0.855, 0.705-1.54, 1.1-1.979 c 0.163-0.182, 0.48-0.486, 0.773-0.486c 0.293,0, 0.611,0.304, 0.773,0.486c 0.395,0.44, 0.775,1.124, 1.1,1.979 c 0.727,1.913, 1.127,4.479, 1.127,7.223c0,2.744-0.4,5.309-1.127,7.223c-0.325,0.855-0.705,1.54-1.1,1.979 C 27.636,22.797, 27.319,23.102, 27.026,23.102z M 7.869,13.414c0-1.623, 0.119-3.201, 0.345-4.659 c-1.48,0.205-2.779,0.323-4.386,0.323c-2.096,0-2.096,0-2.096,0L0,12.037l0,2.755 l 1.733,2.959c0,0,0,0, 2.096,0 c 1.606,0, 2.905,0.118, 4.386,0.323C 7.988,16.615, 7.869,15.038, 7.869,13.414z M 11.505,20.068l-4-0.766 l 2.558,10.048c 0.132,0.52, 0.648,0.782, 1.146,0.583l 3.705-1.483c 0.498-0.199, 0.698-0.749, 0.444-1.221L 11.505,20.068zM 27.026,17.148c-0.113,0-0.235-0.117-0.298-0.187c-0.152-0.169-0.299-0.433-0.424-0.763 c-0.28-0.738-0.434-1.726-0.434-2.784c0-1.058, 0.154-2.046, 0.434-2.784c 0.125-0.33, 0.272-0.593, 0.424-0.763 c 0.063-0.070, 0.185-0.187, 0.298-0.187c 0.113,0, 0.235,0.117, 0.298,0.187c 0.152,0.169, 0.299,0.433, 0.424,0.763 c 0.28,0.737, 0.434,1.726, 0.434,2.784c0,1.058-0.154,2.046-0.434,2.784c-0.125,0.33-0.272,0.593-0.424,0.763 C 27.261,17.030, 27.139,17.148, 27.026,17.148z"></path></g></svg>