<?xml version="1.0" encoding="utf-8"?> <!-- Generator: IcoMoon.io --> <!DOCTYPE svg PUBLIC "-//W3C//DTD SVG 1.1//EN" "http://www.w3.org/Graphics/SVG/1.1/DTD/svg11.dtd"> <svg width="32" height="32" viewBox="0 0 32 32" xmlns="http://www.w3.org/2000/svg" xmlns:xlink="http://www.w3.org/1999/xlink" fill="#000000"><g><path d="M 24.588,12.274c-1.845,0-3.503,0.769-4.683,2.022c-0.5,0.531-1.368,1.16-2.306,1.713 c 0.441-1.683, 1.834-3.803, 2.801-4.733c 1.239-1.193, 2-2.87, 2-4.734C 22.4,2.951, 19.541,0.038, 16,0 c-3.541,0.038-6.4,2.951-6.4,6.541c0,1.865, 0.761,3.542, 2,4.734c 0.967,0.93, 2.36,3.050, 2.801,4.733 c-0.939-0.553-1.806-1.182-2.306-1.713c-1.18-1.253-2.838-2.022-4.683-2.022c-3.575,0-6.471,2.927-6.471,6.542 c0,3.614, 2.897,6.542, 6.471,6.542c 1.845,0, 3.503-0.792, 4.683-2.045c 0.525-0.558, 1.451-1.254, 2.447-1.832 c-0.094,4.615-2.298,8.005-4.541,9.341L 10,32 l 6,0 l 6,0 l0-1.179 c-2.244-1.335-4.447-4.726-4.541-9.341 c 0.995,0.578, 1.921,1.274, 2.447,1.832c 1.18,1.253, 2.838,2.045, 4.683,2.045c 3.575,0, 6.471-2.928, 6.471-6.542 C 31.060,15.201, 28.163,12.274, 24.588,12.274z"></path></g></svg>