<?xml version="1.0" encoding="utf-8"?> <!-- Generator: IcoMoon.io --> <!DOCTYPE svg PUBLIC "-//W3C//DTD SVG 1.1//EN" "http://www.w3.org/Graphics/SVG/1.1/DTD/svg11.dtd"> <svg width="32" height="32" viewBox="0 0 32 32" xmlns="http://www.w3.org/2000/svg" xmlns:xlink="http://www.w3.org/1999/xlink" fill="#000000"><g><path d="M 16,0C 7.163,0,0,7.163,0,16s 7.163,16, 16,16c 8.837,0, 16-7.163, 16-16S 24.837,0, 16,0z M 16,26 c-1.514,0-2.95-0.337-4.236-0.94l 1.036-1.727C 13.78,23.761, 14.862,24, 16,24c 2.913,0, 5.462-1.557, 6.861-3.884 l 1.715,1.029C 22.827,24.054, 19.641,26, 16,26z M 26,12c0,1.1-0.9,2-2,2l-4,0 c-1.1,0-2-0.9-2-2l-4,0 c0,1.1-0.9,2-2,2l-4,0 c-1.1,0-2-0.9-2-2l0-3 c0-0.55, 0.45-1, 1-1l 6,0 c 0.55,0, 1,0.45, 1,1l0,1 l 4,0 l0-1 c0-0.55, 0.45-1, 1-1l 6,0 c 0.55,0, 1,0.45, 1,1L 26,12 z"></path></g></svg>