<?xml version="1.0" encoding="utf-8"?> <!-- Generator: IcoMoon.io --> <!DOCTYPE svg PUBLIC "-//W3C//DTD SVG 1.1//EN" "http://www.w3.org/Graphics/SVG/1.1/DTD/svg11.dtd"> <svg width="32" height="32" viewBox="0 0 32 32" xmlns="http://www.w3.org/2000/svg" xmlns:xlink="http://www.w3.org/1999/xlink" fill="#000000"><g><path d="M 26,8l-6,0 L 20,6 L 14,0L0,0 l0,24 l 12,0 l0,8 l 20,0 L 32,14 L 26,8z M 26,10.828L 29.172,14L 26,14 L 26,10.828 z M 14,2.828L 17.172,6L 14,6 L 14,2.828 z M 2,2l 10,0 l0,6 l 6,0 l0,14 L 2,22 L 2,2 z M 30,30L 14,30 l0-6 l 6,0 L 20,10 l 4,0 l0,6 l 6,0 L 30,30 z"></path></g></svg>