<?xml version="1.0" encoding="utf-8"?> <!-- Generator: IcoMoon.io --> <!DOCTYPE svg PUBLIC "-//W3C//DTD SVG 1.1//EN" "http://www.w3.org/Graphics/SVG/1.1/DTD/svg11.dtd"> <svg width="32" height="32" viewBox="0 0 32 32" xmlns="http://www.w3.org/2000/svg" xmlns:xlink="http://www.w3.org/1999/xlink" fill="#000000"><g><path d="M 26.668,0L 5.334,0 C 2.4,0,0,2.401,0,5.334l0,21.332 C0,29.601, 2.4,32, 5.334,32l 21.334,0 C 29.602,32, 32,29.602, 32,26.666L 32,5.334 C 32,2.401, 29.602,0, 26.668,0z M 30,26.666c0,0.885-0.348,1.721-0.98,2.354 C 28.388,29.652, 27.553,30, 26.668,30L 16,30 L 16,16 L 2,16 L 2,5.334 c0-0.885, 0.348-1.72, 0.981-2.353C 3.614,2.348, 4.449,2, 5.334,2 L 16,2 l0,14 l 14,0 L 30,26.666 z"></path></g></svg>