<?xml version="1.0" encoding="utf-8"?> <!-- Generator: IcoMoon.io --> <!DOCTYPE svg PUBLIC "-//W3C//DTD SVG 1.1//EN" "http://www.w3.org/Graphics/SVG/1.1/DTD/svg11.dtd"> <svg width="32" height="32" viewBox="0 0 32 32" xmlns="http://www.w3.org/2000/svg" xmlns:xlink="http://www.w3.org/1999/xlink" fill="#000000"><g><path d="M 26.625,0L 5.375,0 C 2.419,0,0,2.419,0,5.375l0,21.25 c0,2.956, 2.419,5.375, 5.375,5.375l 21.25,0 c 2.956,0, 5.375-2.419, 5.375-5.375L 32,5.375 C 32,2.419, 29.581,0, 26.625,0z M 30,24L 18,24 L 18,16.625 c0,0, 2.198,0.031, 3.375,1.25l0,2.125 l 4.825,0 c-0.369-1.184-1.158-2.347-2.285-3.333C 21.978,14.972, 18.815,14.125, 16,14.125l0,9.875 L 2,24 l0-3 c0-1.356, 0.458-2.704, 1.324-3.899c 0.769-1.060, 1.839-1.995, 3.183-2.779c 1.576-0.919, 3.455-1.585, 5.493-1.962L 12,8 l 4,0 l0,4 c 4.594,0, 6.925,0.825, 9.493,2.323c 1.344,0.784, 2.415,1.719, 3.183,2.779C 29.542,18.296, 30,19.644, 30,21L 30,24 zM 6.237,20 C 6.607,18.816 7.396,17.653 8.522,16.667 C 9.508,15.804 10.698,15.13 12,14.674 L 12,20 L 6.237,20 Z"></path></g></svg>