<?xml version="1.0" encoding="utf-8"?> <!-- Generator: IcoMoon.io --> <!DOCTYPE svg PUBLIC "-//W3C//DTD SVG 1.1//EN" "http://www.w3.org/Graphics/SVG/1.1/DTD/svg11.dtd"> <svg width="32" height="32" viewBox="0 0 32 32" xmlns="http://www.w3.org/2000/svg" xmlns:xlink="http://www.w3.org/1999/xlink" fill="#000000"><g><path d="M 21.569,14.74c-1.896-0.895-4.312-1.076-6.089,0.189c 2.161-0.206, 4.53,0.151, 6.097,1.785 c 1.5-1.721, 3.879-2.044, 6.030-1.867C 25.811,13.656, 23.445,13.816, 21.569,14.74zM 20.802,18.93c-2.137-0.049-4.201,0.724-5.972,1.878c-3.349-1.425-7.585-1.16-10.438,1.218 c 0.823-0.029, 1.625-0.233, 2.439-0.337c 2.974-0.296, 6.143,0.442, 8.391,2.494c 0.93-1.361, 2.239-2.445, 3.739-3.123 c 1.971-0.954, 4.192-1.053, 6.338-1.079C 23.997,19.087, 22.343,18.921, 20.802,18.93zM 28.232,6.232l-4.465-4.464C 22.796,0.795, 20.875,0, 19.5,0L 4.5,0 C 3.125,0, 2,1.125, 2,2.5l0,27 c0,1.375, 1.125,2.5, 2.5,2.5l 23,0 c 1.375,0, 2.5-1.125, 2.5-2.5L 30,10.5 C 30,9.125, 29.204,7.204, 28.232,6.232z M 26.818,7.646c 0.098,0.098, 0.195,0.218, 0.29,0.354L 22,8 L 22,2.892 c 0.136,0.095, 0.256,0.192, 0.354,0.29L 26.818,7.646z M 28,29.5c0,0.271-0.229,0.5-0.5,0.5L 4.5,30 c-0.271,0-0.5-0.229-0.5-0.5L 4,2.5 c0-0.271, 0.229-0.5, 0.5-0.5l 15,0 c 0.151,0, 0.32,0.019, 0.5,0.053L 20,10 l 7.947,0 c 0.034,0.18, 0.053,0.349, 0.053,0.5L 28,29.5 z"></path></g></svg>