<?xml version="1.0" encoding="utf-8"?> <!-- Generator: IcoMoon.io --> <!DOCTYPE svg PUBLIC "-//W3C//DTD SVG 1.1//EN" "http://www.w3.org/Graphics/SVG/1.1/DTD/svg11.dtd"> <svg width="32" height="32" viewBox="0 0 32 32" xmlns="http://www.w3.org/2000/svg" xmlns:xlink="http://www.w3.org/1999/xlink" fill="#000000"><g><path d="M 12,19.108L 12,15.538 c0-0.473, 0.209-0.92, 0.589-1.259c 0.38-0.339, 0.881-0.526, 1.411-0.526l0-1.785 c-2.2,0-4,1.606-4,3.569l0,2.677 c0,0.493-0.448,0.892-1,0.892l-1,0 l0,1.785 l 1,0 c 0.552,0, 1,0.4, 1,0.892l0,2.677 c0,1.963, 1.8,3.569, 4,3.569l0-1.785 c-0.53,0-1.031-0.187-1.411-0.526c-0.38-0.339-0.589-0.786-0.589-1.259l0-3.57 c0-0.493-0.448-0.892-1-0.892C 11.552,20, 12,19.6, 12,19.108zM 20,20.892l0,3.57 c0,0.473-0.209,0.92-0.589,1.259c-0.38,0.339-0.881,0.526-1.411,0.526l0,1.785 c 2.2,0, 4-1.606, 4-3.569l0-2.677 c0-0.493, 0.448-0.892, 1-0.892l 1,0 l0-1.785 l-1,0 c-0.552,0-1-0.4-1-0.892L 22,15.538 c0-1.963-1.8-3.569-4-3.569l0,1.785 c 0.53,0, 1.031,0.187, 1.411,0.526c 0.38,0.339, 0.589,0.786, 0.589,1.259l0,3.57 c0,0.493, 0.448,0.892, 1,0.892C 20.448,20, 20,20.4, 20,20.892zM 28.232,6.232l-4.465-4.464C 22.796,0.795, 20.875,0, 19.5,0L 4.5,0 C 3.125,0, 2,1.125, 2,2.5l0,27 c0,1.375, 1.125,2.5, 2.5,2.5l 23,0 c 1.375,0, 2.5-1.125, 2.5-2.5L 30,10.5 C 30,9.125, 29.204,7.204, 28.232,6.232z M 26.818,7.646c 0.098,0.098, 0.195,0.218, 0.29,0.354L 22,8 L 22,2.892 c 0.136,0.095, 0.256,0.192, 0.354,0.29L 26.818,7.646z M 28,29.5c0,0.271-0.229,0.5-0.5,0.5L 4.5,30 c-0.271,0-0.5-0.229-0.5-0.5L 4,2.5 c0-0.271, 0.229-0.5, 0.5-0.5l 15,0 c 0.151,0, 0.32,0.019, 0.5,0.053L 20,10 l 7.947,0 c 0.034,0.18, 0.053,0.349, 0.053,0.5L 28,29.5 z"></path></g></svg>