<?xml version="1.0" encoding="utf-8"?> <!-- Generator: IcoMoon.io --> <!DOCTYPE svg PUBLIC "-//W3C//DTD SVG 1.1//EN" "http://www.w3.org/Graphics/SVG/1.1/DTD/svg11.dtd"> <svg width="32" height="32" viewBox="0 0 32 32" xmlns="http://www.w3.org/2000/svg" xmlns:xlink="http://www.w3.org/1999/xlink" fill="#000000"><g><path d="M 16,0C 7.163,0,0,2.239,0,5l0,3 l 12,12l0,10 c0,1.105, 1.791,2, 4,2c 2.209,0, 4-0.895, 4-2L 20,20 l 12-12L 32,5 C 32,2.239, 24.837,0, 16,0z M 2.95,4.338c 0.748-0.427, 1.799-0.832, 3.040-1.171C 8.738,2.414, 12.293,2, 16,2 c 3.707,0, 7.262,0.414, 10.011,1.167c 1.24,0.34, 2.292,0.745, 3.040,1.171c 0.493,0.281, 0.76,0.519, 0.884,0.662 c-0.124,0.142-0.391,0.38-0.884,0.662c-0.748,0.427-1.8,0.832-3.040,1.171C 23.262,7.586, 19.707,8, 16,8 c-3.707,0-7.262-0.414-10.011-1.167c-1.24-0.34-2.292-0.745-3.040-1.171C 2.456,5.38, 2.189,5.142, 2.065,5 C 2.189,4.858, 2.456,4.62, 2.95,4.338z"></path></g></svg>