<?xml version="1.0" encoding="utf-8"?> <!-- Generator: IcoMoon.io --> <!DOCTYPE svg PUBLIC "-//W3C//DTD SVG 1.1//EN" "http://www.w3.org/Graphics/SVG/1.1/DTD/svg11.dtd"> <svg width="32" height="32" viewBox="0 0 32 32" xmlns="http://www.w3.org/2000/svg" xmlns:xlink="http://www.w3.org/1999/xlink" fill="#000000"><g><path d="M 11.486,0C 3.881,0,0,4.38,0,12.558l0,0l0,5.713 l0,11.445 l 7.45-7.457L 7.45,13.543 c0-3.388, 0.898-5.544, 3.91-6.028 l0,0c 1.052-0.206, 3.242-0.134, 4.635-0.134l0,0l0,5.175 c0,0.047, 0.006,0.131, 0.019,0.175l0,0c 0.058,0.209, 0.248,0.363, 0.472,0.363 l0,0c 0.127,0, 0.246-0.066, 0.368-0.187l0,0L 29.764,0.002L 21.098,0L 11.486,0 z M 24.55,9.742l0,8.715 c0,3.388-0.898,5.544-3.91,6.028l0,0c-1.052,0.206-3.242,0.134-4.635,0.134l0,0l0-5.175 c0-0.047-0.006-0.131-0.019-0.174 l0,0c-0.058-0.21-0.248-0.363-0.472-0.363l0,0c-0.127-0-0.246,0.066-0.368,0.186l0,0L 2.236,31.998L 10.902,32l 9.611,0 C 28.118,32, 32,27.62, 32,19.442l0,0l0-5.713 L 32,2.285 L 24.55,9.742z"></path></g></svg>