<?xml version="1.0" encoding="utf-8"?> <!-- Generator: IcoMoon.io --> <!DOCTYPE svg PUBLIC "-//W3C//DTD SVG 1.1//EN" "http://www.w3.org/Graphics/SVG/1.1/DTD/svg11.dtd"> <svg width="32" height="32.21875" viewBox="0 0 32 32.21875" xmlns="http://www.w3.org/2000/svg" xmlns:xlink="http://www.w3.org/1999/xlink" fill="#000000"><g><path d="M 16,0C 7.163,0,0,7.212,0,16.109S 7.163,32.219, 16,32.219s 16-7.212, 16-16.109S 24.837,0, 16,0z M 9,21 c-2.761,0-5-2.239-5-5c0-2.761, 2.239-5, 5-5s 5,2.239, 5,5C 14,18.761, 11.761,21, 9,21z M 23,21 c-2.761,0-5-2.239-5-5c0-2.761, 2.239-5, 5-5s 5,2.239, 5,5C 28,18.761, 25.762,21, 23,21z"></path></g></svg>