<?xml version="1.0" encoding="utf-8"?> <!-- Generator: IcoMoon.io --> <!DOCTYPE svg PUBLIC "-//W3C//DTD SVG 1.1//EN" "http://www.w3.org/Graphics/SVG/1.1/DTD/svg11.dtd"> <svg width="32" height="32" viewBox="0 0 32 32" xmlns="http://www.w3.org/2000/svg" xmlns:xlink="http://www.w3.org/1999/xlink" fill="#000000"><g><path d="M 0,17.388 C 0,18.838 0.136,20.15 0.407,21.323 C 0.678,22.497 1.054,23.517 1.534,24.382 C 2.013,25.248 2.624,26.010 3.364,26.667 C 4.105,27.324 4.908,27.861 5.774,28.279 C 6.64,28.696 7.628,29.035 8.739,29.296 C 9.85,29.557 10.985,29.739 12.143,29.844 C 13.301,29.948 14.573,30 15.961,30 C 17.359,30 18.637,29.948 19.795,29.844 C 20.953,29.739 22.090,29.557 23.206,29.296 C 24.322,29.035 25.316,28.696 26.187,28.279 C 27.058,27.861 27.866,27.324 28.612,26.667 C 29.358,26.010 29.974,25.248 30.459,24.382 C 30.944,23.517 31.322,22.497 31.593,21.323 C 31.864,20.15 32,18.838 32,17.388 C 32,14.801 31.134,12.563 29.403,10.675 C 29.496,10.424 29.582,10.14 29.661,9.822 C 29.739,9.504 29.812,9.050 29.88,8.461 C 29.948,7.871 29.922,7.191 29.802,6.419 C 29.682,5.647 29.46,4.859 29.136,4.056 L 28.902,4.009 C 28.735,3.978 28.461,3.985 28.080,4.032 C 27.699,4.079 27.256,4.173 26.75,4.314 C 26.244,4.455 25.592,4.726 24.794,5.128 C 23.996,5.529 23.154,6.033 22.267,6.638 C 20.744,6.22 18.652,6.012 15.992,6.012 C 13.342,6.012 11.256,6.22 9.733,6.638 C 8.846,6.033 7.999,5.529 7.19,5.128 C 6.382,4.726 5.738,4.455 5.258,4.314 C 4.778,4.173 4.329,4.082 3.912,4.040 C 3.495,3.998 3.231,3.985 3.122,4.001 C 3.012,4.017 2.926,4.035 2.864,4.056 C 2.54,4.859 2.318,5.646 2.199,6.419 C 2.079,7.191 2.053,7.871 2.12,8.461 C 2.188,9.050 2.261,9.504 2.339,9.822 C 2.418,10.14 2.504,10.424 2.598,10.675 C 0.866,12.563 0,14.801 0,17.388 Z M 3.928,21.315 C 3.928,19.813 4.611,18.436 5.978,17.184 C 6.384,16.809 6.859,16.525 7.401,16.331 C 7.944,16.139 8.557,16.029 9.24,16.003 C 9.923,15.977 10.578,15.982 11.204,16.019 C 11.83,16.055 12.602,16.105 13.52,16.167 C 14.438,16.23 15.231,16.261 15.898,16.261 C 16.566,16.261 17.359,16.23 18.277,16.167 C 19.195,16.105 19.967,16.055 20.593,16.019 C 21.219,15.982 21.873,15.977 22.556,16.003 C 23.24,16.029 23.853,16.139 24.395,16.331 C 24.938,16.524 25.412,16.809 25.819,17.184 C 27.186,18.415 27.869,19.792 27.869,21.315 C 27.869,22.213 27.757,23.008 27.532,23.702 C 27.308,24.396 27.021,24.977 26.672,25.447 C 26.322,25.916 25.837,26.315 25.217,26.644 C 24.596,26.972 23.991,27.225 23.401,27.403 C 22.812,27.58 22.056,27.718 21.132,27.817 C 20.209,27.916 19.385,27.976 18.66,27.997 C 17.935,28.018 17.014,28.029 15.898,28.029 C 14.782,28.029 13.861,28.018 13.136,27.997 C 12.411,27.976 11.587,27.916 10.664,27.817 C 9.741,27.718 8.985,27.58 8.395,27.403 C 7.806,27.225 7.201,26.972 6.58,26.644 C 5.959,26.315 5.474,25.916 5.125,25.447 C 4.775,24.977 4.488,24.396 4.264,23.702 C 4.040,23.008 3.928,22.213 3.928,21.315 ZM 20,21A2,3 2520 1 0 24,21A2,3 2520 1 0 20,21zM 8,21A2,3 2520 1 0 12,21A2,3 2520 1 0 8,21z"></path></g></svg>