<?xml version="1.0" encoding="utf-8"?> <!-- Generator: IcoMoon.io --> <!DOCTYPE svg PUBLIC "-//W3C//DTD SVG 1.1//EN" "http://www.w3.org/Graphics/SVG/1.1/DTD/svg11.dtd"> <svg width="32" height="32" viewBox="0 0 32 32" xmlns="http://www.w3.org/2000/svg" xmlns:xlink="http://www.w3.org/1999/xlink" fill="#000000"><g><path d="M 0.025,27.177c-0.008-0.079-0.014-0.158-0.018-0.238C 0.011,27.019, 0.018,27.098, 0.025,27.177zM 7.372,17.661c 2.875,0.086, 4.804-2.897, 4.308-6.662c-0.497-3.765-3.231-6.787-6.106-6.873 c-2.876-0.085-4.804,2.796-4.308,6.563C 1.762,14.453, 4.496,17.575, 7.372,17.661zM 32,8L 32,5.334 C 32,2.4, 29.601,0, 26.667,0L 5.334,0 C 2.45,0, 0.084,2.32, 0.004,5.185 c 1.824-1.606, 4.354-2.947, 6.965-2.947c 2.791,0, 11.164,0, 11.164,0l-2.498,2.113l-3.54,0 c 2.348,0.9, 3.599,3.629, 3.599,6.429c0,2.352-1.307,4.374-3.153,5.811c-1.801,1.403-2.143,1.991-2.143,3.184 c0,1.018, 1.93,2.75, 2.938,3.462c 2.949,2.079, 3.904,4.010, 3.904,7.233c0,0.513-0.064,1.026-0.19,1.53l 9.617,0 C 29.601,32, 32,29.602, 32,26.666L 32,10 l-6,0 L 26,16 l-2,0 l0-6 l-6,0 l0-2 L 24,8 L 24,2 l 2,0 l0,6 L 32,8 zM 5.809,23.936c 0.675,0, 1.294-0.018, 1.935-0.018c-0.848-0.823-1.52-1.831-1.52-3.074 c0-0.738, 0.236-1.448, 0.567-2.079c-0.337,0.024-0.681,0.031-1.035,0.031c-2.324,0-4.297-0.752-5.756-1.995l0,2.101 l 0,6.304C 1.67,24.412, 3.653,23.936, 5.809,23.936zM 0.107,27.727c-0.035-0.171-0.061-0.344-0.079-0.52C 0.045,27.383, 0.072,27.556, 0.107,27.727zM 14.233,29.776c-0.471-1.838-2.139-2.749-4.465-4.362c-0.846-0.273-1.778-0.434-2.778-0.444 c-2.801-0.030-5.41,1.092-6.882,2.762C 0.605,30.161, 2.765,32, 5.334,32l 8.951,0 c 0.057-0.348, 0.084-0.707, 0.084-1.076 C 14.37,30.532, 14.322,30.149, 14.233,29.776z"></path></g></svg>