<?xml version="1.0" encoding="utf-8"?> <!-- Generator: IcoMoon.io --> <!DOCTYPE svg PUBLIC "-//W3C//DTD SVG 1.1//EN" "http://www.w3.org/Graphics/SVG/1.1/DTD/svg11.dtd"> <svg width="32" height="32" viewBox="0 0 32 32" xmlns="http://www.w3.org/2000/svg" xmlns:xlink="http://www.w3.org/1999/xlink" fill="#000000"><g><path d="M 32,11.192 C 32,13.891 30.837,16.318 28.985,18 L 29,18 L 19,28 C 18,29 17,30 16,30 C 15,30 14,29 13,28 L 3,18 L 3.015,18 C 1.163,16.318 0,13.891 0,11.192 C 0,6.116 4.116,2 9.192,2 C 10.925,2 12.546,2.48 13.929,3.314 L 11,8 L 18,12 L 14,22 L 25,10 L 18,6 L 20.465,2.302 C 21.213,2.105 21.998,2 22.808,2 C 27.884,2 32,6.116 32,11.192 Z"></path></g></svg>