<?xml version="1.0" encoding="utf-8"?> <!-- Generator: IcoMoon.io --> <!DOCTYPE svg PUBLIC "-//W3C//DTD SVG 1.1//EN" "http://www.w3.org/Graphics/SVG/1.1/DTD/svg11.dtd"> <svg width="32" height="32" viewBox="0 0 32 32" xmlns="http://www.w3.org/2000/svg" xmlns:xlink="http://www.w3.org/1999/xlink" fill="#000000"><g><path d="M 16.707,0.707C 16.318,0.318, 15.55,0, 15,0L 3,0 c-0.55,0-1,0.45-1,1l0,30 c0,0.55, 0.45,1, 1,1l 24,0 c 0.55,0, 1-0.45, 1-1L 28,13 c0-0.55-0.318-1.318-0.707-1.707L 16.707,0.707z M 26,30L 4,30 L 4,2 l 10.974,0 c 0.091,0.015, 0.263,0.086, 0.338,0.14l 10.549,10.549 c 0.054,0.075, 0.125,0.247, 0.14,0.338L 26,30 zM 27,0l-6,0 c-0.55,0-0.682,0.318-0.293,0.707l 6.586,6.586C 27.682,7.682, 28,7.55, 28,7L 28,1 C 28,0.45, 27.55,0, 27,0 z"></path></g></svg>