<?xml version="1.0" encoding="utf-8"?> <!-- Generator: IcoMoon.io --> <!DOCTYPE svg PUBLIC "-//W3C//DTD SVG 1.1//EN" "http://www.w3.org/Graphics/SVG/1.1/DTD/svg11.dtd"> <svg width="32" height="32" viewBox="0 0 32 32" xmlns="http://www.w3.org/2000/svg" xmlns:xlink="http://www.w3.org/1999/xlink" fill="#000000"><g><path d="M 23,0L 9,0 c-1.65,0-3,1.35-3,3l0,26 c0,1.65, 1.35,3, 3,3l 14,0 c 1.65,0, 3-1.35, 3-3L 26,3 C 26,1.35, 24.65,0, 23,0z M 12,1.5 l 8,0 l0,1 L 12,2.5 L 12,1.5 z M 16,30c-1.105,0-2-0.895-2-2s 0.895-2, 2-2s 2,0.895, 2,2S 17.105,30, 16,30z M 24,24L 8,24 L 8,4 l 16,0 L 24,24 z"></path></g></svg>