<?xml version="1.0" encoding="utf-8"?> <!-- Generator: IcoMoon.io --> <!DOCTYPE svg PUBLIC "-//W3C//DTD SVG 1.1//EN" "http://www.w3.org/Graphics/SVG/1.1/DTD/svg11.dtd"> <svg width="32" height="32" viewBox="0 0 32 32" xmlns="http://www.w3.org/2000/svg" xmlns:xlink="http://www.w3.org/1999/xlink" fill="#000000"><g><path d="M 26,10l-2,0 l0-3 c0-2.761-5.373-5-12-5C 5.373,2,0,4.239,0,7l0,18 c0,2.761, 5.373,5, 12,5 c 6.627,0, 12-2.239, 12-5l0-3 l 2,0 c 3.3,0, 6-2.7, 6-6S 29.3,10, 26,10z M 5.502,5.925C 7.312,5.329, 9.62,5, 12,5 s 4.688,0.329, 6.498,0.925c 1.156,0.381, 1.857,0.789, 2.232,1.075c-0.375,0.286-1.075,0.694-2.232,1.075 C 16.688,8.671, 14.38,9, 12,9s-4.688-0.329-6.498-0.925C 4.346,7.694, 3.645,7.286, 3.27,7 C 3.645,6.714, 4.346,6.306, 5.502,5.925z M 28.261,17.761C 27.985,18.037, 27.39,18.5, 26.5,18.5l-2.5,0 l0-5 l 2.5,0 c 0.89,0, 1.486,0.463, 1.761,0.739S 29,15.11, 29,16S 28.537,17.485, 28.261,17.761z"></path></g></svg>