<?xml version="1.0" encoding="utf-8"?> <!-- Generator: IcoMoon.io --> <!DOCTYPE svg PUBLIC "-//W3C//DTD SVG 1.1//EN" "http://www.w3.org/Graphics/SVG/1.1/DTD/svg11.dtd"> <svg width="32" height="32" viewBox="0 0 32 32" xmlns="http://www.w3.org/2000/svg" xmlns:xlink="http://www.w3.org/1999/xlink" fill="#000000"><g><path d="M 16,0C 7.163,0,0,7.163,0,16s 7.163,16, 16,16c 8.837,0, 16-7.163, 16-16S 24.837,0, 16,0z M 20,24L 12,24 l0-2 l 8,0 L 20,24 z M 22,8c 1.105,0, 2,0.895, 2,2c0,1.105-0.895,2-2,2s-2-0.895-2-2C 20,8.895, 20.895,8, 22,8z M 10,8 c 1.105,0, 2,0.895, 2,2c0,1.105-0.895,2-2,2s-2-0.895-2-2C 8,8.895, 8.895,8, 10,8z"></path></g></svg>