<?xml version="1.0" encoding="utf-8"?> <!-- Generator: IcoMoon.io --> <!DOCTYPE svg PUBLIC "-//W3C//DTD SVG 1.1//EN" "http://www.w3.org/Graphics/SVG/1.1/DTD/svg11.dtd"> <svg width="32" height="32" viewBox="0 0 32 32" xmlns="http://www.w3.org/2000/svg" xmlns:xlink="http://www.w3.org/1999/xlink" fill="#000000"><g><path d="M0,32l 16,0 L 16,0 L0,0 L0,32 z M 10,4l 4,0 l0,4 l-4,0 L 10,4 z M 10,12l 4,0 l0,4 l-4,0 L 10,12 z M 10,20l 4,0 l0,4 l-4,0 L 10,20 z M 2,4l 4,0 l0,4 L 2,8 L 2,4 z M 2,12 l 4,0 l0,4 L 2,16 L 2,12 z M 2,20l 4,0 l0,4 L 2,24 L 2,20 zM 18,10L 32,10L 32,12L 18,12zM 18,32L 22,32L 22,24L 28,24L 28,32L 32,32L 32,14L 18,14 z"></path></g></svg>