<?xml version="1.0" encoding="utf-8"?> <!-- Generator: IcoMoon.io --> <!DOCTYPE svg PUBLIC "-//W3C//DTD SVG 1.1//EN" "http://www.w3.org/Graphics/SVG/1.1/DTD/svg11.dtd"> <svg width="32" height="32" viewBox="0 0 32 32" xmlns="http://www.w3.org/2000/svg" xmlns:xlink="http://www.w3.org/1999/xlink" fill="#000000"><g><path d="M 32,18L 32,6 l-6,0 L 26,4 c0-1.1-0.9-2-2-2L 2,2 C 0.9,2,0,2.9,0,4l0,6 c0,1.1, 0.9,2, 2,2l 22,0 c 1.1,0, 2-0.9, 2-2l0-2 l 4,0 l0,8 L 12,16 l0,4 l-1,0 c-0.552,0-1,0.448-1,1l0,10 c0,0.552, 0.448,1, 1,1l 4,0 c 0.552,0, 1-0.448, 1-1L 16,21 c0-0.552-0.448-1-1-1l-1,0 l0-2 L 32,18 z M 24,6L 2,6 L 2,4 l 22,0 L 24,6 z"></path></g></svg>