<?xml version="1.0" encoding="utf-8"?> <!-- Generator: IcoMoon.io --> <!DOCTYPE svg PUBLIC "-//W3C//DTD SVG 1.1//EN" "http://www.w3.org/Graphics/SVG/1.1/DTD/svg11.dtd"> <svg width="32" height="32" viewBox="0 0 32 32" xmlns="http://www.w3.org/2000/svg" xmlns:xlink="http://www.w3.org/1999/xlink" fill="#000000"><g><path d="M 32,16C 32,7.163, 24.837,0, 16,0S0,7.163,0,16c0,6.877, 4.339,12.739, 10.428,15.002L 10,32l 12,0 l-0.428-0.998 C 27.661,28.739, 32,22.877, 32,16z M 15.212,19.838C 14.499,19.532, 14,18.825, 14,18c0-1.105, 0.895-2, 2-2 c 1.105,0, 2,0.895, 2,2c0,0.825-0.499,1.533-1.212,1.839L 16,18L 15.212,19.838z M 16.821,19.915 C 18.636,19.537, 20,17.928, 20,16c0-2.209-1.791-4-4-4c-2.209,0-4,1.791-4,4c0,1.928, 1.364,3.535, 3.18,3.913 l-2.332,5.441C 9.997,24.131, 8,21.299, 8,18c0-4.418, 3.582-8.375, 8-8.375s 8,3.957, 8,8.375 c0,3.299-1.997,6.131-4.848,7.355L 16.821,19.915z M 21.514,30.866l-2.31-5.39C 23.155,24.14, 26,20.402, 26,16 c0-5.523-4.477-10-10-10c-5.523,0-10,4.477-10,10c0,4.402, 2.845,8.14, 6.796,9.476l-2.31,5.39 C 5.499,28.726, 2.005,23.771, 2.005,18C 2.005,10.271, 8.271,3.63, 16,3.63c 7.729,0, 13.995,6.641, 13.995,14.37 C 29.995,23.771, 26.501,28.726, 21.514,30.866z"></path></g></svg>