<?xml version="1.0" encoding="utf-8"?> <!-- Generator: IcoMoon.io --> <!DOCTYPE svg PUBLIC "-//W3C//DTD SVG 1.1//EN" "http://www.w3.org/Graphics/SVG/1.1/DTD/svg11.dtd"> <svg width="32" height="32" viewBox="0 0 32 32" xmlns="http://www.w3.org/2000/svg" xmlns:xlink="http://www.w3.org/1999/xlink" fill="#000000"><g><path d="M 25,4L 7,4 c-1.657,0-3,1.343-3,3l0,1 l 24,0 l0-1 C 28,5.343, 26.657,4, 25,4zM 19.76,2l 0.441,3.156L 11.799,5.156 l 0.441-3.156L 19.76,2 M 20,0L 12,0 c-0.825,0-1.593,0.668-1.708,1.486l-0.585,4.185 C 9.593,6.488, 10.175,7.156, 11,7.156l 10,0 c 0.825,0, 1.407-0.668, 1.292-1.486l-0.585-4.185C 21.593,0.668, 20.825,0, 20,0L 20,0z M 25.5,10L 6.5,10 c-1.1,0-1.919,0.896-1.819,1.992l 1.638,18.016C 6.418,31.104, 7.4,32, 8.5,32l 15,0 c 1.1,0, 2.082-0.896, 2.181-1.992l 1.638-18.016C 27.419,10.896, 26.6,10, 25.5,10z M 12,28l-3,0 l-1-14l 4,0 L 12,28 z M 18,28l-4,0 L 14,14 l 4,0 L 18,28 z M 23,28l-3,0 L 20,14 l 4,0 L 23,28z"></path></g></svg>