<?xml version="1.0" encoding="utf-8"?> <!-- Generator: IcoMoon.io --> <!DOCTYPE svg PUBLIC "-//W3C//DTD SVG 1.1//EN" "http://www.w3.org/Graphics/SVG/1.1/DTD/svg11.dtd"> <svg width="32" height="32" viewBox="0 0 32 32" xmlns="http://www.w3.org/2000/svg" xmlns:xlink="http://www.w3.org/1999/xlink" fill="#000000"><g><path d="M 6,16c0-0.381, 0.022-0.756, 0.063-1.126l-5.781-1.878C 0.098,13.969,0,14.973,0,16 c0,4.601, 1.943,8.748, 5.052,11.666l 3.571-4.915C 6.994,20.972, 6,18.602, 6,16zM 26,16c0,2.602-0.994,4.972-2.623,6.751l 3.571,4.915C 30.057,24.748, 32,20.601, 32,16 c0-1.027-0.098-2.031-0.283-3.004l-5.781,1.878C 25.978,15.244, 26,15.619, 26,16zM 18,6.2c 2.873,0.583, 5.298,2.398, 6.702,4.87l 5.781-1.878C 28.195,4.335, 23.537,0.815, 18,0.124L 18,6.2 zM 7.298,11.070c 1.403-2.471, 3.829-4.286, 6.702-4.87L 14,0.124 C 8.463,0.815, 3.805,4.335, 1.518,9.192 L 7.298,11.070zM 20.142,25.104C 18.88,25.679, 17.478,26, 16,26s-2.88-0.321-4.142-0.896l-3.572,4.916 C 10.574,31.281, 13.203,32, 16,32s 5.426-0.719, 7.714-1.98L 20.142,25.104z"></path></g></svg>