<?xml version="1.0" encoding="utf-8"?> <!-- Generator: IcoMoon.io --> <!DOCTYPE svg PUBLIC "-//W3C//DTD SVG 1.1//EN" "http://www.w3.org/Graphics/SVG/1.1/DTD/svg11.dtd"> <svg width="32.46812438964844" height="32.46831130981445" viewBox="0 0 32.46812438964844 32.46831130981445" xmlns="http://www.w3.org/2000/svg" xmlns:xlink="http://www.w3.org/1999/xlink" fill="#000000"><g><path d="M 18,10L 22,14L 14,22L 10,18zM 31.298,9.297l-2.297-2.297l-1,1c-0.512,0.512-1.219,0.828-2,0.828 c-1.562,0-2.829-1.266-2.829-2.828c0-0.781, 0.317-1.489, 0.829-2.001l 1-1l-2.297-2.297 c-0.936-0.936-2.469-0.936-3.405,0L 0.702,19.297c-0.936,0.936-0.936,2.469,0,3.405l 2.297,2.297l 0.999-0.999 c 0.512-0.513, 1.22-0.83, 2.001-0.83c 1.562,0, 2.828,1.266, 2.828,2.828c0,0.781-0.317,1.489-0.829,2.001l-1,1 l 2.297,2.297c 0.936,0.936, 2.469,0.936, 3.405,0l 18.595-18.595C 32.234,11.766, 32.234,10.233, 31.298,9.297z M 14,26l-8-8l 12-12l 8,8L 14,26z"></path></g></svg>