<?xml version="1.0" encoding="utf-8"?> <!-- Generator: IcoMoon.io --> <!DOCTYPE svg PUBLIC "-//W3C//DTD SVG 1.1//EN" "http://www.w3.org/Graphics/SVG/1.1/DTD/svg11.dtd"> <svg width="32" height="32" viewBox="0 0 32 32" xmlns="http://www.w3.org/2000/svg" xmlns:xlink="http://www.w3.org/1999/xlink" fill="#000000"><g><path d="M 30.5,24l-0.5,0 L 30,17.5 c0-1.93-1.57-3.5-3.5-3.5L 18,14 l0-4 l 0.5,0 c 0.825,0, 1.5-0.675, 1.5-1.5L 20,3.5 c0-0.825-0.675-1.5-1.5-1.5l-5,0 c-0.825,0-1.5,0.675-1.5,1.5l0,5 c0,0.825, 0.675,1.5, 1.5,1.5l 0.5,0 l0,4 L 5.5,14 c-1.93,0-3.5,1.57-3.5,3.5l0,6.5 l-0.5,0 c-0.825,0-1.5,0.675-1.5,1.5l0,5 c0,0.825, 0.675,1.5, 1.5,1.5l 5,0 c 0.825,0, 1.5-0.675, 1.5-1.5l0-5 c0-0.825-0.675-1.5-1.5-1.5l-0.5,0 l0-6 l 8,0 l0,6 l-0.5,0 c-0.825,0-1.5,0.675-1.5,1.5l0,5 c0,0.825, 0.675,1.5, 1.5,1.5l 5,0 c 0.825,0, 1.5-0.675, 1.5-1.5l0-5 c0-0.825-0.675-1.5-1.5-1.5l-0.5,0 l0-6 l 8,0 l0,6 l-0.5,0 c-0.825,0-1.5,0.675-1.5,1.5l0,5 c0,0.825, 0.675,1.5, 1.5,1.5l 5,0 c 0.825,0, 1.5-0.675, 1.5-1.5l0-5 C 32,24.675, 31.325,24, 30.5,24z M 6,30L 2,30 l0-4 l 4,0 L 6,30 z M 18,30l-4,0 l0-4 l 4,0 L 18,30 z M 14,8L 14,4 l 4,0 l0,4 L 14,8 z M 30,30l-4,0 l0-4 l 4,0 L 30,30 z"></path></g></svg>