<?xml version="1.0" encoding="utf-8"?> <!-- Generator: IcoMoon.io --> <!DOCTYPE svg PUBLIC "-//W3C//DTD SVG 1.1//EN" "http://www.w3.org/Graphics/SVG/1.1/DTD/svg11.dtd"> <svg width="34.000064849853516" height="32" viewBox="0 0 34.000064849853516 32" xmlns="http://www.w3.org/2000/svg" xmlns:xlink="http://www.w3.org/1999/xlink" fill="#000000"><g><path d="M 27.814,28.814c-0.384,0-0.768-0.146-1.061-0.439c-0.586-0.586-0.586-1.536,0-2.121 C 29.492,23.514, 31,19.873, 31,16c0-3.873-1.508-7.514-4.247-10.253c-0.586-0.586-0.586-1.536,0-2.121 c 0.586-0.586, 1.536-0.586, 2.121,0c 3.305,3.305, 5.126,7.7, 5.126,12.374c0,4.674-1.82,9.069-5.126,12.374 C 28.581,28.667, 28.198,28.814, 27.814,28.814zM 22.485,25.985c-0.384,0-0.768-0.146-1.061-0.439c-0.586-0.586-0.586-1.536,0-2.121 c 4.094-4.094, 4.094-10.755,0-14.849c-0.586-0.586-0.586-1.536,0-2.121c 0.586-0.586, 1.536-0.586, 2.121,0 C 26.096,9.004, 27.5,12.394, 27.5,16c0,3.606-1.404,6.996-3.954,9.546C 23.253,25.839, 22.869,25.985, 22.485,25.985zM 17.157,23.157c-0.384,0-0.768-0.146-1.061-0.439c-0.586-0.586-0.586-1.536,0-2.121 c 2.534-2.534, 2.534-6.658,0-9.192c-0.586-0.586-0.586-1.536,0-2.121c 0.586-0.586, 1.536-0.586, 2.121,0 c 3.704,3.704, 3.704,9.731,0,13.435C 17.925,23.010, 17.541,23.157, 17.157,23.157zM 12.542,2.458 C 13.344,1.656 14,1.928 14,3.063 L 14,28.938 C 14,30.072 13.344,30.344 12.542,29.542 L 5,22 L 0,22 L 0,10 L 5,10 L 12.542,2.458 Z"></path></g></svg>