<?xml version="1.0" encoding="utf-8"?> <!-- Generator: IcoMoon.io --> <!DOCTYPE svg PUBLIC "-//W3C//DTD SVG 1.1//EN" "http://www.w3.org/Graphics/SVG/1.1/DTD/svg11.dtd"> <svg width="32" height="32" viewBox="0 0 32 32" xmlns="http://www.w3.org/2000/svg" xmlns:xlink="http://www.w3.org/1999/xlink" fill="#000000"><g><path d="M 16,32c 8.837,0, 16-7.163, 16-16S 24.837,0, 16,0S0,7.163,0,16S 7.163,32, 16,32z M 16,3 c 7.18,0, 13,5.82, 13,13s-5.82,13-13,13S 3,23.18, 3,16S 8.82,3, 16,3zM 16.961,22.22 C 21.343,21.354 24.745,19.359 25.975,16.701 C 25.298,21.95 20.927,26 15.636,26 C 11.909,26 8.64,23.991 6.795,20.97 C 8.996,22.691 12.875,23.027 16.961,22.22 ZM 20,11A2,3 2520 1 0 24,11A2,3 2520 1 0 20,11zM 11,11.609 C 9.694,11.609 8.583,12.099 8.171,12.781 C 8.061,12.598 8,11.776 8,11.57 C 8,10.6 9.343,9.813 11,9.813 C 12.657,9.813 14,10.6 14,11.57 C 14,11.776 13.939,12.598 13.829,12.781 C 13.417,12.099 12.306,11.609 11,11.609 Z"></path></g></svg>