<?xml version="1.0" encoding="utf-8"?> <!-- Generator: IcoMoon.io --> <!DOCTYPE svg PUBLIC "-//W3C//DTD SVG 1.1//EN" "http://www.w3.org/Graphics/SVG/1.1/DTD/svg11.dtd"> <svg width="32" height="32" viewBox="0 0 32 32" xmlns="http://www.w3.org/2000/svg" xmlns:xlink="http://www.w3.org/1999/xlink" fill="#000000"><g><path d="M 16,32c 8.837,0, 16-7.163, 16-16S 24.837,0, 16,0S0,7.163,0,16S 7.163,32, 16,32z M 16,3 c 7.18,0, 13,5.82, 13,13s-5.82,13-13,13S 3,23.18, 3,16S 8.82,3, 16,3zM 23.304,18.801L 24.007,21.2L 10.351,25.2L 9.648,22.801zM 8,10 C 8,8.895 8.895,8 10,8 C 11.105,8 12,8.895 12,10 C 12,11.105 11.105,12 10,12 C 8.895,12 8,11.105 8,10 Z M 20,10 C 20,8.895 20.895,8 22,8 C 23.105,8 24,8.895 24,10 C 24,11.105 23.105,12 22,12 C 20.895,12 20,11.105 20,10 Z"></path></g></svg>