<?xml version="1.0" encoding="utf-8"?>
<!-- Generator: Adobe Illustrator 16.0.4, SVG Export Plug-In . SVG Version: 6.00 Build 0)  -->
<!DOCTYPE svg PUBLIC "-//W3C//DTD SVG 1.1//EN" "http://www.w3.org/Graphics/SVG/1.1/DTD/svg11.dtd">
<svg version="1.1" id="Layer_1" xmlns="http://www.w3.org/2000/svg" xmlns:xlink="http://www.w3.org/1999/xlink" x="0px" y="0px"
	 width="176.076px" height="44px" viewBox="0 8.444 176.076 44" enable-background="new 0 8.444 176.076 44" xml:space="preserve">
<g>
	<g id="PMS_285">
		<g>
			<g>
				<g>
					<path fill="#0073CF" d="M47.605,13.253H11.039l-0.838,6.073h8.812L16.77,35.58c-0.551,3.99-2.561,5.714-5.417,5.714
						c-2.412,0-4.155-1.281-5.825-3.448l-5.51,5.32c1.976,2.807,5.193,5.17,10.56,5.17c3.742,0,6.993-1.084,9.401-3.2
						c2.354-2.069,3.957-5.123,4.521-9.21l2.275-16.483h0.022l-0.01,0.073l19.952,0.009c6.202,0,9.717,4.86,8.874,10.967L55.6,30.59
						c-0.844,6.107-5.606,10.293-11.809,10.293h-6.548l2.639-19.117h-7.9l-2.593,5.583h2.831l-2.814,20.379h13.44
						c10.831,0,19.351-7.536,20.69-17.237l0.013-0.099C64.89,20.691,58.437,13.253,47.605,13.253"/>
				</g>
				<g>
					<polygon fill="#0073CF" points="125.769,20.263 126.721,13.369 100.48,13.369 95.72,47.844 103.302,47.844 105.146,34.497 
						121.587,34.497 122.54,27.602 106.097,27.602 107.11,20.263 					"/>
					<path fill="#0073CF" d="M95.775,24.843l0.013-0.098c0.448-3.25-0.212-5.959-1.867-7.88c-1.95-2.266-5.179-3.496-9.563-3.496
						H68.605l-4.759,34.475h7.581l3.814-27.629h7.532c3.693,0,5.729,1.674,5.279,4.925l-0.013,0.098
						c-0.403,2.905-2.792,4.876-6.484,4.876h-5.719l8.934,17.73h8.865l-6.723-12.312C91.52,33.906,95.005,30.409,95.775,24.843"/>
				</g>
			</g>
			
				<linearGradient id="SVGID_1_" gradientUnits="userSpaceOnUse" x1="182.1694" y1="-132.4915" x2="275.5406" y2="-148.9553" gradientTransform="matrix(1 0 0 -1 -156 -89.2622)">
				<stop  offset="0.02" style="stop-color:#FFFFFF;stop-opacity:0"/>
				<stop  offset="0.16" style="stop-color:#0073CF"/>
				<stop  offset="0.84" style="stop-color:#0073CF"/>
				<stop  offset="1" style="stop-color:#FFFFFF;stop-opacity:0"/>
			</linearGradient>
			<polygon fill="url(#SVGID_1_)" points="24.891,50.479 120.964,50.479 120.818,52.443 24.743,52.443 			"/>
			<g>
				<g>
					<path id="SVGID_2_" fill="#0073CF" d="M47.605,13.253H11.039l-0.838,6.073h8.812L16.77,35.58
						c-0.551,3.99-2.561,5.714-5.417,5.714c-2.412,0-4.155-1.281-5.825-3.448l-5.51,5.32c1.976,2.807,5.193,5.17,10.56,5.17
						c3.742,0,6.993-1.084,9.401-3.2c2.354-2.069,3.957-5.123,4.521-9.21l2.275-16.483h0.022l-0.01,0.073l19.952,0.009
						c6.202,0,9.717,4.86,8.874,10.967L55.6,30.59c-0.844,6.107-5.606,10.293-11.809,10.293h-6.548l2.639-19.117h-7.9l-2.593,5.583
						h2.831l-2.814,20.379h13.44c10.831,0,19.351-7.536,20.69-17.237l0.013-0.099C64.89,20.691,58.437,13.253,47.605,13.253"/>
				</g>
			</g>
			<g>
				<path fill="#0073CF" d="M132.742,30.78c0.003,0.076-0.005,0.178-0.027,0.306c-0.021,0.128-0.052,0.231-0.092,0.308
					c-0.04,0.078-0.086,0.117-0.14,0.117c-0.04,0-0.086-0.023-0.142-0.067s-0.13-0.092-0.219-0.145
					c-0.088-0.052-0.202-0.1-0.34-0.145c-0.136-0.045-0.305-0.068-0.504-0.068c-0.221,0-0.421,0.041-0.6,0.121
					c-0.179,0.08-0.336,0.186-0.473,0.317c-0.136,0.132-0.254,0.284-0.354,0.455c-0.099,0.171-0.179,0.349-0.24,0.534
					c-0.061,0.186-0.104,0.369-0.129,0.553c-0.024,0.183-0.033,0.354-0.025,0.511c0.009,0.19,0.044,0.357,0.104,0.501
					c0.059,0.145,0.141,0.264,0.245,0.359c0.103,0.096,0.229,0.167,0.374,0.214c0.146,0.047,0.308,0.072,0.488,0.072
					c0.212,0,0.393-0.021,0.541-0.061c0.149-0.041,0.275-0.086,0.379-0.135c0.103-0.048,0.189-0.094,0.257-0.134
					c0.069-0.041,0.131-0.061,0.188-0.061c0.039,0,0.065,0.013,0.08,0.038c0.015,0.026,0.023,0.062,0.026,0.108
					c0.001,0.019,0,0.048-0.004,0.086c-0.005,0.038-0.01,0.081-0.016,0.128c-0.007,0.048-0.015,0.1-0.023,0.155
					c-0.01,0.056-0.021,0.107-0.033,0.154c-0.013,0.049-0.028,0.092-0.045,0.131c-0.018,0.039-0.042,0.073-0.074,0.104
					c-0.031,0.03-0.093,0.069-0.186,0.116c-0.094,0.048-0.208,0.091-0.344,0.133c-0.134,0.041-0.289,0.076-0.461,0.104
					c-0.172,0.028-0.356,0.043-0.554,0.043c-0.325,0-0.621-0.039-0.887-0.118c-0.266-0.079-0.494-0.198-0.683-0.359
					c-0.191-0.161-0.341-0.361-0.453-0.604c-0.11-0.242-0.174-0.524-0.19-0.848c-0.013-0.252,0.002-0.516,0.045-0.789
					c0.043-0.274,0.115-0.542,0.217-0.801c0.102-0.261,0.235-0.509,0.399-0.742c0.164-0.234,0.362-0.438,0.595-0.614
					c0.232-0.175,0.498-0.314,0.799-0.418c0.301-0.104,0.638-0.155,1.012-0.155c0.209,0,0.408,0.02,0.597,0.059
					c0.189,0.039,0.354,0.092,0.497,0.157c0.142,0.065,0.242,0.124,0.299,0.178C132.707,30.631,132.739,30.699,132.742,30.78z"/>
				<path fill="#0073CF" d="M137.889,33.602c-0.058,0.337-0.159,0.633-0.305,0.886c-0.146,0.255-0.333,0.467-0.56,0.638
					c-0.228,0.172-0.492,0.3-0.795,0.385c-0.302,0.087-0.638,0.129-1.008,0.129c-0.396,0-0.735-0.044-1.022-0.132
					c-0.287-0.088-0.518-0.22-0.69-0.394c-0.173-0.173-0.29-0.392-0.352-0.655c-0.061-0.261-0.061-0.566-0.001-0.911l0.531-3.131
					c0.005-0.027,0.018-0.053,0.039-0.074c0.021-0.022,0.057-0.039,0.105-0.053c0.049-0.014,0.111-0.025,0.187-0.033
					s0.172-0.012,0.289-0.012c0.113,0,0.208,0.004,0.283,0.012c0.075,0.008,0.134,0.019,0.176,0.033
					c0.042,0.014,0.071,0.031,0.085,0.053c0.015,0.022,0.021,0.046,0.015,0.074l-0.531,3.131c-0.038,0.21-0.042,0.391-0.013,0.542
					c0.028,0.152,0.085,0.278,0.168,0.377c0.084,0.099,0.195,0.172,0.331,0.219c0.137,0.049,0.3,0.072,0.488,0.072
					c0.192,0,0.367-0.026,0.528-0.08c0.16-0.053,0.299-0.13,0.42-0.232c0.12-0.102,0.221-0.226,0.301-0.372
					c0.081-0.147,0.138-0.314,0.17-0.502l0.535-3.155c0.005-0.027,0.018-0.053,0.039-0.074c0.021-0.022,0.055-0.039,0.101-0.053
					c0.045-0.014,0.106-0.025,0.185-0.033c0.077-0.008,0.172-0.012,0.286-0.012c0.113,0,0.206,0.004,0.278,0.012
					c0.072,0.008,0.129,0.019,0.172,0.033c0.042,0.014,0.07,0.031,0.085,0.053c0.015,0.022,0.02,0.046,0.015,0.074L137.889,33.602z"
					/>
				<path fill="#0073CF" d="M143.486,31.42c0.008,0.174-0.008,0.347-0.053,0.518c-0.044,0.171-0.118,0.333-0.225,0.485
					c-0.106,0.153-0.246,0.29-0.42,0.412c-0.174,0.123-0.39,0.22-0.646,0.293c0.146,0.052,0.272,0.155,0.376,0.308
					c0.104,0.154,0.195,0.364,0.271,0.63l0.293,1.072c0.015,0.06,0.027,0.114,0.037,0.162c0.009,0.047,0.015,0.087,0.018,0.12
					c0.001,0.026-0.007,0.05-0.026,0.069c-0.019,0.02-0.053,0.035-0.103,0.047c-0.051,0.012-0.118,0.021-0.207,0.026
					c-0.088,0.006-0.198,0.008-0.333,0.008c-0.126,0-0.227-0.004-0.304-0.01c-0.076-0.007-0.136-0.018-0.179-0.033
					c-0.042-0.015-0.071-0.034-0.086-0.059c-0.015-0.024-0.026-0.053-0.034-0.086l-0.284-1.169c-0.03-0.135-0.068-0.256-0.114-0.359
					c-0.046-0.104-0.102-0.189-0.168-0.26c-0.066-0.069-0.146-0.12-0.239-0.154c-0.094-0.034-0.202-0.052-0.328-0.052h-0.367
					l-0.342,2.015c-0.004,0.027-0.019,0.052-0.041,0.073c-0.023,0.022-0.058,0.04-0.107,0.054c-0.049,0.013-0.112,0.023-0.189,0.031
					c-0.077,0.006-0.172,0.01-0.286,0.01c-0.114,0-0.208-0.004-0.281-0.01c-0.073-0.007-0.131-0.018-0.174-0.031
					c-0.042-0.014-0.072-0.03-0.087-0.052c-0.016-0.02-0.02-0.045-0.013-0.075l0.816-4.795c0.017-0.119,0.066-0.206,0.146-0.259
					c0.08-0.052,0.173-0.08,0.28-0.08h1.555c0.272,0,0.52,0.023,0.742,0.07c0.222,0.046,0.413,0.117,0.573,0.212
					c0.16,0.095,0.286,0.214,0.377,0.358C143.425,31.055,143.476,31.224,143.486,31.42z M142.231,31.62
					c-0.003-0.076-0.021-0.148-0.053-0.212c-0.031-0.065-0.08-0.121-0.145-0.168c-0.065-0.048-0.148-0.085-0.25-0.111
					c-0.102-0.025-0.223-0.039-0.362-0.039h-0.668l-0.251,1.497h0.561c0.224,0,0.413-0.029,0.563-0.088
					c0.153-0.058,0.275-0.133,0.365-0.226c0.092-0.093,0.156-0.196,0.193-0.309C142.222,31.852,142.237,31.738,142.231,31.62z"/>
				<path fill="#0073CF" d="M145.198,35.404c-0.005,0.027-0.019,0.052-0.042,0.073c-0.022,0.022-0.059,0.04-0.107,0.053
					c-0.049,0.014-0.112,0.024-0.188,0.03c-0.077,0.007-0.173,0.01-0.287,0.01c-0.116,0-0.211-0.004-0.285-0.01
					c-0.074-0.006-0.132-0.017-0.175-0.03c-0.042-0.013-0.071-0.031-0.087-0.053c-0.017-0.021-0.021-0.046-0.012-0.073l0.845-4.991
					c0.001-0.027,0.015-0.052,0.04-0.074c0.024-0.021,0.06-0.039,0.109-0.053c0.049-0.013,0.11-0.023,0.187-0.03
					c0.076-0.007,0.17-0.01,0.284-0.01c0.114,0,0.208,0.003,0.281,0.01c0.073,0.006,0.133,0.017,0.177,0.03
					c0.043,0.014,0.073,0.031,0.087,0.053c0.015,0.022,0.02,0.047,0.016,0.074L145.198,35.404z"/>
				<path fill="#0073CF" d="M151.257,35.172c-0.008,0.062-0.03,0.118-0.06,0.167c-0.033,0.049-0.071,0.089-0.116,0.122
					s-0.095,0.057-0.149,0.071c-0.054,0.015-0.111,0.023-0.171,0.023h-0.502c-0.107,0-0.196-0.01-0.266-0.029
					c-0.069-0.019-0.131-0.053-0.182-0.103c-0.051-0.049-0.099-0.115-0.143-0.2c-0.043-0.084-0.088-0.191-0.137-0.322l-0.975-2.356
					c-0.075-0.182-0.146-0.365-0.209-0.55c-0.064-0.185-0.127-0.369-0.187-0.551h-0.009c-0.019,0.215-0.042,0.427-0.072,0.634
					c-0.028,0.208-0.061,0.417-0.098,0.625l-0.456,2.696c-0.004,0.027-0.018,0.052-0.039,0.073c-0.021,0.021-0.054,0.04-0.099,0.053
					c-0.043,0.014-0.101,0.024-0.17,0.032c-0.069,0.009-0.156,0.013-0.262,0.013c-0.105,0-0.191-0.004-0.259-0.013
					c-0.067-0.008-0.119-0.018-0.156-0.032s-0.061-0.032-0.072-0.053c-0.012-0.021-0.014-0.046-0.006-0.073l0.804-4.747
					c0.021-0.127,0.077-0.224,0.169-0.287c0.093-0.063,0.199-0.096,0.318-0.096h0.614c0.098,0,0.184,0.01,0.255,0.03
					c0.072,0.021,0.133,0.054,0.185,0.099c0.051,0.044,0.097,0.103,0.138,0.173c0.042,0.071,0.081,0.158,0.119,0.261l0.985,2.376
					c0.064,0.153,0.124,0.303,0.178,0.453c0.054,0.15,0.11,0.299,0.168,0.448h0.009c0.023-0.195,0.049-0.397,0.08-0.605
					c0.029-0.208,0.06-0.41,0.092-0.605l0.425-2.487c0.005-0.027,0.017-0.051,0.038-0.072c0.019-0.021,0.051-0.037,0.093-0.049
					c0.043-0.012,0.099-0.021,0.167-0.028c0.068-0.007,0.155-0.011,0.26-0.011c0.105,0,0.19,0.004,0.261,0.011
					c0.069,0.007,0.122,0.016,0.158,0.028c0.037,0.013,0.062,0.029,0.074,0.049s0.017,0.044,0.012,0.072L151.257,35.172z"/>
				<path fill="#0073CF" d="M157.893,30.833c0.001,0.027,0,0.062-0.001,0.106c-0.002,0.043-0.007,0.09-0.016,0.14
					c-0.007,0.05-0.018,0.101-0.03,0.15c-0.013,0.051-0.028,0.096-0.047,0.137c-0.02,0.041-0.04,0.074-0.064,0.101
					c-0.024,0.025-0.05,0.038-0.077,0.038c-0.044,0-0.108-0.023-0.192-0.069c-0.082-0.046-0.19-0.098-0.321-0.155
					c-0.131-0.056-0.291-0.108-0.479-0.154c-0.188-0.046-0.408-0.069-0.663-0.069c-0.254,0-0.485,0.034-0.695,0.101
					c-0.208,0.066-0.397,0.157-0.566,0.273c-0.169,0.115-0.316,0.251-0.442,0.407c-0.125,0.157-0.228,0.325-0.311,0.504
					c-0.083,0.18-0.14,0.365-0.176,0.559c-0.035,0.193-0.047,0.383-0.038,0.571c0.01,0.209,0.053,0.392,0.126,0.55
					c0.074,0.157,0.175,0.29,0.305,0.396c0.129,0.105,0.284,0.186,0.462,0.241c0.18,0.055,0.378,0.081,0.597,0.081
					c0.146,0,0.29-0.014,0.432-0.041c0.143-0.027,0.273-0.068,0.393-0.123l0.207-1.219h-1.094c-0.036,0-0.064-0.012-0.086-0.038
					s-0.035-0.068-0.038-0.125c-0.001-0.027,0-0.062,0.004-0.106c0.003-0.043,0.009-0.088,0.017-0.136
					c0.009-0.047,0.019-0.097,0.031-0.145c0.013-0.048,0.03-0.092,0.049-0.13c0.02-0.038,0.044-0.07,0.069-0.094
					c0.026-0.024,0.055-0.037,0.088-0.037h1.959c0.099,0,0.17,0.03,0.215,0.089c0.044,0.06,0.058,0.144,0.039,0.253l-0.358,2.113
					c-0.01,0.051-0.022,0.095-0.039,0.132c-0.016,0.038-0.039,0.071-0.067,0.101c-0.031,0.033-0.105,0.071-0.223,0.116
					c-0.118,0.045-0.262,0.089-0.431,0.133c-0.169,0.043-0.359,0.08-0.57,0.11c-0.211,0.029-0.427,0.045-0.648,0.045
					c-0.416,0-0.784-0.044-1.105-0.131c-0.321-0.087-0.593-0.217-0.816-0.389c-0.222-0.172-0.395-0.384-0.518-0.634
					c-0.123-0.25-0.193-0.538-0.21-0.864c-0.015-0.293,0.005-0.582,0.061-0.864c0.056-0.282,0.147-0.55,0.273-0.806
					c0.125-0.254,0.286-0.489,0.48-0.705c0.193-0.216,0.422-0.403,0.684-0.561c0.263-0.158,0.559-0.281,0.886-0.37
					c0.327-0.088,0.688-0.133,1.083-0.133c0.218,0,0.425,0.016,0.621,0.047c0.196,0.032,0.372,0.07,0.529,0.114
					c0.156,0.045,0.288,0.094,0.394,0.145c0.108,0.052,0.179,0.092,0.214,0.12c0.037,0.029,0.061,0.061,0.075,0.096
					C157.882,30.738,157.89,30.781,157.893,30.833z"/>
			</g>
		</g>
	</g>
	<g id="PMS_295">
		<g>
			
				<linearGradient id="SVGID_3_" gradientUnits="userSpaceOnUse" x1="163.0186" y1="-90.4553" x2="256.3887" y2="-106.919" gradientTransform="matrix(1 0 0 -1 -156 -89.2622)">
				<stop  offset="0.03" style="stop-color:#FFFFFF;stop-opacity:0"/>
				<stop  offset="0.16" style="stop-color:#1B315D"/>
				<stop  offset="0.84" style="stop-color:#1B315D"/>
				<stop  offset="1" style="stop-color:#FFFFFF;stop-opacity:0"/>
			</linearGradient>
			<polygon fill="url(#SVGID_3_)" points="5.74,8.444 101.813,8.444 101.667,10.408 5.593,10.408 			"/>
			<g>
				<g>
					<defs>
						<path id="SVGID_4_" d="M47.587,13.192H11.021l-0.838,6.074h8.813l-2.244,16.253c-0.55,3.989-2.56,5.713-5.417,5.713
							c-2.412,0-4.155-1.281-5.825-3.448L0,43.103c1.976,2.807,5.193,5.17,10.56,5.17c3.741,0,6.993-1.084,9.401-3.2
							c2.353-2.069,3.957-5.123,4.521-9.21l2.275-16.483h0.023l-0.01,0.073l19.952,0.008c6.202,0,9.717,4.861,8.874,10.968
							l-0.013,0.098c-0.843,6.107-5.606,10.293-11.81,10.293h-6.548l2.639-19.117h-7.899l-2.593,5.582l2.831,0l-2.814,20.379h13.439
							c10.832,0,19.352-7.535,20.69-17.236l0.014-0.099C64.871,20.629,58.418,13.192,47.587,13.192"/>
					</defs>
					<clipPath id="SVGID_5_">
						<use xlink:href="#SVGID_4_"  overflow="visible"/>
					</clipPath>
					
						<radialGradient id="SVGID_6_" cx="182.0278" cy="-107.1682" r="25.3057" gradientTransform="matrix(0.9996 0 0 -1 -155.9331 -89.2622)" gradientUnits="userSpaceOnUse">
						<stop  offset="0.589" style="stop-color:#1B315D"/>
						<stop  offset="0.9632" style="stop-color:#1B315D;stop-opacity:0"/>
					</radialGradient>
					<ellipse clip-path="url(#SVGID_5_)" fill="url(#SVGID_6_)" cx="26.017" cy="17.906" rx="25.295" ry="25.305"/>
				</g>
			</g>
			<g>
				<path fill="#1B315D" d="M131.566,18.489c-0.004,0.027-0.019,0.052-0.041,0.073c-0.023,0.022-0.059,0.04-0.107,0.053
					c-0.049,0.014-0.111,0.023-0.188,0.031c-0.077,0.007-0.173,0.01-0.287,0.01c-0.117,0-0.212-0.003-0.285-0.01
					c-0.074-0.007-0.132-0.017-0.175-0.031c-0.042-0.013-0.072-0.031-0.087-0.053c-0.017-0.021-0.021-0.046-0.013-0.073l0.846-4.991
					c0.001-0.027,0.015-0.051,0.039-0.073c0.024-0.021,0.061-0.04,0.109-0.054c0.049-0.013,0.111-0.023,0.187-0.03
					s0.17-0.01,0.284-0.01c0.113,0,0.208,0.003,0.281,0.01c0.074,0.007,0.133,0.018,0.177,0.03c0.044,0.014,0.073,0.032,0.087,0.054
					c0.015,0.022,0.02,0.046,0.015,0.073L131.566,18.489z"/>
				<path fill="#1B315D" d="M139.233,18.489c-0.007,0.027-0.02,0.052-0.037,0.073c-0.017,0.022-0.047,0.04-0.088,0.053
					c-0.043,0.014-0.102,0.023-0.176,0.031c-0.075,0.007-0.167,0.01-0.278,0.01c-0.117,0-0.211-0.003-0.283-0.01
					c-0.072-0.007-0.128-0.017-0.167-0.031c-0.04-0.013-0.065-0.031-0.077-0.053c-0.011-0.021-0.015-0.046-0.01-0.073l0.724-4.294
					h-0.008l-2.415,4.29c-0.033,0.068-0.1,0.113-0.202,0.137c-0.102,0.022-0.248,0.034-0.436,0.034
					c-0.194,0-0.334-0.016-0.421-0.047c-0.087-0.031-0.133-0.07-0.138-0.116l-0.899-4.302h-0.009l-0.729,4.298
					c-0.005,0.027-0.016,0.052-0.034,0.073c-0.019,0.022-0.049,0.04-0.091,0.054c-0.042,0.013-0.101,0.023-0.173,0.03
					s-0.166,0.01-0.279,0.01c-0.114,0-0.207-0.003-0.279-0.01s-0.128-0.017-0.167-0.03c-0.039-0.014-0.066-0.031-0.079-0.054
					c-0.014-0.021-0.016-0.046-0.008-0.073l0.793-4.701c0.011-0.068,0.032-0.129,0.06-0.184c0.029-0.054,0.065-0.1,0.11-0.136
					s0.096-0.064,0.155-0.083c0.059-0.019,0.123-0.029,0.191-0.029h0.736c0.131,0,0.244,0.01,0.337,0.031
					c0.094,0.021,0.171,0.055,0.233,0.104c0.062,0.049,0.112,0.113,0.147,0.191c0.036,0.079,0.062,0.174,0.08,0.286l0.719,3.14
					h0.023l1.832-3.14c0.055-0.106,0.11-0.198,0.166-0.275s0.119-0.141,0.189-0.191c0.07-0.05,0.15-0.087,0.239-0.11
					c0.088-0.023,0.194-0.035,0.316-0.035h0.833c0.075,0,0.14,0.01,0.194,0.029s0.1,0.047,0.133,0.083
					c0.033,0.037,0.055,0.082,0.065,0.135c0.01,0.053,0.011,0.113,0.002,0.182L139.233,18.489z"/>
				<path fill="#1B315D" d="M145.078,14.647c0.008,0.153-0.003,0.312-0.032,0.477c-0.029,0.167-0.082,0.329-0.157,0.488
					c-0.075,0.159-0.176,0.309-0.303,0.452c-0.125,0.143-0.282,0.27-0.469,0.379c-0.188,0.11-0.406,0.198-0.657,0.262
					c-0.251,0.063-0.548,0.095-0.892,0.095h-0.605l-0.287,1.688c-0.004,0.027-0.019,0.052-0.041,0.073
					c-0.023,0.022-0.06,0.04-0.109,0.054c-0.05,0.013-0.114,0.023-0.191,0.03c-0.077,0.007-0.173,0.01-0.286,0.01
					c-0.111,0-0.203-0.003-0.276-0.01c-0.074-0.007-0.132-0.017-0.175-0.03c-0.042-0.014-0.071-0.031-0.087-0.052
					c-0.016-0.02-0.021-0.045-0.013-0.075l0.804-4.75c0.021-0.127,0.074-0.224,0.161-0.288c0.086-0.064,0.195-0.096,0.327-0.096
					h1.269c0.156,0,0.294,0.005,0.418,0.015c0.123,0.01,0.245,0.025,0.365,0.047c0.184,0.033,0.35,0.083,0.499,0.151
					c0.148,0.067,0.276,0.152,0.382,0.254c0.107,0.102,0.191,0.222,0.251,0.359C145.035,14.319,145.07,14.474,145.078,14.647z
					 M143.842,14.77c-0.007-0.13-0.046-0.243-0.12-0.338c-0.073-0.095-0.183-0.162-0.328-0.2c-0.063-0.019-0.134-0.032-0.213-0.039
					c-0.078-0.007-0.165-0.01-0.26-0.01h-0.52l-0.295,1.79h0.538c0.17,0,0.314-0.018,0.435-0.055
					c0.119-0.037,0.223-0.084,0.311-0.145c0.088-0.06,0.163-0.13,0.223-0.212c0.06-0.081,0.108-0.167,0.144-0.257
					c0.036-0.089,0.059-0.18,0.073-0.271C143.842,14.942,143.846,14.854,143.842,14.77z"/>
				<path fill="#1B315D" d="M150.024,14.505c0.009,0.174-0.008,0.347-0.052,0.518c-0.043,0.171-0.118,0.333-0.225,0.485
					c-0.106,0.152-0.246,0.29-0.42,0.412c-0.175,0.122-0.39,0.221-0.647,0.293c0.146,0.052,0.271,0.155,0.377,0.308
					c0.104,0.154,0.195,0.364,0.271,0.63l0.292,1.073c0.015,0.06,0.027,0.113,0.038,0.161c0.009,0.047,0.016,0.087,0.017,0.121
					c0.001,0.026-0.007,0.05-0.025,0.069c-0.019,0.019-0.053,0.034-0.103,0.047c-0.049,0.013-0.118,0.021-0.207,0.026
					c-0.088,0.005-0.199,0.008-0.334,0.008c-0.125,0-0.227-0.003-0.304-0.011c-0.076-0.006-0.136-0.017-0.178-0.032
					c-0.043-0.015-0.071-0.035-0.086-0.06c-0.015-0.024-0.025-0.053-0.034-0.085l-0.282-1.17c-0.031-0.135-0.069-0.255-0.115-0.358
					c-0.045-0.103-0.102-0.189-0.167-0.259c-0.066-0.069-0.146-0.121-0.239-0.155c-0.093-0.034-0.202-0.051-0.328-0.051h-0.367
					l-0.342,2.015c-0.005,0.027-0.019,0.052-0.041,0.073c-0.023,0.022-0.059,0.04-0.107,0.054c-0.049,0.013-0.111,0.023-0.189,0.03
					s-0.172,0.01-0.286,0.01c-0.113,0-0.207-0.003-0.28-0.01c-0.074-0.007-0.132-0.017-0.175-0.03
					c-0.042-0.014-0.071-0.031-0.087-0.052c-0.016-0.02-0.021-0.045-0.013-0.075l0.815-4.795c0.018-0.119,0.067-0.206,0.146-0.259
					c0.079-0.053,0.172-0.08,0.28-0.08h1.556c0.271,0,0.519,0.023,0.741,0.069c0.222,0.047,0.413,0.117,0.574,0.212
					c0.16,0.095,0.285,0.215,0.376,0.359C149.965,14.139,150.016,14.31,150.024,14.505z M148.771,14.705
					c-0.004-0.076-0.021-0.147-0.053-0.213c-0.032-0.064-0.081-0.121-0.146-0.168c-0.065-0.047-0.149-0.085-0.25-0.11
					c-0.102-0.026-0.222-0.039-0.363-0.039h-0.668l-0.251,1.497h0.561c0.224,0,0.413-0.029,0.565-0.087
					c0.152-0.058,0.273-0.134,0.365-0.227c0.09-0.092,0.155-0.195,0.193-0.308C148.761,14.936,148.776,14.822,148.771,14.705z"/>
				<path fill="#1B315D" d="M156.168,15.121c0.011,0.239,0,0.495-0.034,0.766c-0.034,0.272-0.098,0.542-0.189,0.81
					c-0.093,0.268-0.22,0.523-0.381,0.769c-0.161,0.245-0.361,0.46-0.599,0.646c-0.24,0.187-0.523,0.335-0.852,0.447
					s-0.708,0.167-1.136,0.167c-0.36,0-0.682-0.037-0.962-0.11c-0.279-0.073-0.52-0.186-0.717-0.338
					c-0.198-0.152-0.351-0.344-0.459-0.575c-0.109-0.23-0.171-0.503-0.187-0.815c-0.013-0.255-0.002-0.523,0.034-0.801
					c0.035-0.279,0.101-0.552,0.196-0.82c0.096-0.268,0.226-0.523,0.389-0.765c0.165-0.242,0.366-0.456,0.604-0.64
					s0.521-0.331,0.848-0.438c0.326-0.107,0.701-0.162,1.122-0.162c0.361,0,0.682,0.038,0.962,0.112
					c0.28,0.075,0.518,0.189,0.714,0.342c0.196,0.154,0.349,0.348,0.458,0.582C156.089,14.531,156.151,14.805,156.168,15.121z
					 M154.925,15.223c-0.007-0.166-0.035-0.316-0.083-0.451c-0.046-0.135-0.118-0.248-0.213-0.34
					c-0.093-0.093-0.214-0.164-0.362-0.214c-0.147-0.05-0.326-0.075-0.535-0.075c-0.261,0-0.487,0.045-0.679,0.136
					c-0.192,0.091-0.358,0.209-0.498,0.356c-0.14,0.146-0.253,0.315-0.342,0.504c-0.089,0.189-0.158,0.38-0.209,0.575
					c-0.05,0.195-0.083,0.384-0.099,0.569c-0.016,0.185-0.02,0.347-0.013,0.485c0.008,0.169,0.037,0.319,0.083,0.452
					c0.046,0.134,0.118,0.246,0.213,0.337c0.096,0.091,0.218,0.161,0.365,0.21c0.148,0.049,0.328,0.073,0.539,0.073
					c0.258,0,0.482-0.045,0.675-0.134c0.193-0.09,0.358-0.208,0.496-0.353c0.137-0.145,0.251-0.312,0.341-0.499
					c0.088-0.188,0.159-0.378,0.208-0.571c0.05-0.193,0.083-0.381,0.099-0.567C154.929,15.531,154.933,15.367,154.925,15.223z"/>
				<path fill="#1B315D" d="M159.591,18.444c-0.025,0.047-0.051,0.083-0.08,0.112c-0.029,0.029-0.071,0.05-0.127,0.065
					c-0.057,0.015-0.131,0.024-0.225,0.028c-0.094,0.004-0.217,0.006-0.371,0.006c-0.176,0-0.316-0.002-0.421-0.006
					c-0.104-0.004-0.184-0.014-0.239-0.028c-0.055-0.015-0.092-0.037-0.114-0.067c-0.021-0.03-0.036-0.071-0.045-0.123l-0.949-4.767
					c-0.012-0.074-0.019-0.133-0.018-0.178c0.001-0.045,0.021-0.079,0.058-0.102c0.038-0.023,0.097-0.039,0.18-0.045
					c0.082-0.007,0.195-0.01,0.342-0.01c0.146,0,0.261,0.002,0.344,0.008c0.083,0.006,0.145,0.016,0.19,0.031
					c0.043,0.015,0.072,0.036,0.086,0.063c0.013,0.027,0.023,0.063,0.032,0.106l0.698,4.062h0.009l2.048-4.078
					c0.02-0.038,0.042-0.07,0.067-0.096c0.026-0.026,0.063-0.046,0.111-0.06c0.049-0.014,0.114-0.023,0.197-0.029
					c0.082-0.005,0.19-0.008,0.325-0.008c0.143,0,0.256,0.004,0.336,0.012c0.082,0.008,0.136,0.027,0.165,0.057
					c0.028,0.03,0.033,0.074,0.016,0.133c-0.018,0.058-0.053,0.136-0.105,0.234L159.591,18.444z"/>
				<path fill="#1B315D" d="M163.305,18.489c-0.004,0.027-0.019,0.052-0.041,0.073c-0.023,0.022-0.058,0.04-0.107,0.053
					c-0.048,0.014-0.111,0.023-0.188,0.031c-0.078,0.007-0.172,0.01-0.286,0.01c-0.116,0-0.212-0.003-0.286-0.01
					c-0.074-0.007-0.131-0.017-0.174-0.031c-0.042-0.013-0.071-0.031-0.088-0.053c-0.017-0.021-0.02-0.046-0.012-0.073l0.846-4.991
					c0.001-0.027,0.015-0.051,0.039-0.073c0.024-0.021,0.061-0.04,0.11-0.054c0.048-0.013,0.11-0.023,0.186-0.03
					c0.076-0.007,0.171-0.01,0.285-0.01c0.113,0,0.207,0.003,0.28,0.01c0.075,0.007,0.133,0.018,0.177,0.03
					c0.044,0.014,0.074,0.032,0.087,0.054c0.015,0.022,0.021,0.046,0.016,0.073L163.305,18.489z"/>
				<path fill="#1B315D" d="M169.363,18.257c-0.008,0.062-0.029,0.118-0.061,0.167c-0.032,0.049-0.071,0.09-0.115,0.123
					s-0.094,0.057-0.148,0.071c-0.055,0.015-0.112,0.022-0.171,0.022h-0.502c-0.108,0-0.197-0.009-0.267-0.029
					c-0.07-0.019-0.13-0.053-0.182-0.102c-0.052-0.049-0.1-0.115-0.143-0.2c-0.043-0.084-0.089-0.192-0.137-0.322l-0.975-2.357
					c-0.075-0.182-0.145-0.365-0.209-0.551c-0.065-0.184-0.127-0.368-0.188-0.55h-0.009c-0.019,0.214-0.042,0.426-0.071,0.634
					c-0.028,0.208-0.061,0.417-0.098,0.625l-0.456,2.695c-0.005,0.028-0.018,0.052-0.039,0.074
					c-0.022,0.022-0.054,0.039-0.099,0.053c-0.044,0.014-0.102,0.025-0.17,0.033c-0.071,0.008-0.158,0.012-0.262,0.012
					c-0.104,0-0.191-0.004-0.258-0.012c-0.067-0.008-0.12-0.019-0.157-0.033c-0.036-0.014-0.061-0.031-0.071-0.053
					c-0.012-0.022-0.014-0.046-0.006-0.074l0.805-4.746c0.02-0.127,0.076-0.224,0.168-0.288s0.198-0.096,0.318-0.096h0.614
					c0.098,0,0.183,0.01,0.254,0.031c0.071,0.021,0.133,0.054,0.185,0.098c0.052,0.045,0.098,0.103,0.139,0.173
					c0.041,0.071,0.08,0.158,0.119,0.261l0.985,2.377c0.065,0.152,0.124,0.303,0.177,0.453c0.055,0.15,0.111,0.299,0.17,0.449h0.008
					c0.024-0.196,0.05-0.397,0.08-0.605c0.029-0.208,0.061-0.41,0.093-0.606l0.425-2.487c0.004-0.026,0.017-0.051,0.037-0.071
					c0.021-0.02,0.052-0.037,0.095-0.049c0.042-0.012,0.098-0.022,0.166-0.029c0.068-0.006,0.155-0.01,0.26-0.01
					c0.105,0,0.192,0.004,0.262,0.01c0.068,0.007,0.12,0.017,0.157,0.029c0.037,0.012,0.062,0.029,0.074,0.049
					c0.014,0.021,0.018,0.044,0.013,0.071L169.363,18.257z"/>
				<path fill="#1B315D" d="M175.999,13.918c0.001,0.027,0.001,0.063-0.001,0.106c-0.002,0.043-0.007,0.09-0.016,0.14
					c-0.007,0.051-0.018,0.101-0.03,0.151c-0.012,0.05-0.028,0.095-0.047,0.136c-0.019,0.041-0.04,0.074-0.064,0.1
					c-0.024,0.026-0.05,0.039-0.076,0.039c-0.045,0-0.108-0.023-0.191-0.07c-0.083-0.046-0.19-0.097-0.322-0.155
					c-0.131-0.057-0.291-0.109-0.479-0.155c-0.188-0.045-0.408-0.069-0.663-0.069c-0.254,0-0.485,0.033-0.694,0.1
					c-0.208,0.067-0.398,0.158-0.566,0.273s-0.316,0.251-0.441,0.408s-0.229,0.324-0.31,0.504c-0.082,0.179-0.141,0.366-0.176,0.559
					c-0.035,0.193-0.047,0.383-0.038,0.571c0.01,0.209,0.053,0.393,0.126,0.55c0.074,0.158,0.176,0.29,0.305,0.396
					c0.13,0.105,0.284,0.186,0.463,0.24c0.179,0.055,0.378,0.082,0.596,0.082c0.146,0,0.291-0.014,0.433-0.041
					c0.142-0.027,0.273-0.068,0.393-0.123l0.207-1.22h-1.093c-0.036,0-0.065-0.013-0.088-0.039
					c-0.021-0.026-0.034-0.067-0.037-0.124c-0.002-0.027,0-0.063,0.003-0.106s0.01-0.089,0.017-0.137
					c0.008-0.047,0.018-0.095,0.031-0.145c0.013-0.049,0.029-0.093,0.049-0.131c0.021-0.038,0.043-0.069,0.069-0.094
					c0.025-0.024,0.055-0.037,0.087-0.037h1.96c0.099,0,0.17,0.03,0.215,0.09c0.045,0.06,0.058,0.144,0.04,0.253l-0.359,2.112
					c-0.01,0.052-0.022,0.096-0.039,0.133c-0.016,0.037-0.039,0.07-0.066,0.1c-0.032,0.033-0.105,0.071-0.223,0.116
					c-0.117,0.045-0.261,0.089-0.43,0.132c-0.169,0.044-0.36,0.081-0.571,0.11c-0.21,0.03-0.427,0.045-0.647,0.045
					c-0.416,0-0.784-0.044-1.104-0.13c-0.322-0.087-0.594-0.217-0.816-0.39c-0.223-0.172-0.395-0.384-0.518-0.634
					c-0.124-0.25-0.193-0.538-0.21-0.864c-0.015-0.293,0.006-0.582,0.062-0.864c0.056-0.283,0.147-0.551,0.274-0.806
					c0.125-0.254,0.285-0.49,0.479-0.705c0.194-0.216,0.422-0.403,0.685-0.561c0.261-0.158,0.557-0.28,0.884-0.369
					s0.688-0.133,1.083-0.133c0.219,0,0.425,0.016,0.622,0.047c0.196,0.032,0.372,0.069,0.528,0.114
					c0.156,0.045,0.288,0.093,0.395,0.145s0.179,0.091,0.214,0.12c0.036,0.028,0.061,0.06,0.075,0.096
					C175.988,13.823,175.996,13.867,175.999,13.918z"/>
				<path fill="#1B315D" d="M132.484,26.337c0.001,0.019,0,0.05-0.003,0.091c-0.002,0.042-0.007,0.091-0.015,0.145
					c-0.007,0.055-0.018,0.11-0.032,0.167c-0.014,0.057-0.03,0.109-0.05,0.157c-0.02,0.048-0.044,0.087-0.072,0.117
					c-0.029,0.03-0.062,0.045-0.102,0.045h-2.659c-0.047,0-0.092-0.006-0.133-0.019c-0.042-0.012-0.075-0.033-0.102-0.061
					c-0.027-0.029-0.046-0.064-0.057-0.106c-0.011-0.042-0.013-0.093-0.004-0.153l0.816-4.795c0.001-0.026,0.014-0.052,0.037-0.073
					c0.023-0.021,0.058-0.04,0.107-0.053c0.048-0.013,0.111-0.023,0.186-0.03c0.077-0.007,0.172-0.011,0.289-0.011
					c0.114,0,0.208,0.004,0.283,0.011c0.076,0.006,0.135,0.017,0.178,0.03c0.042,0.014,0.071,0.032,0.085,0.053
					c0.015,0.021,0.021,0.047,0.016,0.073l-0.719,4.25h1.83c0.042,0,0.072,0.015,0.089,0.044
					C132.471,26.249,132.481,26.287,132.484,26.337z"/>
				<path fill="#1B315D" d="M134.293,26.916c-0.005,0.026-0.019,0.051-0.041,0.073c-0.023,0.022-0.059,0.04-0.107,0.053
					s-0.111,0.023-0.189,0.03c-0.077,0.007-0.173,0.01-0.287,0.01c-0.116,0-0.211-0.004-0.285-0.01
					c-0.074-0.007-0.132-0.017-0.175-0.03c-0.042-0.014-0.071-0.031-0.087-0.053c-0.017-0.022-0.021-0.046-0.013-0.073l0.846-4.991
					c0.001-0.027,0.015-0.052,0.039-0.074c0.024-0.021,0.06-0.04,0.11-0.053c0.048-0.014,0.11-0.024,0.186-0.031
					c0.076-0.007,0.17-0.01,0.284-0.01s0.207,0.003,0.28,0.01c0.074,0.007,0.133,0.017,0.177,0.031
					c0.043,0.013,0.073,0.031,0.087,0.053c0.015,0.021,0.02,0.047,0.016,0.074L134.293,26.916z"/>
				<path fill="#1B315D" d="M138.456,26.87c-0.024,0.046-0.051,0.084-0.08,0.112c-0.028,0.029-0.071,0.05-0.126,0.065
					c-0.056,0.015-0.131,0.024-0.225,0.028c-0.094,0.004-0.217,0.006-0.37,0.006c-0.177,0-0.318-0.002-0.422-0.006
					c-0.105-0.004-0.185-0.014-0.239-0.028c-0.055-0.015-0.092-0.037-0.113-0.067c-0.022-0.03-0.037-0.071-0.045-0.122l-0.95-4.767
					c-0.013-0.073-0.019-0.132-0.019-0.177c0.001-0.045,0.021-0.079,0.058-0.102c0.038-0.023,0.098-0.038,0.18-0.045
					c0.082-0.007,0.196-0.01,0.342-0.01c0.147,0,0.262,0.003,0.344,0.008c0.083,0.006,0.146,0.016,0.189,0.031
					c0.044,0.016,0.073,0.037,0.086,0.063c0.013,0.027,0.024,0.062,0.032,0.106l0.7,4.061h0.008l2.048-4.077
					c0.02-0.038,0.042-0.07,0.067-0.096c0.026-0.026,0.063-0.046,0.111-0.06c0.049-0.014,0.114-0.023,0.196-0.029
					c0.082-0.005,0.189-0.008,0.324-0.008c0.143,0,0.256,0.004,0.337,0.012c0.081,0.008,0.136,0.027,0.164,0.057
					c0.029,0.029,0.035,0.074,0.016,0.133c-0.018,0.058-0.053,0.136-0.104,0.234L138.456,26.87z"/>
				<path fill="#1B315D" d="M145.223,21.937c0.001,0.016,0,0.045-0.003,0.085c-0.002,0.041-0.006,0.086-0.012,0.136
					c-0.007,0.051-0.017,0.103-0.028,0.157c-0.012,0.055-0.029,0.104-0.048,0.149c-0.02,0.044-0.045,0.083-0.076,0.112
					c-0.029,0.03-0.062,0.044-0.098,0.044h-2.072l-0.221,1.289h1.757c0.042,0,0.073,0.014,0.092,0.041
					c0.02,0.027,0.03,0.066,0.033,0.114c0.001,0.019,0,0.048-0.002,0.087c-0.002,0.04-0.007,0.084-0.013,0.135
					c-0.006,0.05-0.016,0.101-0.028,0.152c-0.012,0.052-0.028,0.099-0.048,0.143c-0.02,0.043-0.045,0.079-0.073,0.106
					c-0.029,0.027-0.061,0.041-0.097,0.041h-1.753l-0.256,1.488h2.098c0.036,0,0.063,0.014,0.083,0.042
					c0.019,0.029,0.03,0.071,0.033,0.125c0,0.019,0,0.049,0,0.09c-0.001,0.04-0.005,0.086-0.014,0.136
					c-0.008,0.05-0.019,0.102-0.03,0.153c-0.012,0.051-0.029,0.1-0.049,0.145c-0.02,0.045-0.044,0.081-0.072,0.108
					c-0.029,0.028-0.062,0.041-0.102,0.041h-2.914c-0.047,0-0.091-0.006-0.131-0.019c-0.04-0.011-0.072-0.033-0.1-0.061
					c-0.027-0.029-0.046-0.064-0.057-0.106c-0.011-0.042-0.012-0.093-0.003-0.153l0.781-4.599c0.02-0.12,0.07-0.206,0.148-0.259
					c0.078-0.053,0.167-0.08,0.265-0.08h2.887C145.175,21.782,145.217,21.834,145.223,21.937z"/>
				<path fill="#1B315D" d="M149.279,22.186c0.001,0.022,0,0.053-0.002,0.094c-0.002,0.041-0.007,0.085-0.013,0.134
					c-0.007,0.049-0.015,0.099-0.026,0.149c-0.011,0.05-0.025,0.096-0.043,0.139c-0.017,0.042-0.037,0.077-0.059,0.104
					c-0.023,0.027-0.047,0.041-0.074,0.041c-0.042,0-0.095-0.017-0.16-0.051c-0.064-0.034-0.143-0.071-0.236-0.11
					c-0.093-0.04-0.202-0.076-0.326-0.11c-0.124-0.034-0.264-0.051-0.419-0.051c-0.162,0-0.297,0.021-0.407,0.062
					c-0.11,0.041-0.199,0.095-0.268,0.161c-0.068,0.067-0.118,0.141-0.147,0.224c-0.031,0.083-0.043,0.167-0.039,0.251
					c0.005,0.098,0.036,0.184,0.094,0.259c0.057,0.074,0.133,0.144,0.226,0.208c0.092,0.064,0.198,0.126,0.317,0.186
					c0.118,0.059,0.238,0.122,0.359,0.187c0.121,0.065,0.242,0.136,0.36,0.214s0.226,0.167,0.321,0.27
					c0.094,0.102,0.172,0.219,0.233,0.35c0.061,0.132,0.095,0.284,0.104,0.455c0.013,0.256-0.032,0.493-0.135,0.712
					c-0.103,0.219-0.253,0.409-0.453,0.571c-0.199,0.162-0.444,0.289-0.733,0.381c-0.291,0.092-0.614,0.138-0.973,0.138
					c-0.195,0-0.375-0.014-0.541-0.042c-0.165-0.028-0.312-0.063-0.441-0.104c-0.129-0.041-0.239-0.084-0.327-0.129
					c-0.089-0.045-0.155-0.087-0.199-0.128c-0.044-0.041-0.068-0.102-0.072-0.184c-0.001-0.021,0-0.054,0.004-0.098
					c0.004-0.043,0.009-0.09,0.018-0.141c0.008-0.051,0.018-0.102,0.029-0.155c0.013-0.053,0.028-0.101,0.047-0.145
					c0.02-0.043,0.04-0.078,0.064-0.106c0.023-0.026,0.052-0.041,0.081-0.041c0.05,0,0.112,0.021,0.185,0.063
					s0.162,0.089,0.27,0.138c0.107,0.05,0.233,0.098,0.379,0.141c0.146,0.043,0.318,0.065,0.519,0.065
					c0.177,0,0.33-0.021,0.461-0.062c0.13-0.04,0.239-0.096,0.325-0.166c0.086-0.071,0.15-0.153,0.191-0.247
					c0.042-0.094,0.06-0.196,0.054-0.308c-0.005-0.101-0.036-0.189-0.094-0.265s-0.133-0.146-0.223-0.209
					c-0.092-0.064-0.195-0.125-0.31-0.183c-0.115-0.056-0.232-0.118-0.353-0.183c-0.12-0.066-0.238-0.136-0.354-0.212
					s-0.221-0.166-0.314-0.268c-0.094-0.102-0.17-0.219-0.23-0.353c-0.061-0.133-0.096-0.288-0.104-0.465
					c-0.013-0.245,0.03-0.47,0.127-0.677c0.097-0.207,0.237-0.384,0.421-0.532c0.183-0.148,0.406-0.263,0.669-0.347
					c0.26-0.083,0.552-0.124,0.872-0.124c0.149,0,0.292,0.01,0.427,0.03c0.135,0.021,0.259,0.047,0.371,0.078
					c0.113,0.032,0.209,0.066,0.288,0.104c0.08,0.039,0.135,0.07,0.167,0.096c0.032,0.026,0.055,0.053,0.07,0.081
					C149.269,22.106,149.277,22.142,149.279,22.186z"/>
				<path fill="#1B315D" d="M151.081,26.251c0.002,0.041,0,0.094-0.005,0.159c-0.006,0.065-0.016,0.133-0.033,0.202
					c-0.016,0.069-0.038,0.136-0.066,0.2s-0.064,0.116-0.108,0.159s-0.111,0.076-0.201,0.102c-0.089,0.026-0.209,0.039-0.358,0.039
					c-0.111,0-0.203-0.007-0.277-0.024c-0.074-0.016-0.134-0.04-0.179-0.073c-0.044-0.033-0.077-0.074-0.098-0.125
					c-0.021-0.05-0.033-0.109-0.036-0.177c-0.002-0.044,0-0.099,0.008-0.164c0.008-0.065,0.019-0.132,0.035-0.201
					c0.016-0.07,0.038-0.135,0.066-0.198c0.028-0.062,0.065-0.115,0.111-0.157c0.046-0.042,0.111-0.076,0.197-0.103
					c0.086-0.025,0.206-0.039,0.361-0.039c0.117,0,0.212,0.009,0.288,0.028s0.135,0.046,0.179,0.08s0.073,0.076,0.089,0.126
					C151.069,26.136,151.078,26.191,151.081,26.251z"/>
				<path fill="#1B315D" d="M131.596,38.807c0.001,0.019,0,0.049-0.002,0.091c-0.002,0.042-0.008,0.089-0.015,0.142
					c-0.008,0.051-0.019,0.105-0.033,0.161c-0.013,0.056-0.029,0.106-0.05,0.153c-0.02,0.046-0.044,0.084-0.074,0.114
					c-0.03,0.03-0.063,0.045-0.099,0.045h-1.457l-0.718,4.252c-0.008,0.027-0.023,0.053-0.045,0.073
					c-0.023,0.022-0.058,0.04-0.107,0.053c-0.049,0.014-0.111,0.024-0.187,0.033c-0.076,0.008-0.172,0.011-0.289,0.011
					c-0.115,0-0.208-0.003-0.284-0.011c-0.075-0.008-0.133-0.019-0.175-0.033c-0.041-0.013-0.068-0.03-0.083-0.053
					c-0.015-0.022-0.02-0.046-0.015-0.073l0.718-4.252h-1.444c-0.044,0-0.076-0.015-0.094-0.045
					c-0.018-0.029-0.027-0.071-0.03-0.122c-0.001-0.022-0.001-0.054,0.001-0.097c0.002-0.041,0.008-0.089,0.015-0.142
					c0.009-0.053,0.02-0.107,0.033-0.163c0.014-0.056,0.032-0.107,0.053-0.152c0.021-0.047,0.046-0.084,0.075-0.113
					c0.028-0.029,0.061-0.042,0.096-0.042h4.088c0.036,0,0.065,0.014,0.086,0.043C131.582,38.71,131.594,38.753,131.596,38.807z"/>
				<path fill="#1B315D" d="M134.116,41.911l-0.309,1.859c-0.008,0.027-0.023,0.051-0.045,0.073
					c-0.023,0.022-0.059,0.04-0.107,0.053c-0.048,0.014-0.111,0.024-0.189,0.03c-0.077,0.008-0.172,0.011-0.286,0.011
					c-0.113,0-0.208-0.004-0.283-0.011s-0.133-0.016-0.174-0.03c-0.041-0.013-0.069-0.03-0.083-0.053
					c-0.015-0.022-0.02-0.046-0.015-0.073l0.309-1.859l-1.096-2.876c-0.038-0.095-0.062-0.171-0.072-0.228
					c-0.01-0.057,0.002-0.1,0.036-0.129c0.035-0.029,0.097-0.047,0.185-0.055c0.09-0.009,0.217-0.013,0.382-0.013
					c0.125,0,0.224,0.002,0.298,0.006c0.073,0.004,0.131,0.013,0.174,0.026c0.042,0.014,0.072,0.034,0.09,0.059
					c0.018,0.026,0.034,0.06,0.048,0.1l0.454,1.269c0.053,0.153,0.1,0.296,0.141,0.435c0.041,0.137,0.079,0.28,0.113,0.43h0.009
					c0.076-0.146,0.156-0.291,0.238-0.431c0.082-0.142,0.17-0.283,0.266-0.424l0.862-1.289c0.022-0.037,0.045-0.065,0.072-0.088
					c0.025-0.023,0.062-0.042,0.109-0.055c0.047-0.014,0.11-0.023,0.189-0.029c0.079-0.005,0.186-0.008,0.321-0.008
					c0.173,0,0.305,0.005,0.397,0.014c0.091,0.01,0.152,0.03,0.182,0.061c0.03,0.032,0.031,0.076,0.002,0.131
					c-0.028,0.056-0.075,0.129-0.139,0.218L134.116,41.911z"/>
				<path fill="#1B315D" d="M140.812,39.928c0.008,0.152-0.003,0.312-0.032,0.478c-0.029,0.166-0.082,0.328-0.157,0.487
					c-0.076,0.159-0.177,0.311-0.302,0.452c-0.126,0.143-0.283,0.269-0.47,0.38c-0.187,0.11-0.407,0.197-0.657,0.259
					c-0.251,0.065-0.548,0.097-0.893,0.097h-0.604l-0.287,1.688c-0.005,0.027-0.019,0.051-0.042,0.073
					c-0.023,0.021-0.059,0.038-0.109,0.053c-0.051,0.013-0.115,0.024-0.192,0.03c-0.077,0.006-0.172,0.009-0.286,0.009
					c-0.11,0-0.202-0.003-0.276-0.009c-0.074-0.006-0.132-0.018-0.174-0.03c-0.042-0.015-0.072-0.03-0.087-0.051
					c-0.017-0.021-0.021-0.046-0.012-0.075l0.803-4.751c0.021-0.127,0.074-0.223,0.16-0.287c0.087-0.064,0.196-0.096,0.327-0.096
					h1.27c0.155,0,0.294,0.005,0.417,0.014c0.122,0.009,0.245,0.025,0.365,0.047c0.184,0.032,0.351,0.083,0.499,0.15
					c0.148,0.067,0.276,0.152,0.383,0.254c0.107,0.103,0.19,0.222,0.251,0.359C140.769,39.598,140.804,39.754,140.812,39.928z
					 M139.577,40.051c-0.006-0.131-0.046-0.243-0.12-0.338c-0.073-0.096-0.183-0.163-0.328-0.2
					c-0.063-0.019-0.135-0.032-0.213-0.039c-0.078-0.007-0.165-0.01-0.261-0.01h-0.52l-0.295,1.791h0.538
					c0.17,0,0.315-0.019,0.435-0.056c0.12-0.037,0.223-0.084,0.311-0.145c0.088-0.059,0.163-0.131,0.223-0.212
					c0.06-0.081,0.107-0.167,0.144-0.258c0.035-0.089,0.06-0.18,0.073-0.271C139.577,40.222,139.581,40.135,139.577,40.051z"/>
				<path fill="#1B315D" d="M145.354,38.791c0.001,0.016,0,0.044-0.002,0.085c-0.002,0.041-0.007,0.086-0.013,0.136
					c-0.007,0.051-0.016,0.103-0.028,0.157c-0.012,0.055-0.028,0.104-0.048,0.149c-0.021,0.045-0.045,0.082-0.075,0.112
					c-0.03,0.029-0.063,0.044-0.099,0.044h-2.071l-0.222,1.288h1.757c0.042,0,0.072,0.015,0.091,0.042
					c0.02,0.027,0.03,0.065,0.033,0.115c0.001,0.019,0,0.048-0.002,0.087c-0.003,0.04-0.007,0.084-0.013,0.134
					c-0.007,0.051-0.016,0.102-0.028,0.153c-0.012,0.052-0.028,0.1-0.049,0.143c-0.02,0.043-0.044,0.08-0.073,0.107
					c-0.029,0.027-0.061,0.04-0.097,0.04h-1.753l-0.256,1.488h2.099c0.035,0,0.062,0.015,0.083,0.043
					c0.019,0.029,0.03,0.07,0.033,0.125c0.001,0.019,0.001,0.049,0,0.089c-0.001,0.042-0.005,0.087-0.013,0.137
					c-0.008,0.051-0.019,0.102-0.03,0.153c-0.012,0.053-0.029,0.101-0.049,0.145c-0.021,0.046-0.044,0.081-0.073,0.108
					c-0.028,0.027-0.062,0.041-0.101,0.041h-2.914c-0.047,0-0.091-0.006-0.13-0.019c-0.04-0.013-0.073-0.032-0.101-0.061
					c-0.026-0.028-0.046-0.063-0.057-0.106c-0.011-0.042-0.012-0.092-0.003-0.153l0.78-4.599c0.021-0.12,0.071-0.206,0.149-0.26
					c0.078-0.053,0.167-0.08,0.265-0.08h2.887C145.308,38.636,145.35,38.687,145.354,38.791z"/>
				<path fill="#1B315D" d="M151.337,43.256c0.002,0.02,0.001,0.05-0.001,0.089c-0.003,0.042-0.008,0.087-0.016,0.137
					s-0.018,0.101-0.03,0.15c-0.013,0.047-0.029,0.094-0.049,0.138c-0.021,0.043-0.045,0.078-0.074,0.104s-0.059,0.038-0.092,0.038
					h-3.206c-0.04,0-0.07-0.014-0.092-0.044c-0.022-0.03-0.035-0.075-0.038-0.135c-0.001-0.018,0-0.048,0.002-0.087
					c0.002-0.038,0.008-0.083,0.016-0.131c0.008-0.047,0.02-0.097,0.033-0.148c0.013-0.052,0.031-0.099,0.051-0.138
					c0.021-0.042,0.044-0.075,0.073-0.102c0.028-0.028,0.062-0.042,0.102-0.042h1.076l0.573-3.388l-1.018,0.468
					c-0.058,0.025-0.107,0.041-0.145,0.048c-0.039,0.006-0.069,0.006-0.09-0.005c-0.021-0.01-0.037-0.025-0.044-0.051
					c-0.009-0.024-0.015-0.057-0.017-0.098c-0.003-0.038-0.001-0.089,0.003-0.153c0.005-0.063,0.016-0.13,0.033-0.2
					s0.042-0.135,0.073-0.194s0.071-0.102,0.121-0.126l1.385-0.733c0.02-0.011,0.042-0.02,0.066-0.026
					c0.023-0.007,0.054-0.012,0.09-0.017c0.037-0.004,0.086-0.006,0.146-0.008c0.06-0.001,0.136-0.002,0.229-0.002
					c0.114,0,0.205,0.002,0.274,0.007c0.068,0.003,0.12,0.01,0.156,0.02c0.034,0.009,0.055,0.022,0.062,0.039
					c0.008,0.016,0.01,0.037,0.008,0.061l-0.734,4.358h0.955c0.039,0,0.068,0.015,0.087,0.043
					C151.324,43.156,151.335,43.198,151.337,43.256z"/>
				<path fill="#1B315D" d="M131.044,48.97c0.008,0.164,0.006,0.336-0.007,0.518c-0.013,0.183-0.042,0.368-0.084,0.557
					c-0.042,0.189-0.104,0.377-0.182,0.563c-0.08,0.187-0.181,0.365-0.303,0.533c-0.123,0.17-0.271,0.328-0.444,0.474
					c-0.174,0.148-0.375,0.275-0.607,0.382c-0.231,0.108-0.492,0.191-0.784,0.251c-0.293,0.059-0.645,0.089-1.054,0.089h-1.475
					c-0.048,0-0.094-0.005-0.138-0.016c-0.043-0.011-0.081-0.03-0.11-0.056c-0.029-0.025-0.051-0.06-0.064-0.103
					c-0.013-0.043-0.013-0.099-0.001-0.164l0.781-4.599c0.018-0.12,0.066-0.206,0.144-0.26c0.077-0.052,0.171-0.08,0.282-0.08h1.399
					c0.461,0,0.847,0.042,1.161,0.123c0.313,0.082,0.578,0.202,0.793,0.363c0.215,0.161,0.381,0.36,0.497,0.597
					C130.963,48.384,131.028,48.659,131.044,48.97z M129.812,49.096c-0.009-0.17-0.042-0.33-0.1-0.476
					c-0.059-0.148-0.147-0.273-0.266-0.38c-0.119-0.105-0.269-0.188-0.45-0.248c-0.181-0.059-0.42-0.089-0.72-0.089h-0.614
					l-0.612,3.587h0.619c0.313,0,0.576-0.035,0.786-0.104c0.21-0.068,0.394-0.164,0.551-0.285c0.156-0.121,0.288-0.261,0.396-0.42
					c0.107-0.159,0.193-0.326,0.257-0.503c0.064-0.178,0.108-0.358,0.132-0.542C129.814,49.451,129.822,49.271,129.812,49.096z"/>
				<path fill="#1B315D" d="M132.731,52.195c-0.004,0.028-0.019,0.052-0.041,0.075c-0.022,0.021-0.058,0.038-0.106,0.052
					c-0.049,0.015-0.112,0.024-0.189,0.03c-0.077,0.008-0.173,0.011-0.287,0.011c-0.116,0-0.211-0.005-0.285-0.011
					c-0.073-0.006-0.132-0.016-0.174-0.03c-0.042-0.014-0.072-0.032-0.087-0.052c-0.016-0.022-0.021-0.046-0.013-0.075l0.846-4.989
					c0.001-0.029,0.014-0.053,0.039-0.075c0.024-0.021,0.061-0.038,0.109-0.053c0.048-0.014,0.11-0.024,0.187-0.03
					c0.076-0.006,0.17-0.009,0.284-0.009s0.207,0.003,0.28,0.009c0.074,0.006,0.132,0.016,0.177,0.03
					c0.043,0.015,0.073,0.032,0.087,0.053c0.015,0.022,0.021,0.046,0.016,0.075L132.731,52.195z"/>
				<path fill="#1B315D" d="M138.784,51.939c0.021,0.099,0.031,0.175,0.032,0.232s-0.017,0.1-0.056,0.129
					c-0.039,0.029-0.105,0.046-0.197,0.052c-0.092,0.008-0.22,0.011-0.381,0.011c-0.113,0-0.206-0.003-0.278-0.008
					c-0.071-0.003-0.127-0.011-0.166-0.022c-0.04-0.009-0.067-0.027-0.083-0.047c-0.017-0.022-0.027-0.053-0.032-0.091l-0.211-1.06
					h-2.178l-0.548,1.036c-0.02,0.038-0.041,0.07-0.067,0.095c-0.025,0.026-0.063,0.046-0.114,0.059
					c-0.049,0.014-0.117,0.024-0.202,0.029c-0.085,0.006-0.191,0.008-0.32,0.008c-0.138,0-0.245-0.003-0.322-0.011
					c-0.076-0.008-0.128-0.029-0.155-0.061c-0.026-0.03-0.032-0.075-0.016-0.132c0.017-0.058,0.051-0.134,0.103-0.229l2.579-4.68
					c0.028-0.046,0.056-0.083,0.084-0.111c0.028-0.029,0.07-0.051,0.124-0.065c0.055-0.016,0.129-0.024,0.223-0.028
					c0.094-0.005,0.218-0.007,0.37-0.007c0.177,0,0.316,0.002,0.42,0.007c0.104,0.004,0.184,0.013,0.241,0.028
					c0.058,0.015,0.096,0.038,0.116,0.067c0.02,0.03,0.034,0.072,0.042,0.123L138.784,51.939z M136.826,48.068h-0.004l-1.182,2.244
					h1.631L136.826,48.068z"/>
				<path fill="#1B315D" d="M144.071,48.138c0.008,0.161-0.009,0.312-0.052,0.455c-0.042,0.143-0.107,0.272-0.195,0.392
					c-0.088,0.118-0.197,0.223-0.325,0.313c-0.128,0.091-0.274,0.164-0.436,0.218c0.133,0.022,0.256,0.061,0.37,0.115
					c0.114,0.054,0.212,0.124,0.295,0.207c0.083,0.084,0.149,0.185,0.199,0.301c0.049,0.114,0.077,0.245,0.085,0.388
					c0.007,0.13-0.006,0.266-0.038,0.406c-0.033,0.14-0.087,0.277-0.163,0.411c-0.078,0.134-0.18,0.259-0.309,0.38
					c-0.128,0.121-0.285,0.228-0.471,0.318c-0.185,0.091-0.4,0.164-0.645,0.216c-0.246,0.053-0.532,0.08-0.861,0.08h-1.61
					c-0.123,0-0.213-0.027-0.271-0.081c-0.058-0.056-0.077-0.14-0.056-0.258l0.781-4.599c0.018-0.12,0.066-0.207,0.146-0.26
					c0.08-0.054,0.173-0.08,0.28-0.08h1.395c0.308,0,0.575,0.022,0.801,0.065s0.418,0.11,0.575,0.197
					c0.157,0.089,0.277,0.201,0.362,0.334C144.015,47.795,144.062,47.954,144.071,48.138z M142.782,50.581
					c-0.009-0.173-0.087-0.312-0.233-0.412c-0.148-0.101-0.376-0.15-0.688-0.15h-0.784l-0.251,1.5h0.834
					c0.212,0,0.389-0.027,0.531-0.082c0.142-0.054,0.258-0.125,0.348-0.211c0.089-0.087,0.153-0.188,0.193-0.301
					C142.771,50.814,142.788,50.698,142.782,50.581z M142.866,48.339c-0.004-0.077-0.022-0.144-0.055-0.199
					c-0.033-0.057-0.081-0.106-0.142-0.148c-0.062-0.04-0.139-0.072-0.231-0.094c-0.093-0.022-0.209-0.032-0.35-0.032h-0.642
					l-0.235,1.369h0.663c0.195,0,0.355-0.027,0.48-0.083c0.126-0.056,0.228-0.127,0.305-0.216c0.078-0.087,0.133-0.185,0.165-0.292
					C142.857,48.538,142.871,48.438,142.866,48.339z"/>
				<path fill="#1B315D" d="M148.942,47.217c0.001,0.016,0,0.044-0.002,0.086c-0.003,0.042-0.007,0.087-0.014,0.137
					c-0.006,0.051-0.016,0.104-0.028,0.158c-0.012,0.054-0.028,0.104-0.048,0.148c-0.021,0.044-0.045,0.083-0.076,0.113
					c-0.029,0.029-0.062,0.045-0.098,0.045h-2.071l-0.222,1.287h1.757c0.042,0,0.073,0.015,0.092,0.042
					c0.02,0.027,0.03,0.065,0.032,0.115c0.001,0.019,0,0.047-0.002,0.087c-0.002,0.04-0.007,0.084-0.013,0.134
					c-0.006,0.051-0.016,0.102-0.028,0.154c-0.012,0.051-0.028,0.099-0.049,0.142c-0.02,0.043-0.045,0.08-0.073,0.106
					c-0.028,0.027-0.06,0.04-0.096,0.04h-1.753l-0.256,1.488h2.098c0.036,0,0.064,0.015,0.083,0.043
					c0.02,0.029,0.03,0.07,0.034,0.124c0.001,0.021,0.001,0.049,0,0.091c-0.001,0.04-0.005,0.086-0.014,0.135
					c-0.007,0.051-0.018,0.102-0.03,0.153c-0.012,0.053-0.029,0.1-0.048,0.145c-0.021,0.044-0.045,0.081-0.074,0.108
					c-0.028,0.027-0.062,0.042-0.101,0.042h-2.914c-0.048,0-0.091-0.006-0.131-0.019c-0.04-0.013-0.072-0.032-0.1-0.061
					c-0.026-0.029-0.046-0.063-0.057-0.106c-0.011-0.042-0.012-0.092-0.003-0.153l0.781-4.599c0.021-0.12,0.07-0.206,0.148-0.26
					c0.077-0.052,0.166-0.08,0.265-0.08h2.887C148.896,47.063,148.938,47.114,148.942,47.217z"/>
				<path fill="#1B315D" d="M153.866,47.233c0.001,0.021,0,0.051-0.002,0.092c-0.002,0.043-0.007,0.089-0.015,0.14
					c-0.008,0.053-0.02,0.107-0.033,0.163c-0.014,0.056-0.03,0.106-0.051,0.153c-0.02,0.046-0.045,0.084-0.075,0.113
					c-0.03,0.03-0.062,0.046-0.098,0.046h-1.458l-0.717,4.252c-0.007,0.027-0.023,0.053-0.045,0.073
					c-0.024,0.022-0.059,0.04-0.108,0.053c-0.048,0.014-0.111,0.025-0.187,0.033c-0.075,0.008-0.172,0.013-0.289,0.013
					c-0.114,0-0.207-0.005-0.283-0.013c-0.075-0.008-0.133-0.019-0.174-0.033c-0.041-0.013-0.069-0.03-0.083-0.053
					c-0.015-0.022-0.02-0.046-0.015-0.073l0.718-4.252h-1.444c-0.044,0-0.077-0.016-0.094-0.046
					c-0.018-0.029-0.028-0.07-0.031-0.121c-0.001-0.022,0-0.054,0.001-0.097c0.003-0.041,0.008-0.089,0.015-0.142
					c0.008-0.052,0.019-0.106,0.033-0.164c0.013-0.056,0.03-0.105,0.052-0.153c0.021-0.046,0.047-0.083,0.075-0.111
					c0.028-0.029,0.061-0.043,0.096-0.043h4.09c0.035,0,0.064,0.016,0.085,0.044C153.851,47.137,153.864,47.179,153.866,47.233z"/>
				<path fill="#1B315D" d="M157.968,47.217c0,0.016,0,0.044-0.002,0.086c-0.003,0.042-0.006,0.087-0.013,0.137
					c-0.007,0.051-0.017,0.104-0.027,0.158c-0.013,0.054-0.029,0.104-0.049,0.148s-0.045,0.083-0.075,0.113
					c-0.029,0.029-0.062,0.045-0.099,0.045h-2.07l-0.222,1.287h1.757c0.042,0,0.073,0.015,0.092,0.042
					c0.02,0.027,0.03,0.065,0.033,0.115c0,0.019,0,0.047-0.003,0.087c-0.002,0.04-0.007,0.084-0.013,0.134
					c-0.006,0.051-0.016,0.102-0.028,0.154c-0.012,0.051-0.028,0.099-0.049,0.142c-0.02,0.043-0.044,0.08-0.073,0.106
					c-0.029,0.027-0.061,0.04-0.096,0.04h-1.754l-0.256,1.488h2.098c0.036,0,0.063,0.015,0.083,0.043
					c0.019,0.029,0.03,0.07,0.033,0.124c0.001,0.021,0.001,0.049,0,0.091c0,0.04-0.005,0.086-0.013,0.135
					c-0.008,0.051-0.018,0.102-0.03,0.153c-0.012,0.053-0.029,0.1-0.049,0.145c-0.021,0.044-0.044,0.081-0.073,0.108
					c-0.028,0.027-0.062,0.042-0.101,0.042h-2.914c-0.047,0-0.092-0.006-0.131-0.019c-0.04-0.013-0.073-0.032-0.1-0.061
					c-0.026-0.029-0.045-0.063-0.057-0.106c-0.011-0.042-0.012-0.092-0.003-0.153l0.78-4.599c0.021-0.12,0.07-0.206,0.148-0.26
					c0.077-0.052,0.167-0.08,0.266-0.08h2.886C157.921,47.063,157.962,47.114,157.968,47.217z"/>
				<path fill="#1B315D" d="M162.024,47.465c0,0.022,0,0.054-0.002,0.094c-0.003,0.041-0.008,0.086-0.014,0.135
					c-0.007,0.049-0.015,0.099-0.025,0.149c-0.011,0.049-0.025,0.095-0.042,0.138c-0.018,0.042-0.038,0.077-0.06,0.104
					c-0.023,0.027-0.047,0.04-0.074,0.04c-0.042,0-0.095-0.016-0.16-0.051c-0.065-0.034-0.144-0.07-0.237-0.11
					c-0.093-0.04-0.202-0.075-0.326-0.11c-0.125-0.034-0.264-0.051-0.419-0.051c-0.162,0-0.297,0.021-0.407,0.062
					c-0.11,0.04-0.199,0.094-0.268,0.161c-0.068,0.067-0.118,0.14-0.147,0.224c-0.031,0.083-0.043,0.166-0.04,0.25
					c0.006,0.099,0.037,0.185,0.094,0.259c0.058,0.075,0.133,0.145,0.226,0.208c0.093,0.064,0.198,0.126,0.317,0.185
					c0.118,0.061,0.238,0.123,0.359,0.188c0.121,0.065,0.242,0.137,0.36,0.213c0.119,0.078,0.226,0.167,0.321,0.269
					c0.095,0.104,0.173,0.22,0.233,0.352c0.061,0.132,0.095,0.283,0.103,0.454c0.014,0.256-0.032,0.493-0.134,0.713
					c-0.102,0.218-0.253,0.409-0.453,0.57c-0.2,0.162-0.444,0.29-0.734,0.382c-0.29,0.092-0.614,0.138-0.973,0.138
					c-0.195,0-0.375-0.014-0.541-0.043c-0.166-0.028-0.313-0.063-0.442-0.103c-0.129-0.042-0.238-0.084-0.327-0.129
					c-0.089-0.045-0.156-0.088-0.2-0.129c-0.043-0.04-0.067-0.102-0.072-0.183c-0.001-0.021,0-0.054,0.004-0.097
					c0.003-0.044,0.009-0.091,0.018-0.142c0.007-0.049,0.018-0.102,0.03-0.154c0.013-0.054,0.028-0.102,0.047-0.145
					c0.019-0.043,0.039-0.078,0.064-0.106c0.023-0.027,0.05-0.04,0.08-0.04c0.051,0,0.113,0.021,0.186,0.064
					c0.071,0.041,0.162,0.087,0.269,0.138c0.106,0.051,0.233,0.097,0.379,0.14c0.146,0.043,0.318,0.065,0.518,0.065
					c0.177,0,0.33-0.021,0.461-0.061c0.13-0.042,0.239-0.097,0.325-0.167c0.086-0.072,0.15-0.153,0.191-0.247
					c0.042-0.094,0.06-0.197,0.054-0.309c-0.005-0.1-0.037-0.189-0.094-0.264c-0.058-0.076-0.133-0.146-0.224-0.21
					c-0.091-0.064-0.195-0.124-0.31-0.183c-0.115-0.056-0.232-0.118-0.352-0.183c-0.121-0.063-0.237-0.135-0.354-0.211
					c-0.116-0.077-0.22-0.166-0.313-0.266c-0.093-0.103-0.171-0.221-0.231-0.353c-0.061-0.134-0.095-0.288-0.104-0.466
					c-0.012-0.244,0.029-0.47,0.126-0.676c0.098-0.207,0.238-0.384,0.422-0.532c0.184-0.148,0.407-0.263,0.668-0.347
					c0.262-0.083,0.553-0.125,0.873-0.125c0.15,0,0.292,0.01,0.427,0.03c0.136,0.021,0.26,0.046,0.372,0.078
					c0.112,0.032,0.208,0.067,0.288,0.104c0.08,0.038,0.135,0.07,0.167,0.095c0.032,0.027,0.054,0.054,0.069,0.083
					C162.013,47.385,162.022,47.422,162.024,47.465z"/>
				<path fill="#1B315D" d="M163.827,51.531c0.002,0.041,0,0.094-0.006,0.159c-0.006,0.065-0.017,0.132-0.032,0.202
					c-0.016,0.069-0.039,0.136-0.067,0.199c-0.027,0.063-0.063,0.118-0.108,0.159c-0.044,0.042-0.112,0.076-0.202,0.102
					c-0.089,0.026-0.209,0.04-0.358,0.04c-0.11,0-0.203-0.008-0.278-0.025c-0.074-0.016-0.133-0.04-0.178-0.073
					c-0.045-0.032-0.078-0.073-0.099-0.124c-0.021-0.049-0.033-0.11-0.036-0.177c-0.002-0.044,0-0.099,0.008-0.164
					c0.007-0.065,0.019-0.132,0.035-0.202c0.016-0.068,0.037-0.134,0.066-0.197c0.028-0.062,0.065-0.115,0.111-0.158
					c0.046-0.041,0.111-0.075,0.197-0.102c0.086-0.025,0.206-0.038,0.361-0.038c0.117,0,0.213,0.009,0.289,0.028
					c0.075,0.019,0.135,0.044,0.179,0.08c0.044,0.034,0.073,0.075,0.089,0.126C163.814,51.417,163.824,51.471,163.827,51.531z"/>
			</g>
		</g>
	</g>
</g>
</svg>
