<?xml version="1.0" encoding="utf-8"?>
<!-- Generator: Adobe Illustrator 16.0.4, SVG Export Plug-In . SVG Version: 6.00 Build 0)  -->
<!DOCTYPE svg PUBLIC "-//W3C//DTD SVG 1.1//EN" "http://www.w3.org/Graphics/SVG/1.1/DTD/svg11.dtd">
<svg version="1.1" id="Layer_1" xmlns="http://www.w3.org/2000/svg" xmlns:xlink="http://www.w3.org/1999/xlink" x="0px" y="0px"
	 width="69px" height="24px" viewBox="0 18.443 69 24" enable-background="new 0 18.443 69 24" xml:space="preserve">
<g>
	<g>
		<g>
			<path fill="#0073CF" d="M25.921,21.067H6.011L5.555,24.38h4.798l-1.222,8.865c-0.3,2.176-1.395,3.117-2.949,3.117
				c-1.313,0-2.263-0.698-3.172-1.881l-3,2.902c1.076,1.531,2.828,2.82,5.75,2.82c2.038,0,3.808-0.591,5.119-1.746
				c1.281-1.128,2.154-2.794,2.461-5.023l1.239-8.991h0.012l-0.005,0.04l10.864,0.005c3.377,0,5.291,2.651,4.832,5.982l-0.007,0.054
				c-0.459,3.331-3.052,5.615-6.43,5.615h-3.565l1.438-10.428h-4.302l-1.412,3.045h1.542l-1.532,11.116h7.318
				c5.897,0,10.537-4.11,11.266-9.402l0.007-0.054C35.333,25.124,31.819,21.067,25.921,21.067"/>
		</g>
		<g>
			<polygon fill="#0073CF" points="68.481,24.89 69,21.13 54.712,21.13 52.12,39.935 56.249,39.935 57.252,32.655 66.205,32.655 
				66.723,28.893 57.77,28.893 58.322,24.89 			"/>
			<path fill="#0073CF" d="M52.15,27.388l0.007-0.053c0.244-1.773-0.116-3.251-1.017-4.298c-1.062-1.236-2.82-1.907-5.207-1.907
				h-8.578l-2.592,18.805h4.128l2.077-15.071h4.101c2.011,0,3.119,0.913,2.875,2.687l-0.007,0.054
				c-0.22,1.584-1.521,2.66-3.531,2.66h-3.114l4.865,9.671h4.827l-3.661-6.716C49.833,32.332,51.73,30.425,52.15,27.388"/>
		</g>
	</g>
	
		<linearGradient id="SVGID_1_" gradientUnits="userSpaceOnUse" x1="170.249" y1="-126.6877" x2="221.0907" y2="-135.6525" gradientTransform="matrix(1 0 0 -1 -156 -89.2622)">
		<stop  offset="0.02" style="stop-color:#FFFFFF;stop-opacity:0"/>
		<stop  offset="0.16" style="stop-color:#0073CF"/>
		<stop  offset="0.84" style="stop-color:#0073CF"/>
		<stop  offset="1" style="stop-color:#FFFFFF;stop-opacity:0"/>
	</linearGradient>
	<polygon fill="url(#SVGID_1_)" points="13.553,41.372 65.866,41.372 65.787,42.443 13.473,42.443 	"/>
	<g>
		<g>
			<path id="SVGID_2_" fill="#0073CF" d="M25.921,21.067H6.011L5.555,24.38h4.798l-1.222,8.865c-0.3,2.176-1.395,3.117-2.949,3.117
				c-1.313,0-2.263-0.698-3.172-1.881l-3,2.902c1.076,1.531,2.828,2.82,5.75,2.82c2.038,0,3.808-0.591,5.119-1.746
				c1.281-1.128,2.154-2.794,2.461-5.023l1.239-8.991h0.012l-0.005,0.04l10.864,0.005c3.377,0,5.291,2.651,4.832,5.982l-0.007,0.054
				c-0.459,3.331-3.052,5.615-6.43,5.615h-3.565l1.438-10.428h-4.302l-1.412,3.045h1.542l-1.532,11.116h7.318
				c5.897,0,10.537-4.11,11.266-9.402l0.007-0.054C35.333,25.124,31.819,21.067,25.921,21.067"/>
		</g>
	</g>
	<g>
		
			<linearGradient id="SVGID_3_" gradientUnits="userSpaceOnUse" x1="159.8208" y1="-103.7581" x2="210.6625" y2="-112.7228" gradientTransform="matrix(1 0 0 -1 -156 -89.2622)">
			<stop  offset="0.03" style="stop-color:#FFFFFF;stop-opacity:0"/>
			<stop  offset="0.16" style="stop-color:#1B315D"/>
			<stop  offset="0.84" style="stop-color:#1B315D"/>
			<stop  offset="1" style="stop-color:#FFFFFF;stop-opacity:0"/>
		</linearGradient>
		<polygon fill="url(#SVGID_3_)" points="3.125,18.443 55.438,18.443 55.358,19.515 3.045,19.515 		"/>
		<g>
			<g>
				<defs>
					<path id="SVGID_4_" d="M25.912,21.033H6.001l-0.457,3.313h4.799l-1.222,8.865c-0.3,2.176-1.394,3.116-2.949,3.116
						c-1.313,0-2.263-0.699-3.172-1.88l-3,2.901c1.076,1.531,2.828,2.82,5.75,2.82c2.037,0,3.808-0.591,5.119-1.746
						c1.281-1.128,2.154-2.794,2.461-5.024l1.239-8.991h0.013l-0.006,0.04l10.864,0.004c3.376,0,5.291,2.651,4.832,5.982
						l-0.007,0.054c-0.459,3.331-3.053,5.614-6.431,5.614h-3.565l1.437-10.427h-4.301l-1.411,3.045h1.541l-1.532,11.116h7.318
						c5.898,0,10.537-4.11,11.266-9.402l0.008-0.054C35.323,25.09,31.809,21.033,25.912,21.033"/>
				</defs>
				<clipPath id="SVGID_5_">
					<use xlink:href="#SVGID_4_"  overflow="visible"/>
				</clipPath>
				
					<radialGradient id="SVGID_6_" cx="170.1978" cy="-112.8665" r="13.8027" gradientTransform="matrix(0.9978 0 0 -1 -155.6597 -89.2622)" gradientUnits="userSpaceOnUse">
					<stop  offset="0.589" style="stop-color:#1B315D"/>
					<stop  offset="0.9632" style="stop-color:#1B315D;stop-opacity:0"/>
				</radialGradient>
				<ellipse clip-path="url(#SVGID_5_)" fill="url(#SVGID_6_)" cx="14.166" cy="23.604" rx="13.773" ry="13.803"/>
			</g>
		</g>
	</g>
</g>
</svg>
