<?xml version="1.0" encoding="utf-8"?>
<!-- Generator: Adobe Illustrator 16.0.0, SVG Export Plug-In . SVG Version: 6.00 Build 0)  -->
<!DOCTYPE svg PUBLIC "-//W3C//DTD SVG 1.1//EN" "http://www.w3.org/Graphics/SVG/1.1/DTD/svg11.dtd">
<svg version="1.1" xmlns="http://www.w3.org/2000/svg" xmlns:xlink="http://www.w3.org/1999/xlink" x="0px" y="0px"
	 width="463.269px" height="115.738px" viewBox="0 0 463.269 115.738" enable-background="new 0 0 463.269 115.738"
	 xml:space="preserve">
<g id="PMS_285">
	<g>
		<g>
			<g>
				<path fill="#0073CF" d="M125.308,12.654h-96.25l-2.207,15.98h23.197l-5.906,42.764c-1.45,10.496-6.74,15.033-14.258,15.033
					c-6.349,0-10.938-3.371-15.332-9.072L0.048,91.354c5.2,7.387,13.671,13.607,27.796,13.607c9.849,0,18.406-2.852,24.747-8.422
					c6.194-5.443,10.414-13.479,11.899-24.234l5.989-43.367h0.059l-0.026,0.193l52.517,0.023c16.326,0,25.578,12.787,23.357,28.855
					l-0.035,0.258c-2.22,16.068-14.756,27.084-31.084,27.084H98.033l6.945-50.299H84.184L77.359,49.74l7.451,0.001l-7.406,53.62
					h35.376c28.509,0,50.937-19.826,54.462-45.352l0.035-0.26C170.803,32.223,153.817,12.654,125.308,12.654"/>
			</g>
			<g>
				<polygon fill="#0073CF" points="331.051,31.099 333.555,12.958 264.484,12.958 251.957,103.666 271.914,103.666 276.764,68.549 
					320.045,68.549 322.551,50.406 279.268,50.406 281.936,31.099 				"/>
				<path fill="#0073CF" d="M252.1,43.148l0.035-0.258c1.18-8.553-0.557-15.68-4.914-20.734c-5.134-5.961-13.631-9.198-25.172-9.198
					h-41.467l-12.527,90.708h19.954l10.04-72.696h19.828c9.719,0,15.077,4.405,13.894,12.958l-0.035,0.259
					c-1.06,7.644-7.349,12.829-17.068,12.829h-15.054l23.516,46.65h23.334L228.769,71.27
					C240.899,66.992,250.074,57.793,252.1,43.148"/>
			</g>
		</g>
		<linearGradient id="SVGID_1_" gradientUnits="userSpaceOnUse" x1="68.8828" y1="91.5146" x2="314.652" y2="134.8504">
			<stop  offset="0.02" style="stop-color:#FFFFFF;stop-opacity:0"/>
			<stop  offset="0.16" style="stop-color:#0073CF"/>
			<stop  offset="0.84" style="stop-color:#0073CF"/>
			<stop  offset="1" style="stop-color:#FFFFFF;stop-opacity:0"/>
		</linearGradient>
		<polygon fill="url(#SVGID_1_)" points="65.518,110.599 318.404,110.599 318.018,115.767 65.13,115.767 		"/>
		<g>
			<defs>
				<path id="SVGID_2_" d="M125.308,12.654h-96.25l-2.207,15.98h23.197l-5.906,42.764c-1.45,10.496-6.74,15.033-14.258,15.033
					c-6.349,0-10.938-3.371-15.332-9.072L0.048,91.354c5.2,7.387,13.671,13.607,27.796,13.607c9.849,0,18.406-2.852,24.747-8.422
					c6.194-5.443,10.414-13.479,11.899-24.234l5.989-43.367h0.059l-0.026,0.193l52.517,0.023c16.326,0,25.578,12.787,23.357,28.855
					l-0.035,0.258c-2.22,16.068-14.756,27.084-31.084,27.084H98.033l6.945-50.299H84.184L77.359,49.74l7.451,0.001l-7.406,53.62
					h35.376c28.509,0,50.937-19.826,54.462-45.352l0.035-0.26C170.803,32.223,153.817,12.654,125.308,12.654"/>
			</defs>
			<use xlink:href="#SVGID_2_"  overflow="visible" fill="#0073CF"/>
			<clipPath id="SVGID_3_">
				<use xlink:href="#SVGID_2_"  overflow="visible"/>
			</clipPath>
		</g>
		<g>
			<path fill="#0073CF" d="M349.406,58.769c0.01,0.2-0.014,0.469-0.072,0.805c-0.057,0.337-0.137,0.606-0.242,0.81
				c-0.104,0.205-0.227,0.307-0.367,0.307c-0.104,0-0.227-0.06-0.375-0.178c-0.146-0.117-0.34-0.244-0.574-0.381
				c-0.234-0.135-0.531-0.263-0.893-0.381c-0.359-0.117-0.803-0.177-1.33-0.177c-0.582,0-1.107,0.106-1.578,0.316
				c-0.469,0.212-0.883,0.49-1.244,0.837c-0.359,0.348-0.67,0.746-0.93,1.196s-0.471,0.919-0.631,1.405s-0.273,0.971-0.34,1.453
				c-0.066,0.483-0.088,0.933-0.068,1.348c0.025,0.5,0.117,0.939,0.275,1.319c0.156,0.38,0.371,0.694,0.643,0.944
				c0.273,0.25,0.602,0.438,0.984,0.562c0.385,0.125,0.812,0.188,1.285,0.188c0.559,0,1.033-0.053,1.424-0.16
				c0.393-0.107,0.725-0.226,0.998-0.354c0.271-0.128,0.498-0.247,0.678-0.354c0.18-0.106,0.344-0.16,0.494-0.16
				c0.102,0,0.172,0.034,0.211,0.102c0.039,0.068,0.062,0.163,0.068,0.285c0.002,0.05-0.002,0.125-0.012,0.225
				c-0.012,0.101-0.025,0.213-0.043,0.338s-0.037,0.262-0.061,0.408c-0.025,0.146-0.055,0.282-0.086,0.407
				c-0.033,0.126-0.074,0.239-0.119,0.343c-0.047,0.104-0.109,0.195-0.193,0.274c-0.082,0.079-0.246,0.181-0.49,0.306
				c-0.246,0.125-0.547,0.241-0.904,0.349c-0.355,0.107-0.76,0.198-1.213,0.273s-0.938,0.112-1.457,0.112
				c-0.857,0-1.637-0.104-2.336-0.311s-1.299-0.521-1.799-0.944c-0.502-0.422-0.898-0.95-1.191-1.588
				c-0.291-0.636-0.459-1.38-0.502-2.231c-0.033-0.665,0.006-1.357,0.119-2.076s0.303-1.422,0.572-2.107
				c0.268-0.688,0.617-1.338,1.051-1.953s0.955-1.153,1.566-1.615c0.609-0.461,1.311-0.826,2.104-1.1
				c0.793-0.271,1.68-0.407,2.664-0.407c0.551,0,1.074,0.052,1.57,0.155c0.498,0.104,0.934,0.242,1.309,0.414
				c0.373,0.171,0.637,0.326,0.789,0.467C349.312,58.377,349.396,58.555,349.406,58.769z"/>
			<path fill="#0073CF" d="M362.953,66.193c-0.152,0.887-0.42,1.664-0.803,2.333s-0.875,1.228-1.473,1.679
				c-0.6,0.451-1.295,0.789-2.092,1.014c-0.795,0.226-1.68,0.338-2.654,0.338c-1.039,0-1.936-0.116-2.691-0.348
				c-0.754-0.232-1.361-0.578-1.816-1.036c-0.457-0.457-0.764-1.031-0.926-1.722c-0.16-0.689-0.16-1.489-0.002-2.398l1.398-8.238
				c0.014-0.072,0.047-0.137,0.104-0.193c0.055-0.058,0.148-0.104,0.275-0.14c0.129-0.036,0.293-0.064,0.492-0.086
				s0.453-0.032,0.76-0.032c0.299,0,0.547,0.011,0.744,0.032c0.199,0.021,0.354,0.05,0.465,0.086s0.188,0.082,0.225,0.14
				c0.039,0.057,0.053,0.121,0.039,0.193l-1.398,8.238c-0.1,0.552-0.109,1.027-0.033,1.428c0.074,0.4,0.223,0.73,0.443,0.992
				c0.223,0.262,0.514,0.455,0.873,0.579c0.361,0.126,0.789,0.188,1.285,0.188c0.504,0,0.965-0.07,1.389-0.21
				c0.422-0.14,0.789-0.343,1.107-0.611c0.316-0.269,0.58-0.595,0.793-0.981s0.361-0.826,0.447-1.32l1.408-8.303
				c0.014-0.072,0.047-0.137,0.102-0.193c0.057-0.058,0.145-0.104,0.266-0.14c0.119-0.036,0.281-0.064,0.486-0.086
				c0.201-0.021,0.453-0.032,0.752-0.032s0.543,0.011,0.734,0.032c0.189,0.021,0.34,0.05,0.453,0.086
				c0.111,0.036,0.186,0.082,0.225,0.14c0.039,0.057,0.053,0.121,0.039,0.193L362.953,66.193z"/>
			<path fill="#0073CF" d="M377.686,60.453c0.023,0.458-0.023,0.912-0.139,1.362s-0.311,0.876-0.59,1.276
				c-0.279,0.401-0.648,0.762-1.107,1.084s-1.027,0.58-1.701,0.772c0.385,0.136,0.715,0.406,0.99,0.81
				c0.275,0.404,0.516,0.957,0.715,1.658l0.77,2.821c0.039,0.157,0.072,0.299,0.098,0.424c0.025,0.126,0.041,0.23,0.047,0.316
				c0.004,0.071-0.02,0.133-0.068,0.183c-0.049,0.051-0.139,0.092-0.271,0.123c-0.133,0.032-0.312,0.055-0.545,0.07
				c-0.232,0.014-0.523,0.021-0.877,0.021c-0.332,0-0.598-0.01-0.799-0.027s-0.359-0.047-0.471-0.086s-0.188-0.091-0.227-0.155
				s-0.068-0.14-0.088-0.226l-0.746-3.078c-0.08-0.357-0.182-0.673-0.301-0.945c-0.121-0.271-0.268-0.498-0.441-0.681
				c-0.176-0.183-0.385-0.317-0.629-0.407c-0.246-0.09-0.531-0.135-0.863-0.135h-0.967l-0.9,5.3
				c-0.012,0.071-0.049,0.136-0.107,0.193c-0.061,0.058-0.154,0.104-0.283,0.14c-0.127,0.035-0.293,0.062-0.498,0.08
				c-0.203,0.018-0.453,0.027-0.752,0.027s-0.547-0.01-0.74-0.027s-0.346-0.045-0.459-0.08c-0.111-0.035-0.188-0.08-0.23-0.135
				c-0.043-0.053-0.053-0.119-0.033-0.198l2.146-12.616c0.047-0.314,0.174-0.542,0.385-0.682c0.209-0.139,0.455-0.209,0.738-0.209
				h4.094c0.717,0,1.367,0.061,1.951,0.182c0.584,0.123,1.088,0.309,1.51,0.559s0.752,0.564,0.992,0.943
				C377.525,59.491,377.658,59.938,377.686,60.453z M374.383,60.979c-0.01-0.199-0.057-0.387-0.141-0.558
				c-0.082-0.172-0.209-0.319-0.381-0.445c-0.172-0.125-0.391-0.222-0.658-0.29c-0.268-0.067-0.586-0.102-0.955-0.102h-1.758
				l-0.662,3.938h1.475c0.59,0,1.086-0.076,1.486-0.23c0.402-0.154,0.723-0.353,0.961-0.596c0.24-0.242,0.41-0.514,0.508-0.811
				C374.357,61.589,374.398,61.287,374.383,60.979z"/>
			<path fill="#0073CF" d="M382.193,70.935c-0.014,0.071-0.049,0.136-0.109,0.193c-0.059,0.058-0.154,0.104-0.281,0.14
				c-0.129,0.035-0.295,0.062-0.498,0.08s-0.455,0.027-0.754,0.027c-0.307,0-0.557-0.01-0.75-0.027
				c-0.195-0.018-0.348-0.045-0.459-0.08s-0.189-0.082-0.23-0.14c-0.043-0.058-0.055-0.122-0.033-0.193l2.225-13.132
				c0.004-0.07,0.039-0.135,0.104-0.193c0.064-0.057,0.158-0.103,0.287-0.139c0.129-0.035,0.291-0.062,0.492-0.08
				c0.199-0.018,0.449-0.027,0.748-0.027s0.545,0.01,0.738,0.027s0.35,0.045,0.465,0.08c0.115,0.036,0.193,0.082,0.23,0.139
				c0.039,0.059,0.053,0.123,0.041,0.193L382.193,70.935z"/>
			<path fill="#0073CF" d="M398.141,70.323c-0.023,0.165-0.078,0.312-0.16,0.44c-0.086,0.128-0.186,0.235-0.303,0.321
				s-0.248,0.149-0.393,0.188c-0.143,0.039-0.293,0.06-0.451,0.06h-1.322c-0.283,0-0.516-0.025-0.699-0.075s-0.344-0.14-0.48-0.269
				c-0.135-0.129-0.26-0.304-0.375-0.525c-0.113-0.222-0.232-0.504-0.361-0.848l-2.566-6.201c-0.197-0.479-0.383-0.961-0.553-1.448
				c-0.17-0.486-0.334-0.97-0.492-1.448h-0.023c-0.049,0.564-0.111,1.121-0.188,1.668c-0.074,0.547-0.16,1.096-0.258,1.646
				l-1.199,7.092c-0.012,0.072-0.047,0.137-0.102,0.193c-0.057,0.058-0.143,0.104-0.26,0.14c-0.115,0.036-0.266,0.063-0.449,0.085
				s-0.412,0.033-0.688,0.033s-0.504-0.012-0.682-0.033s-0.314-0.049-0.412-0.085c-0.096-0.036-0.158-0.082-0.189-0.14
				c-0.031-0.057-0.035-0.121-0.016-0.193l2.117-12.488c0.055-0.336,0.203-0.588,0.445-0.756c0.244-0.168,0.523-0.252,0.838-0.252
				h1.615c0.26,0,0.484,0.027,0.672,0.08c0.188,0.054,0.35,0.14,0.486,0.258c0.135,0.118,0.256,0.27,0.363,0.456
				c0.109,0.187,0.213,0.415,0.312,0.687l2.594,6.254c0.17,0.401,0.326,0.799,0.469,1.191c0.143,0.394,0.289,0.787,0.443,1.18h0.023
				c0.061-0.514,0.129-1.045,0.209-1.593c0.078-0.547,0.16-1.078,0.244-1.593l1.119-6.545c0.012-0.07,0.045-0.134,0.098-0.188
				c0.051-0.054,0.135-0.096,0.246-0.129c0.113-0.031,0.258-0.057,0.439-0.074c0.18-0.018,0.408-0.027,0.684-0.027
				s0.502,0.01,0.686,0.027c0.182,0.018,0.32,0.043,0.416,0.074c0.096,0.033,0.162,0.075,0.195,0.129
				c0.035,0.054,0.045,0.117,0.033,0.188L398.141,70.323z"/>
			<path fill="#0073CF" d="M415.607,58.908c0.004,0.072,0.002,0.164-0.004,0.279c-0.006,0.114-0.02,0.238-0.041,0.369
				c-0.02,0.133-0.047,0.266-0.08,0.397c-0.033,0.133-0.074,0.253-0.123,0.359c-0.051,0.107-0.105,0.195-0.17,0.263
				c-0.062,0.068-0.131,0.102-0.201,0.102c-0.117,0-0.285-0.061-0.506-0.182c-0.217-0.121-0.5-0.258-0.846-0.408
				s-0.766-0.285-1.26-0.407s-1.074-0.183-1.744-0.183c-0.668,0-1.277,0.088-1.828,0.264c-0.549,0.175-1.047,0.414-1.49,0.719
				c-0.445,0.304-0.832,0.661-1.162,1.072c-0.33,0.412-0.602,0.854-0.818,1.324c-0.217,0.473-0.369,0.963-0.463,1.471
				c-0.092,0.508-0.125,1.008-0.1,1.502c0.027,0.551,0.139,1.033,0.332,1.448c0.195,0.415,0.463,0.762,0.803,1.04
				c0.34,0.279,0.746,0.49,1.217,0.634c0.473,0.144,0.994,0.214,1.57,0.214c0.385,0,0.764-0.035,1.139-0.107
				c0.375-0.07,0.719-0.178,1.033-0.321l0.545-3.208h-2.879c-0.094,0-0.17-0.033-0.229-0.102s-0.092-0.178-0.1-0.327
				c-0.004-0.071,0-0.165,0.01-0.279s0.025-0.233,0.047-0.359c0.021-0.124,0.049-0.252,0.08-0.381
				c0.033-0.128,0.078-0.243,0.131-0.343c0.053-0.101,0.115-0.183,0.182-0.247c0.068-0.064,0.145-0.097,0.232-0.097h5.156
				c0.26,0,0.449,0.079,0.566,0.236c0.119,0.157,0.154,0.379,0.104,0.665l-0.943,5.558c-0.025,0.136-0.059,0.252-0.102,0.348
				c-0.041,0.098-0.102,0.186-0.176,0.264c-0.082,0.086-0.277,0.188-0.586,0.306s-0.688,0.234-1.133,0.349
				c-0.447,0.115-0.947,0.211-1.502,0.289c-0.555,0.079-1.123,0.119-1.705,0.119c-1.094,0-2.064-0.115-2.908-0.344
				c-0.846-0.229-1.562-0.57-2.148-1.025c-0.584-0.453-1.039-1.01-1.363-1.668s-0.508-1.416-0.553-2.273
				c-0.039-0.773,0.016-1.531,0.162-2.275c0.146-0.743,0.387-1.449,0.719-2.119c0.332-0.668,0.754-1.287,1.264-1.855
				s1.111-1.061,1.801-1.475c0.691-0.415,1.469-0.738,2.33-0.971s1.811-0.35,2.85-0.35c0.574,0,1.119,0.041,1.635,0.123
				c0.516,0.083,0.979,0.184,1.391,0.301c0.41,0.118,0.758,0.246,1.039,0.381c0.283,0.137,0.471,0.242,0.564,0.316
				c0.096,0.075,0.16,0.16,0.197,0.252C415.578,58.658,415.6,58.772,415.607,58.908z"/>
		</g>
	</g>
</g>
<g id="PMS_295">
	<g>
		<linearGradient id="SVGID_4_" gradientUnits="userSpaceOnUse" x1="18.4746" y1="-19.084" x2="264.2438" y2="24.2518">
			<stop  offset="0.03" style="stop-color:#FFFFFF;stop-opacity:0"/>
			<stop  offset="0.16" style="stop-color:#1B315D"/>
			<stop  offset="0.84" style="stop-color:#1B315D"/>
			<stop  offset="1" style="stop-color:#FFFFFF;stop-opacity:0"/>
		</linearGradient>
		<polygon fill="url(#SVGID_4_)" points="15.109,0 267.995,0 267.608,5.168 14.723,5.168 		"/>
		<g>
			<defs>
				<path id="SVGID_5_" d="M125.26,12.492H29.01l-2.207,15.98H50l-5.906,42.764c-1.45,10.496-6.74,15.033-14.258,15.033
					c-6.349,0-10.938-3.371-15.332-9.072L0,91.191c5.2,7.387,13.671,13.607,27.796,13.607c9.849,0,18.406-2.852,24.747-8.422
					c6.194-5.443,10.414-13.479,11.899-24.234l5.989-43.368h0.059l-0.026,0.193l52.517,0.023c16.326,0,25.578,12.788,23.357,28.856
					l-0.035,0.258c-2.22,16.068-14.756,27.084-31.084,27.084H97.984l6.945-50.299H84.136l-6.825,14.688l7.451,0.001l-7.406,53.62
					h35.376c28.509,0,50.937-19.826,54.462-45.352l0.035-0.26C170.755,32.061,153.769,12.492,125.26,12.492"/>
			</defs>
			<clipPath id="SVGID_6_">
				<use xlink:href="#SVGID_5_"  overflow="visible"/>
			</clipPath>
			<radialGradient id="SVGID_7_" cx="68.4819" cy="24.8945" r="66.5798" gradientUnits="userSpaceOnUse">
				<stop  offset="0.589" style="stop-color:#1B315D"/>
				<stop  offset="0.9632" style="stop-color:#1B315D;stop-opacity:0"/>
			</radialGradient>
			<circle clip-path="url(#SVGID_6_)" fill="url(#SVGID_7_)" cx="68.482" cy="24.895" r="66.58"/>
		</g>
		<g>
			<path fill="#1B315D" d="M346.311,26.43c-0.012,0.072-0.049,0.136-0.108,0.193c-0.06,0.058-0.154,0.104-0.282,0.14
				c-0.128,0.036-0.293,0.062-0.497,0.081c-0.204,0.018-0.455,0.027-0.754,0.027c-0.307,0-0.558-0.009-0.75-0.027
				c-0.194-0.018-0.348-0.044-0.46-0.081c-0.111-0.036-0.188-0.082-0.23-0.14c-0.043-0.057-0.054-0.121-0.033-0.193l2.226-13.132
				c0.004-0.071,0.039-0.135,0.103-0.193c0.064-0.057,0.16-0.104,0.288-0.14c0.128-0.036,0.292-0.062,0.492-0.081
				c0.199-0.018,0.448-0.027,0.747-0.027s0.546,0.009,0.739,0.027c0.194,0.018,0.349,0.045,0.465,0.081
				c0.115,0.036,0.192,0.083,0.23,0.14c0.039,0.058,0.052,0.122,0.04,0.193L346.311,26.43z"/>
			<path fill="#1B315D" d="M366.492,26.43c-0.02,0.072-0.052,0.136-0.097,0.193c-0.044,0.058-0.123,0.104-0.234,0.14
				c-0.112,0.036-0.266,0.062-0.463,0.081c-0.195,0.018-0.438,0.027-0.729,0.027c-0.307,0-0.556-0.009-0.745-0.027
				c-0.189-0.018-0.337-0.044-0.44-0.081c-0.104-0.036-0.172-0.082-0.202-0.14c-0.03-0.057-0.039-0.121-0.027-0.193l1.906-11.297
				h-0.023l-6.355,11.287c-0.086,0.179-0.263,0.299-0.531,0.359s-0.65,0.091-1.146,0.091c-0.512,0-0.881-0.042-1.11-0.124
				c-0.229-0.082-0.35-0.184-0.363-0.306l-2.366-11.319h-0.024l-1.917,11.308c-0.013,0.072-0.043,0.136-0.091,0.193
				c-0.049,0.058-0.129,0.104-0.241,0.14c-0.112,0.036-0.264,0.062-0.456,0.081c-0.192,0.018-0.437,0.027-0.735,0.027
				c-0.3,0-0.544-0.009-0.733-0.027c-0.189-0.018-0.337-0.044-0.441-0.081c-0.104-0.036-0.173-0.082-0.207-0.14
				c-0.035-0.057-0.042-0.121-0.021-0.193l2.088-12.37c0.029-0.178,0.083-0.339,0.158-0.483c0.075-0.143,0.172-0.263,0.289-0.359
				c0.116-0.096,0.252-0.169,0.407-0.22c0.155-0.05,0.323-0.075,0.504-0.075h1.936c0.346,0,0.643,0.027,0.889,0.081
				c0.247,0.054,0.451,0.145,0.616,0.273c0.164,0.129,0.292,0.297,0.385,0.504c0.094,0.208,0.163,0.458,0.21,0.751l1.893,8.261h0.06
				l4.821-8.261c0.144-0.279,0.288-0.521,0.435-0.724c0.147-0.204,0.314-0.372,0.5-0.504c0.186-0.132,0.396-0.229,0.629-0.29
				c0.232-0.061,0.511-0.091,0.834-0.091h2.194c0.197,0,0.367,0.025,0.511,0.075c0.145,0.05,0.261,0.124,0.349,0.22
				c0.087,0.097,0.144,0.215,0.171,0.354c0.026,0.14,0.029,0.299,0.006,0.478L366.492,26.43z"/>
			<path fill="#1B315D" d="M381.877,16.323c0.021,0.401-0.009,0.819-0.084,1.255c-0.076,0.437-0.214,0.864-0.413,1.282
				s-0.465,0.815-0.796,1.19s-0.743,0.708-1.235,0.998c-0.493,0.29-1.069,0.519-1.729,0.687c-0.661,0.168-1.442,0.252-2.348,0.252
				h-1.593l-0.755,4.442c-0.012,0.072-0.049,0.136-0.108,0.193c-0.061,0.058-0.156,0.104-0.288,0.14
				c-0.132,0.036-0.299,0.062-0.503,0.081c-0.204,0.018-0.455,0.027-0.754,0.027c-0.291,0-0.534-0.009-0.727-0.027
				c-0.194-0.018-0.348-0.044-0.46-0.081c-0.111-0.036-0.188-0.081-0.23-0.134s-0.054-0.119-0.033-0.198l2.116-12.499
				c0.054-0.336,0.194-0.588,0.423-0.756c0.227-0.168,0.514-0.252,0.86-0.252h3.34c0.409,0,0.774,0.013,1.1,0.038
				c0.323,0.025,0.644,0.066,0.961,0.124c0.484,0.086,0.922,0.218,1.313,0.397c0.39,0.179,0.726,0.402,1.007,0.67
				s0.502,0.583,0.661,0.944C381.762,15.457,381.854,15.866,381.877,16.323z M378.624,16.645c-0.018-0.343-0.123-0.64-0.317-0.89
				c-0.192-0.25-0.481-0.425-0.864-0.526c-0.167-0.05-0.354-0.084-0.56-0.102c-0.205-0.018-0.434-0.027-0.686-0.027h-1.368
				l-0.777,4.71h1.416c0.449,0,0.829-0.048,1.144-0.145c0.313-0.096,0.587-0.223,0.819-0.381c0.23-0.157,0.427-0.343,0.585-0.558
				c0.157-0.214,0.284-0.44,0.379-0.676c0.094-0.236,0.158-0.474,0.194-0.713C378.623,17.098,378.635,16.867,378.624,16.645z"/>
			<path fill="#1B315D" d="M394.897,15.948c0.023,0.458-0.022,0.912-0.138,1.363c-0.114,0.45-0.311,0.876-0.59,1.276
				c-0.279,0.401-0.647,0.762-1.107,1.083c-0.46,0.322-1.026,0.58-1.701,0.772c0.385,0.136,0.715,0.406,0.991,0.81
				c0.275,0.404,0.514,0.957,0.715,1.658l0.769,2.822c0.039,0.157,0.071,0.299,0.098,0.423c0.025,0.125,0.042,0.231,0.046,0.317
				c0.004,0.071-0.02,0.132-0.067,0.182c-0.05,0.05-0.14,0.091-0.271,0.124s-0.313,0.055-0.545,0.07
				c-0.231,0.014-0.524,0.021-0.878,0.021c-0.331,0-0.598-0.009-0.799-0.027c-0.2-0.018-0.358-0.046-0.47-0.086
				c-0.112-0.039-0.188-0.091-0.227-0.156s-0.067-0.139-0.088-0.225l-0.746-3.079c-0.081-0.357-0.182-0.672-0.301-0.944
				c-0.12-0.271-0.268-0.499-0.442-0.681c-0.175-0.182-0.384-0.318-0.629-0.408c-0.244-0.089-0.531-0.134-0.862-0.134h-0.968
				l-0.899,5.3c-0.012,0.072-0.049,0.136-0.108,0.193c-0.061,0.058-0.154,0.104-0.282,0.14c-0.128,0.036-0.293,0.062-0.497,0.081
				c-0.204,0.018-0.455,0.027-0.754,0.027s-0.546-0.009-0.738-0.027c-0.194-0.018-0.348-0.044-0.46-0.081
				c-0.111-0.036-0.188-0.081-0.23-0.134s-0.054-0.119-0.033-0.198l2.146-12.617c0.046-0.314,0.175-0.542,0.384-0.681
				c0.209-0.14,0.456-0.209,0.739-0.209h4.095c0.716,0,1.366,0.061,1.95,0.183s1.088,0.308,1.51,0.558
				c0.422,0.251,0.752,0.565,0.992,0.944C394.739,14.986,394.872,15.433,394.897,15.948z M391.597,16.474
				c-0.011-0.2-0.057-0.386-0.141-0.558c-0.083-0.171-0.211-0.32-0.382-0.445c-0.172-0.125-0.392-0.222-0.658-0.29
				c-0.268-0.068-0.586-0.102-0.956-0.102h-1.758l-0.661,3.937h1.475c0.59,0,1.086-0.077,1.487-0.23s0.721-0.352,0.961-0.596
				c0.239-0.243,0.408-0.513,0.508-0.81C391.57,17.083,391.612,16.781,391.597,16.474z"/>
			<path fill="#1B315D" d="M411.065,17.568c0.031,0.629,0.002,1.302-0.088,2.017c-0.09,0.715-0.256,1.425-0.499,2.129
				c-0.244,0.705-0.578,1.378-1.002,2.022c-0.423,0.644-0.949,1.211-1.577,1.7c-0.629,0.49-1.376,0.882-2.241,1.175
				c-0.867,0.293-1.863,0.44-2.988,0.44c-0.952,0-1.797-0.097-2.534-0.29c-0.737-0.193-1.366-0.49-1.886-0.891
				c-0.521-0.4-0.924-0.904-1.209-1.513c-0.287-0.607-0.451-1.323-0.493-2.146c-0.033-0.672-0.005-1.375,0.088-2.108
				c0.093-0.733,0.266-1.452,0.517-2.156c0.252-0.704,0.594-1.375,1.025-2.012c0.432-0.636,0.962-1.198,1.591-1.684
				c0.628-0.486,1.371-0.871,2.23-1.153s1.844-0.424,2.953-0.424c0.951,0,1.796,0.099,2.534,0.295
				c0.737,0.197,1.364,0.498,1.881,0.901c0.516,0.404,0.917,0.914,1.204,1.529S411.022,16.738,411.065,17.568z M407.797,17.836
				c-0.021-0.436-0.095-0.832-0.219-1.186s-0.311-0.652-0.56-0.896c-0.247-0.243-0.566-0.431-0.954-0.563
				c-0.389-0.132-0.857-0.198-1.408-0.198c-0.685,0-1.281,0.12-1.787,0.359c-0.508,0.24-0.944,0.552-1.311,0.938
				s-0.666,0.828-0.9,1.325c-0.234,0.498-0.417,1.001-0.549,1.513c-0.132,0.512-0.218,1.01-0.261,1.497
				c-0.042,0.487-0.054,0.912-0.035,1.277c0.022,0.443,0.096,0.84,0.22,1.19c0.123,0.351,0.312,0.646,0.563,0.885
				c0.252,0.24,0.572,0.424,0.961,0.553c0.388,0.128,0.861,0.193,1.42,0.193c0.677,0,1.268-0.118,1.775-0.354
				c0.508-0.236,0.942-0.545,1.305-0.928c0.361-0.382,0.661-0.821,0.896-1.314c0.233-0.494,0.417-0.994,0.549-1.502
				c0.132-0.508,0.219-1.004,0.261-1.491C407.806,18.648,407.816,18.215,407.797,17.836z"/>
			<path fill="#1B315D" d="M420.075,26.312c-0.064,0.122-0.135,0.22-0.209,0.295c-0.075,0.075-0.187,0.133-0.334,0.172
				s-0.344,0.064-0.592,0.075c-0.247,0.011-0.571,0.016-0.973,0.016c-0.464,0-0.834-0.005-1.11-0.016s-0.485-0.036-0.629-0.075
				s-0.243-0.098-0.298-0.177c-0.056-0.079-0.095-0.186-0.117-0.322l-2.5-12.542c-0.033-0.193-0.049-0.349-0.047-0.467
				c0.002-0.118,0.053-0.207,0.151-0.268c0.1-0.061,0.257-0.1,0.473-0.118c0.215-0.018,0.516-0.027,0.9-0.027
				c0.386,0,0.688,0.007,0.904,0.021c0.217,0.015,0.384,0.042,0.5,0.081c0.116,0.04,0.191,0.095,0.227,0.167
				s0.063,0.165,0.085,0.279l1.84,10.686h0.023l5.392-10.729c0.051-0.1,0.109-0.184,0.177-0.252c0.067-0.068,0.165-0.12,0.293-0.156
				c0.128-0.036,0.3-0.061,0.516-0.075c0.216-0.014,0.5-0.021,0.854-0.021c0.377,0,0.674,0.011,0.887,0.032
				c0.214,0.021,0.358,0.072,0.433,0.15c0.075,0.079,0.089,0.195,0.041,0.349c-0.047,0.154-0.14,0.359-0.275,0.617L420.075,26.312z"
				/>
			<path fill="#1B315D" d="M429.853,26.43c-0.012,0.072-0.049,0.136-0.108,0.193c-0.06,0.058-0.154,0.104-0.282,0.14
				c-0.128,0.036-0.293,0.062-0.498,0.081c-0.203,0.018-0.454,0.027-0.753,0.027c-0.307,0-0.558-0.009-0.751-0.027
				c-0.193-0.018-0.347-0.044-0.459-0.081c-0.111-0.036-0.188-0.082-0.23-0.14c-0.043-0.057-0.054-0.121-0.033-0.193l2.226-13.132
				c0.004-0.071,0.039-0.135,0.103-0.193c0.064-0.057,0.16-0.104,0.288-0.14c0.128-0.036,0.292-0.062,0.492-0.081
				c0.199-0.018,0.448-0.027,0.747-0.027s0.546,0.009,0.739,0.027c0.194,0.018,0.349,0.045,0.465,0.081
				c0.115,0.036,0.192,0.083,0.23,0.14c0.039,0.058,0.052,0.122,0.04,0.193L429.853,26.43z"/>
			<path fill="#1B315D" d="M445.8,25.818c-0.022,0.165-0.076,0.312-0.16,0.44c-0.084,0.129-0.186,0.236-0.302,0.322
				c-0.118,0.086-0.248,0.149-0.392,0.188s-0.294,0.059-0.451,0.059h-1.322c-0.283,0-0.518-0.025-0.7-0.075
				c-0.184-0.05-0.343-0.14-0.479-0.268c-0.137-0.129-0.262-0.304-0.375-0.526c-0.114-0.221-0.234-0.504-0.361-0.848l-2.568-6.201
				c-0.197-0.479-0.382-0.961-0.552-1.448c-0.17-0.486-0.334-0.969-0.492-1.448h-0.023c-0.05,0.565-0.112,1.121-0.188,1.668
				c-0.074,0.547-0.16,1.096-0.258,1.646l-1.198,7.092c-0.014,0.072-0.047,0.136-0.103,0.193c-0.058,0.058-0.143,0.104-0.259,0.14
				c-0.116,0.036-0.267,0.064-0.45,0.086c-0.185,0.021-0.413,0.032-0.688,0.032s-0.503-0.011-0.681-0.032s-0.314-0.05-0.411-0.086
				c-0.097-0.036-0.16-0.082-0.189-0.14c-0.031-0.057-0.037-0.121-0.016-0.193l2.116-12.488c0.054-0.336,0.202-0.588,0.446-0.756
				c0.243-0.168,0.522-0.252,0.837-0.252h1.616c0.26,0,0.483,0.027,0.671,0.081s0.35,0.14,0.485,0.257
				c0.136,0.118,0.257,0.271,0.365,0.456c0.107,0.187,0.211,0.415,0.312,0.687l2.595,6.255c0.17,0.401,0.325,0.798,0.467,1.191
				c0.143,0.394,0.29,0.787,0.444,1.18h0.023c0.061-0.515,0.129-1.046,0.208-1.593c0.079-0.547,0.16-1.078,0.244-1.593l1.12-6.544
				c0.012-0.071,0.044-0.134,0.097-0.188s0.135-0.097,0.248-0.129c0.111-0.032,0.258-0.057,0.438-0.075
				c0.18-0.018,0.407-0.027,0.683-0.027s0.504,0.009,0.687,0.027c0.182,0.018,0.32,0.043,0.416,0.075s0.162,0.075,0.195,0.129
				c0.034,0.054,0.045,0.116,0.033,0.188L445.8,25.818z"/>
			<path fill="#1B315D" d="M463.267,14.403c0.004,0.072,0.003,0.165-0.003,0.279s-0.021,0.238-0.041,0.37s-0.047,0.265-0.079,0.397
				c-0.033,0.132-0.074,0.252-0.124,0.359c-0.05,0.107-0.106,0.195-0.17,0.263c-0.063,0.068-0.131,0.102-0.201,0.102
				c-0.118,0-0.286-0.061-0.505-0.183c-0.219-0.122-0.501-0.257-0.847-0.408c-0.346-0.15-0.766-0.286-1.261-0.408
				c-0.493-0.121-1.074-0.182-1.743-0.182s-1.277,0.088-1.827,0.263c-0.55,0.176-1.048,0.415-1.492,0.719
				c-0.444,0.304-0.832,0.662-1.162,1.073c-0.328,0.412-0.601,0.853-0.817,1.325c-0.216,0.472-0.37,0.962-0.463,1.47
				c-0.092,0.508-0.125,1.008-0.101,1.502c0.028,0.551,0.139,1.034,0.333,1.448c0.194,0.415,0.462,0.762,0.802,1.041
				c0.341,0.279,0.747,0.49,1.218,0.633c0.473,0.144,0.994,0.214,1.569,0.214c0.385,0,0.766-0.036,1.14-0.107
				s0.719-0.179,1.033-0.322l0.546-3.208h-2.879c-0.095,0-0.172-0.034-0.23-0.102c-0.058-0.068-0.091-0.177-0.098-0.327
				c-0.004-0.071-0.001-0.165,0.009-0.279s0.025-0.234,0.046-0.359c0.021-0.125,0.049-0.252,0.082-0.381
				c0.032-0.129,0.076-0.243,0.13-0.343s0.114-0.183,0.182-0.247c0.068-0.064,0.145-0.097,0.231-0.097h5.157
				c0.26,0,0.448,0.079,0.566,0.236s0.153,0.379,0.104,0.665l-0.945,5.558c-0.025,0.136-0.059,0.252-0.101,0.349
				c-0.042,0.096-0.101,0.184-0.175,0.263c-0.083,0.086-0.279,0.188-0.587,0.306c-0.309,0.118-0.687,0.235-1.133,0.349
				c-0.446,0.115-0.947,0.211-1.502,0.29s-1.123,0.118-1.705,0.118c-1.094,0-2.063-0.115-2.909-0.343s-1.562-0.57-2.146-1.024
				c-0.586-0.454-1.041-1.01-1.365-1.668c-0.324-0.658-0.508-1.416-0.552-2.274c-0.039-0.772,0.015-1.53,0.162-2.274
				c0.147-0.744,0.387-1.45,0.72-2.119c0.331-0.669,0.753-1.288,1.262-1.856c0.511-0.568,1.111-1.06,1.803-1.475
				c0.69-0.415,1.467-0.738,2.328-0.971c0.861-0.232,1.812-0.349,2.85-0.349c0.574,0,1.119,0.042,1.636,0.123
				c0.516,0.083,0.979,0.183,1.39,0.301c0.411,0.118,0.758,0.245,1.04,0.381s0.471,0.241,0.565,0.316
				c0.094,0.075,0.159,0.159,0.196,0.252C463.238,14.153,463.26,14.268,463.267,14.403z"/>
			<path fill="#1B315D" d="M348.727,47.078c0.002,0.049,0.001,0.13-0.007,0.24c-0.006,0.111-0.019,0.238-0.039,0.381
				c-0.02,0.145-0.049,0.29-0.084,0.44c-0.035,0.149-0.079,0.288-0.133,0.413c-0.052,0.125-0.116,0.227-0.19,0.306
				c-0.075,0.079-0.164,0.118-0.266,0.118h-6.998c-0.126,0-0.242-0.016-0.351-0.049c-0.108-0.031-0.197-0.086-0.268-0.16
				c-0.07-0.076-0.121-0.168-0.15-0.279s-0.032-0.245-0.009-0.402l2.146-12.617c0.004-0.071,0.037-0.136,0.097-0.193
				s0.154-0.104,0.282-0.14c0.128-0.036,0.291-0.062,0.491-0.081c0.2-0.018,0.453-0.027,0.76-0.027c0.299,0,0.548,0.009,0.744,0.027
				c0.198,0.018,0.354,0.045,0.466,0.081c0.112,0.036,0.187,0.083,0.225,0.14c0.039,0.057,0.052,0.122,0.04,0.193l-1.889,11.179
				h4.814c0.11,0,0.189,0.039,0.236,0.117C348.692,46.846,348.72,46.949,348.727,47.078z"/>
			<path fill="#1B315D" d="M353.488,48.602c-0.012,0.07-0.049,0.135-0.108,0.192s-0.154,0.104-0.282,0.14
				c-0.128,0.036-0.294,0.062-0.498,0.08c-0.203,0.018-0.454,0.027-0.753,0.027c-0.307,0-0.558-0.01-0.751-0.027
				c-0.194-0.018-0.347-0.044-0.459-0.08c-0.111-0.035-0.188-0.082-0.23-0.14c-0.043-0.058-0.054-0.122-0.033-0.192l2.226-13.132
				c0.004-0.071,0.039-0.136,0.103-0.193c0.064-0.057,0.159-0.104,0.288-0.14c0.128-0.036,0.291-0.062,0.491-0.081
				c0.2-0.018,0.449-0.027,0.748-0.027s0.546,0.009,0.738,0.027c0.194,0.018,0.35,0.045,0.466,0.081
				c0.115,0.036,0.192,0.083,0.23,0.14c0.039,0.057,0.052,0.122,0.04,0.193L353.488,48.602z"/>
			<path fill="#1B315D" d="M364.445,48.482c-0.064,0.123-0.135,0.221-0.209,0.295c-0.075,0.076-0.187,0.133-0.334,0.172
				s-0.345,0.064-0.592,0.075c-0.248,0.011-0.571,0.017-0.973,0.017c-0.464,0-0.835-0.006-1.11-0.017
				c-0.276-0.011-0.485-0.036-0.629-0.075s-0.243-0.098-0.298-0.177c-0.056-0.079-0.095-0.186-0.117-0.321l-2.5-12.542
				c-0.033-0.193-0.049-0.349-0.048-0.467c0.002-0.118,0.054-0.207,0.152-0.268c0.099-0.061,0.256-0.1,0.472-0.118
				c0.216-0.018,0.517-0.027,0.901-0.027c0.386,0,0.687,0.007,0.904,0.021c0.217,0.015,0.383,0.042,0.499,0.081
				c0.116,0.04,0.192,0.095,0.228,0.166c0.035,0.072,0.062,0.165,0.084,0.279l1.841,10.685h0.023l5.392-10.728
				c0.051-0.1,0.109-0.184,0.177-0.252s0.165-0.12,0.293-0.156c0.128-0.036,0.3-0.061,0.516-0.075
				c0.215-0.014,0.5-0.021,0.854-0.021c0.377,0,0.674,0.011,0.887,0.032c0.214,0.021,0.357,0.072,0.433,0.15
				s0.089,0.195,0.041,0.349c-0.047,0.154-0.14,0.359-0.275,0.617L364.445,48.482z"/>
			<path fill="#1B315D" d="M382.257,35.501c0.002,0.043,0,0.118-0.007,0.225c-0.006,0.107-0.018,0.228-0.034,0.359
				c-0.017,0.133-0.042,0.271-0.074,0.413c-0.031,0.144-0.075,0.274-0.127,0.392c-0.053,0.118-0.119,0.217-0.198,0.295
				c-0.078,0.079-0.165,0.118-0.259,0.118h-5.452l-0.584,3.39h4.626c0.11,0,0.191,0.036,0.241,0.107
				c0.051,0.072,0.079,0.172,0.086,0.3c0.003,0.05,0.001,0.127-0.006,0.231s-0.019,0.222-0.035,0.354s-0.042,0.267-0.074,0.402
				s-0.074,0.261-0.128,0.375c-0.053,0.114-0.118,0.208-0.192,0.279c-0.075,0.072-0.159,0.107-0.254,0.107h-4.614l-0.675,3.915
				h5.522c0.095,0,0.167,0.038,0.219,0.113c0.05,0.075,0.079,0.185,0.087,0.327c0.002,0.05,0.002,0.129,0,0.236
				c-0.003,0.106-0.014,0.228-0.035,0.359s-0.048,0.267-0.08,0.402s-0.075,0.263-0.128,0.381c-0.054,0.118-0.117,0.213-0.192,0.284
				c-0.075,0.072-0.164,0.107-0.267,0.107h-7.67c-0.126,0-0.24-0.016-0.345-0.049c-0.104-0.031-0.191-0.086-0.263-0.16
				c-0.069-0.076-0.12-0.168-0.149-0.279s-0.032-0.245-0.009-0.402l2.056-12.102c0.054-0.315,0.184-0.542,0.39-0.682
				c0.205-0.139,0.438-0.209,0.697-0.209h7.6C382.133,35.094,382.242,35.23,382.257,35.501z"/>
			<path fill="#1B315D" d="M392.934,36.156c0.003,0.058,0.002,0.14-0.005,0.247c-0.006,0.107-0.018,0.225-0.034,0.354
				c-0.019,0.128-0.041,0.259-0.069,0.392s-0.066,0.254-0.111,0.365c-0.046,0.111-0.099,0.202-0.157,0.273
				c-0.06,0.072-0.124,0.107-0.195,0.107c-0.11,0-0.25-0.044-0.42-0.134c-0.17-0.089-0.377-0.186-0.622-0.29
				c-0.246-0.104-0.532-0.2-0.858-0.29c-0.327-0.089-0.695-0.134-1.104-0.134c-0.425,0-0.783,0.054-1.072,0.161
				c-0.289,0.107-0.523,0.249-0.704,0.424c-0.18,0.176-0.31,0.372-0.389,0.59c-0.08,0.218-0.114,0.438-0.103,0.66
				c0.013,0.257,0.096,0.485,0.247,0.681c0.151,0.197,0.35,0.379,0.595,0.547c0.243,0.168,0.521,0.331,0.833,0.488
				c0.311,0.157,0.626,0.322,0.944,0.493c0.319,0.172,0.637,0.359,0.95,0.563c0.312,0.204,0.594,0.44,0.844,0.708
				c0.249,0.268,0.454,0.576,0.613,0.922c0.159,0.348,0.25,0.747,0.272,1.196c0.034,0.674-0.084,1.297-0.354,1.873
				s-0.667,1.076-1.192,1.502s-1.169,0.76-1.932,1.003s-1.616,0.364-2.561,0.364c-0.512,0-0.985-0.037-1.422-0.112
				s-0.824-0.166-1.164-0.273s-0.627-0.22-0.86-0.338c-0.235-0.118-0.409-0.231-0.525-0.338c-0.115-0.107-0.179-0.269-0.189-0.483
				c-0.003-0.057,0.001-0.143,0.011-0.257s0.024-0.237,0.046-0.37s0.048-0.269,0.079-0.408c0.032-0.139,0.074-0.266,0.123-0.381
				c0.05-0.113,0.105-0.207,0.169-0.279c0.062-0.07,0.135-0.106,0.213-0.106c0.134,0,0.295,0.056,0.486,0.166
				c0.19,0.111,0.426,0.233,0.709,0.364c0.281,0.133,0.614,0.257,0.998,0.371c0.383,0.114,0.838,0.172,1.365,0.172
				c0.465,0,0.868-0.055,1.214-0.162c0.344-0.106,0.631-0.253,0.856-0.439c0.227-0.186,0.395-0.402,0.504-0.648
				c0.11-0.247,0.157-0.517,0.142-0.811c-0.013-0.264-0.095-0.496-0.247-0.697c-0.151-0.199-0.349-0.385-0.588-0.552
				c-0.241-0.168-0.513-0.328-0.815-0.478c-0.303-0.15-0.611-0.311-0.927-0.483c-0.315-0.171-0.627-0.357-0.932-0.558
				c-0.306-0.2-0.581-0.435-0.826-0.703c-0.246-0.268-0.448-0.577-0.607-0.928c-0.159-0.35-0.251-0.758-0.274-1.223
				c-0.033-0.644,0.079-1.237,0.334-1.781c0.256-0.543,0.626-1.01,1.11-1.4c0.483-0.39,1.069-0.693,1.76-0.912
				c0.688-0.218,1.454-0.327,2.296-0.327c0.394,0,0.769,0.027,1.125,0.08c0.357,0.054,0.683,0.122,0.978,0.204
				c0.296,0.083,0.548,0.173,0.758,0.273c0.21,0.101,0.355,0.185,0.438,0.252s0.143,0.139,0.183,0.214
				C392.906,35.947,392.929,36.042,392.934,36.156z"/>
			<path fill="#1B315D" d="M397.678,46.852c0.006,0.107,0.001,0.247-0.015,0.419c-0.015,0.172-0.043,0.349-0.085,0.531
				s-0.1,0.358-0.174,0.525c-0.074,0.169-0.169,0.308-0.286,0.419c-0.116,0.111-0.292,0.2-0.529,0.268
				c-0.236,0.068-0.551,0.102-0.944,0.102c-0.291,0-0.535-0.021-0.729-0.064s-0.352-0.106-0.47-0.192s-0.205-0.194-0.259-0.327
				s-0.086-0.288-0.095-0.467c-0.006-0.114,0.001-0.258,0.021-0.43c0.019-0.171,0.049-0.348,0.091-0.531
				c0.042-0.182,0.1-0.355,0.174-0.52c0.075-0.164,0.172-0.302,0.292-0.413c0.12-0.11,0.293-0.2,0.518-0.269
				c0.225-0.067,0.542-0.102,0.951-0.102c0.307,0,0.56,0.025,0.759,0.075s0.356,0.12,0.471,0.209c0.114,0.09,0.193,0.2,0.235,0.333
				S397.67,46.695,397.678,46.852z"/>
			<path fill="#1B315D" d="M346.389,79.888c0.003,0.05,0.001,0.131-0.006,0.241c-0.006,0.111-0.02,0.234-0.04,0.371
				c-0.021,0.135-0.049,0.277-0.085,0.424c-0.035,0.146-0.079,0.28-0.133,0.402c-0.053,0.121-0.118,0.221-0.196,0.3
				c-0.079,0.079-0.166,0.118-0.26,0.118h-3.836l-1.888,11.189c-0.02,0.072-0.061,0.137-0.12,0.193
				c-0.061,0.058-0.154,0.104-0.282,0.139c-0.128,0.037-0.291,0.064-0.491,0.086c-0.199,0.021-0.453,0.033-0.76,0.033
				c-0.3,0-0.547-0.012-0.745-0.033c-0.197-0.021-0.351-0.049-0.459-0.086c-0.108-0.035-0.181-0.081-0.219-0.139
				c-0.039-0.057-0.052-0.121-0.04-0.193l1.889-11.189h-3.8c-0.118,0-0.201-0.039-0.248-0.118c-0.048-0.079-0.074-0.187-0.081-0.321
				c-0.003-0.058-0.001-0.142,0.005-0.253c0.006-0.11,0.02-0.235,0.039-0.376c0.021-0.139,0.05-0.281,0.085-0.429
				c0.035-0.146,0.082-0.28,0.139-0.401c0.057-0.122,0.123-0.221,0.198-0.296c0.074-0.075,0.159-0.112,0.253-0.112h10.763
				c0.095,0,0.17,0.039,0.225,0.117C346.35,79.635,346.382,79.745,346.389,79.888z"/>
			<path fill="#1B315D" d="M353.021,88.053l-0.813,4.892c-0.021,0.071-0.061,0.136-0.12,0.193c-0.061,0.058-0.154,0.104-0.282,0.14
				c-0.128,0.035-0.294,0.062-0.498,0.08c-0.203,0.018-0.455,0.027-0.754,0.027s-0.547-0.01-0.744-0.027
				c-0.198-0.018-0.351-0.045-0.459-0.08c-0.107-0.036-0.181-0.082-0.219-0.14c-0.039-0.058-0.053-0.122-0.039-0.193l0.813-4.892
				l-2.885-7.564c-0.1-0.25-0.163-0.45-0.19-0.601c-0.026-0.149,0.005-0.263,0.096-0.338s0.254-0.123,0.487-0.145
				c0.235-0.021,0.569-0.032,1.003-0.032c0.33,0,0.592,0.006,0.785,0.016c0.193,0.012,0.346,0.035,0.457,0.07
				c0.112,0.035,0.192,0.088,0.238,0.155c0.047,0.068,0.089,0.155,0.126,0.263l1.195,3.337c0.139,0.401,0.262,0.782,0.371,1.143
				c0.108,0.361,0.208,0.739,0.299,1.132h0.023c0.201-0.387,0.41-0.766,0.627-1.137c0.218-0.372,0.45-0.744,0.699-1.116l2.271-3.39
				c0.059-0.094,0.121-0.17,0.189-0.231c0.067-0.061,0.164-0.108,0.288-0.145s0.29-0.061,0.497-0.075
				c0.208-0.014,0.489-0.021,0.843-0.021c0.457,0,0.805,0.013,1.047,0.037c0.241,0.025,0.401,0.079,0.479,0.161
				c0.079,0.083,0.081,0.197,0.006,0.343c-0.075,0.147-0.197,0.338-0.366,0.574L353.021,88.053z"/>
			<path fill="#1B315D" d="M370.648,82.838c0.021,0.401-0.008,0.82-0.083,1.256c-0.077,0.436-0.215,0.863-0.414,1.281
				c-0.198,0.419-0.465,0.816-0.795,1.191c-0.332,0.375-0.744,0.708-1.235,0.998c-0.493,0.289-1.07,0.519-1.73,0.686
				c-0.66,0.169-1.442,0.253-2.348,0.253h-1.593l-0.754,4.441c-0.013,0.071-0.049,0.136-0.108,0.193
				c-0.061,0.058-0.156,0.104-0.288,0.14c-0.132,0.035-0.3,0.062-0.504,0.08c-0.203,0.018-0.455,0.027-0.754,0.027
				c-0.291,0-0.533-0.01-0.727-0.027c-0.194-0.018-0.347-0.045-0.459-0.08c-0.111-0.036-0.188-0.081-0.23-0.135
				c-0.043-0.053-0.054-0.119-0.033-0.198l2.115-12.499c0.055-0.336,0.195-0.588,0.423-0.756c0.227-0.168,0.514-0.252,0.86-0.252
				h3.34c0.409,0,0.775,0.013,1.1,0.037c0.323,0.025,0.644,0.066,0.961,0.123c0.485,0.086,0.923,0.219,1.313,0.397
				c0.39,0.179,0.727,0.402,1.008,0.671c0.281,0.268,0.501,0.583,0.661,0.943C370.533,81.971,370.626,82.381,370.648,82.838z
				 M367.396,83.16c-0.018-0.344-0.122-0.64-0.316-0.891c-0.193-0.25-0.481-0.426-0.864-0.525c-0.168-0.05-0.354-0.084-0.561-0.102
				c-0.204-0.018-0.434-0.027-0.686-0.027h-1.368l-0.777,4.71h1.416c0.449,0,0.83-0.048,1.145-0.146
				c0.313-0.096,0.586-0.223,0.818-0.381c0.231-0.156,0.427-0.343,0.585-0.558c0.158-0.214,0.284-0.439,0.379-0.676
				c0.095-0.235,0.158-0.474,0.194-0.714C367.396,83.613,367.407,83.382,367.396,83.16z"/>
			<path fill="#1B315D" d="M382.604,79.846c0.002,0.042,0,0.117-0.006,0.225c-0.007,0.107-0.018,0.227-0.034,0.359
				c-0.018,0.133-0.042,0.27-0.074,0.413s-0.075,0.273-0.128,0.392s-0.119,0.217-0.197,0.295c-0.078,0.079-0.165,0.118-0.259,0.118
				h-5.452l-0.584,3.39h4.625c0.111,0,0.191,0.037,0.242,0.107c0.051,0.072,0.079,0.172,0.086,0.301c0.002,0.051,0,0.127-0.006,0.23
				c-0.007,0.104-0.019,0.223-0.035,0.354c-0.017,0.133-0.042,0.268-0.074,0.402c-0.032,0.137-0.075,0.262-0.129,0.376
				c-0.053,0.114-0.117,0.208-0.191,0.279c-0.076,0.071-0.16,0.106-0.255,0.106h-4.614l-0.675,3.916h5.522
				c0.095,0,0.167,0.038,0.219,0.113c0.051,0.074,0.08,0.184,0.087,0.327c0.003,0.05,0.003,0.128,0,0.235
				c-0.002,0.107-0.014,0.229-0.034,0.359c-0.021,0.133-0.048,0.268-0.08,0.402c-0.032,0.137-0.075,0.264-0.128,0.381
				c-0.054,0.119-0.117,0.214-0.193,0.285c-0.074,0.071-0.163,0.107-0.266,0.107h-7.67c-0.126,0-0.241-0.017-0.345-0.049
				c-0.104-0.032-0.191-0.086-0.263-0.16c-0.07-0.076-0.121-0.168-0.149-0.279c-0.029-0.111-0.032-0.245-0.009-0.402l2.055-12.102
				c0.055-0.314,0.185-0.542,0.391-0.682c0.205-0.14,0.438-0.209,0.697-0.209h7.6C382.481,79.438,382.591,79.573,382.604,79.846z"/>
			<path fill="#1B315D" d="M398.352,91.593c0.003,0.05,0.001,0.128-0.005,0.235c-0.007,0.107-0.021,0.228-0.041,0.359
				c-0.021,0.133-0.048,0.264-0.08,0.393c-0.033,0.129-0.076,0.25-0.129,0.364c-0.055,0.114-0.118,0.206-0.193,0.273
				c-0.075,0.068-0.156,0.103-0.242,0.103h-8.438c-0.103,0-0.183-0.039-0.241-0.119c-0.06-0.078-0.093-0.195-0.101-0.354
				c-0.003-0.049-0.001-0.127,0.006-0.23c0.006-0.104,0.02-0.218,0.041-0.344c0.021-0.125,0.051-0.255,0.086-0.391
				c0.036-0.137,0.082-0.258,0.136-0.365s0.117-0.197,0.193-0.268c0.074-0.072,0.163-0.107,0.266-0.107h2.832l1.508-8.916
				l-2.676,1.234c-0.154,0.064-0.282,0.105-0.383,0.123c-0.102,0.018-0.181,0.015-0.236-0.011c-0.057-0.024-0.097-0.069-0.119-0.134
				c-0.023-0.064-0.037-0.15-0.043-0.258c-0.005-0.1-0.002-0.234,0.009-0.402c0.012-0.168,0.041-0.344,0.086-0.525
				c0.046-0.183,0.11-0.353,0.193-0.51c0.082-0.157,0.188-0.269,0.318-0.333l3.644-1.931c0.054-0.028,0.111-0.052,0.174-0.07
				c0.062-0.018,0.142-0.031,0.239-0.043c0.098-0.01,0.226-0.018,0.382-0.021c0.158-0.003,0.358-0.005,0.603-0.005
				c0.299,0,0.539,0.005,0.721,0.017c0.181,0.01,0.317,0.028,0.41,0.053c0.091,0.025,0.146,0.06,0.164,0.102
				c0.018,0.043,0.024,0.098,0.02,0.162l-1.933,11.469h2.514c0.103,0,0.179,0.037,0.23,0.112
				C398.315,91.33,398.345,91.442,398.352,91.593z"/>
			<path fill="#1B315D" d="M344.935,106.629c0.022,0.43,0.016,0.885-0.019,1.363c-0.035,0.479-0.109,0.967-0.221,1.465
				c-0.112,0.497-0.273,0.99-0.479,1.48c-0.208,0.49-0.474,0.958-0.797,1.404c-0.323,0.447-0.714,0.864-1.17,1.25
				c-0.457,0.387-0.988,0.721-1.596,1.004s-1.297,0.502-2.066,0.66c-0.771,0.156-1.696,0.235-2.773,0.235h-3.883
				c-0.126,0-0.247-0.015-0.362-0.043s-0.212-0.077-0.291-0.146c-0.077-0.066-0.134-0.158-0.167-0.273
				c-0.033-0.113-0.034-0.257-0.004-0.429l2.055-12.102c0.047-0.314,0.173-0.542,0.378-0.681c0.206-0.141,0.454-0.21,0.745-0.21
				h3.682c1.212,0,2.229,0.107,3.056,0.322c0.825,0.214,1.521,0.532,2.09,0.954c0.567,0.423,1.003,0.947,1.307,1.572
				C344.721,105.083,344.894,105.807,344.935,106.629z M341.694,106.962c-0.022-0.45-0.111-0.868-0.264-1.255
				c-0.154-0.387-0.387-0.719-0.699-0.998c-0.313-0.279-0.708-0.496-1.184-0.654c-0.477-0.157-1.107-0.236-1.895-0.236h-1.617
				l-1.61,9.441h1.628c0.826,0,1.516-0.092,2.069-0.273c0.553-0.183,1.036-0.433,1.449-0.751c0.412-0.318,0.759-0.687,1.042-1.105
				c0.281-0.418,0.507-0.859,0.676-1.325c0.169-0.465,0.284-0.939,0.347-1.426S341.718,107.42,341.694,106.962z"/>
			<path fill="#1B315D" d="M349.377,115.115c-0.012,0.072-0.049,0.137-0.108,0.193c-0.06,0.058-0.153,0.104-0.281,0.14
				c-0.129,0.036-0.294,0.062-0.498,0.081c-0.203,0.018-0.455,0.026-0.754,0.026c-0.307,0-0.557-0.009-0.75-0.026
				c-0.194-0.019-0.348-0.045-0.459-0.081s-0.189-0.082-0.231-0.14c-0.043-0.057-0.054-0.121-0.033-0.193l2.226-13.131
				c0.005-0.071,0.039-0.136,0.103-0.193c0.064-0.057,0.16-0.104,0.288-0.14s0.292-0.062,0.492-0.08
				c0.199-0.018,0.449-0.026,0.748-0.026s0.545,0.009,0.738,0.026c0.194,0.018,0.349,0.044,0.465,0.08
				c0.115,0.036,0.192,0.083,0.23,0.14c0.039,0.058,0.053,0.122,0.04,0.193L349.377,115.115z"/>
			<path fill="#1B315D" d="M365.31,114.439c0.053,0.258,0.08,0.462,0.085,0.611c0.003,0.15-0.046,0.264-0.148,0.338
				c-0.103,0.076-0.275,0.122-0.518,0.141c-0.243,0.018-0.578,0.026-1.003,0.026c-0.299,0-0.542-0.005-0.732-0.017
				c-0.188-0.01-0.335-0.03-0.439-0.059c-0.104-0.028-0.176-0.071-0.218-0.129c-0.043-0.057-0.07-0.135-0.084-0.236l-0.554-2.789
				h-5.735l-1.443,2.725c-0.051,0.102-0.108,0.186-0.177,0.252c-0.066,0.068-0.167,0.121-0.299,0.156s-0.31,0.061-0.533,0.075
				c-0.223,0.015-0.504,0.021-0.843,0.021c-0.361,0-0.643-0.011-0.845-0.032s-0.338-0.073-0.41-0.156
				c-0.07-0.081-0.084-0.197-0.041-0.348c0.045-0.15,0.134-0.351,0.271-0.602l6.787-12.316c0.073-0.121,0.146-0.219,0.222-0.295
				c0.074-0.074,0.184-0.132,0.327-0.172c0.144-0.039,0.34-0.063,0.587-0.074s0.572-0.016,0.974-0.016
				c0.464,0,0.832,0.005,1.104,0.016s0.483,0.035,0.635,0.074c0.151,0.04,0.253,0.1,0.304,0.178
				c0.053,0.079,0.089,0.186,0.111,0.322L365.31,114.439z M360.156,104.258h-0.012l-3.112,5.901h4.296L360.156,104.258z"/>
			<path fill="#1B315D" d="M379.226,104.441c0.021,0.422-0.024,0.82-0.135,1.195c-0.111,0.376-0.282,0.719-0.515,1.03
				s-0.517,0.587-0.854,0.826s-0.721,0.431-1.146,0.573c0.35,0.059,0.673,0.158,0.971,0.301c0.299,0.144,0.558,0.326,0.777,0.547
				c0.22,0.223,0.395,0.485,0.524,0.789c0.129,0.305,0.203,0.646,0.223,1.024c0.018,0.344-0.016,0.7-0.1,1.067
				c-0.084,0.369-0.227,0.729-0.429,1.078c-0.203,0.352-0.473,0.686-0.812,1.004c-0.337,0.318-0.75,0.598-1.238,0.836
				c-0.486,0.24-1.054,0.43-1.699,0.569c-0.646,0.14-1.401,0.209-2.267,0.209h-4.237c-0.322,0-0.561-0.071-0.713-0.214
				c-0.153-0.144-0.201-0.369-0.146-0.677l2.055-12.102c0.047-0.314,0.175-0.542,0.385-0.681c0.209-0.141,0.455-0.21,0.738-0.21
				h3.67c0.811,0,1.514,0.058,2.109,0.172s1.101,0.288,1.514,0.521s0.73,0.525,0.952,0.879
				C379.077,103.534,379.201,103.955,379.226,104.441z M375.833,110.867c-0.023-0.457-0.229-0.818-0.615-1.084
				c-0.388-0.264-0.99-0.396-1.809-0.396h-2.065l-0.661,3.948h2.195c0.559,0,1.024-0.071,1.399-0.215
				c0.374-0.143,0.68-0.329,0.916-0.558c0.235-0.229,0.405-0.492,0.509-0.789C375.805,111.478,375.849,111.175,375.833,110.867z
				 M376.054,104.967c-0.01-0.2-0.059-0.375-0.145-0.525c-0.087-0.15-0.212-0.279-0.374-0.387c-0.163-0.107-0.365-0.189-0.608-0.246
				c-0.243-0.058-0.55-0.086-0.92-0.086h-1.688l-0.619,3.604h1.746c0.512,0,0.934-0.072,1.264-0.219
				c0.331-0.146,0.6-0.336,0.804-0.569c0.204-0.231,0.349-0.487,0.434-0.767C376.03,105.492,376.066,105.225,376.054,104.967z"/>
			<path fill="#1B315D" d="M392.048,102.016c0.002,0.043,0,0.119-0.006,0.227c-0.007,0.106-0.018,0.227-0.035,0.359
				c-0.017,0.132-0.042,0.27-0.073,0.412c-0.032,0.144-0.075,0.273-0.128,0.393c-0.053,0.117-0.119,0.216-0.198,0.295
				c-0.078,0.078-0.165,0.117-0.259,0.117h-5.451l-0.585,3.391h4.626c0.11,0,0.191,0.036,0.242,0.107s0.079,0.172,0.085,0.301
				c0.003,0.05,0.001,0.127-0.006,0.23c-0.006,0.104-0.018,0.221-0.034,0.354s-0.042,0.267-0.074,0.402
				c-0.032,0.137-0.075,0.262-0.129,0.375c-0.053,0.115-0.117,0.209-0.191,0.279c-0.076,0.072-0.16,0.107-0.255,0.107h-4.614
				l-0.675,3.916h5.522c0.095,0,0.167,0.037,0.219,0.112c0.051,0.075,0.08,0.185,0.087,0.327c0.003,0.051,0.003,0.129,0,0.236
				c-0.002,0.107-0.014,0.227-0.034,0.359c-0.021,0.133-0.048,0.267-0.08,0.402c-0.032,0.137-0.076,0.263-0.128,0.381
				c-0.054,0.118-0.117,0.213-0.193,0.284c-0.074,0.071-0.163,0.107-0.266,0.107h-7.67c-0.126,0-0.241-0.017-0.346-0.048
				c-0.104-0.033-0.19-0.086-0.262-0.161c-0.07-0.075-0.121-0.168-0.149-0.279c-0.029-0.11-0.032-0.245-0.009-0.402l2.055-12.102
				c0.055-0.314,0.185-0.542,0.391-0.681c0.204-0.141,0.438-0.21,0.697-0.21h7.6C391.925,101.608,392.034,101.744,392.048,102.016z"
				/>
			<path fill="#1B315D" d="M405.008,102.059c0.003,0.051,0.001,0.131-0.006,0.242c-0.006,0.111-0.02,0.234-0.04,0.37
				s-0.05,0.277-0.085,0.424s-0.079,0.28-0.133,0.401c-0.053,0.123-0.119,0.223-0.197,0.301c-0.079,0.079-0.165,0.118-0.259,0.118
				h-3.836l-1.888,11.19c-0.02,0.071-0.061,0.136-0.12,0.192c-0.061,0.058-0.154,0.104-0.282,0.14
				c-0.128,0.036-0.292,0.064-0.491,0.086s-0.453,0.032-0.76,0.032c-0.3,0-0.547-0.011-0.746-0.032
				c-0.197-0.021-0.35-0.05-0.458-0.086c-0.108-0.035-0.181-0.082-0.219-0.14c-0.039-0.057-0.052-0.121-0.04-0.192l1.889-11.19
				h-3.801c-0.117,0-0.201-0.039-0.248-0.118c-0.047-0.078-0.073-0.186-0.08-0.321c-0.003-0.058-0.002-0.142,0.005-0.253
				c0.006-0.11,0.019-0.235,0.039-0.375c0.021-0.139,0.05-0.282,0.085-0.43c0.035-0.146,0.081-0.279,0.139-0.402
				c0.057-0.121,0.123-0.219,0.198-0.295c0.074-0.074,0.159-0.112,0.253-0.112h10.763c0.095,0,0.17,0.04,0.225,0.118
				C404.969,101.806,405.001,101.916,405.008,102.059z"/>
			<path fill="#1B315D" d="M415.804,102.016c0.002,0.043,0,0.119-0.006,0.227c-0.007,0.106-0.018,0.227-0.035,0.359
				c-0.017,0.132-0.042,0.27-0.073,0.412c-0.032,0.144-0.075,0.273-0.128,0.393c-0.053,0.117-0.119,0.216-0.198,0.295
				c-0.078,0.078-0.165,0.117-0.259,0.117h-5.451l-0.585,3.391h4.626c0.11,0,0.191,0.036,0.242,0.107s0.079,0.172,0.085,0.301
				c0.003,0.05,0.001,0.127-0.006,0.23c-0.006,0.104-0.018,0.221-0.034,0.354s-0.042,0.267-0.074,0.402
				c-0.032,0.137-0.075,0.262-0.129,0.375c-0.053,0.115-0.117,0.209-0.191,0.279c-0.076,0.072-0.16,0.107-0.255,0.107h-4.614
				l-0.675,3.916h5.522c0.095,0,0.167,0.037,0.219,0.112c0.051,0.075,0.08,0.185,0.087,0.327c0.003,0.051,0.003,0.129,0,0.236
				c-0.002,0.107-0.014,0.227-0.034,0.359c-0.021,0.133-0.048,0.267-0.08,0.402c-0.032,0.137-0.076,0.263-0.128,0.381
				c-0.054,0.118-0.117,0.213-0.193,0.284c-0.074,0.071-0.163,0.107-0.266,0.107h-7.67c-0.126,0-0.241-0.017-0.346-0.048
				c-0.104-0.033-0.19-0.086-0.262-0.161c-0.07-0.075-0.121-0.168-0.149-0.279c-0.029-0.11-0.032-0.245-0.009-0.402l2.055-12.102
				c0.055-0.314,0.185-0.542,0.391-0.681c0.204-0.141,0.438-0.21,0.697-0.21h7.6C415.681,101.608,415.79,101.744,415.804,102.016z"
				/>
			<path fill="#1B315D" d="M426.481,102.671c0.003,0.058,0.001,0.14-0.005,0.247c-0.007,0.107-0.019,0.225-0.035,0.354
				c-0.018,0.129-0.04,0.26-0.069,0.392c-0.028,0.133-0.065,0.254-0.111,0.364c-0.046,0.111-0.098,0.203-0.156,0.273
				c-0.061,0.072-0.125,0.107-0.196,0.107c-0.11,0-0.249-0.044-0.42-0.134c-0.169-0.089-0.376-0.186-0.622-0.29
				c-0.245-0.104-0.531-0.199-0.858-0.289s-0.695-0.135-1.104-0.135c-0.425,0-0.782,0.055-1.072,0.162
				c-0.289,0.107-0.523,0.248-0.704,0.424c-0.179,0.175-0.309,0.371-0.389,0.59s-0.113,0.438-0.103,0.659
				c0.014,0.258,0.096,0.485,0.248,0.682c0.151,0.196,0.349,0.38,0.594,0.547c0.244,0.169,0.521,0.331,0.833,0.488
				c0.311,0.157,0.626,0.321,0.945,0.493s0.637,0.359,0.949,0.563c0.313,0.204,0.595,0.44,0.845,0.708
				c0.249,0.269,0.454,0.576,0.613,0.923s0.249,0.745,0.272,1.196c0.034,0.672-0.084,1.297-0.354,1.872s-0.667,1.077-1.192,1.502
				c-0.525,0.426-1.17,0.761-1.932,1.003c-0.764,0.243-1.616,0.365-2.561,0.365c-0.512,0-0.985-0.038-1.422-0.113
				c-0.437-0.074-0.825-0.166-1.164-0.273c-0.341-0.107-0.628-0.22-0.861-0.338c-0.234-0.117-0.409-0.23-0.524-0.338
				c-0.116-0.107-0.179-0.268-0.19-0.482c-0.002-0.057,0.001-0.143,0.011-0.258c0.01-0.114,0.025-0.237,0.047-0.37
				c0.021-0.132,0.047-0.269,0.079-0.407c0.032-0.141,0.073-0.267,0.122-0.381c0.05-0.115,0.105-0.207,0.17-0.279
				c0.062-0.071,0.134-0.107,0.212-0.107c0.134,0,0.296,0.056,0.487,0.166c0.189,0.111,0.426,0.232,0.709,0.365
				c0.28,0.133,0.614,0.256,0.998,0.37c0.383,0.114,0.838,0.171,1.365,0.171c0.465,0,0.868-0.053,1.213-0.16
				s0.631-0.254,0.857-0.439c0.227-0.187,0.395-0.402,0.504-0.649s0.156-0.517,0.142-0.81c-0.014-0.266-0.096-0.498-0.247-0.697
				c-0.152-0.201-0.349-0.385-0.589-0.553c-0.241-0.168-0.513-0.328-0.815-0.479c-0.302-0.149-0.611-0.311-0.927-0.482
				s-0.626-0.357-0.932-0.558c-0.305-0.2-0.58-0.435-0.825-0.702c-0.246-0.269-0.448-0.578-0.607-0.929s-0.252-0.758-0.275-1.224
				c-0.032-0.643,0.079-1.236,0.335-1.78c0.256-0.543,0.626-1.01,1.109-1.399c0.483-0.391,1.069-0.693,1.76-0.912
				c0.688-0.219,1.454-0.328,2.296-0.328c0.394,0,0.769,0.027,1.125,0.081c0.357,0.054,0.684,0.122,0.979,0.204
				s0.548,0.174,0.757,0.273c0.21,0.1,0.356,0.184,0.438,0.252c0.083,0.068,0.143,0.14,0.183,0.215
				C426.453,102.461,426.476,102.557,426.481,102.671z"/>
			<path fill="#1B315D" d="M431.226,113.367c0.005,0.107,0,0.246-0.016,0.418c-0.015,0.172-0.043,0.35-0.084,0.531
				c-0.043,0.183-0.101,0.357-0.175,0.525c-0.073,0.168-0.169,0.309-0.285,0.419s-0.293,0.2-0.529,0.269
				c-0.237,0.067-0.552,0.102-0.945,0.102c-0.291,0-0.534-0.021-0.729-0.064s-0.353-0.107-0.47-0.193
				c-0.119-0.086-0.205-0.194-0.259-0.327c-0.054-0.132-0.086-0.288-0.095-0.467c-0.006-0.114,0-0.257,0.02-0.429
				c0.019-0.172,0.049-0.35,0.092-0.531c0.041-0.183,0.099-0.355,0.174-0.521c0.074-0.164,0.171-0.302,0.291-0.413
				c0.121-0.11,0.293-0.199,0.518-0.268c0.226-0.068,0.542-0.103,0.951-0.103c0.307,0,0.56,0.025,0.759,0.075
				c0.2,0.051,0.356,0.12,0.472,0.209c0.114,0.09,0.192,0.201,0.234,0.333S431.218,113.21,431.226,113.367z"/>
		</g>
	</g>
</g>
</svg>
