<?xml version="1.0" encoding="utf-8"?>
<!-- Generator: Adobe Illustrator 16.0.4, SVG Export Plug-In . SVG Version: 6.00 Build 0)  -->
<!DOCTYPE svg PUBLIC "-//W3C//DTD SVG 1.1//EN" "http://www.w3.org/Graphics/SVG/1.1/DTD/svg11.dtd">
<svg version="1.1" id="Layer_1" xmlns="http://www.w3.org/2000/svg" xmlns:xlink="http://www.w3.org/1999/xlink" x="0px" y="0px"
	 width="148px" height="18px" viewBox="0 0 148 18" enable-background="new 0 0 148 18" xml:space="preserve">
<g>
	<path fill="#009B3A" d="M5.747,4.394H0.477l0.584-4.268h15.411l-0.584,4.268h-5.271L8.794,17.699h-4.87L5.747,4.394z"/>
	<path fill="#009B3A" d="M18.359,0.126H32.49l-0.568,4.143H22.61L22.246,6.93h8.434l-0.526,3.841H21.72l-0.382,2.788h9.438
		l-0.568,4.141H15.952L18.359,0.126z"/>
	<path fill="#009B3A" d="M40.944,0h4.693l5.055,17.699h-5.22l-0.85-3.139h-6.777l-1.685,3.139H31.04L40.944,0z M43.736,10.771
		l-1.273-4.996l-2.667,4.996H43.736z"/>
	<path fill="#009B3A" d="M54.561,0.126h5.145l3.26,6.804l5.124-6.804h5.146l-2.407,17.573h-4.844l1.383-10.093l-5.436,6.88h-0.101
		l-3.532-6.83l-1.375,10.043h-4.769L54.561,0.126z"/>
	<path fill="#0073CF" d="M79.305,15.038l3.543-2.961c0.713,1.029,1.434,1.63,2.513,1.63c1.23,0,2.123-0.828,2.346-2.46l1.524-11.121
		h4.844l-1.527,11.146c-0.303,2.209-1.068,3.767-2.409,4.946C88.825,17.373,87.083,18,85.075,18
		C82.011,18,80.305,16.721,79.305,15.038z"/>
	<path fill="#0073CF" d="M96.713,0.126h6.776c6.274,0,9.42,3.615,8.725,8.686l-0.007,0.051c-0.694,5.07-4.899,8.837-11.225,8.837
		h-6.678L96.713,0.126z M101.748,13.381c2.913,0,5.065-1.606,5.452-4.443l0.008-0.05c0.385-2.812-1.324-4.443-4.235-4.443h-1.983
		l-1.225,8.937H101.748z"/>
	<path fill="#0073CF" d="M115.667,0.126h8.308c2.687,0,4.449,0.702,5.462,1.908c0.891,1.004,1.233,2.359,0.995,4.092l-0.007,0.05
		c-0.367,2.688-2.042,4.469-4.354,5.398l3.352,6.125h-5.622l-2.81-5.322h-0.051h-2.083l-0.729,5.322h-4.869L115.667,0.126z
		 M122.594,8.561c1.655,0,2.72-0.803,2.896-2.083l0.007-0.051c0.189-1.381-0.718-2.083-2.349-2.083h-3.188l-0.577,4.217H122.594z"/>
	<path fill="#0073CF" d="M133.467,0.126h14.057l-0.584,4.268h-9.187l-0.411,2.987h8.309l-0.553,4.042h-8.309l-0.859,6.276h-4.869
		L133.467,0.126z"/>
</g>
</svg>
