<?xml version="1.0" encoding="utf-8"?>
<!-- Generator: Adobe Illustrator 16.0.4, SVG Export Plug-In . SVG Version: 6.00 Build 0)  -->
<!DOCTYPE svg PUBLIC "-//W3C//DTD SVG 1.1//EN" "http://www.w3.org/Graphics/SVG/1.1/DTD/svg11.dtd">
<svg version="1.1" id="Layer_1" xmlns="http://www.w3.org/2000/svg" xmlns:xlink="http://www.w3.org/1999/xlink" x="0px" y="0px"
	 width="570px" height="26.053px" viewBox="0 0 570 26.053" enable-background="new 0 0 570 26.053" xml:space="preserve">
<g>
	<path fill="#009B3A" d="M7.513,6.584H0L0.833,0.5h21.969l-0.833,6.084h-7.513l-2.599,18.967H4.915L7.513,6.584z"/>
	<path fill="#009B3A" d="M25.491,0.5h20.144l-0.809,5.906H31.552l-0.52,3.793h12.022l-0.75,5.475H30.283l-0.544,3.974h13.454
		l-0.809,5.904H22.06L25.491,0.5z"/>
	<path fill="#009B3A" d="M57.687,0.322h6.691l7.206,25.229h-7.442l-1.212-4.474h-9.661l-2.401,4.474h-7.3L57.687,0.322z
		 M61.666,15.674l-1.815-7.121l-3.802,7.121H61.666z"/>
	<path fill="#009B3A" d="M77.097,0.5h7.334l4.647,9.699L96.382,0.5h7.335l-3.432,25.051h-6.905l1.971-14.386l-7.749,9.805h-0.144
		l-5.035-9.734l-1.961,14.315h-6.798L77.097,0.5z"/>
	<path fill="#0073CF" d="M112.371,21.758l5.051-4.222c1.016,1.467,2.043,2.324,3.582,2.324c1.753,0,3.025-1.18,3.343-3.506
		L126.519,0.5h6.906l-2.177,15.889c-0.431,3.148-1.523,5.368-3.434,7.051c-1.872,1.646-4.356,2.541-7.218,2.541
		C116.229,25.981,113.796,24.156,112.371,21.758z"/>
	<path fill="#0073CF" d="M137.185,0.5h9.66c8.945,0,13.429,5.154,12.438,12.382l-0.01,0.072c-0.99,7.228-6.985,12.597-16.002,12.597
		h-9.518L137.185,0.5z M144.364,19.396c4.151,0,7.22-2.291,7.773-6.334l0.01-0.072c0.549-4.008-1.887-6.334-6.038-6.334h-2.827
		l-1.746,12.74H144.364z"/>
	<path fill="#0073CF" d="M164.205,0.5h11.843c3.829,0,6.34,1.002,7.785,2.721c1.271,1.431,1.758,3.363,1.42,5.833l-0.01,0.071
		c-0.524,3.83-2.912,6.37-6.207,7.695l4.779,8.731h-8.015l-4.006-7.587h-0.071h-2.97l-1.039,7.587h-6.941L164.205,0.5z
		 M174.079,12.525c2.361,0,3.878-1.146,4.128-2.971l0.01-0.071c0.27-1.968-1.024-2.97-3.35-2.97h-4.544l-0.823,6.012H174.079z"/>
	<path fill="#0073CF" d="M189.579,0.5h20.037l-0.833,6.084h-13.096l-0.583,4.259h11.843l-0.789,5.762h-11.843l-1.226,8.946h-6.941
		L189.579,0.5z"/>
	<path fill="#002F5F" d="M230.176,2.219h-8.731L221.68,0.5h19.322l-0.235,1.718h-8.731l-3.196,23.333h-1.86L230.176,2.219z"/>
	<path fill="#002F5F" d="M239.354,13.098l0.01-0.071c0.937-6.836,6.819-12.956,14.405-12.956c7.585,0,11.73,6.048,10.794,12.884
		c0.03,0.035,0.03,0.035-0.01,0.072c-0.937,6.833-6.82,12.955-14.405,12.955S238.417,19.933,239.354,13.098z M262.611,13.098
		l0.01-0.071c0.848-6.192-2.964-11.273-9.154-11.273s-11.313,5.01-12.161,11.202l-0.01,0.072
		c-0.848,6.191,2.963,11.272,9.154,11.272C256.64,24.299,261.763,19.288,262.611,13.098z"/>
	<path fill="#002F5F" d="M275.572,13.098l0.01-0.071C276.581,5.726,282.983,0,290.568,0c5.117,0,8.114,2.147,9.911,5.225
		l-5.778,4.043c-1.186-1.789-2.674-2.934-5.072-2.934c-3.506,0-6.383,2.97-6.883,6.621l-0.009,0.072
		c-0.515,3.757,1.552,6.692,5.058,6.692c2.613,0,4.319-1.218,6.07-3.042l4.715,3.722c-2.808,3.257-6.319,5.654-11.866,5.654
		C279.557,26.053,274.547,20.577,275.572,13.098z"/>
	<path fill="#002F5F" d="M301.675,14.565L303.603,0.5h7.049l-1.907,13.921c-0.496,3.614,1.093,5.332,3.884,5.332
		s4.841-1.646,5.321-5.153l1.933-14.1h7.049l-1.903,13.885c-1.106,8.088-6.209,11.63-13.328,11.63
		C304.579,26.016,300.602,22.402,301.675,14.565z"/>
	<path fill="#002F5F" d="M330.692,0.5h11.845c3.828,0,6.339,1.002,7.784,2.721c1.271,1.431,1.757,3.363,1.419,5.833l-0.01,0.071
		c-0.523,3.83-2.912,6.37-6.207,7.695l4.779,8.731h-8.015l-4.005-7.587h-0.071h-2.971l-1.04,7.587h-6.94L330.692,0.5z
		 M340.566,12.525c2.362,0,3.878-1.146,4.129-2.971l0.01-0.071c0.27-1.968-1.025-2.97-3.351-2.97h-4.544l-0.824,6.012H340.566z"/>
	<path fill="#002F5F" d="M356.067,0.5h20.144l-0.808,5.906h-13.275l-0.521,3.793h12.022l-0.749,5.475h-12.022l-0.543,3.974h13.453
		l-0.811,5.904h-20.322L356.067,0.5z"/>
	<path fill="#002F5F" d="M389.135,0.5h9.66c8.946,0,13.428,5.154,12.438,12.382l-0.011,0.072
		c-0.99,7.228-6.985,12.597-16.001,12.597h-9.518L389.135,0.5z M396.314,19.396c4.15,0,7.219-2.291,7.773-6.334l0.009-0.072
		c0.549-4.008-1.886-6.334-6.037-6.334h-2.827l-1.745,12.74H396.314z"/>
	<path fill="#002F5F" d="M416.298,0.5h6.978l-3.433,25.051h-6.978L416.298,0.5z"/>
	<path fill="#002F5F" d="M436.184,0.322h6.691l7.204,25.229h-7.441l-1.212-4.474h-9.66l-2.401,4.474h-7.3L436.184,0.322z
		 M440.162,15.674l-1.814-7.121l-3.803,7.121H440.162z"/>
	<path fill="#002F5F" d="M455.595,0.5h12.844c3.149,0,5.258,0.788,6.525,2.255c0.863,1.002,1.291,2.326,1.056,4.044l-0.01,0.072
		c-0.397,2.899-2.277,4.616-4.628,5.583c2.904,1.001,4.6,2.719,4.136,6.12l-0.01,0.071c-0.59,4.294-4.454,6.907-10.43,6.907h-12.917
		L455.595,0.5z M465.055,19.97c2.111,0,3.441-0.824,3.643-2.291l0.011-0.071c0.186-1.36-0.766-2.256-3.092-2.256h-5.296
		l-0.632,4.618H465.055z M465.354,10.486c2.11,0,3.39-0.716,3.589-2.183l0.011-0.072c0.188-1.36-0.779-2.147-2.853-2.147h-4.509
		l-0.604,4.402H465.354z"/>
	<path fill="#002F5F" d="M480.824,0.5h20.145l-0.811,5.906h-13.273l-0.52,3.793h12.022l-0.752,5.475h-12.021l-0.544,3.974h13.453
		l-0.809,5.904h-20.324L480.824,0.5z"/>
	<path fill="#002F5F" d="M509.621,6.584h-7.514l0.834-6.084h21.969l-0.834,6.084h-7.514l-2.6,18.967h-6.941L509.621,6.584z"/>
	<path fill="#002F5F" d="M527.599,0.5h20.144l-0.808,5.906h-13.275l-0.521,3.793h12.022l-0.749,5.475H532.39l-0.543,3.974H545.3
		l-0.811,5.904h-20.322L527.599,0.5z"/>
	<path fill="#002F5F" d="M546.292,21.829l4.497-4.615c2.199,1.968,4.811,3.007,7.711,3.007c1.859,0,2.951-0.645,3.098-1.72
		l0.01-0.071c0.142-1.038-0.604-1.609-3.895-2.396c-5.165-1.217-9.073-2.721-8.367-7.875l0.01-0.071
		c0.639-4.652,4.784-8.017,10.795-8.017c4.258,0,7.428,1.146,9.85,3.328l-4.144,4.903c-2.069-1.61-4.457-2.47-6.675-2.47
		c-1.682,0-2.604,0.716-2.726,1.611l-0.01,0.072c-0.156,1.145,0.634,1.646,3.996,2.433c5.591,1.252,8.913,3.113,8.271,7.801
		l-0.01,0.071c-0.699,5.117-5.161,8.16-11.243,8.16C553.022,25.981,548.992,24.585,546.292,21.829z"/>
</g>
</svg>
