<?xml version="1.0" encoding="utf-8"?> <!-- Generator: IcoMoon.io --> <!DOCTYPE svg PUBLIC "-//W3C//DTD SVG 1.1//EN" "http://www.w3.org/Graphics/SVG/1.1/DTD/svg11.dtd"> <svg width="32" height="32" viewBox="0 0 32 32" xmlns="http://www.w3.org/2000/svg" xmlns:xlink="http://www.w3.org/1999/xlink" fill="#000000"><g><path d="M 27.414,12.586l-10-10c-0.781-0.781-2.047-0.781-2.828,0l-10,10c-0.781,0.781-0.781,2.047,0,2.828 c 0.781,0.781, 2.047,0.781, 2.828,0L 14,8.828L 14,28 c0,1.105, 0.895,2, 2,2c 1.105,0, 2-0.895, 2-2L 18,8.828 l 6.586,6.586 C 24.976,15.805, 25.488,16, 26,16s 1.024-0.195, 1.414-0.586C 28.195,14.633, 28.195,13.367, 27.414,12.586z"></path></g></svg>