<?xml version="1.0" encoding="utf-8"?> <!-- Generator: IcoMoon.io --> <!DOCTYPE svg PUBLIC "-//W3C//DTD SVG 1.1//EN" "http://www.w3.org/Graphics/SVG/1.1/DTD/svg11.dtd"> <svg width="32" height="32" viewBox="0 0 32 32" xmlns="http://www.w3.org/2000/svg" xmlns:xlink="http://www.w3.org/1999/xlink" fill="#000000"><g><path d="M 26.001,4c-0,0-0.001,0-0.001,0L 14,4 c-1.105,0-2,0.895-2,2s 0.895,2, 2,2l 7.172,0 L 4.586,24.586 c-0.781,0.781-0.781,2.047,0,2.828C 4.976,27.805, 5.488,28, 6,28s 1.024-0.195, 1.414-0.586L 24,10.828L 24,18 c0,1.105, 0.895,2, 2,2s 2-0.895, 2-2L 28,4 L 26.001,4 z"></path></g></svg>