<?xml version="1.0" encoding="utf-8"?> <!-- Generator: IcoMoon.io --> <!DOCTYPE svg PUBLIC "-//W3C//DTD SVG 1.1//EN" "http://www.w3.org/Graphics/SVG/1.1/DTD/svg11.dtd"> <svg width="32" height="32" viewBox="0 0 32 32" xmlns="http://www.w3.org/2000/svg" xmlns:xlink="http://www.w3.org/1999/xlink" fill="#000000"><g><path d="M 32,16C 32,24.837, 24.837,32, 16,32s -16-7.163, -16-16s 7.163-16, 16-16S 32,7.163, 32,16z M 3,16 c 0,7.18 5.82,13 13,13S 29,23.18, 29,16s -5.82-13, -13-13S 3,8.82, 3,16zM 17.414,6.586l 8,8c 0.781,0.781 0.781,2.047 0,2.828c -0.781,0.781 -2.047,0.781,-2.828,0L 18,12.828 L 18,24 c 0,1.105 -0.895,2 -2,2c-1.105,0, -2-0.895, -2-2l0-11.172 l -4.586,4.586c -0.781,0.781 -2.047,0.781,-2.829,0 C 6.195,17.024, 6,16.512, 6,16s 0.195-1.024, 0.586-1.414l 8-8C 15.367,5.805, 16.633,5.805, 17.414,6.586z"></path></g></svg>