<?xml version="1.0" encoding="utf-8"?> <!-- Generator: IcoMoon.io --> <!DOCTYPE svg PUBLIC "-//W3C//DTD SVG 1.1//EN" "http://www.w3.org/Graphics/SVG/1.1/DTD/svg11.dtd"> <svg width="32" height="32" viewBox="0 0 32 32" xmlns="http://www.w3.org/2000/svg" xmlns:xlink="http://www.w3.org/1999/xlink" fill="#000000"><g><path d="M 2,0L 14,0L 14,2L 2,2zM 18,0L 30,0L 30,2L 18,2zM 29.75,10l-1.75,0 L 28,2 L 20,2 l0,8 L 12,10 L 12,2 L 4,2 l0,8 L 2.25,10 c-1.238,0-2.25,1.012-2.25,2.25l0,17.5 c0,1.238, 1.012,2.25, 2.25,2.25l 9.5,0 c 1.238,0, 2.25-1.012, 2.25-2.25L 14,18 l 4,0 l0,11.75 c0,1.238, 1.012,2.25, 2.25,2.25l 9.5,0 c 1.238,0, 2.25-1.012, 2.25-2.25L 32,12.25 C 32,11.012, 30.988,10, 29.75,10z M 10.875,30L 3.125,30 c-0.619,0-1.125-0.45-1.125-1 s 0.506-1, 1.125-1l 7.75,0 c 0.619,0, 1.125,0.45, 1.125,1S 11.494,30, 10.875,30z M 17,16l-2,0 c-0.55,0-1-0.45-1-1s 0.45-1, 1-1l 2,0 c 0.55,0, 1,0.45, 1,1 S 17.55,16, 17,16z M 28.875,30L 21.125,30 c-0.619,0-1.125-0.45-1.125-1s 0.506-1, 1.125-1l 7.75,0 c 0.619,0, 1.125,0.45, 1.125,1S 29.494,30, 28.875,30z"></path></g></svg>