<?xml version="1.0" encoding="utf-8"?> <!-- Generator: IcoMoon.io --> <!DOCTYPE svg PUBLIC "-//W3C//DTD SVG 1.1//EN" "http://www.w3.org/Graphics/SVG/1.1/DTD/svg11.dtd"> <svg width="32" height="32" viewBox="0 0 32 32" xmlns="http://www.w3.org/2000/svg" xmlns:xlink="http://www.w3.org/1999/xlink" fill="#000000"><g><path d="M 32,18l0-2 l-6.040,0 c-0.183-2.271-0.993-4.345-2.24-6.008l 5.061,0 l 2.189-8.758l-1.94-0.485l-1.811,7.242l-5.459,0 c-0.028-0.022-0.056-0.043-0.084-0.064c 0.21-0.609, 0.324-1.263, 0.324-1.944C 22,2.679, 19.314,0, 16,0s-6,2.679-6,5.984 c0,0.68, 0.114,1.334, 0.324,1.944c-0.028,0.021-0.056,0.043-0.084,0.064l-5.459,0 l-1.811-7.242l-1.94,0.485l 2.189,8.758l 5.061,0 C 7.034,11.655, 6.223,13.729, 6.040,16L0,16 l0,2 l 6.043,0 c 0.119,1.427, 0.485,2.775, 1.051,3.992L 3.219,21.992 l-2.189,8.757 l 1.94,0.485l 1.811-7.243l 3.511,0 C 10.126,26.431, 12.898,27.984, 16,27.984s 5.874-1.554, 7.708-3.992l 3.511,0 l 1.811,7.243 l 1.94-0.485l-2.189-8.757l-3.875,0 c 0.567-1.217, 0.932-2.565, 1.051-3.992L 32,18 z"></path></g></svg>