<?xml version="1.0" encoding="utf-8"?> <!-- Generator: IcoMoon.io --> <!DOCTYPE svg PUBLIC "-//W3C//DTD SVG 1.1//EN" "http://www.w3.org/Graphics/SVG/1.1/DTD/svg11.dtd"> <svg width="32" height="32" viewBox="0 0 32 32" xmlns="http://www.w3.org/2000/svg" xmlns:xlink="http://www.w3.org/1999/xlink" fill="#000000"><g><path d="M 8.071,13.954 L 3.492,6.023 C 6.424,2.352 10.937,0 16,0 C 21.857,0 26.978,3.148 29.767,7.844 L 16.711,7.844 C 16.477,7.823 16.24,7.813 16,7.813 C 12.191,7.813 8.982,10.426 8.071,13.954 ZM 21.728,10.156 L 30.899,10.156 C 31.61,11.967 32,13.938 32,16 C 32,24.776 24.934,31.9 16.182,31.998 L 22.725,20.664 C 23.646,19.34 24.188,17.732 24.188,16 C 24.188,13.713 23.245,11.643 21.728,10.156 ZM 10.188,16 C 10.188,12.795 12.795,10.188 16,10.188 C 19.205,10.188 21.813,12.795 21.813,16 C 21.813,19.205 19.205,21.813 16,21.813 C 12.795,21.813 10.188,19.205 10.188,16 ZM 18.193,23.889 L 13.613,31.823 C 5.909,30.67 0,24.025 0,16 C 0,13.149 0.746,10.474 2.053,8.155 L 8.585,19.47 C 9.894,22.254 12.725,24.188 16,24.188 C 16.759,24.188 17.495,24.083 18.193,23.889 Z"></path></g></svg>