<?xml version="1.0" encoding="utf-8"?> <!-- Generator: IcoMoon.io --> <!DOCTYPE svg PUBLIC "-//W3C//DTD SVG 1.1//EN" "http://www.w3.org/Graphics/SVG/1.1/DTD/svg11.dtd"> <svg width="32" height="32" viewBox="0 0 32 32" xmlns="http://www.w3.org/2000/svg" xmlns:xlink="http://www.w3.org/1999/xlink" fill="#000000"><g><path d="M 27.883,12.078C 27.96,11.731, 28,11.37, 28,11c0-2.761-2.239-5-5-5c-0.444,0-0.875,0.058-1.285,0.167 C 20.94,3.75, 18.674,2, 16,2c-2.73,0-5.033,1.823-5.76,4.318C 9.529,6.111, 8.778,6, 8,6C 3.582,6,0,9.582,0,14 c0,4.418, 3.582,8, 8,8l 4,0 l0,6 l 8,0 l0-6 l 7,0 c 2.761,0, 5-2.239, 5-5C 32,14.54, 30.223,12.495, 27.883,12.078z M 18,20l0,6 l-4,0 l0-6 l-5,0 l 7-7l 7,7L 18,20 z"></path></g></svg>