<?xml version="1.0" encoding="utf-8"?> <!-- Generator: IcoMoon.io --> <!DOCTYPE svg PUBLIC "-//W3C//DTD SVG 1.1//EN" "http://www.w3.org/Graphics/SVG/1.1/DTD/svg11.dtd"> <svg width="32" height="32" viewBox="0 0 32 32" xmlns="http://www.w3.org/2000/svg" xmlns:xlink="http://www.w3.org/1999/xlink" fill="#000000"><g><path d="M0,2l0,28 l 32,0 L 32,2 L0,2 z M 30,28L 2,28 L 2,4 l 28,0 L 30,28 zM 28,6L 4,6 l0,20 l 24,0 L 28,6 z M 14,16l-2,0 l0,2 l-2,0 l0,2 l-2,0 l0-2 l 2,0 l0-2 l 2,0 l0-2 l-2,0 l0-2 l-2,0 l0-2 l 2,0 l0,2 l 2,0 l0,2 l 2,0 L 14,16 z M 22,20l-6,0 l0-2 l 6,0 L 22,20 z"></path></g></svg>