<?xml version="1.0" encoding="utf-8"?> <!-- Generator: IcoMoon.io --> <!DOCTYPE svg PUBLIC "-//W3C//DTD SVG 1.1//EN" "http://www.w3.org/Graphics/SVG/1.1/DTD/svg11.dtd"> <svg width="32" height="32" viewBox="0 0 32 32" xmlns="http://www.w3.org/2000/svg" xmlns:xlink="http://www.w3.org/1999/xlink" fill="#000000"><g><path d="M 16,32c 8.837,0, 16-7.163, 16-16S 24.837,0, 16,0S0,7.163,0,16S 7.163,32, 16,32z M 16,3 c 7.18,0, 13,5.82, 13,13s-5.82,13-13,13S 3,23.18, 3,16S 8.82,3, 16,3zM 25,8 C 25.55,8 26,8.45 26,9 L 26,12 C 26,13.1 25.1,14 24,14 L 20,14 C 18.9,14 18,13.1 18,12 L 14,12 C 14,13.1 13.1,14 12,14 L 8,14 C 6.9,14 6,13.1 6,12 L 6,9 C 6,8.45 6.45,8 7,8 L 13,8 C 13.55,8 14,8.45 14,9 L 14,10 L 18,10 L 18,9 C 18,8.45 18.45,8 19,8 L 25,8 ZM 16,24 C 18.913,24 21.462,22.443 22.861,20.116 L 24.576,21.145 C 22.827,24.054 19.641,26 16,26 C 14.486,26 13.050,25.663 11.764,25.060 L 12.801,23.332 C 13.78,23.761 14.862,24 16,24 Z"></path></g></svg>