<?xml version="1.0" encoding="utf-8"?> <!-- Generator: IcoMoon.io --> <!DOCTYPE svg PUBLIC "-//W3C//DTD SVG 1.1//EN" "http://www.w3.org/Graphics/SVG/1.1/DTD/svg11.dtd"> <svg width="32" height="32" viewBox="0 0 32 32" xmlns="http://www.w3.org/2000/svg" xmlns:xlink="http://www.w3.org/1999/xlink" fill="#000000"><g><path d="M 27,4l-2,0 l0,2 l 1,0 l0,16 L 18,22 l0,8 L 6,30 L 6,6 l 1,0 L 7,4 L 5,4 c-0.55,0-1,0.45-1,1l0,26 c0,0.55, 0.45,1, 1,1l 15.75,0 l 7.25-7.25L 28,5 C 28,4.45, 27.55,4, 27,4z M 20,30l0-6 l 6,0 L 20,30zM 24,4l-4,0 L 20,2 c0-1.1-0.9-2-2-2l-4,0 c-1.1,0-2,0.9-2,2l0,2 l-4,0 l0,4 l 16,0 L 24,4 z M 18,4l-4,0 L 14,2.004 c 0.001-0.001, 0.002-0.002, 0.004-0.004l 3.993,0 c 0.001,0.001, 0.003,0.002, 0.004,0.004L 18,4 z"></path></g></svg>