<?xml version="1.0" encoding="utf-8"?> <!-- Generator: IcoMoon.io --> <!DOCTYPE svg PUBLIC "-//W3C//DTD SVG 1.1//EN" "http://www.w3.org/Graphics/SVG/1.1/DTD/svg11.dtd"> <svg width="32" height="32" viewBox="0 0 32 32" xmlns="http://www.w3.org/2000/svg" xmlns:xlink="http://www.w3.org/1999/xlink" fill="#000000"><g><path d="M 29,4L 3,4 C 1.35,4,0,5.35,0,7l0,18 c0,1.65, 1.35,3, 3,3l 26,0 c 1.65,0, 3-1.35, 3-3L 32,7 C 32,5.35, 30.65,4, 29,4z M 3,6 l 26,0 c 0.542,0, 1,0.458, 1,1l0,3 L 2,10 l0-3 C 2,6.458, 2.458,6, 3,6z M 29,26L 3,26 c-0.542,0-1-0.458-1-1L 2,16 l 28,0 l0,9 C 30,25.542, 29.542,26, 29,26zM 4,20L 6,20L 6,24L 4,24zM 8,20L 10,20L 10,24L 8,24zM 12,20L 14,20L 14,24L 12,24z"></path></g></svg>