<?xml version="1.0" encoding="utf-8"?> <!-- Generator: IcoMoon.io --> <!DOCTYPE svg PUBLIC "-//W3C//DTD SVG 1.1//EN" "http://www.w3.org/Graphics/SVG/1.1/DTD/svg11.dtd"> <svg width="32" height="32" viewBox="0 0 32 32" xmlns="http://www.w3.org/2000/svg" xmlns:xlink="http://www.w3.org/1999/xlink" fill="#000000"><g><path d="M 28,14l 0.5,0 c 0.825,0 1.5-0.675 1.5-1.5l0-5 c0-0.825-0.675-1.5-1.5-1.5l-0.5,0 L 28,0 l-4,0 l 0,6 l-0.5,0 c-0.825,0, -1.5,0.675, -1.5,1.5l 0,5 c 0,0.825, 0.675,1.5, 1.5,1.5l 0.5,0 l 0,18 L 28,32 L 28,14 z M 24,8L 28,8 l 0,4 l-4,0 L 24,8 zM 18.5,26c 0.825,0 1.5-0.675 1.5-1.5l0-5 c0-0.825-0.675-1.5-1.5-1.5l-0.5,0 L 18,0 l-4,0 l 0,18 l-0.5,0 c-0.825,0, -1.5,0.675, -1.5,1.5l 0,5 c 0,0.825, 0.675,1.5, 1.5,1.5l 0.5,0 l 0,6 l 4,0 l0-6 L 18.5,26 z M 14,20l 4,0 l 0,4 l-4,0 L 14,20 zM 8.5,14c 0.825,0 1.5-0.675 1.5-1.5l0-5 c0-0.825-0.675-1.5-1.5-1.5l-0.5,0 L 8,0 l-4,0 l 0,6 l-0.5,0 c-0.825,0, -1.5,0.675, -1.5,1.5l 0,5 c 0,0.825, 0.675,1.5, 1.5,1.5l 0.5,0 l 0,18 l 4,0 L 8,14 L 8.5,14 z M 4,8l 4,0 l 0,4 l-4,0 L 4,8 z"></path></g></svg>