<?xml version="1.0" encoding="utf-8"?> <!-- Generator: IcoMoon.io --> <!DOCTYPE svg PUBLIC "-//W3C//DTD SVG 1.1//EN" "http://www.w3.org/Graphics/SVG/1.1/DTD/svg11.dtd"> <svg width="32" height="34" viewBox="0 0 32 34" xmlns="http://www.w3.org/2000/svg" xmlns:xlink="http://www.w3.org/1999/xlink" fill="#000000"><g><path d="M 20,14 C 18.895,14 18,13.105 18,12 C 18,11.963 18.001,11.927 18.003,11.891 C 18.067,10.408 19.416,9.424 20.553,8.855 C 21.638,8.313 22.712,8.041 22.757,8.030 C 23.293,7.896 23.836,8.222 23.97,8.757 C 24.104,9.293 23.778,9.836 23.242,9.97 C 22.692,10.109 22.039,10.349 21.463,10.637 C 21.796,10.995 22,11.473 22,12 C 22,13.105 21.104,14 20,14 ZM 8.758,9.97 C 8.222,9.836 7.896,9.293 8.030,8.758 C 8.164,8.222 8.707,7.896 9.243,8.030 C 9.288,8.041 10.362,8.313 11.447,8.856 C 12.584,9.424 13.934,10.408 13.997,11.891 C 13.999,11.927 14,11.963 14,12 C 14,13.105 13.105,14 12,14 C 10.896,14 10,13.105 10,12 C 10,11.473 10.204,10.995 10.537,10.637 C 9.961,10.349 9.308,10.109 8.758,9.97 ZM 16,23 C 18.549,23 20.779,21.638 22.003,19.602 L 24.576,21.145 C 22.827,24.054 19.641,26 16,26 C 12.359,26 9.173,24.054 7.424,21.145 L 9.997,19.602 C 11.221,21.638 13.451,23 16,23 ZM 32,2c0-1.422-0.298-2.775-0.833-4c-1.049,2.401-3.014,4.31-5.453,5.287C 23.021,1.226, 19.654,0, 16,0 S 8.979,1.226, 6.286,3.287C 3.847,2.31, 1.882,0.401, 0.833-2C 0.298-0.775,0,0.578,0,2 c0,2.299, 0.777,4.417, 2.081,6.106C 0.757,10.435,0,13.129,0,16c0,8.837, 7.163,16, 16,16s 16-7.163, 16-16 c0-2.871-0.757-5.565-2.081-7.894C 31.223,6.417, 32,4.299, 32,2z M 16,29c-7.18,0-13-5.82-13-13 S 8.82,3, 16,3s 13,5.82, 13,13S 23.18,29, 16,29z"></path></g></svg>