<?xml version="1.0" encoding="utf-8"?> <!-- Generator: IcoMoon.io --> <!DOCTYPE svg PUBLIC "-//W3C//DTD SVG 1.1//EN" "http://www.w3.org/Graphics/SVG/1.1/DTD/svg11.dtd"> <svg width="33.398624420166016" height="32" viewBox="0 0 33.398624420166016 32" xmlns="http://www.w3.org/2000/svg" xmlns:xlink="http://www.w3.org/1999/xlink" fill="#000000"><g><path d="M 31.954,10.442l-0.371,2.377c0,0-0.53-4.402-1.179-6.047c-0.995-2.522-1.438-2.501-1.441-2.498 c 0.667,1.694, 0.546,2.604, 0.546,2.604s-1.181-3.219-4.303-4.243c-3.459-1.134-5.33-0.824-5.546-0.765 c-0.033-0-0.065-0-0.095-0c 0.026,0.002, 0.050,0.005, 0.076,0.007c-0.001,0.001-0.003,0.001-0.003,0.002 c 0.014,0.017, 3.822,0.666, 4.497,1.594c0,0-1.617,0-3.227,0.464c-0.073,0.021, 5.923,0.749, 7.148,6.74 c0,0-0.657-1.371-1.47-1.604c 0.535,1.626, 0.397,4.712-0.112,6.245c-0.066,0.197-0.133-0.853-1.135-1.305 c 0.321,2.301-0.019,5.952-1.616,6.957c-0.124,0.078, 1.001-3.603, 0.226-2.18c-4.46,6.838-9.731,3.155-12.101,1.535 c 1.215,0.264, 3.52-0.041, 4.541-0.8c 0.001-0.001, 0.002-0.002, 0.004-0.003c 1.108-0.758, 1.765-1.311, 2.354-1.18 c 0.59,0.132, 0.982-0.46, 0.524-0.985c-0.459-0.526-1.572-1.249-3.079-0.855c-1.063,0.278-2.379,1.454-4.389,0.264 c-1.543-0.914-1.688-1.673-1.702-2.199c 0.038-0.186, 0.086-0.36, 0.143-0.519c 0.178-0.496, 0.716-0.646, 1.015-0.764 c 0.508,0.087, 0.946,0.246, 1.405,0.481c 0.006-0.153, 0.008-0.356-0.001-0.586c 0.044-0.088, 0.017-0.352-0.054-0.674 c-0.041-0.322-0.107-0.655-0.211-0.959c 0-0, 0.001-0, 0.001-0c 0.002-0.001, 0.003-0.001, 0.005-0.002 c 0.002-0.001, 0.005-0.004, 0.006-0.006c 0-0.001, 0.001-0.001, 0.001-0.002c 0.003-0.004, 0.005-0.009, 0.006-0.015 c 0.032-0.144, 0.376-0.423, 0.804-0.722c 0.384-0.268, 0.834-0.553, 1.19-0.773c 0.314-0.195, 0.554-0.34, 0.605-0.378 c 0.019-0.015, 0.042-0.032, 0.068-0.051c 0.005-0.004, 0.009-0.007, 0.014-0.011c 0.003-0.002, 0.006-0.005, 0.009-0.007 c 0.169-0.135, 0.421-0.389, 0.474-0.924c 0-0.001, 0-0.003, 0-0.004c 0.002-0.016, 0.003-0.032, 0.004-0.048 c 0.001-0.011, 0.002-0.023, 0.002-0.034c 0-0.009, 0.001-0.018, 0.001-0.027c 0.001-0.021, 0.002-0.043, 0.002-0.065 c0-0.001, 0-0.002, 0-0.004c 0.001-0.052-0-0.106-0.003-0.163c-0.002-0.032-0.004-0.060-0.009-0.086 c-0-0.001-0.001-0.003-0.001-0.004c-0.001-0.003-0.001-0.005-0.002-0.008c-0.001-0.005-0.002-0.009-0.004-0.013 c-0-0.001-0-0.001-0.001-0.001c-0.002-0.005-0.004-0.010-0.005-0.015c-0-0-0-0-0-0.001 c-0.055-0.128-0.26-0.177-1.108-0.191c-0.001-0-0.002-0-0.002-0l0,0c-0.346-0.006-0.798-0.006-1.391-0.004 c-1.039,0.004-1.613-1.016-1.797-1.41c 0.251-1.389, 0.977-2.379, 2.17-3.051c 0.023-0.013, 0.018-0.023-0.009-0.031 c 0.233-0.141-2.82-0.004-4.225,1.782c-1.246-0.31-2.333-0.289-3.269-0.069c-0.18-0.005-0.404-0.028-0.67-0.083 c-0.623-0.564-1.514-1.606-1.562-2.85c0,0-0.003,0.002-0.008,0.006c-0.001-0.012-0.002-0.024-0.002-0.036 c0,0-1.897,1.458-1.613,5.434c-0.001,0.064-0.002,0.125-0.004,0.184c-0.513,0.697-0.768,1.282-0.787,1.411 C 0.837,10.199, 0.376,11.593,0,13.709c0,0, 0.263-0.833, 0.79-1.777c-0.388,1.188-0.693,3.036-0.514,5.808 c0,0, 0.047-0.615, 0.215-1.5c 0.131,1.719, 0.704,3.841, 2.152,6.337c 2.78,4.791, 7.052,7.211, 11.775,7.582 c 0.839,0.069, 1.689,0.071, 2.545,0.006c 0.079-0.006, 0.157-0.011, 0.236-0.018c 0.968-0.068, 1.942-0.214, 2.914-0.449 C 33.399,26.486, 31.954,10.442, 31.954,10.442z"></path></g></svg>