<?xml version="1.0" encoding="utf-8"?> <!-- Generator: IcoMoon.io --> <!DOCTYPE svg PUBLIC "-//W3C//DTD SVG 1.1//EN" "http://www.w3.org/Graphics/SVG/1.1/DTD/svg11.dtd"> <svg width="32" height="32" viewBox="0 0 32 32" xmlns="http://www.w3.org/2000/svg" xmlns:xlink="http://www.w3.org/1999/xlink" fill="#000000"><g><path d="M 8.233,23.73c0,0.845, 0.715,1.268, 2.146,1.268c 1.252,0, 1.878-0.439, 1.878-1.317 c0-0.829-0.683-1.244-2.048-1.244C 8.892,22.438, 8.233,22.869, 8.233,23.73zM 26.667,0L 5.334,0 C 2.4,0,0,2.4,0,5.334l0,21.332 C0,29.602, 2.4,32, 5.334,32l 21.333,0 C 29.601,32, 32,29.602, 32,26.666L 32,5.334 C 32,2.4, 29.601,0, 26.667,0z M 14.867,12.781 c-0.228,0.081-0.553,0.171-0.975,0.268c 0.13,0.374, 0.195,0.724, 0.195,1.049c0,1.040-0.313,1.947-0.939,2.719 c-0.626,0.772-1.435,1.231-2.426,1.378c-0.65,0.098-0.975,0.447-0.975,1.049c0,0.211, 0.106,0.423, 0.317,0.634 c 0.276,0.309, 0.683,0.504, 1.219,0.585c 2.325,0.358, 3.487,1.325, 3.487,2.902c0,2.52-1.504,3.78-4.511,3.78 c-1.236,0-2.252-0.22-3.048-0.658c-1.008-0.553-1.512-1.423-1.512-2.609c0-1.366, 0.756-2.3, 2.268-2.804l0-0.049 c-0.553-0.341-0.829-0.862-0.829-1.561c0-0.91, 0.26-1.48, 0.78-1.707l0-0.049 c-0.52-0.179-0.984-0.585-1.39-1.22 c-0.455-0.683-0.683-1.414-0.683-2.195c0-1.171, 0.415-2.146, 1.244-2.926c 0.797-0.732, 1.748-1.097, 2.853-1.097 c 0.797,0, 1.536,0.195, 2.219,0.585c 0.78,0, 1.683-0.195, 2.707-0.585L 14.867,12.781L 14.867,12.781z M 18.818,21.219 l-2.756,0 c 0.033-0.325, 0.049-0.878, 0.049-1.658L 16.111,11.976 c0-0.764-0.016-1.293-0.049-1.585l 2.756,0 c-0.033,0.309-0.049,0.821-0.049,1.536l0,7.486 C 18.769,20.243, 18.786,20.845, 18.818,21.219z M 18.635,7.953 c-0.333,0.358-0.728,0.536-1.183,0.536c-0.471,0-0.874-0.179-1.207-0.536c-0.333-0.358-0.5-0.78-0.5-1.268 c0-0.504, 0.167-0.935, 0.5-1.293c 0.333-0.358, 0.736-0.536, 1.207-0.536c 0.455,0, 0.85,0.179, 1.183,0.536 c 0.333,0.358, 0.5,0.788, 0.5,1.293C 19.135,7.172, 18.968,7.595, 18.635,7.953z M 26.303,20.901 c-0.602,0.325-1.325,0.488-2.171,0.488c-1.187,0-2.008-0.422-2.463-1.268c-0.342-0.634-0.512-1.634-0.512-2.999l0-4.365 l 0.024,0 l0-0.049 l-0.366-0.024c-0.211,0-0.488,0.024-0.829,0.073L 19.987,10.391 l 1.195,0 l0-0.951 c0-0.455-0.024-0.821-0.073-1.097l 2.829,0 c-0.048,0.309-0.073,0.658-0.073,1.048l0,1 l 2.121,0 l0,2.365 c-0.081,0-0.232-0.008-0.451-0.024 c-0.22-0.016-0.427-0.025-0.622-0.025l-1.049,0 l0,4.536 c0,1.089, 0.358,1.634, 1.073,1.634c 0.504,0, 0.959-0.138, 1.366-0.414 L 26.303,20.901 L 26.303,20.901zM 10.038,12.513c-1.024,0-1.536,0.602-1.536,1.805c0,1.122, 0.512,1.683, 1.536,1.683 c 0.992,0, 1.488-0.569, 1.488-1.707c0-0.472-0.114-0.878-0.341-1.219C 10.908,12.7, 10.526,12.513, 10.038,12.513z"></path></g></svg>