<?xml version="1.0" encoding="utf-8"?> <!-- Generator: IcoMoon.io --> <!DOCTYPE svg PUBLIC "-//W3C//DTD SVG 1.1//EN" "http://www.w3.org/Graphics/SVG/1.1/DTD/svg11.dtd"> <svg width="32" height="32" viewBox="0 0 32 32" xmlns="http://www.w3.org/2000/svg" xmlns:xlink="http://www.w3.org/1999/xlink" fill="#000000"><g><path d="M 26.672,0L 5.289,0 C 2.348,0,0,2.431,0,5.371l0,21.261 C0,29.645, 2.348,32, 5.289,32l 21.383,0 C 29.613,32, 32,29.645, 32,26.632L 32,5.371 C 32,2.431, 29.613,0, 26.672,0z M 22,1l0,5 l-5,0 L 17,1 L 22,1 z M 15,1l0,5 l-5,0 L 10,1 L 15,1 z M 1,6L 1,5.371 C 1,2.961, 2.924,1, 5.289,1L 8,1 l0,5 L 1,6 z M 24,20l-6,0 l0,6 l-4,0 l0-6 l-6,0 l0-4 l 6,0 l0-6 l 4,0 l0,6 l 6,0 L 24,20 z M 31,6L 24,6 L 24,1 l 2.672,0 C 29.059,1, 31,2.961, 31,5.371L 31,6 z"></path></g></svg>