<?xml version="1.0" encoding="utf-8"?> <!-- Generator: IcoMoon.io --> <!DOCTYPE svg PUBLIC "-//W3C//DTD SVG 1.1//EN" "http://www.w3.org/Graphics/SVG/1.1/DTD/svg11.dtd"> <svg width="32" height="32" viewBox="0 0 32 32" xmlns="http://www.w3.org/2000/svg" xmlns:xlink="http://www.w3.org/1999/xlink" fill="#000000"><g><path d="M 16,0C 7.163,0,0,7.163,0,16s 7.163,16, 16,16c 8.837,0, 16-7.163, 16-16S 24.837,0, 16,0z M 22,7.375 c 1.999,0, 3.625,1.626, 3.625,3.625c0,0.199-0.017,0.402-0.051,0.604c-0.051,0.301-0.311,0.521-0.616,0.521s-0.566-0.221-0.616-0.522 C 24.149,10.457, 23.164,9.938, 22,9.938s-2.149,0.52-2.341,1.666c-0.051,0.301-0.311,0.522-0.616,0.522c-0,0,0,0-0,0 c-0.305,0-0.566-0.221-0.616-0.521C 18.392,11.402, 18.375,11.199, 18.375,11C 18.375,9.001, 20.001,7.375, 22,7.375z M 10,7.375 c 1.999,0, 3.625,1.626, 3.625,3.625c0,0.199-0.017,0.402-0.051,0.604c-0.051,0.301-0.311,0.521-0.616,0.521c-0.305,0-0.566-0.221-0.616-0.522 C 12.149,10.457, 11.164,9.938, 10,9.938s-2.149,0.52-2.341,1.666c-0.051,0.301-0.311,0.522-0.616,0.522c0,0,0,0,0,0 c-0.305,0-0.566-0.221-0.616-0.521C 6.392,11.402, 6.375,11.199, 6.375,11C 6.375,9.001, 8.001,7.375, 10,7.375z M 6,18l 6,0 l0,7.745 C 8.56,24.851, 6,21.71, 6,18z M 14,26L 14,18 l 4,0 l0,8 L 14,26 z M 20,25.745L 20,18 l 6,0 C 26,21.71, 23.441,24.851, 20,25.745z"></path></g></svg>