<?xml version="1.0" encoding="utf-8"?> <!-- Generator: IcoMoon.io --> <!DOCTYPE svg PUBLIC "-//W3C//DTD SVG 1.1//EN" "http://www.w3.org/Graphics/SVG/1.1/DTD/svg11.dtd"> <svg width="32" height="32" viewBox="0 0 32 32" xmlns="http://www.w3.org/2000/svg" xmlns:xlink="http://www.w3.org/1999/xlink" fill="#000000"><g><path d="M 16,0C 7.163,0,0,7.163,0,16s 7.163,16, 16,16s 16-7.163, 16-16S 24.837,0, 16,0z M 22,8 c 1.105,0, 2,1.343, 2,3s-0.895,3-2,3s-2-1.343-2-3S 20.895,8, 22,8z M 10,8c 1.105,0, 2,1.343, 2,3 s-0.895,3-2,3s-2-1.343-2-3S 8.895,8, 10,8z M 16,28c-5.215,0-9.544-4.371-10-9.947 c 2.93,1.691, 6.377,2.658, 10,2.658c 3.623,0, 7.070-0.963, 10-2.654C 25.545,23.634, 21.215,28, 16,28z"></path></g></svg>