<?xml version="1.0" encoding="utf-8"?> <!-- Generator: IcoMoon.io --> <!DOCTYPE svg PUBLIC "-//W3C//DTD SVG 1.1//EN" "http://www.w3.org/Graphics/SVG/1.1/DTD/svg11.dtd"> <svg width="32" height="32" viewBox="0 0 32 32" xmlns="http://www.w3.org/2000/svg" xmlns:xlink="http://www.w3.org/1999/xlink" fill="#000000"><g><path d="M 8.111,16A3.701,3.701 12600 1 0 15.514,16A3.701,3.701 12600 1 0 8.111,16zM 16,0C 7.163,0,0,7.163,0,16s 7.163,16, 16,16C 24.837,32, 32,24.837, 32,16 C 32,7.163, 24.837,0, 16,0z M 11.856,29.978C 7.045,27.178, 3.81,21.967, 3.81,16 c0-5.967, 3.235-11.178, 8.046-13.978C 16.669,4.821, 19.906,10.031, 19.906,16C 19.906,21.968, 16.669,27.179, 11.856,29.978z"></path></g></svg>