<?xml version="1.0" encoding="utf-8"?> <!-- Generator: IcoMoon.io --> <!DOCTYPE svg PUBLIC "-//W3C//DTD SVG 1.1//EN" "http://www.w3.org/Graphics/SVG/1.1/DTD/svg11.dtd"> <svg width="36" height="32" viewBox="0 0 36 32" xmlns="http://www.w3.org/2000/svg" xmlns:xlink="http://www.w3.org/1999/xlink" fill="#000000"><g><path d="M 34,4L 2,4 C 0.9,4,0,4.9,0,6l0,20 c0,1.1, 0.9,2, 2,2l 32,0 c 1.1,0, 2-0.9, 2-2L 36,6 C 36,4.9, 35.1,4, 34,4z M 20,8 l 4,0 l0,4 l-4,0 L 20,8 z M 26,14l0,4 l-4,0 l0-4 L 26,14 z M 14,8l 4,0 l0,4 l-4,0 L 14,8 z M 20,14l0,4 l-4,0 l0-4 L 20,14 z M 8,8l 4,0 l0,4 l-4,0 L 8,8 z M 14,14l0,4 l-4,0 l0-4 L 14,14 z M 4,8l 2,0 l0,4 L 4,12 L 4,8 z M 4,14l 4,0 l0,4 L 4,18 L 4,14 z M 6,24L 4,24 l0-4 l 2,0 L 6,24 z M 24,24L 8,24 l0-4 l 16,0 L 24,24 z M 32,24l-6,0 l0-4 l 6,0 L 32,24 z M 32,18l-4,0 l0-4 l 4,0 L 32,18 z M 32,12l-6,0 l0-4 l 6,0 L 32,12 z"></path></g></svg>