<?xml version="1.0" encoding="utf-8"?> <!-- Generator: IcoMoon.io --> <!DOCTYPE svg PUBLIC "-//W3C//DTD SVG 1.1//EN" "http://www.w3.org/Graphics/SVG/1.1/DTD/svg11.dtd"> <svg width="32" height="34.061622619628906" viewBox="0 0 32 34.061622619628906" xmlns="http://www.w3.org/2000/svg" xmlns:xlink="http://www.w3.org/1999/xlink" fill="#000000"><g><path d="M 22.423,0c-5.274,8.718-9.447,4.431-15.55,10.701c-5.386,5.533-3.518,12.197, 1.016,14.492 c 4.476-2.287, 9.055-7.401, 12.452-14.804c0,0, 3.052,9.348-6.297,18.355c 4.54,5.317, 12.245,1.618, 14.398-6.841 C 30.783,12.707, 24.681,3.344, 22.423,0zM 3.032,30.195C 3.035,30.286, 3.139,32, 5.387,32c 1.636,0, 9.932-4.521, 14.196-16.256 C 13.131,27.157, 3.766,29.989, 3.032,30.195z"></path></g></svg>