<?xml version="1.0" encoding="utf-8"?> <!-- Generator: IcoMoon.io --> <!DOCTYPE svg PUBLIC "-//W3C//DTD SVG 1.1//EN" "http://www.w3.org/Graphics/SVG/1.1/DTD/svg11.dtd"> <svg width="32" height="32" viewBox="0 0 32 32" xmlns="http://www.w3.org/2000/svg" xmlns:xlink="http://www.w3.org/1999/xlink" fill="#000000"><g><path d="M 26.625,0L 5.375,0 C 2.419,0,0,2.419,0,5.375l0,21.25 c0,2.956, 2.419,5.375, 5.375,5.375l 21.25,0 c 2.956,0, 5.375-2.419, 5.375-5.375L 32,5.375 C 32,2.419, 29.581,0, 26.625,0z M 12,26l-4,0 L 8,12 l 4,0 L 12,26 z M 10,10c-1.105,0-2-0.895-2-2s 0.895-2, 2-2s 2,0.895, 2,2S 11.105,10, 10,10z M 26,26l-4,0 L 22,18 c0-1.105-0.895-2-2-2s-2,0.895-2,2l0,8 l-4,0 L 14,12 l 4,0 l0,2.483 C 18.825,13.35, 20.086,12, 21.5,12c 2.485,0, 4.5,2.239, 4.5,5 L 26,26 z"></path></g></svg>