<?xml version="1.0" encoding="utf-8"?> <!-- Generator: IcoMoon.io --> <!DOCTYPE svg PUBLIC "-//W3C//DTD SVG 1.1//EN" "http://www.w3.org/Graphics/SVG/1.1/DTD/svg11.dtd"> <svg width="32" height="32" viewBox="0 0 32 32" xmlns="http://www.w3.org/2000/svg" xmlns:xlink="http://www.w3.org/1999/xlink" fill="#000000"><g><path d="M 26.859,0.829L 26.716,0L 19,0 l 0.206,1.173c 0.698,3.972, 2.323,13.642, 2.323,17.639c0,3.067-2.48,5.563-5.529,5.563 c-3.049,0-5.529-2.495-5.529-5.563c0-3.998, 1.624-13.668, 2.323-17.639L 13,0L 5.284,0 l-0.144,0.829 C 4.294,5.718, 2.875,14.554, 2.875,18.813c0,7.272, 5.888,13.188, 13.125,13.188c 7.237,0, 13.125-5.916, 13.125-13.188 C 29.125,14.554, 27.706,5.718, 26.859,0.829z M 16,30c-6.134,0-11.125-5.019-11.125-11.188c0-2.524, 0.529-6.784, 1.13-10.813l 3.636,0 c-0.625,4.101-1.17,8.377-1.17,10.813c0,4.17, 3.377,7.563, 7.529,7.563c 4.151,0, 7.529-3.393, 7.529-7.563 c0-2.436-0.545-6.711-1.17-10.813l 3.636,0 C 26.596,12.029, 27.125,16.288, 27.125,18.813C 27.125,24.981, 22.134,30, 16,30z"></path></g></svg>