<?xml version="1.0" encoding="utf-8"?> <!-- Generator: IcoMoon.io --> <!DOCTYPE svg PUBLIC "-//W3C//DTD SVG 1.1//EN" "http://www.w3.org/Graphics/SVG/1.1/DTD/svg11.dtd"> <svg width="32" height="32" viewBox="0 0 32 32" xmlns="http://www.w3.org/2000/svg" xmlns:xlink="http://www.w3.org/1999/xlink" fill="#000000"><g><path d="M 23.001,19.874C 23.637,18.726, 24,17.405, 24,16c0-3.229-1.913-6.010-4.667-7.274 C 20.356,7.81, 21,6.481, 21,5c0-2.761-2.239-5-5-5c-2.761,0-5,2.239-5,5c0,1.481, 0.644,2.81, 1.667,3.726 C 9.913,9.99, 8,12.771, 8,16c0,1.405, 0.363,2.726, 0.999,3.874C 4.815,22.295, 2,26.818, 2,32l 28,0 C 30,26.818, 27.185,22.295, 23.001,19.874z"></path></g></svg>