<?xml version="1.0" encoding="utf-8"?> <!-- Generator: IcoMoon.io --> <!DOCTYPE svg PUBLIC "-//W3C//DTD SVG 1.1//EN" "http://www.w3.org/Graphics/SVG/1.1/DTD/svg11.dtd"> <svg width="32.795875549316406" height="32" viewBox="0 0 32.795875549316406 32" xmlns="http://www.w3.org/2000/svg" xmlns:xlink="http://www.w3.org/1999/xlink" fill="#000000"><g><path d="M 27.52,4.087c 0.803,0.393, 1.503,0.953, 2.016,1.64c 1.079,1.447, 1.382,3.418, 0.901,5.858 c-0.486,2.47-1.575,4.554-3.161,6.064c-0.29,0.303-0.601,0.586-0.931,0.846c-1.699,1.338-3.844,2.045-6.203,2.045 l-0.379,0 L 12.639,20.54 L 10.621,30l-4.138,0 l 0.315-1.447l 1.442,0 l 2.018-9.46l 5.883,0 c 5.633,0, 10.342-3.471, 11.602-9.373 C 29.171,3.038, 24.38,0, 20.261,0L 6.221,0 L0,28.553l 4.751,0 L 4,32l 8.239,0 l 2.018-9.46l 5.883,0 c 5.633,0, 10.342-3.471, 11.602-9.373C 32.796,8.239, 30.467,5.294, 27.52,4.087z M 20.008,9.72 c-0.429,1.846-2.013,3.376-3.771,3.793l 0.961-4.251l 2.906,0 C 20.081,9.412, 20.050,9.565, 20.008,9.72z M 13.198,5.815 l 4.035,0 c 1.149,0, 2.078,0.563, 2.558,1.447l-4.192,0 l-1.438,6.363l-2.728,0 L 13.198,5.815z"></path></g></svg>