<?xml version="1.0" encoding="utf-8"?> <!-- Generator: IcoMoon.io --> <!DOCTYPE svg PUBLIC "-//W3C//DTD SVG 1.1//EN" "http://www.w3.org/Graphics/SVG/1.1/DTD/svg11.dtd"> <svg width="32" height="32" viewBox="0 0 32 32" xmlns="http://www.w3.org/2000/svg" xmlns:xlink="http://www.w3.org/1999/xlink" fill="#000000"><g><path d="M 27.837,22.161c-1.427-1.424-3.241-2.159-4.936-2.159l-0.91,0 l-1.997-2l 7.988-8.001 c 1.997-2, 1.997-6.001,0-8.001L 16,14.002L 4.018,2c-1.997,2-1.997,6.001,0,8.001l 7.988,8.001 l-1.997,2l-0.91,0 c-1.694,0-3.509,0.735-4.936,2.159c-2.551,2.545-2.895,6.328-0.77,8.448 C 4.33,31.544, 5.59,32, 6.925,32c 1.694,0, 3.509-0.735, 4.936-2.159c 1.675-1.671, 2.398-3.875, 2.096-5.792l 2.043-2.046 l 2.043,2.046c-0.302,1.917, 0.422,4.121, 2.096,5.792C 21.566,31.265, 23.381,32, 25.075,32 c 1.335,0, 2.595-0.456, 3.531-1.391C 30.732,28.489, 30.387,24.706, 27.837,22.161z M 11.032,26.423 c-0.241,0.559-0.594,1.073-1.051,1.529c-0.457,0.456-0.974,0.81-1.536,1.051c-0.504,0.216-1.030,0.33-1.521,0.33 c-0.473,0-1.144-0.106-1.652-0.613c-0.504-0.503-0.61-1.166-0.61-1.634c0-0.486, 0.114-1.007, 0.329-1.507 c 0.241-0.559, 0.594-1.073, 1.051-1.529c 0.457-0.456, 0.974-0.81, 1.536-1.051c 0.504-0.216, 1.030-0.33, 1.521-0.33 c 0.473,0, 1.144,0.106, 1.652,0.613c 0.504,0.503, 0.61,1.166, 0.61,1.634C 11.361,25.402, 11.247,25.923, 11.032,26.423z M 16,20.831c-1.56,0-2.824-1.267-2.824-2.829c0-1.562, 1.264-2.829, 2.824-2.829s 2.824,1.266, 2.824,2.829 C 18.824,19.565, 17.56,20.831, 16,20.831z M 26.727,28.72c-0.508,0.506-1.179,0.613-1.652,0.613 c-0.491,0-1.017-0.114-1.521-0.33c-0.562-0.241-1.078-0.594-1.536-1.051c-0.457-0.456-0.81-0.97-1.051-1.529 c-0.215-0.5-0.329-1.021-0.329-1.507c0-0.468, 0.106-1.131, 0.61-1.634c 0.508-0.506, 1.179-0.613, 1.652-0.613 c 0.491,0, 1.017,0.114, 1.521,0.33c 0.562,0.241, 1.079,0.594, 1.536,1.051c 0.457,0.456, 0.81,0.97, 1.051,1.529 c 0.215,0.5, 0.329,1.021, 0.329,1.507C 27.337,27.554, 27.231,28.217, 26.727,28.72z"></path></g></svg>