<?xml version="1.0" encoding="utf-8"?> <!-- Generator: IcoMoon.io --> <!DOCTYPE svg PUBLIC "-//W3C//DTD SVG 1.1//EN" "http://www.w3.org/Graphics/SVG/1.1/DTD/svg11.dtd"> <svg width="32" height="32" viewBox="0 0 32 32" xmlns="http://www.w3.org/2000/svg" xmlns:xlink="http://www.w3.org/1999/xlink" fill="#000000"><g><path d="M 14,4l0-0.5 c0-0.825-0.675-1.5-1.5-1.5l-5,0 c-0.825,0-1.5,0.675-1.5,1.5l0,0.5 L0,4 l0,4 l 6,0 l0,0.5 c0,0.825, 0.675,1.5, 1.5,1.5l 5,0 c 0.825,0, 1.5-0.675, 1.5-1.5l0-0.5 l 18,0 L 32,4 L 14,4 z M 8,8L 8,4 l 4,0 l0,4 L 8,8 zM 26,13.5c0-0.825-0.675-1.5-1.5-1.5l-5,0 c-0.825,0-1.5,0.675-1.5,1.5l0,0.5 L0,14 l0,4 l 18,0 l0,0.5 c0,0.825, 0.675,1.5, 1.5,1.5l 5,0 c 0.825,0, 1.5-0.675, 1.5-1.5l0-0.5 l 6,0 l0-4 l-6,0 L 26,13.5 z M 20,18l0-4 l 4,0 l0,4 L 20,18 zM 14,23.5c0-0.825-0.675-1.5-1.5-1.5l-5,0 c-0.825,0-1.5,0.675-1.5,1.5l0,0.5 L0,24 l0,4 l 6,0 l0,0.5 c0,0.825, 0.675,1.5, 1.5,1.5l 5,0 c 0.825,0, 1.5-0.675, 1.5-1.5l0-0.5 l 18,0 l0-4 L 14,24 L 14,23.5 z M 8,28l0-4 l 4,0 l0,4 L 8,28 z"></path></g></svg>