<?xml version="1.0" encoding="utf-8"?> <!-- Generator: IcoMoon.io --> <!DOCTYPE svg PUBLIC "-//W3C//DTD SVG 1.1//EN" "http://www.w3.org/Graphics/SVG/1.1/DTD/svg11.dtd"> <svg width="32" height="32" viewBox="0 0 32 32" xmlns="http://www.w3.org/2000/svg" xmlns:xlink="http://www.w3.org/1999/xlink" fill="#000000"><g><path d="M 27,22c-1.411,0-2.685,0.586-3.594,1.526L 9.937,16.791C 9.978,16.534, 10,16.269, 10,16 s-0.022-0.534-0.063-0.791l 13.469-6.734C 24.315,9.414, 25.589,10, 27,10c 2.761,0, 5-2.239, 5-5S 29.761,0, 27,0 s-5,2.239-5,5c0,0.269, 0.022,0.534, 0.063,0.791L 8.594,12.526C 7.685,11.586, 6.411,11, 5,11c-2.761,0-5,2.239-5,5 c0,2.761, 2.239,5, 5,5c 1.411,0, 2.685-0.586, 3.594-1.526l 13.469,6.734C 22.022,26.466, 22,26.731, 22,27 c0,2.761, 2.239,5, 5,5s 5-2.239, 5-5C 32,24.239, 29.761,22, 27,22z"></path></g></svg>