<?xml version="1.0" encoding="utf-8"?> <!-- Generator: IcoMoon.io --> <!DOCTYPE svg PUBLIC "-//W3C//DTD SVG 1.1//EN" "http://www.w3.org/Graphics/SVG/1.1/DTD/svg11.dtd"> <svg width="32" height="32" viewBox="0 0 32 32" xmlns="http://www.w3.org/2000/svg" xmlns:xlink="http://www.w3.org/1999/xlink" fill="#000000"><g><path d="M 16,0C 7.163,0,0,7.163,0,16s 7.163,16, 16,16s 16-7.163, 16-16S 24.837,0, 16,0z M 22,8 c 1.105,0, 2,0.895, 2,2s-0.895,2-2,2s-2-0.895-2-2S 20.895,8, 22,8z M 10,8c 1.105,0, 2,0.895, 2,2 s-0.895,2-2,2s-2-0.895-2-2S 8.895,8, 10,8z M 16,26c-3.641,0-6.827-1.946-8.576-4.854l 2.573-1.544 C 11.221,21.638, 13.451,23, 16,23s 4.779-1.362, 6.003-3.398l 2.573,1.544C 22.827,24.054, 19.641,26, 16,26z"></path></g></svg>