<?xml version="1.0" encoding="utf-8"?> <!-- Generator: IcoMoon.io --> <!DOCTYPE svg PUBLIC "-//W3C//DTD SVG 1.1//EN" "http://www.w3.org/Graphics/SVG/1.1/DTD/svg11.dtd"> <svg width="32" height="32" viewBox="0 0 32 32" xmlns="http://www.w3.org/2000/svg" xmlns:xlink="http://www.w3.org/1999/xlink" fill="#000000"><g><path d="M 26.668,0L 5.334,0 C 2.4,0, 0,2.4, 0,5.334l0,14.666 L 0.5,18l 1,0 l 0.5,2l-0.5,2L 0.5,22 l-0.5-2l0,6.666 C 0,29.601, 2.4,32, 5.334,32l 21.334,0 C 29.602,32, 32,29.601, 32,26.666L 32,20.035 C 32,22.224, 30.154,24, 27.875,24 c-0.074,0-11.424-0.005-11.434-0.007c-0.246-0.024-0.441-0.226-0.441-0.469L 16,10.94 c0-0.231, 0.082-0.35, 0.393-0.466 c 0.801-0.298, 1.704-0.474, 2.635-0.474c 3.803,0, 6.922,2.803, 7.25,6.377c 0.491-0.198, 1.031-0.308, 1.596-0.308 c 2.278,0, 4.126,1.776, 4.126,3.966L 32,5.334 C 32,2.4, 29.601,0, 26.668,0z M 5.5,24L 4.5,24 l-0.5-4l 0.5-4l 1,0 l 0.5,4L 5.5,24z M 9.5,24l-1,0 l-0.5-5.086L 8.5,14l 1,0 l 0.5,5L 9.5,24z M 13.5,24l-1,0 l-0.5-7.007L 12.5,10l 1,0 l 0.5,6.993L 13.5,24z"></path></g></svg>