<?xml version="1.0" encoding="utf-8"?> <!-- Generator: IcoMoon.io --> <!DOCTYPE svg PUBLIC "-//W3C//DTD SVG 1.1//EN" "http://www.w3.org/Graphics/SVG/1.1/DTD/svg11.dtd"> <svg width="32" height="32" viewBox="0 0 32 32" xmlns="http://www.w3.org/2000/svg" xmlns:xlink="http://www.w3.org/1999/xlink" fill="#000000"><g><path d="M 4,8l 4,0 l0,6 l 2,0 L 10,2 c0-1.1-0.9-2-2-2L 4,0 C 2.9,0, 2,0.9, 2,2l0,12 l 2,0 L 4,8 z M 4,2l 4,0 l0,4 L 4,6 L 4,2 z M 30,2L 30,0 l-6,0 c-1.1,0-2,0.9-2,2l0,10 c0,1.1, 0.9,2, 2,2l 6,0 l0-2 l-6,0 L 24,2 L 30,2 z M 20,5L 20,2 c0-1.1-0.9-2-2-2l-6,0 l0,14 l 6,0 c 1.1,0, 2-0.9, 2-2l0-3 c0-1.1-0.275-2-1.375-2C 19.725,7, 20,6.1, 20,5z M 18,12l-4,0 l0-4 l 4,0 L 18,12 z M 18,6l-4,0 L 14,2 l 4,0 L 18,6 zM 26,18 L 13,32 L 6,23 L 8.563,20.813 L 13,25.438 L 24,16 Z"></path></g></svg>