<?xml version="1.0" encoding="utf-8"?> <!-- Generator: IcoMoon.io --> <!DOCTYPE svg PUBLIC "-//W3C//DTD SVG 1.1//EN" "http://www.w3.org/Graphics/SVG/1.1/DTD/svg11.dtd"> <svg width="32" height="32" viewBox="0 0 32 32" xmlns="http://www.w3.org/2000/svg" xmlns:xlink="http://www.w3.org/1999/xlink" fill="#000000"><g><path d="M 12,4A4,4 12600 1 0 20,4A4,4 12600 1 0 12,4zM 20.485,7.515A4,4 12600 1 0 28.485,7.515A4,4 12600 1 0 20.485,7.515zM 26,16A2,2 12600 1 0 30,16A2,2 12600 1 0 26,16zM 22.485,24.485A2,2 12600 1 0 26.485,24.485A2,2 12600 1 0 22.485,24.485zM 14,28A2,2 12600 1 0 18,28A2,2 12600 1 0 14,28zM 5.515,24.485A2,2 12600 1 0 9.515,24.485A2,2 12600 1 0 5.515,24.485zM 4.515,7.515A3,3 12600 1 0 10.515,7.515A3,3 12600 1 0 4.515,7.515zM 1.75,16A2.25,2.25 12600 1 0 6.25,16A2.25,2.25 12600 1 0 1.75,16z"></path></g></svg>