<?xml version="1.0" encoding="utf-8"?> <!-- Generator: IcoMoon.io --> <!DOCTYPE svg PUBLIC "-//W3C//DTD SVG 1.1//EN" "http://www.w3.org/Graphics/SVG/1.1/DTD/svg11.dtd"> <svg width="33.01943588256836" height="32" viewBox="0 0 33.01943588256836 32" xmlns="http://www.w3.org/2000/svg" xmlns:xlink="http://www.w3.org/1999/xlink" fill="#000000"><g><path d="M 22,9A3,3 1080 1 0 28,9A3,3 1080 1 0 22,9zM 29.95,4.050c-2.734-2.734-7.166-2.734-9.9,0c-1.112,1.112-1.771,2.505-1.979,3.95l0,0 L 11.675,17.695 c-0.86,0.044-1.712,0.263-2.499,0.657L 4.242,14.494c-1.142-0.893-2.792-0.691-3.685,0.452 c-0.893,1.142-0.691,2.792, 0.452,3.685l 4.873,3.809c-0.53,2.087, 0.021,4.392, 1.654,6.025 c 2.466,2.466, 6.463,2.466, 8.929,0c 1.515-1.515, 2.098-3.607, 1.752-5.568L 26,15.929l-0-0 c 1.445-0.207, 2.838-0.867, 3.95-1.979C 32.683,11.216, 32.683,6.784, 29.95,4.050z M 12,28.209 c-2.325,0-4.209-1.885-4.209-4.209c0-0.022, 0.001-0.044, 0.002-0.066l 2.091,1.635c 0.48,0.375, 1.049,0.557, 1.615,0.557 c 0.78,0, 1.552-0.346, 2.070-1.008c 0.893-1.142, 0.691-2.792-0.452-3.685l-1.984-1.551c 0.28-0.059, 0.57-0.090, 0.868-0.090 c 2.325,0, 4.209,1.885, 4.209,4.209S 14.325,28.209, 12,28.209z M 25,14c-2.761,0-5-2.239-5-5s 2.239-5, 5-5 s 5,2.239, 5,5S 27.761,14, 25,14z"></path></g></svg>