<?xml version="1.0" encoding="utf-8"?> <!-- Generator: IcoMoon.io --> <!DOCTYPE svg PUBLIC "-//W3C//DTD SVG 1.1//EN" "http://www.w3.org/Graphics/SVG/1.1/DTD/svg11.dtd"> <svg width="32" height="32" viewBox="0 0 32 32" xmlns="http://www.w3.org/2000/svg" xmlns:xlink="http://www.w3.org/1999/xlink" fill="#000000"><g><path d="M 32,18l-4-8l-6,0 L 22,6 c0-1.1-0.9-2-2-2L 2,4 C 0.9,4,0,4.9,0,6l0,16 l 2,2l 2.536,0 C 4.196,24.588, 4,25.271, 4,26 c0,2.209, 1.791,4, 4,4s 4-1.791, 4-4c0-0.729-0.196-1.411-0.536-2l 11.073,0 c-0.341,0.589-0.536,1.271-0.536,2 c0,2.209, 1.791,4, 4,4s 4-1.791, 4-4c0-0.729-0.196-1.411-0.536-2L 32,24 L 32,18 z M 22,18l0-5 l 4.146,0 l 2.5,5L 22,18 z"></path></g></svg>