<?xml version="1.0" encoding="utf-8"?> <!-- Generator: IcoMoon.io --> <!DOCTYPE svg PUBLIC "-//W3C//DTD SVG 1.1//EN" "http://www.w3.org/Graphics/SVG/1.1/DTD/svg11.dtd"> <svg width="32" height="32" viewBox="0 0 32 32" xmlns="http://www.w3.org/2000/svg" xmlns:xlink="http://www.w3.org/1999/xlink" fill="#000000"><g><path d="M 12.542,2.458 C 13.344,1.656 14,1.928 14,3.063 L 14,28.938 C 14,30.072 13.344,30.344 12.542,29.542 L 5,22 L 0,22 L 0,10 L 5,10 L 12.542,2.458 ZM 30,19.348 L 30,22 L 27.348,22 L 24,18.652 L 20.652,22 L 18,22 L 18,19.348 L 21.348,16 L 18,12.652 L 18,10 L 20.652,10 L 24,13.348 L 27.348,10 L 30,10 L 30,12.652 L 26.652,16 Z"></path></g></svg>