<?xml version="1.0" encoding="utf-8"?> <!-- Generator: IcoMoon.io --> <!DOCTYPE svg PUBLIC "-//W3C//DTD SVG 1.1//EN" "http://www.w3.org/Graphics/SVG/1.1/DTD/svg11.dtd"> <svg width="32" height="32" viewBox="0 0 32 32" xmlns="http://www.w3.org/2000/svg" xmlns:xlink="http://www.w3.org/1999/xlink" fill="#000000"><g><path d="M 16,0C 7.163,0,0,7.163,0,16c0,8.837, 7.163,16, 16,16c 8.837,0, 16-7.163, 16-16 C 32,7.163, 24.837,0, 16,0z M 22,8c 1.105,0, 2,1.343, 2,3s-0.895,3-2,3s-2-1.343-2-3S 20.895,8, 22,8z M 11,9.752c 1.864,0, 3.188,0.698, 3.188,1.79c0,0.231, 0.119,1.344-0.005,1.55c-0.463-0.768-1.713-1.318-3.182-1.318 s-2.719,0.55-3.182,1.318c-0.124-0.206-0.005-1.319-0.005-1.55C 7.813,10.45, 9.136,9.752, 11,9.752z M 15.636,26 c-3.726,0-6.996-2.009-8.84-5.030c 2.2,1.721, 6.079,2.057, 10.165,1.249c 4.383-0.866, 7.785-2.861, 9.014-5.519 C 25.298,21.95, 20.927,26, 15.636,26z"></path></g></svg>