<?xml version="1.0" encoding="utf-8"?> <!-- Generator: IcoMoon.io --> <!DOCTYPE svg PUBLIC "-//W3C//DTD SVG 1.1//EN" "http://www.w3.org/Graphics/SVG/1.1/DTD/svg11.dtd"> <svg width="32" height="32" viewBox="0 0 32 32" xmlns="http://www.w3.org/2000/svg" xmlns:xlink="http://www.w3.org/1999/xlink" fill="#000000"><g><path d="M 26.5,20l-0.464-13.001C 26.016,6.45, 26.45,6, 27,6l 4,0 c 0.55,0, 0.921,0.443, 0.824,0.984L 29.5,20M 30,24.25c0,0.963-0.787,1.75-1.75,1.75l-0.5,0 c-0.963,0-1.75-0.787-1.75-1.75l0-0.5 c0-0.963, 0.787-1.75, 1.75-1.75l 0.5,0 c 0.963,0, 1.75,0.787, 1.75,1.75L 30,24.25 zM 12,6C 5.373,6,0,10.477,0,16c0,5.523, 5.373,10, 12,10c 6.627,0, 12-4.477, 12-10 C 24,10.477, 18.627,6, 12,6z M 20,14l-2.321,0 L 14,17.679L 14,20 l 3,0 l0,2 L 9,22 l0-2 l 3,0 l0-2.321 L 6.321,12L 5.006,12 l0-2 l 5.988,0 l0,2 L 9.679,12 L 13,15.321l 1-1L 14,12 l 6,0 L 20,14 z"></path></g></svg>