<?xml version="1.0" encoding="utf-8"?> <!-- Generator: IcoMoon.io --> <!DOCTYPE svg PUBLIC "-//W3C//DTD SVG 1.1//EN" "http://www.w3.org/Graphics/SVG/1.1/DTD/svg11.dtd"> <svg width="32" height="32.300872802734375" viewBox="0 0 32 32.300872802734375" xmlns="http://www.w3.org/2000/svg" xmlns:xlink="http://www.w3.org/1999/xlink" fill="#000000"><g><path d="M 19.027,20.421c-0.54,0.545-0.083,1.535-0.083,1.535l 4.065,6.788c0,0, 0.667,0.895, 1.246,0.895 c 0.581,0, 1.155-0.477, 1.155-0.477l 3.214-4.594c0,0, 0.324-0.58, 0.331-1.087c 0.012-0.722-1.077-0.92-1.077-0.92 l-7.609-2.443C 20.269,20.118, 19.524,19.92, 19.027,20.421zM 18.642,17c 0.389,0.66, 1.463,0.468, 1.463,0.468l 7.592-2.219c0,0, 1.035-0.421, 1.182-0.982 c 0.145-0.561-0.171-1.238-0.171-1.238l-3.628-4.274c0,0-0.314-0.54-0.967-0.595c-0.719-0.061-1.162,0.809-1.162,0.809 l-4.29,6.75C 18.662,15.72, 18.283,16.392, 18.642,17zM 15.055,14.368c 0.894-0.22, 1.036-1.519, 1.036-1.519l-0.061-10.808c0,0-0.135-1.333-0.734-1.695 c-0.94-0.57-1.218-0.272-1.487-0.233L 7.506,2.455c0,0-0.617,0.204-0.939,0.719c-0.459,0.73, 0.467,1.798, 0.467,1.798 L 13.585,13.902C 13.585,13.902, 14.231,14.571, 15.055,14.368zM 13.498,18.742c 0.023-0.834-1.001-1.334-1.001-1.334L 5.722,13.985c0,0-1.004-0.414-1.491-0.126 c-0.373,0.221-0.704,0.62-0.737,0.973l-0.441,5.432c0,0-0.066,0.941, 0.178,1.369c 0.345,0.608, 1.482,0.184, 1.482,0.184 l 7.909-1.748C 12.93,19.863, 13.469,19.844, 13.498,18.742zM 15.465,21.673c-0.679-0.349-1.491,0.373-1.491,0.373l-5.296,5.83c0,0-0.661,0.891-0.493,1.439 c 0.158,0.513, 0.42,0.768, 0.791,0.948l 5.319,1.679c0,0, 0.645,0.134, 1.133-0.008c 0.693-0.201, 0.565-1.286, 0.565-1.286 l 0.12-7.894C 16.113,22.755, 16.086,21.995, 15.465,21.673z"></path></g></svg>