<?xml version="1.0" encoding="utf-8"?> <!-- Generator: IcoMoon.io --> <!DOCTYPE svg PUBLIC "-//W3C//DTD SVG 1.1//EN" "http://www.w3.org/Graphics/SVG/1.1/DTD/svg11.dtd"> <svg width="32" height="32" viewBox="0 0 32 32" xmlns="http://www.w3.org/2000/svg" xmlns:xlink="http://www.w3.org/1999/xlink" fill="#000000"><g><path d="M 18,17.172 L 21.414,20.586 L 18.586,23.414 L 14,18.828 L 14,12 L 18,12 ZM 26,2 C 29.314,2 32,4.686 32,8 C 32,10.031 30.991,11.826 29.447,12.911 C 27.991,9.066 24.934,6.009 21.089,4.553 C 22.174,3.009 23.969,2 26,2 ZM 10.911,4.553 C 7.066,6.009 4.009,9.066 2.553,12.911 C 1.009,11.826 0,10.031 0,8 C 0,4.686 2.686,2 6,2 C 8.031,2 9.826,3.009 10.911,4.553 ZM 16,6C 9.373,6, 4,11.373, 4,18c0,2.896, 1.026,5.552, 2.734,7.626L 6,32l 2,0 l 2-3.606l-0-0 C 11.765,29.415, 13.814,30, 16,30c 2.186,0, 4.235-0.585, 6-1.606L 22,28.394L 24,32l 2,0 l-0.734-6.374 C 26.974,23.553, 28,20.896, 28,18C 28,11.373, 22.627,6, 16,6z M 16,26c-4.418,0-8-3.582-8-8s 3.582-8, 8-8 s 8,3.582, 8,8S 20.418,26, 16,26z"></path></g></svg>