<?xml version="1.0" encoding="utf-8"?> <!-- Generator: IcoMoon.io --> <!DOCTYPE svg PUBLIC "-//W3C//DTD SVG 1.1//EN" "http://www.w3.org/Graphics/SVG/1.1/DTD/svg11.dtd"> <svg width="32" height="32" viewBox="0 0 32 32" xmlns="http://www.w3.org/2000/svg" xmlns:xlink="http://www.w3.org/1999/xlink" fill="#000000"><g><path d="M 16,32C 24.837,32, 32,24.837, 32,16s -7.163-16, -16-16s -16,7.163, -16,16S 7.163,32, 16,32z M 16,3 c 7.18,0 13,5.82 13,13S 23.18,29, 16,29s -13-5.82, -13-13S 8.82,3, 16,3zM 20,24c 1.105,0 2-0.895 2-2s -0.895-2, -2-2l-5.171,0 L 23.414,11.414c 0.781-0.781 0.781-2.047,0-2.829 C 23.024,8.195, 22.512,8, 22,8s -1.024,0.195, -1.414,0.586L 12,17.172L 12,12 c0-1.105, -0.895-2, -2-2s -2,0.895, -2,2L 8,24 L 20,24 z"></path></g></svg>