<?xml version="1.0" encoding="utf-8"?> <!-- Generator: IcoMoon.io --> <!DOCTYPE svg PUBLIC "-//W3C//DTD SVG 1.1//EN" "http://www.w3.org/Graphics/SVG/1.1/DTD/svg11.dtd"> <svg width="32" height="32" viewBox="0 0 32 32" xmlns="http://www.w3.org/2000/svg" xmlns:xlink="http://www.w3.org/1999/xlink" fill="#000000"><g><path d="M 12,6 C 19.732,6 26,12.268 26,20 L 23,20 C 23,17.062 21.856,14.299 19.778,12.222 C 17.701,10.144 14.938,9 12,9 L 12,6 ZM 12,0 C 23.046,0 32,8.954 32,20 L 29,20 C 29,17.704 28.551,15.478 27.665,13.384 C 26.809,11.36 25.583,9.541 24.021,7.979 C 22.459,6.417 20.64,5.191 18.616,4.335 C 16.522,3.449 14.296,3 12,3 L 12,0 ZM 17.95,14.050 C 19.317,15.418 20,17.21 19.999,19.002 C 18,22.002 18,26 18,26 C 10,26 4,32 4,32 L 3.563,31.563 L 2.84,30.84 L 11.702,21.978 C 11.799,21.992 11.899,22 12,22 C 13.105,22 14,21.105 14,20 C 14,18.895 13.105,18 12,18 C 10.895,18 10,18.895 10,20 C 10,20.101 10.008,20.201 10.022,20.298 L 1.16,29.16 L 0,28 C 0,28 6,22 6,14 C 6,14 10,14 13,12 C 14.791,12 16.583,12.683 17.95,14.050 Z"></path></g></svg>