<?xml version="1.0" encoding="utf-8"?> <!-- Generator: IcoMoon.io --> <!DOCTYPE svg PUBLIC "-//W3C//DTD SVG 1.1//EN" "http://www.w3.org/Graphics/SVG/1.1/DTD/svg11.dtd"> <svg width="32" height="32" viewBox="0 0 32 32" xmlns="http://www.w3.org/2000/svg" xmlns:xlink="http://www.w3.org/1999/xlink" fill="#000000"><g><path d="M 16,8c-4.418,0-8,3.582-8,8s 3.582,8, 8,8s 8-3.582, 8-8S 20.418,8, 16,8z M 16,21L 16,11 c 2.757,0, 5,2.243, 5,5S 18.757,21, 16,21zM 16,26 C 17.105,26 18,26.895 18,28 L 18,30 C 18,31.105 17.105,32 16,32 C 14.895,32 14,31.105 14,30 L 14,28 C 14,26.895 14.895,26 16,26 ZM 16,6 C 14.895,6 14,5.105 14,4 L 14,2 C 14,0.895 14.895,0 16,0 C 17.105,0 18,0.895 18,2 L 18,4 C 18,5.105 17.105,6 16,6 ZM 30,14 C 31.105,14 32,14.895 32,16 C 32,17.105 31.105,18 30,18 L 28,18 C 26.895,18 26,17.105 26,16 C 26,14.895 26.895,14 28,14 L 30,14 ZM 6,16 C 6,17.105 5.105,18 4,18 L 2,18 C 0.895,18 0,17.105 0,16 C 0,14.895 0.895,14 2,14 L 4,14 C 5.105,14 6,14.895 6,16 ZM 25.899,23.071 L 27.314,24.485 C 28.095,25.266 28.095,26.533 27.314,27.314 C 26.533,28.095 25.266,28.095 24.485,27.314 L 23.071,25.899 C 22.29,25.119 22.29,23.852 23.071,23.071 C 23.852,22.29 25.119,22.29 25.899,23.071 ZM 6.101,8.929 L 4.686,7.515 C 3.905,6.734 3.905,5.467 4.686,4.686 C 5.467,3.905 6.734,3.905 7.515,4.686 L 8.929,6.101 C 9.71,6.882 9.71,8.148 8.929,8.929 C 8.148,9.71 6.882,9.71 6.101,8.929 ZM 25.899,8.929 C 25.119,9.71 23.852,9.71 23.071,8.929 C 22.29,8.148 22.29,6.882 23.071,6.101 L 24.485,4.686 C 25.266,3.905 26.533,3.905 27.314,4.686 C 28.095,5.467 28.095,6.734 27.314,7.515 L 25.899,8.929 ZM 6.101,23.071 C 6.881,22.29 8.148,22.29 8.929,23.071 C 9.71,23.852 9.71,25.119 8.929,25.899 L 7.515,27.314 C 6.734,28.095 5.467,28.095 4.686,27.314 C 3.905,26.533 3.905,25.266 4.686,24.485 L 6.101,23.071 Z"></path></g></svg>