<?xml version="1.0" encoding="utf-8"?> <!-- Generator: IcoMoon.io --> <!DOCTYPE svg PUBLIC "-//W3C//DTD SVG 1.1//EN" "http://www.w3.org/Graphics/SVG/1.1/DTD/svg11.dtd"> <svg width="32" height="32" viewBox="0 0 32 32" xmlns="http://www.w3.org/2000/svg" xmlns:xlink="http://www.w3.org/1999/xlink" fill="#000000"><g><path d="M 22,0L 10,0 L 4,4l0,8 l 24,0 L 28,4 L 22,0z M 20,10l-2,0 l0-1.333 C 18,8.3, 17.7,8, 17.333,8l-2.667,0 c-0.367,0-0.667,0.3-0.667,0.667L 14,10 l-2,0 l0-3.333 C 12,6.3, 12.3,6, 12.667,6l 6.667,0 c 0.367,0, 0.667,0.3, 0.667,0.667 L 20,10 zM 4,22l 24,0 L 28,14 L 4,14 L 4,22 z M 12,16.667c0-0.367, 0.3-0.667, 0.667-0.667l 6.667,0 c 0.367,0, 0.667,0.3, 0.667,0.667L 20,20 l-2,0 l0-1.333 c0-0.367-0.3-0.667-0.667-0.667l-2.667,0 c-0.367,0-0.667,0.3-0.667,0.667L 14,20 l-2,0 L 12,16.667 zM 4,32l 24,0 L 28,24 L 4,24 L 4,32 z M 12,26.667c0-0.367, 0.3-0.667, 0.667-0.667l 6.667,0 c 0.367,0, 0.667,0.3, 0.667,0.667 L 20,30 l-2,0 l0-1.333 c0-0.367-0.3-0.667-0.667-0.667l-2.667,0 c-0.367,0-0.667,0.3-0.667,0.667L 14,30 l-2,0 L 12,26.667 z"></path></g></svg>