<?xml version="1.0" encoding="utf-8"?> <!-- Generator: IcoMoon.io --> <!DOCTYPE svg PUBLIC "-//W3C//DTD SVG 1.1//EN" "http://www.w3.org/Graphics/SVG/1.1/DTD/svg11.dtd"> <svg width="32" height="32" viewBox="0 0 32 32" xmlns="http://www.w3.org/2000/svg" xmlns:xlink="http://www.w3.org/1999/xlink" fill="#000000"><g><path d="M 12,2L 2,2 C 0.9,2,0,2.9,0,4l0,10 c0,1.1, 0.9,2, 2,2l 10,0 c 1.1,0, 2-0.9, 2-2L 14,4 C 14,2.9, 13.1,2, 12,2z M 12,10L 2,10 l0-2 l 10,0 L 12,10 z M 28,2L 18,2 c-1.1,0-2,0.9-2,2l0,26 c0,1.1, 0.9,2, 2,2l 10,0 c 1.1,0, 2-0.9, 2-2L 30,4 C 30,2.9, 29.1,2, 28,2z M 28,20L 18,20 l0-2 l 10,0 L 28,20 z M 28,14L 18,14 l0-2 l 10,0 L 28,14 z M 12,18L 2,18 c-1.1,0-2,0.9-2,2l0,10 c0,1.1, 0.9,2, 2,2l 10,0 c 1.1,0, 2-0.9, 2-2L 14,20 C 14,18.9, 13.1,18, 12,18z M 12,26l-4,0 l0,4 L 6,30 l0-4 L 2,26 l0-2 l 4,0 l0-4 l 2,0 l0,4 l 4,0 L 12,26 z"></path></g></svg>