<?xml version="1.0" encoding="utf-8"?> <!-- Generator: IcoMoon.io --> <!DOCTYPE svg PUBLIC "-//W3C//DTD SVG 1.1//EN" "http://www.w3.org/Graphics/SVG/1.1/DTD/svg11.dtd"> <svg width="32" height="32" viewBox="0 0 32 32" xmlns="http://www.w3.org/2000/svg" xmlns:xlink="http://www.w3.org/1999/xlink" fill="#000000"><g><path d="M 27.844,11.252C 27.743,7.23, 24.455,4, 20.411,4c-2.369,0-4.477,1.109-5.839,2.835 c-0.764-0.987-1.959-1.624-3.303-1.624c-2.307,0-4.176,1.871-4.176,4.179c0,0.201, 0.015,0.399, 0.043,0.592 c-0.351-0.063-0.711-0.098-1.080-0.098C 2.71,9.885,0,12.597,0,15.942C0,19.288, 2.71,22, 6.054,22l 3.118,0 L 16,28.828 L 22.828,22l 3.734,0 l0-0 C 29.567,21.994, 32,19.555, 32,16.548C 32,13.983, 30.229,11.833, 27.844,11.252z M 16,26l-6-6 l 4,0 l0-6 l 4,0 l0,6 l 4,0 L 16,26z"></path></g></svg>