<?xml version="1.0" encoding="utf-8"?> <!-- Generator: IcoMoon.io --> <!DOCTYPE svg PUBLIC "-//W3C//DTD SVG 1.1//EN" "http://www.w3.org/Graphics/SVG/1.1/DTD/svg11.dtd"> <svg width="32" height="32" viewBox="0 0 32 32" xmlns="http://www.w3.org/2000/svg" xmlns:xlink="http://www.w3.org/1999/xlink" fill="#000000"><g><path d="M 16,32c 8.837,0, 16-7.163, 16-16S 24.837,0, 16,0S0,7.163,0,16S 7.163,32, 16,32z M 16,3 c 7.18,0, 13,5.82, 13,13s-5.82,13-13,13S 3,23.18, 3,16S 8.82,3, 16,3zM 8,10A2,2 2520 1 0 12,10A2,2 2520 1 0 8,10zM 20,10A2,2 2520 1 0 24,10A2,2 2520 1 0 20,10zM 22.691,20 L 24.718,20 C 25.007,22.266 23.704,24.517 21.469,25.33 C 18.878,26.273 16.003,24.933 15.060,22.342 C 14.495,20.788 12.77,19.983 11.215,20.549 C 9.791,21.067 8.998,22.558 9.309,24 L 7.282,24 C 6.994,21.734 8.296,19.483 10.531,18.67 C 13.122,17.727 15.997,19.067 16.94,21.658 C 17.506,23.212 19.231,24.017 20.785,23.451 C 22.209,22.932 23.002,21.441 22.691,20 Z"></path></g></svg>