<?xml version="1.0" encoding="utf-8"?> <!-- Generator: IcoMoon.io --> <!DOCTYPE svg PUBLIC "-//W3C//DTD SVG 1.1//EN" "http://www.w3.org/Graphics/SVG/1.1/DTD/svg11.dtd"> <svg width="32.55531311035156" height="32" viewBox="0 0 32.55531311035156 32" xmlns="http://www.w3.org/2000/svg" xmlns:xlink="http://www.w3.org/1999/xlink" fill="#000000"><g><path d="M 17.558,12.719c-1.22-0.071-2.628,0.002-4.258,0.28l 3.76,6.778L 32,15.674 c-0.161-0.383-0.396-0.757-0.708-1.119c-1.546-1.79-4.898-3.387-8.55-4.107l 0-0.001 c-3.583-0.84-7.463-0.804-11.436-0.205c-0.143,0.021-0.286,0.044-0.427,0.068l-1.321-2.447 c-1.286,0.172-2.494,0.439-3.613,0.796l 1.258,2.631c-2.055,0.796-3.741,1.93-4.958,3.295 C 0.238,16.87-0.555,19.74, 0.409,22.535c 0.194,0.564, 0.456,1.099, 0.779,1.6l 14.94-4.103l-4.148-7.683 c 0.142-0.028, 0.287-0.055, 0.435-0.082c 6.709-1.197, 10.378,0.652, 12.388,2.62l-5.111,1.239L 17.558,12.719z M 5.46,19.575 c-0.461-2.105-0.094-4.454, 2.825-6.019l 2.286,4.78L 5.46,19.575z"></path></g></svg>