<?xml version="1.0" encoding="utf-8"?> <!-- Generator: IcoMoon.io --> <!DOCTYPE svg PUBLIC "-//W3C//DTD SVG 1.1//EN" "http://www.w3.org/Graphics/SVG/1.1/DTD/svg11.dtd"> <svg width="32" height="32" viewBox="0 0 32 32" xmlns="http://www.w3.org/2000/svg" xmlns:xlink="http://www.w3.org/1999/xlink" fill="#000000"><g><path d="M 27,6L 11,6 c-2.75,0-5,2.25-5,5l0,16 c0,2.75, 2.25,5, 5,5l 16,0 c 2.75,0, 5-2.25, 5-5L 32,11 C 32,8.25, 29.75,6, 27,6z M 13,28 c-1.657,0-3-1.343-3-3s 1.343-3, 3-3s 3,1.343, 3,3S 14.657,28, 13,28z M 13,16c-1.657,0-3-1.343-3-3s 1.343-3, 3-3 s 3,1.343, 3,3S 14.657,16, 13,16z M 19,22c-1.657,0-3-1.343-3-3s 1.343-3, 3-3s 3,1.343, 3,3S 20.657,22, 19,22z M 25,28 c-1.657,0-3-1.343-3-3s 1.343-3, 3-3s 3,1.343, 3,3S 26.657,28, 25,28z M 25,16c-1.657,0-3-1.343-3-3s 1.343-3, 3-3 s 3,1.343, 3,3S 26.657,16, 25,16z M 25.899,4C 25.432,1.725, 23.408,0, 21,0L 5,0 C 2.25,0,0,2.25,0,5l0,16 c0,2.408, 1.725,4.432, 4,4.899L 4,6 c0-1.1, 0.9-2, 2-2L 25.899,4 z"></path></g></svg>