<?xml version="1.0" encoding="utf-8"?> <!-- Generator: IcoMoon.io --> <!DOCTYPE svg PUBLIC "-//W3C//DTD SVG 1.1//EN" "http://www.w3.org/Graphics/SVG/1.1/DTD/svg11.dtd"> <svg width="32" height="34" viewBox="0 0 32 34" xmlns="http://www.w3.org/2000/svg" xmlns:xlink="http://www.w3.org/1999/xlink" fill="#000000"><g><path d="M 32,2c0-1.422-0.298-2.775-0.833-4c-1.049,2.401-3.014,4.31-5.453,5.287C 23.021,1.226, 19.654,0, 16,0 S 8.979,1.226, 6.286,3.287C 3.847,2.31, 1.882,0.401, 0.833-2C 0.298-0.775,0,0.578,0,2c0,2.299, 0.777,4.417, 2.081,6.106 C 0.757,10.435,0,13.129,0,16c0,8.837, 7.163,16, 16,16s 16-7.163, 16-16c0-2.871-0.757-5.565-2.081-7.894 C 31.223,6.417, 32,4.299, 32,2z M 18.003,11.891c 0.064-1.483, 1.413-2.467, 2.55-3.036 c 1.086-0.543, 2.159-0.814, 2.205-0.826c 0.536-0.134, 1.079,0.192, 1.213,0.728c 0.134,0.536-0.192,1.079-0.728,1.213 c-0.551,0.139-1.204,0.379-1.779,0.667c 0.333,0.357, 0.537,0.836, 0.537,1.363c0,1.105-0.895,2-2,2s-2-0.895-2-2 C 18,11.963, 18.001,11.927, 18.003,11.891z M 8.030,8.758c 0.134-0.536, 0.677-0.862, 1.213-0.728 c 0.045,0.011, 1.119,0.283, 2.205,0.826c 1.137,0.569, 2.486,1.553, 2.55,3.036c 0.002,0.036, 0.003,0.072, 0.003,0.109 c0,1.105-0.895,2-2,2s-2-0.895-2-2c0-0.527, 0.204-1.006, 0.537-1.363c-0.575-0.288-1.228-0.528-1.779-0.667 C 8.222,9.836, 7.896,9.293, 8.030,8.758z M 16,26c-3.641,0-6.827-1.946-8.576-4.854l 2.573-1.544 C 11.221,21.638, 13.451,23, 16,23c 2.549,0, 4.779-1.362, 6.003-3.398l 2.573,1.544C 22.827,24.054, 19.641,26, 16,26z"></path></g></svg>