<?xml version="1.0" encoding="utf-8"?> <!-- Generator: IcoMoon.io --> <!DOCTYPE svg PUBLIC "-//W3C//DTD SVG 1.1//EN" "http://www.w3.org/Graphics/SVG/1.1/DTD/svg11.dtd"> <svg width="32" height="32" viewBox="0 0 32 32" xmlns="http://www.w3.org/2000/svg" xmlns:xlink="http://www.w3.org/1999/xlink" fill="#000000"><g><path d="M 27.879,5.879l-3.757-3.757C 22.955,0.955, 20.65,0, 19,0L 5,0 C 3.35,0, 2,1.35, 2,3l0,26 c0,1.65, 1.35,3, 3,3l 22,0 c 1.65,0, 3-1.35, 3-3L 30,11 C 30,9.35, 29.045,7.045, 27.879,5.879z M 20,4.236c 0.069,0.025, 0.139,0.052, 0.211,0.082 c 0.564,0.234, 0.956,0.505, 1.082,0.631l 3.757,3.757c 0.126,0.126, 0.397,0.517, 0.631,1.082c 0.030,0.072, 0.057,0.143, 0.082,0.211 L 20,10 L 20,4.236 z M 26,28L 6,28 L 6,4 l 12,0 l0,8 l 8,0 L 26,28 z"></path></g></svg>