<?xml version="1.0" encoding="utf-8"?> <!-- Generator: IcoMoon.io --> <!DOCTYPE svg PUBLIC "-//W3C//DTD SVG 1.1//EN" "http://www.w3.org/Graphics/SVG/1.1/DTD/svg11.dtd"> <svg width="36.96912384033203" height="32" viewBox="0 0 36.96912384033203 32" xmlns="http://www.w3.org/2000/svg" xmlns:xlink="http://www.w3.org/1999/xlink" fill="#000000"><g><path d="M 10.031,32 C 7.899,27.562 9.035,25.019 10.674,22.624 C 12.469,20 12.931,17.403 12.931,17.403 C 12.931,17.403 14.342,19.237 13.778,22.106 C 16.271,19.331 16.741,14.91 16.365,13.217 C 22,17.155 24.408,25.681 21.162,32 C 38.424,22.233 25.456,7.62 23.198,5.973 C 23.951,7.62 24.094,10.406 22.573,11.759 C 20,2 13.637,0 13.637,0 C 14.389,5.033 10.909,10.536 7.553,14.648 C 7.435,12.641 7.309,11.256 6.254,9.336 C 6.017,12.981 3.231,15.953 2.477,19.606 C 1.455,24.552 3.242,28.174 10.031,32 Z"></path></g></svg>