<?xml version="1.0" encoding="utf-8"?> <!-- Generator: IcoMoon.io --> <!DOCTYPE svg PUBLIC "-//W3C//DTD SVG 1.1//EN" "http://www.w3.org/Graphics/SVG/1.1/DTD/svg11.dtd"> <svg width="32" height="32" viewBox="0 0 32 32" xmlns="http://www.w3.org/2000/svg" xmlns:xlink="http://www.w3.org/1999/xlink" fill="#000000"><g><path d="M 24.987,0.506C 22.158,0.506, 20.343,0, 17.43,0C 8.014,0, 3.624,5.362, 3.624,10.809 c0,3.209, 1.52,4.264, 4.518,4.264c-0.211-0.465-0.591-0.971-0.591-3.251c0-6.375, 2.406-8.233, 5.489-8.36 c0,0-2.529,24.793-9.868,27.767L 3.171,32 l 5.272,0 l 4.621,0 l 3.376-16l 6.183,0 L 24,12L 17.284,12 l 1.623-7.693 c 1.858,0.38, 3.673,0.76, 5.235,0.76c 1.942,0, 3.715-0.591, 4.686-5.066C 27.647,0.38, 26.38,0.506, 24.987,0.506z"></path></g></svg>