<?xml version="1.0" encoding="utf-8"?> <!-- Generator: IcoMoon.io --> <!DOCTYPE svg PUBLIC "-//W3C//DTD SVG 1.1//EN" "http://www.w3.org/Graphics/SVG/1.1/DTD/svg11.dtd"> <svg width="32.27387619018555" height="32.27468490600586" viewBox="0 0 32.27387619018555 32.27468490600586" xmlns="http://www.w3.org/2000/svg" xmlns:xlink="http://www.w3.org/1999/xlink" fill="#000000"><g><path d="M 31.568,28.617L 14.423,13.009l 0.798-0.8c 0.653-0.655, 1.006-1.501, 1.060-2.363 c 0.031-0.014, 0.063-0.029, 0.092-0.045l 3.218-2.013c 0.435-0.512, 0.404-1.321-0.071-1.797L 13.923,0.379 c-0.475-0.476-1.281-0.508-1.792-0.071l-2.007,3.227c-0.016,0.030-0.031,0.061-0.045,0.093 c-0.859,0.054-1.703,0.408-2.356,1.063l-3.045,3.053c-0.653,0.655-1.006,1.501-1.060,2.363 c-0.031,0.014-0.063,0.029-0.093,0.045L 0.307,12.164c-0.436,0.512-0.404,1.321, 0.071,1.797l 5.598,5.613 c 0.475,0.476, 1.281,0.508, 1.792,0.071l 2.007-3.227c 0.017-0.030, 0.031-0.061, 0.045-0.093c 0.859-0.054, 1.703-0.408, 2.356-1.063 l 0.884-0.887l 15.566,17.191c 0.451,0.498, 1.147,0.579, 1.546,0.178l 1.574-1.578 C 32.145,29.767, 32.065,29.070, 31.568,28.617z"></path></g></svg>