<?xml version="1.0" encoding="utf-8"?> <!-- Generator: IcoMoon.io --> <!DOCTYPE svg PUBLIC "-//W3C//DTD SVG 1.1//EN" "http://www.w3.org/Graphics/SVG/1.1/DTD/svg11.dtd"> <svg width="32" height="32.00006103515625" viewBox="0 0 32 32.00006103515625" xmlns="http://www.w3.org/2000/svg" xmlns:xlink="http://www.w3.org/1999/xlink" fill="#000000"><g><path d="M 6,18.071l0,13.857 c 0.327,0.047, 0.66,0.071, 1,0.071l 1,0 L 8,18 l-1,0 C 6.66,18, 6.327,18.025, 6,18.071zM 24,18l0,14 l 1,0 c 0.34,0, 0.673-0.025, 1-0.071L 26,18.071 c-0.327-0.047-0.66-0.071-1-0.071L 24,18 zM 32,16C 32,7.163, 24.837,0, 16,0S0,7.163,0,16c0,1.919, 0.338,3.76, 0.958,5.465C 0.349,22.502,0,23.71,0,25 c0,2.792, 1.635,5.202, 4,6.326L 4,18.674 c-0.629,0.299-1.206,0.689-1.714,1.153C 2.098,18.914, 2,17.969, 2,17 C 2,9.268, 8.268,3, 16,3s 14,6.268, 14,14c0,0.969-0.098,1.914-0.286,2.827c-0.509-0.464-1.085-0.854-1.714-1.153 l0,12.652 c 2.365-1.124, 4-3.534, 4-6.326c0-1.29-0.349-2.498-0.958-3.535C 31.662,19.76, 32,17.919, 32,16z"></path></g></svg>