<?xml version="1.0" encoding="utf-8"?> <!-- Generator: IcoMoon.io --> <!DOCTYPE svg PUBLIC "-//W3C//DTD SVG 1.1//EN" "http://www.w3.org/Graphics/SVG/1.1/DTD/svg11.dtd"> <svg width="32" height="32" viewBox="0 0 32 32" xmlns="http://www.w3.org/2000/svg" xmlns:xlink="http://www.w3.org/1999/xlink" fill="#000000"><g><path d="M 1.892,0l 2.567,28.801L 15.982,32l 11.554-3.204L 30.108,0L 1.892,0 z M 25.336,26.963L 16.048,29.538l0,0.015 l-0.024-0.007l-0.024,0.007L 15.999,29.538 l-9.288-2.574L 4.516,2.354l 23.015,0 L 25.336,26.963zM 20.336,16.569L 19.928,21.149L 15.992,22.211L 15.984,22.213L 12.050,21.153L 11.799,18.334L 8.252,18.334L 8.747,23.881L 15.984,25.889L 15.987,25.889L 15.992,25.889L 15.999,25.886L 23.229,23.881L 24.199,13.037L 11.325,13.037L 11.003,9.42L 24.507,9.42L 24.52,9.42L 24.836,5.888L 7.141,5.888L 8.094,16.569 z"></path></g></svg>