<?xml version="1.0" encoding="utf-8"?> <!-- Generator: IcoMoon.io --> <!DOCTYPE svg PUBLIC "-//W3C//DTD SVG 1.1//EN" "http://www.w3.org/Graphics/SVG/1.1/DTD/svg11.dtd"> <svg width="32" height="32" viewBox="0 0 32 32" xmlns="http://www.w3.org/2000/svg" xmlns:xlink="http://www.w3.org/1999/xlink" fill="#000000"><g><path d="M 22.944,19.651l 7.377,0 c 0.057-0.512, 0.080-1.034, 0.080-1.569c0-2.507-0.673-4.858-1.848-6.883 c 1.215-3.228, 1.172-5.968-0.455-7.606c-1.547-1.54-5.697-1.29-10.388,0.787c-0.347-0.026-0.697-0.040-1.051-0.040 c-6.439,0-11.841,4.431-13.335,10.402C 5.344,12.156, 7.469,10.281, 10.307,8.916c-0.258,0.242-1.764,1.739-2.018,1.993 C 0.804,18.392-1.557,28.168, 0.984,30.709c 1.931,1.93, 5.43,1.604, 9.449-0.364 c 1.869,0.952, 3.984,1.488, 6.226,1.488c 6.035,0, 11.15-3.885, 13.003-9.295L 22.228,22.538 c-1.023,1.887-3.023,3.171-5.319,3.171c-2.296,0-4.296-1.284-5.319-3.171c-0.455-0.852-0.716-1.83-0.716-2.864l0-0.023 L 22.944,19.651 z M 10.884,16.025c 0.171-3.035, 2.694-5.456, 5.774-5.456c 3.080,0, 5.604,2.421, 5.774,5.456L 10.884,16.025 z M 28.030,5.119 c 1.048,1.059, 1.022,3.007, 0.125,5.438c-1.536-2.341-3.766-4.186-6.4-5.239 C 24.572,4.111, 26.862,3.951, 28.030,5.119z M 2.921,30.227c-1.337-1.337-0.934-4.144, 0.788-7.526 c 1.072,3.008, 3.161,5.534, 5.854,7.161C 6.582,31.215, 4.141,31.445, 2.921,30.227z"></path></g></svg>