<?xml version="1.0" encoding="utf-8"?> <!-- Generator: IcoMoon.io --> <!DOCTYPE svg PUBLIC "-//W3C//DTD SVG 1.1//EN" "http://www.w3.org/Graphics/SVG/1.1/DTD/svg11.dtd"> <svg width="32" height="32" viewBox="0 0 32 32" xmlns="http://www.w3.org/2000/svg" xmlns:xlink="http://www.w3.org/1999/xlink" fill="#000000"><g><path d="M 12,6L 16,6L 16,8L 12,8zM 18,6L 22,6L 22,8L 18,8zM 28,6 L 28,14 L 22,14 L 22,12 L 26,12 L 26,8 L 24,8 L 24,6 ZM 10,12L 14,12L 14,14L 10,14zM 16,12L 20,12L 20,14L 16,14zM 6,8 L 6,12 L 8,12 L 8,14 L 4,14 L 4,6 L 10,6 L 10,8 ZM 12,18L 16,18L 16,20L 12,20zM 18,18L 22,18L 22,20L 18,20zM 28,18 L 28,26 L 22,26 L 22,24 L 26,24 L 26,20 L 24,20 L 24,18 ZM 10,24L 14,24L 14,26L 10,26zM 16,24L 20,24L 20,26L 16,26zM 6,20 L 6,24 L 8,24 L 8,26 L 4,26 L 4,18 L 10,18 L 10,20 ZM 30,2 L 2,2 L 2,30 L 30,30 L 30,2 Z M 32,0 L 32,0 L 32,32 L 0,32 L 0,0 L 32,0 Z"></path></g></svg>