<?xml version="1.0" encoding="utf-8"?> <!-- Generator: IcoMoon.io --> <!DOCTYPE svg PUBLIC "-//W3C//DTD SVG 1.1//EN" "http://www.w3.org/Graphics/SVG/1.1/DTD/svg11.dtd"> <svg width="32.0004997253418" height="32" viewBox="0 0 32.0004997253418 32" xmlns="http://www.w3.org/2000/svg" xmlns:xlink="http://www.w3.org/1999/xlink" fill="#000000"><g><path d="M 8.313,8.646c 1.026-1.026, 2.688-1.026, 3.713-0.001l 0.245,0.246l 3.159-3.161l-0.246-0.246 c-1.801-1.803-4.329-2.434-6.638-1.891C 8.214,1.555, 6.449,0.001, 4.321,0C 1.957,0, 0.041,1.92, 0.041,4.286 c0,2.042, 1.425,3.75, 3.333,4.182c-0.723,2.42-0.133,5.151, 1.776,7.062l 7.12,7.122l 3.156-3.163L 8.307,12.368 C 7.286,11.345, 7.284,9.676, 8.313,8.646zM 31.96,4.286C 31.96,1.919, 30.044,0, 27.679,0c-2.164,0-3.952,1.608-4.24,3.695 c-2.409-0.708-5.118-0.109-7.020,1.794l-7.12,7.122l 3.159,3.162l 7.118-7.12c 1.029-1.030, 2.687-1.028, 3.709-0.006 c 1.025,1.026, 1.025,2.691-0.001,3.717l-0.244,0.245l 3.157,3.164l 0.246-0.248c 1.889-1.893, 2.49-4.586, 1.8-6.989 C 30.341,8.26, 31.96,6.462, 31.96,4.286zM 28.321,23.471c 0.566-2.327-0.062-4.885-1.878-6.703L 19.333,9.643l-3.159,3.16l 7.11,7.125 c 1.029,1.031, 1.027,2.691, 0.006,3.714c-1.025,1.025-2.688,1.025-3.714-0.001l-0.243-0.243l-3.156,3.164l 0.242,0.241 c 1.922,1.925, 4.676,2.514, 7.105,1.765C 23.919,30.527, 25.647,32, 27.72,32C 30.082,32, 32,30.083, 32,27.715 C 32,25.552, 30.401,23.763, 28.321,23.471zM 19.136,16.521L 12.025,23.646c-1.022,1.024-2.689,1.026-3.717-0.004c-1.026-1.028-1.026-2.691-0.001-3.718 l 0.244-0.243l-3.159-3.16l-0.242,0.241c-1.836,1.838-2.455,4.432-1.858,6.781C 1.405,23.989,0,25.688,0,27.715 C-0.001,30.082, 1.917,32, 4.281,32c 2.034-0.001, 3.737-1.419, 4.173-3.324c 2.334,0.58, 4.906-0.041, 6.729-1.867 l 7.109-7.124L 19.136,16.521z"></path></g></svg>