<?xml version="1.0" encoding="utf-8"?> <!-- Generator: IcoMoon.io --> <!DOCTYPE svg PUBLIC "-//W3C//DTD SVG 1.1//EN" "http://www.w3.org/Graphics/SVG/1.1/DTD/svg11.dtd"> <svg width="32" height="32" viewBox="0 0 32 32" xmlns="http://www.w3.org/2000/svg" xmlns:xlink="http://www.w3.org/1999/xlink" fill="#000000"><g><path d="M 26.625,0L 5.375,0 C 2.419,0,0,2.419,0,5.375l0,21.25 c0,2.956, 2.419,5.375, 5.375,5.375l 21.25,0 c 2.956,0, 5.375-2.419, 5.375-5.375L 32,5.375 C 32,2.419, 29.581,0, 26.625,0z M 26.365,25.24c-3.542,1.167-10.458,3.438-11.75,3.76s-2.625,0.865-3.375-1.302c0,0-6.375-18.833-6.958-20.5S 3.13,4.527, 4.448,4 c 3.043-1.215, 6.208-2.766, 6.792-1c 0.522,1.58, 6.083,19, 6.083,19s 6.542-2.302, 8.333-2.802s 2.406-0.833, 2.875,1.625 S 29.906,24.073, 26.365,25.24z"></path></g></svg>