<?xml version="1.0" encoding="utf-8"?> <!-- Generator: IcoMoon.io --> <!DOCTYPE svg PUBLIC "-//W3C//DTD SVG 1.1//EN" "http://www.w3.org/Graphics/SVG/1.1/DTD/svg11.dtd"> <svg width="32" height="32" viewBox="0 0 32 32" xmlns="http://www.w3.org/2000/svg" xmlns:xlink="http://www.w3.org/1999/xlink" fill="#000000"><g><path d="M 16,32c 8.837,0, 16-7.163, 16-16S 24.837,0, 16,0S0,7.163,0,16S 7.163,32, 16,32z M 16,3 c 7.18,0, 13,5.82, 13,13s-5.82,13-13,13S 3,23.18, 3,16S 8.82,3, 16,3zM 8,10c0,1.105, 0.895,2, 2,2s 2-0.895, 2-2s-0.895-2-2-2S 8,8.895, 8,10z M 20,10 c0,1.105, 0.895,2, 2,2s 2-0.895, 2-2s-0.895-2-2-2S 20,8.895, 20,10z M 12,22l 8,0 l0,2 L 12,24 L 12,22 z"></path></g></svg>