<?xml version="1.0" encoding="utf-8"?> <!-- Generator: IcoMoon.io --> <!DOCTYPE svg PUBLIC "-//W3C//DTD SVG 1.1//EN" "http://www.w3.org/Graphics/SVG/1.1/DTD/svg11.dtd"> <svg width="32.795875549316406" height="32" viewBox="0 0 32.795875549316406 32" xmlns="http://www.w3.org/2000/svg" xmlns:xlink="http://www.w3.org/1999/xlink" fill="#000000"><g><path d="M 20.261,2c 0.885,0, 1.779,0.181, 2.583,0.524c 0.846,0.361, 1.541,0.873, 2.066,1.521 c 1.050,1.298, 1.345,3.067, 0.877,5.257c-0.51,2.387-1.7,4.374-3.442,5.746c-1.699,1.338-3.844,2.045-6.203,2.045 l-5.883,0 l-1.618,0 l-0.338,1.583L 6.621,26.553L 5.187,26.553 l-0.436,0 L 2.483,26.553 L 7.832,2L 20.261,2 M 8.931,15.625l 2.502,0 l 3.867,0 c 1.482,0, 2.984-0.568, 4.229-1.599c 1.213-1.005, 2.071-2.36, 2.419-3.819c 0.434-1.641, 0.145-3.286-0.797-4.517 c-0.912-1.192-2.34-1.875-3.917-1.875l-4.035,0 l-1.598,0 l-0.352,1.559l-1.765,7.81L 8.931,15.625 M 20.261,0L 6.221,0 L0,28.553l 4.751,0 L 4,32l 8.239,0 l 2.018-9.46l 5.883,0 c 5.633,0, 10.342-3.471, 11.602-9.373 c 1.054-4.928-1.275-7.873-4.222-9.080c 0.803,0.393, 1.503,0.953, 2.016,1.64c 1.079,1.447, 1.382,3.418, 0.901,5.858 c-0.486,2.47-1.575,4.554-3.161,6.064c-0.29,0.303-0.601,0.586-0.931,0.846c-1.699,1.338-3.844,2.045-6.203,2.045 l-0.379,0 L 12.639,20.54 L 10.621,30l-4.138,0 l 0.315-1.447l 1.442,0 l 2.018-9.46l 5.883,0 c 5.633,0, 10.342-3.471, 11.602-9.373 C 29.171,3.038, 24.38,0, 20.261,0L 20.261,0z M 11.433,13.625l 1.765-7.81l 4.035,0 c 2.018,0, 3.363,1.736, 2.775,3.905 c-0.504,2.17-2.606,3.905-4.707,3.905L 11.433,13.625 L 11.433,13.625z"></path></g></svg>