<?xml version="1.0" encoding="utf-8"?> <!-- Generator: IcoMoon.io --> <!DOCTYPE svg PUBLIC "-//W3C//DTD SVG 1.1//EN" "http://www.w3.org/Graphics/SVG/1.1/DTD/svg11.dtd"> <svg width="32.000125885009766" height="32" viewBox="0 0 32.000125885009766 32" xmlns="http://www.w3.org/2000/svg" xmlns:xlink="http://www.w3.org/1999/xlink" fill="#000000"><g><path d="M 30,9L 23,2L 25,0L 32,7zM 28,11 L 27,22 C 18,22 5,32 5,32 L 3.34,30.34 L 11.892,21.788 C 12.235,21.924 12.608,22 13,22 C 14.657,22 16,20.657 16,19 C 16,17.343 14.657,16 13,16 C 11.343,16 10,17.343 10,19 C 10,19.392 10.076,19.765 10.212,20.108 L 1.66,28.66 L 0,27 C 0,27 10,14 10,5 L 21,4 L 28,11 Z"></path></g></svg>