<?xml version="1.0" encoding="utf-8"?> <!-- Generator: IcoMoon.io --> <!DOCTYPE svg PUBLIC "-//W3C//DTD SVG 1.1//EN" "http://www.w3.org/Graphics/SVG/1.1/DTD/svg11.dtd"> <svg width="32" height="32" viewBox="0 0 32 32" xmlns="http://www.w3.org/2000/svg" xmlns:xlink="http://www.w3.org/1999/xlink" fill="#000000"><g><path d="M 26.668,0L 5.334,0 C 2.4,0,0,2.4,0,5.334l0,21.332 C0,29.602, 2.4,32, 5.334,32l 21.334,0 C 29.601,32, 32,29.601, 32,26.666L 32,5.334 C 32,2.4, 29.601,0, 26.668,0z M 16,2c 2.147,0, 4.181,0.484, 6,1.348L 22,12.321 L 12.201,2.522C 13.409,2.182, 14.683,2, 16,2z M 2,16c0-5.497, 3.168-10.252, 7.777-12.543L 13.321,7L 2.165,18.155 C 2.057,17.453, 2,16.733, 2,16z M 8,27.489c-2.334-1.628-4.149-3.948-5.146-6.664L 8,15.679L 8,27.489 z M 16,30 c-2.147,0-4.181-0.484-6-1.348L 10,24 l 17.489,0 C 24.96,27.627, 20.757,30, 16,30z M 28.652,22L 24,22 L 24,4.511 c 3.627,2.53, 6,6.732, 6,11.489C 30,18.147, 29.516,20.181, 28.652,22z"></path></g></svg>