<?xml version="1.0" encoding="utf-8"?> <!-- Generator: IcoMoon.io --> <!DOCTYPE svg PUBLIC "-//W3C//DTD SVG 1.1//EN" "http://www.w3.org/Graphics/SVG/1.1/DTD/svg11.dtd"> <svg width="32" height="32" viewBox="0 0 32 32" xmlns="http://www.w3.org/2000/svg" xmlns:xlink="http://www.w3.org/1999/xlink" fill="#000000"><g><path d="M 10,2 L 2,2 L 2,10 L 10,10 L 10,2 Z M 12,0 L 12,0 L 12,12 L 0,12 L 0,0 L 12,0 ZM 4,4L 8,4L 8,8L 4,8zM 30,2 L 22,2 L 22,10 L 30,10 L 30,2 Z M 32,0 L 32,0 L 32,12 L 20,12 L 20,0 L 32,0 ZM 24,4L 28,4L 28,8L 24,8zM 10,22 L 2,22 L 2,30 L 10,30 L 10,22 Z M 12,20 L 12,20 L 12,32 L 0,32 L 0,20 L 12,20 ZM 4,24L 8,24L 8,28L 4,28zM 14,0L 16,0L 16,2L 14,2zM 16,2L 18,2L 18,4L 16,4zM 14,4L 16,4L 16,6L 14,6zM 16,6L 18,6L 18,8L 16,8zM 14,8L 16,8L 16,10L 14,10zM 16,10L 18,10L 18,12L 16,12zM 14,12L 16,12L 16,14L 14,14zM 14,16L 16,16L 16,18L 14,18zM 16,18L 18,18L 18,20L 16,20zM 14,20L 16,20L 16,22L 14,22zM 16,22L 18,22L 18,24L 16,24zM 14,24L 16,24L 16,26L 14,26zM 16,26L 18,26L 18,28L 16,28zM 14,28L 16,28L 16,30L 14,30zM 16,30L 18,30L 18,32L 16,32zM 30,16L 32,16L 32,18L 30,18zM 2,16L 4,16L 4,18L 2,18zM 4,14L 6,14L 6,16L 4,16zM0,14L 2,14L 2,16L0,16zM 8,14L 10,14L 10,16L 8,16zM 10,16L 12,16L 12,18L 10,18zM 12,14L 14,14L 14,16L 12,16zM 18,16L 20,16L 20,18L 18,18zM 20,14L 22,14L 22,16L 20,16zM 22,16L 24,16L 24,18L 22,18zM 24,14L 26,14L 26,16L 24,16zM 26,16L 28,16L 28,18L 26,18zM 28,14L 30,14L 30,16L 28,16zM 30,20L 32,20L 32,22L 30,22zM 18,20L 20,20L 20,22L 18,22zM 20,18L 22,18L 22,20L 20,20zM 22,20L 24,20L 24,22L 22,22zM 26,20L 28,20L 28,22L 26,22zM 28,18L 30,18L 30,20L 28,20zM 30,24L 32,24L 32,26L 30,26zM 18,24L 20,24L 20,26L 18,26zM 20,22L 22,22L 22,24L 20,24zM 24,22L 26,22L 26,24L 24,24zM 26,24L 28,24L 28,26L 26,26zM 28,22L 30,22L 30,24L 28,24zM 30,28L 32,28L 32,30L 30,30zM 20,26L 22,26L 22,28L 20,28zM 22,28L 24,28L 24,30L 22,30zM 24,26L 26,26L 26,28L 24,28zM 26,28L 28,28L 28,30L 26,30zM 20,30L 22,30L 22,32L 20,32zM 24,30L 26,30L 26,32L 24,32zM 28,30L 30,30L 30,32L 28,32z"></path></g></svg>