<?xml version="1.0" encoding="utf-8"?> <!-- Generator: IcoMoon.io --> <!DOCTYPE svg PUBLIC "-//W3C//DTD SVG 1.1//EN" "http://www.w3.org/Graphics/SVG/1.1/DTD/svg11.dtd"> <svg width="32" height="32" viewBox="0 0 32 32" xmlns="http://www.w3.org/2000/svg" xmlns:xlink="http://www.w3.org/1999/xlink" fill="#000000"><g><path d="M 16,32c 8.837,0, 16-7.163, 16-16S 24.837,0, 16,0S0,7.163,0,16S 7.163,32, 16,32z M 16,3 c 7.18,0, 13,5.82, 13,13s-5.82,13-13,13S 3,23.18, 3,16S 8.82,3, 16,3zM 12,22 C 12,19.791 13.791,18 16,18 C 18.209,18 20,19.791 20,22 C 20,24.209 18.209,26 16,26 C 13.791,26 12,24.209 12,22 ZM 20,11A2,3 2520 1 0 24,11A2,3 2520 1 0 20,11zM 8,11A2,3 2520 1 0 12,11A2,3 2520 1 0 8,11z"></path></g></svg>