<?xml version="1.0" encoding="utf-8"?> <!-- Generator: IcoMoon.io --> <!DOCTYPE svg PUBLIC "-//W3C//DTD SVG 1.1//EN" "http://www.w3.org/Graphics/SVG/1.1/DTD/svg11.dtd"> <svg width="32" height="32" viewBox="0 0 32 32" xmlns="http://www.w3.org/2000/svg" xmlns:xlink="http://www.w3.org/1999/xlink" fill="#000000"><g><path d="M 16,0C 7.163,0,0,7.163,0,16s 7.163,16, 16,16s 16-7.163, 16-16S 24.837,0, 16,0z M 16,8 c 4.418,0, 8,3.582, 8,8s-3.582,8-8,8s-8-3.582-8-8S 11.582,8, 16,8z M 25.546,25.546 C 22.996,28.096, 19.606,29.5, 16,29.5c-3.606,0-6.996-1.404-9.546-3.954C 3.904,22.996, 2.5,19.606, 2.5,16 c0-3.606, 1.404-6.996, 3.954-9.546l 2.121,2.121c0,0,0,0,0,0c-4.094,4.094-4.094,10.755,0,14.849 C 10.559,25.408, 13.195,26.5, 16,26.5c 2.805,0, 5.441-1.092, 7.425-3.075c 4.094-4.094, 4.094-10.755,0-14.849l 2.121-2.121 C 28.096,9.004, 29.5,12.394, 29.5,16C 29.5,19.606, 28.096,22.996, 25.546,25.546z"></path></g></svg>