<?xml version="1.0" encoding="utf-8"?> <!-- Generator: IcoMoon.io --> <!DOCTYPE svg PUBLIC "-//W3C//DTD SVG 1.1//EN" "http://www.w3.org/Graphics/SVG/1.1/DTD/svg11.dtd"> <svg width="32" height="32" viewBox="0 0 32 32" xmlns="http://www.w3.org/2000/svg" xmlns:xlink="http://www.w3.org/1999/xlink" fill="#000000"><g><path d="M 16,6.038L 16,4 l 4,0 L 20,2 c0-1.105-0.895-2-2-2l-6,0 c-1.105,0-2,0.895-2,2l0,2 l 4,0 l0,2.038 c-6.712,0.511-12,6.119-12,12.962c0,7.18, 5.82,13, 13,13c 7.18,0, 13-5.82, 13-13 C 28,12.157, 22.712,6.548, 16,6.038z M 22.071,26.071C 20.182,27.96, 17.671,29, 15,29 s-5.182-1.040-7.071-2.929C 6.040,24.182, 5,21.671, 5,19s 1.040-5.182, 2.929-7.071 c 1.814-1.814, 4.202-2.844, 6.754-2.923l-0.677,9.813C 13.947,19.64, 14.395,20, 15,20 c 0.605,0, 1.053-0.36, 0.995-1.181L 15.318,9.005c 2.552,0.079, 4.94,1.11, 6.754,2.923 c 1.889,1.889, 2.929,4.4, 2.929,7.071S 23.96,24.182, 22.071,26.071z"></path></g></svg>