<?xml version="1.0" encoding="utf-8"?> <!-- Generator: IcoMoon.io --> <!DOCTYPE svg PUBLIC "-//W3C//DTD SVG 1.1//EN" "http://www.w3.org/Graphics/SVG/1.1/DTD/svg11.dtd"> <svg width="32" height="32" viewBox="0 0 32 32" xmlns="http://www.w3.org/2000/svg" xmlns:xlink="http://www.w3.org/1999/xlink" fill="#000000"><g><path d="M 26.625,0L 5.375,0 C 2.419,0,0,2.419,0,5.375l0,21.25 c0,2.956, 2.419,5.375, 5.375,5.375l 21.25,0 c 2.956,0, 5.375-2.419, 5.375-5.375L 32,5.375 C 32,2.419, 29.581,0, 26.625,0z M 16,10 c-1.103,0-2,0.897-2,2l0,8 c0,3.308-2.692,6-6,6s-6-2.692-6-6l0-4 l 4,0 l0,4 c0,1.103, 0.897,2, 2,2s 2-0.897, 2-2L 10,12 c0-3.308, 2.692-6, 6-6c 3.308,0, 6,2.692, 6,5.563l0,1.938 l-2.563,0.75l-1.438-0.75l0-1.938 C 18,10.897, 17.103,10, 16,10z M 30,20 c0,3.308-2.692,6-6,6s-6-2.692-6-6.438l0-3.875 l 1.438,0.75l 2.563-0.75l0,3.875 c0,1.54, 0.897,2.438, 2,2.438s 2-0.897, 2-2l0-4 l 4,0 L 30,20 z"></path></g></svg>