<?xml version="1.0" encoding="utf-8"?> <!-- Generator: IcoMoon.io --> <!DOCTYPE svg PUBLIC "-//W3C//DTD SVG 1.1//EN" "http://www.w3.org/Graphics/SVG/1.1/DTD/svg11.dtd"> <svg width="32" height="32" viewBox="0 0 32 32" xmlns="http://www.w3.org/2000/svg" xmlns:xlink="http://www.w3.org/1999/xlink" fill="#000000"><g><path d="M 16,0C 7.163,0,0,7.163,0,16s 7.163,16, 16,16s 16-7.163, 16-16S 24.837,0, 16,0z M 16,8 c-1.103,0-2,0.897-2,2l0,8 c0,3.308-2.692,6-6,6s-6-2.692-6-6l0-4 l 4,0 l0,4 c0,1.103, 0.897,2, 2,2s 2-0.897, 2-2L 10,10 c0-3.308, 2.692-6, 6-6s 6,2.692, 6,5.563l0,1.938 l-2.563,0.75l-1.438-0.75l0-1.938 C 18,8.897, 17.103,8, 16,8z M 24,24 c-3.308,0-6-2.692-6-6.438l0-3.875 l 1.438,0.75l 2.563-0.75l0,3.875 c0,1.54, 0.897,2.438, 2,2.438s 2-0.897, 2-2l0-4 l 4,0 l0,4 C 30,21.308, 27.308,24, 24,24z"></path></g></svg>