<?xml version="1.0" encoding="utf-8"?> <!-- Generator: IcoMoon.io --> <!DOCTYPE svg PUBLIC "-//W3C//DTD SVG 1.1//EN" "http://www.w3.org/Graphics/SVG/1.1/DTD/svg11.dtd"> <svg width="32" height="32" viewBox="0 0 32 32" xmlns="http://www.w3.org/2000/svg" xmlns:xlink="http://www.w3.org/1999/xlink" fill="#000000"><g><path d="M0,2l0,28 l 32,0 L 32,2 L0,2 z M 12,20l0-6 l 8,0 l0,6 L 12,20 z M 20,22l0,6 L 12,28 l0-6 L 20,22 z M 20,6l0,6 L 12,12 L 12,6 L 20,6 z M 10,6l0,6 L 2,12 L 2,6 L 10,6 z M 2,14l 8,0 l0,6 L 2,20 L 2,14 z M 22,14l 8,0 l0,6 L 22,20 L 22,14 z M 22,12L 22,6 l 8,0 l0,6 L 22,12 z M 2,22l 8,0 l0,6 L 2,28 L 2,22 z M 22,28l0-6 l 8,0 l0,6 L 22,28 z"></path></g></svg>