<?xml version="1.0" encoding="utf-8"?> <!-- Generator: IcoMoon.io --> <!DOCTYPE svg PUBLIC "-//W3C//DTD SVG 1.1//EN" "http://www.w3.org/Graphics/SVG/1.1/DTD/svg11.dtd"> <svg width="32" height="32" viewBox="0 0 32 32" xmlns="http://www.w3.org/2000/svg" xmlns:xlink="http://www.w3.org/1999/xlink" fill="#000000"><g><path d="M 16,0C 7.163,0,0,7.163,0,16s 7.163,16, 16,16s 16-7.163, 16-16S 24.837,0, 16,0z M 10.796,20.013l-2.892,0 c-0.174,0-0.304-0.078-0.378-0.197c-0.076-0.123-0.080-0.283,0-0.443l 3.073-5.408c 0.003-0.006, 0.003-0.010,0-0.016l-1.955-3.376 c-0.081-0.161-0.093-0.319-0.016-0.442c 0.074-0.119, 0.22-0.18, 0.394-0.18l 2.892,0 c 0.444,0, 0.661,0.285, 0.805,0.541 c0,0, 1.976,3.439, 1.988,3.458c-0.117,0.206-3.122,5.507-3.122,5.507C 11.437,19.722, 11.229,20.013, 10.796,20.013z M 24.47,6.629L 18.068,17.921c-0.004,0.006-0.004,0.013,0,0.019l 4.077,7.43c 0.081,0.16, 0.083,0.323, 0.006,0.446 c-0.074,0.119-0.21,0.184-0.384,0.184l-2.889,0 c-0.443,0-0.665-0.294-0.808-0.549c0,0-4.098-7.5-4.109-7.519 c 0.205-0.362, 6.435-11.382, 6.435-11.382c 0.155-0.278, 0.342-0.549, 0.774-0.549l 2.921,0 c 0.174,0, 0.311,0.066, 0.385,0.184 C 24.553,6.308, 24.551,6.47, 24.47,6.629z"></path></g></svg>