<?xml version="1.0" encoding="utf-8"?> <!-- Generator: IcoMoon.io --> <!DOCTYPE svg PUBLIC "-//W3C//DTD SVG 1.1//EN" "http://www.w3.org/Graphics/SVG/1.1/DTD/svg11.dtd"> <svg width="32" height="32" viewBox="0 0 32 32" xmlns="http://www.w3.org/2000/svg" xmlns:xlink="http://www.w3.org/1999/xlink" fill="#000000"><g><path d="M 26.667,0L 5.334,0 C 2.4,0,0,2.4,0,5.334l0,21.332 C0,29.602, 2.4,32, 5.334,32l 21.333,0 C 29.601,32, 32,29.602, 32,26.666L 32,5.334 C 32,2.4, 29.601,0, 26.667,0z M 9.743,20.837l-3.477,0 c-0.209,0-0.366-0.094-0.454-0.237c-0.092-0.149-0.096-0.342,0-0.533l 3.694-6.52c 0.004-0.007, 0.004-0.012,0-0.020l-2.351-4.070 c-0.097-0.194-0.111-0.385-0.020-0.533c 0.089-0.144, 0.265-0.217, 0.474-0.217l 3.477,0 c 0.533,0, 0.795,0.344, 0.968,0.652 c0,0, 2.376,4.146, 2.391,4.168c-0.141,0.248-3.754,6.638-3.754,6.638C 10.514,20.486, 10.263,20.837, 9.743,20.837z M 26.185,4.704L 18.486,18.316c-0.005,0.007-0.005,0.016,0,0.023l 4.902,8.956c 0.097,0.193, 0.1,0.389, 0.007,0.537 c-0.088,0.143-0.252,0.222-0.461,0.222l-3.473,0 c-0.533,0-0.799-0.354-0.971-0.662c0,0-4.928-9.040-4.941-9.064 c 0.246-0.436, 7.737-13.72, 7.737-13.72c 0.186-0.335, 0.412-0.662, 0.931-0.662l 3.513,0 c 0.209,0, 0.374,0.079, 0.462,0.222 C 26.284,4.316, 26.281,4.512, 26.185,4.704z"></path></g></svg>