<?xml version="1.0" encoding="utf-8"?> <!-- Generator: IcoMoon.io --> <!DOCTYPE svg PUBLIC "-//W3C//DTD SVG 1.1//EN" "http://www.w3.org/Graphics/SVG/1.1/DTD/svg11.dtd"> <svg width="32" height="32" viewBox="0 0 32 32" xmlns="http://www.w3.org/2000/svg" xmlns:xlink="http://www.w3.org/1999/xlink" fill="#000000"><g><path d="M 26,4L 6,4 c-3.3,0-6,2.7-6,6l0,12 c0,3.3, 2.7,6, 6,6l 20,0 c 3.3,0, 6-2.7, 6-6L 32,10 C 32,6.7, 29.3,4, 26,4z M 30,22c0,1.062-0.418,2.064-1.177,2.823C 28.064,25.582, 27.062,26, 26,26L 6,26 c-1.062,0-2.064-0.418-2.823-1.177 C 2.418,24.064, 2,23.062, 2,22L 2,10 c0-1.062, 0.418-2.064, 1.177-2.823S 4.938,6, 6,6l 20,0 c 1.062,0, 2.064,0.418, 2.823,1.177C 29.582,7.936, 30,8.938, 30,10L 30,22 zM 12,24L 22,16L 12,8 z"></path></g></svg>